<svg width="24" height="24" viewBox="0 0 28 28" fill="none" xmlns="http://www.w3.org/2000/svg">
<path d="M0 8C0 3.58172 3.58172 0 8 0H20C24.4183 0 28 3.58172 28 8V20C28 24.4183 24.4183 28 20 28H8C3.58172 28 0 24.4183 0 20V8Z" fill="#3086EE"/>
<path d="M12.0938 19.1406H15.9033" stroke="white" stroke-width="1.5" stroke-linecap="round" stroke-linejoin="round"/>
<path d="M14 16.7578V19.1388" stroke="white" stroke-width="1.5" stroke-linecap="round" stroke-linejoin="round"/>
<path d="M9.83203 13.4271H9.23679C8.73162 13.4271 8.24714 13.2264 7.88992 12.8692C7.53271 12.512 7.33203 12.0275 7.33203 11.5223V10.5699C7.33203 10.4436 7.3822 10.3225 7.4715 10.2332C7.56081 10.1439 7.68193 10.0938 7.80822 10.0938H9.71298" stroke="white" stroke-width="1.5" stroke-linecap="round" stroke-linejoin="round"/>
<path d="M18.1641 13.4271H18.7593C19.2645 13.4271 19.749 13.2264 20.1062 12.8692C20.4634 12.512 20.6641 12.0275 20.6641 11.5223V10.5699C20.6641 10.4436 20.6139 10.3225 20.5246 10.2332C20.4353 10.1439 20.3142 10.0938 20.1879 10.0938H18.2831" stroke="white" stroke-width="1.5" stroke-linecap="round" stroke-linejoin="round"/>
<path d="M9.71484 8.66406H18.2863V12.42C18.2863 14.7831 16.3964 16.7414 14.0333 16.7593C13.4677 16.7636 12.9069 16.656 12.3832 16.4425C11.8594 16.2291 11.3831 15.9141 10.9817 15.5157C10.5802 15.1173 10.2616 14.6434 10.0442 14.1213C9.82676 13.5991 9.71483 13.0392 9.71484 12.4736V8.66406Z" stroke="white" stroke-width="1.5" stroke-linecap="round" stroke-linejoin="round"/>
</svg>
