<svg width="16" height="17" viewBox="0 0 16 17" fill="none" xmlns="http://www.w3.org/2000/svg">
<path d="M13.11 11.7777C12.9265 12.2291 12.6987 12.6612 12.43 13.0677C12.071 13.6047 11.778 13.9767 11.552 14.1827C11.202 14.5227 10.827 14.6957 10.425 14.7057C10.137 14.7057 9.78899 14.6187 9.38399 14.4437C8.97799 14.2687 8.60399 14.1837 8.26299 14.1837C7.90499 14.1837 7.52099 14.2697 7.10999 14.4437C6.69899 14.6187 6.36799 14.7107 6.11399 14.7197C5.72899 14.7367 5.34499 14.5577 4.96199 14.1827C4.71699 13.9577 4.41099 13.5727 4.04399 13.0277C3.62849 12.3991 3.30205 11.7159 3.07399 10.9977C2.8115 10.2186 2.67413 9.4028 2.66699 8.5807C2.66699 7.6867 2.84999 6.9167 3.21699 6.2707C3.48979 5.76903 3.88723 5.34611 4.37099 5.0427C4.85099 4.7427 5.37099 4.5887 5.93099 4.5787C6.23599 4.5787 6.63799 4.67869 7.13599 4.8747C7.63399 5.0707 7.95299 5.1707 8.09299 5.1707C8.19799 5.1707 8.55299 5.0537 9.15299 4.8217C9.72299 4.6067 10.203 4.5167 10.595 4.5517C11.661 4.6427 12.461 5.0847 12.994 5.8817C12.041 6.4897 11.569 7.3417 11.579 8.4337C11.587 9.2837 11.88 9.9917 12.457 10.5537C12.717 10.8147 13.009 11.0167 13.334 11.1597C13.264 11.3747 13.189 11.5797 13.11 11.7777ZM10.667 1.6537C10.667 2.3207 10.435 2.9437 9.97399 3.5197C9.41699 4.2047 8.74399 4.5997 8.01399 4.5377C8.00447 4.45404 7.9998 4.36989 7.99999 4.2857C7.99999 3.6457 8.26399 2.9607 8.73399 2.3997C8.96899 2.1167 9.26699 1.8807 9.62899 1.6927C9.98999 1.5077 10.332 1.4047 10.653 1.3877C10.663 1.4767 10.667 1.5657 10.667 1.6537Z" fill="white"/>
</svg>
