<svg width="22" height="22" viewBox="0 0 22 22" fill="none" xmlns="http://www.w3.org/2000/svg">
<g clip-path="url(#clip0_7490_34877)">
<path d="M7.96555 18.5625H4.125C3.94266 18.5625 3.7678 18.4901 3.63886 18.3611C3.50993 18.2322 3.4375 18.0573 3.4375 17.875V14.0344C3.43758 13.8523 3.50991 13.6777 3.63859 13.5489L14.2364 2.95108C14.3653 2.82225 14.5401 2.74988 14.7224 2.74988C14.9046 2.74988 15.0794 2.82225 15.2084 2.95108L19.0489 6.78905C19.1777 6.91797 19.2501 7.09277 19.2501 7.27503C19.2501 7.45729 19.1777 7.63209 19.0489 7.761L8.45109 18.3614C8.32226 18.4901 8.14764 18.5624 7.96555 18.5625Z" stroke="#012635" stroke-width="1.5" stroke-linecap="round" stroke-linejoin="round"/>
<path d="M11.6875 5.5L16.5 10.3125" stroke="#012635" stroke-width="1.5" stroke-linecap="round" stroke-linejoin="round"/>
</g>
<defs>
<clipPath id="clip0_7490_34877">
<rect width="22" height="22" fill="white"/>
</clipPath>
</defs>
</svg>
