<svg width="1512" height="817" viewBox="0 0 1512 817" fill="none" xmlns="http://www.w3.org/2000/svg">
<g clip-path="url(#clip0_33_2243)">
<path d="M-944.706 967.875C-928.598 1057.96 -883.334 1198 -818.186 1350.35C-753.038 1502.69 -683.047 1632.17 -629.04 1706.04C-524.79 1854.81 -340.829 1928.4 -162.458 1892.69C-72.2607 1876.5 67.9823 1831.13 220.561 1765.88C373.139 1700.63 502.824 1630.57 576.839 1576.54C725.875 1472.24 799.746 1288.39 764.2 1110.25C748.092 1020.16 702.828 880.117 637.68 727.771C572.531 575.426 502.541 445.955 448.534 372.077C344.283 223.314 160.323 149.724 -18.0477 185.429C-108.245 201.62 -248.488 246.991 -401.067 312.239C-553.645 377.487 -683.33 447.546 -757.345 501.578C-906.381 605.883 -980.253 789.731 -944.706 967.875Z" fill="url(#paint0_radial_33_2243)"/>
<path d="M-376.459 1151.43C-360.351 1241.51 -315.087 1381.56 -249.939 1533.9C-184.791 1686.25 -114.8 1815.72 -60.7929 1889.6C43.4571 2038.36 227.418 2111.95 405.789 2076.25C495.986 2060.05 636.229 2014.68 788.808 1949.44C941.386 1884.19 1071.07 1814.13 1145.09 1760.1C1294.12 1655.79 1367.99 1471.94 1332.45 1293.8C1316.34 1203.72 1271.07 1063.67 1205.93 911.325C1140.78 758.979 1070.79 629.508 1016.78 555.631C912.531 406.867 728.57 333.277 550.199 368.983C460.002 385.174 319.759 430.545 167.18 495.793C14.6021 561.04 -115.083 631.1 -189.098 685.132C-338.134 789.437 -412.005 973.284 -376.459 1151.43Z" fill="url(#paint1_radial_33_2243)"/>
<path d="M228.635 1345.68C244.743 1435.76 290.007 1575.81 355.155 1728.15C420.303 1880.5 490.294 2009.97 544.301 2083.85C648.551 2232.61 832.512 2306.2 1010.88 2270.5C1101.08 2254.31 1241.32 2208.94 1393.9 2143.69C1546.48 2078.44 1676.17 2008.38 1750.18 1954.35C1899.22 1850.04 1973.09 1666.2 1937.54 1488.05C1921.43 1397.97 1876.17 1257.92 1811.02 1105.58C1745.87 953.231 1675.88 823.76 1621.87 749.883C1517.62 601.119 1333.66 527.529 1155.29 563.235C1065.1 579.426 924.853 624.797 772.274 690.045C619.695 755.292 490.01 825.352 415.995 879.384C266.959 983.689 193.088 1167.54 228.635 1345.68Z" fill="url(#paint2_radial_33_2243)"/>
</g>
<defs>
<radialGradient id="paint0_radial_33_2243" cx="0" cy="0" r="1" gradientUnits="userSpaceOnUse" gradientTransform="translate(2440.55 2222.45) rotate(-148.36) scale(3517.01 4331.24)">
<stop offset="0.531" stop-color="#02141C"/>
<stop offset="0.776" stop-color="#032330"/>
<stop offset="1" stop-color="#073F56"/>
</radialGradient>
<radialGradient id="paint1_radial_33_2243" cx="0" cy="0" r="1" gradientUnits="userSpaceOnUse" gradientTransform="translate(3008.8 2406) rotate(-148.36) scale(3517.01 4331.24)">
<stop offset="0.531" stop-color="#02141C"/>
<stop offset="0.776" stop-color="#032330"/>
<stop offset="1" stop-color="#073F56"/>
</radialGradient>
<radialGradient id="paint2_radial_33_2243" cx="0" cy="0" r="1" gradientUnits="userSpaceOnUse" gradientTransform="translate(3613.89 2600.25) rotate(-148.36) scale(3517.01 4331.24)">
<stop offset="0.531" stop-color="#02141C"/>
<stop offset="0.776" stop-color="#032330"/>
<stop offset="1" stop-color="#073F56"/>
</radialGradient>
<clipPath id="clip0_33_2243">
<rect width="1512" height="816" fill="white" transform="translate(0 0.950195)"/>
</clipPath>
</defs>
</svg>
