<svg width="80" height="80" viewBox="0 0 80 80" fill="none" xmlns="http://www.w3.org/2000/svg">
<g clip-path="url(#clip0_54_1251)">
<g clip-path="url(#clip1_54_1251)">
<g clip-path="url(#clip2_54_1251)">
<path fill-rule="evenodd" clip-rule="evenodd" d="M40 0C48.3842 0 55.8005 0.67937 60.3122 1.72063C69.3078 3.60829 76.3917 10.6922 78.2794 19.6878C79.3206 24.1995 80 31.6158 80 40C80 48.3842 79.3206 55.8005 78.2794 60.3122C76.3917 69.3078 69.3078 76.3917 60.3122 78.2794C55.8005 79.3206 48.3842 80 40 80C31.6158 80 24.1995 79.3206 19.6878 78.2794C10.6922 76.3917 3.60829 69.3078 1.72063 60.3122C0.67937 55.8005 0 48.3842 0 40C0 31.6158 0.67937 24.1995 1.72063 19.6878C3.60829 10.6922 10.6922 3.60829 19.6878 1.72063C24.1995 0.67937 31.6158 0 40 0Z" fill="#005ABB"/>
<g clip-path="url(#clip3_54_1251)">
<path d="M37.2732 30.5227C37.7889 30.0698 38.3301 29.6425 38.817 29.1609C40.8589 27.1438 42.8753 25.1011 44.9173 23.0824C47.8309 20.2041 51.3049 19.2617 55.1653 20.5948C59.0225 21.9263 61.3486 24.7646 61.9042 28.8308C62.3145 31.8303 61.4236 34.5347 59.2939 36.7209C56.4936 39.5959 53.6614 42.4406 50.7765 45.2296C46.4116 49.4504 39.3359 48.6882 35.8539 43.6892C35.5809 43.2969 35.5218 43.0258 35.9162 42.683C36.3759 42.2828 36.7799 41.8172 37.2237 41.3978C38.3253 40.3549 39.5562 40.323 40.7137 41.3356C41.9749 42.439 43.4102 42.9987 45.0466 42.5172C45.856 42.2796 46.7022 41.8538 47.3041 41.275C50.0261 38.6615 52.6891 35.9858 55.3313 33.2909C57.1721 31.4141 57.1338 28.5103 55.3201 26.6941C53.5145 24.8858 50.6072 24.8667 48.7154 26.6941C47.1859 28.1707 45.7107 29.7031 44.1845 31.1829C43.9769 31.3838 43.5475 31.5911 43.3272 31.5113C41.5167 30.8464 39.6584 30.6806 37.7537 30.8002C37.6548 30.8065 37.5526 30.7794 37.452 30.7667C37.3929 30.6853 37.3354 30.6024 37.2764 30.5211L37.2732 30.5227Z" fill="white"/>
<path d="M45.724 50.2189C45.4494 50.5298 45.2913 50.7276 45.1125 50.9078C42.7816 53.239 40.4555 55.5719 38.115 57.8936C35.211 60.7767 31.7449 61.7382 27.8766 60.4195C24.013 59.1023 21.6821 56.272 21.1058 52.2089C20.6843 49.2414 21.5353 46.5418 23.6347 44.37C26.4972 41.4088 29.3965 38.4764 32.3788 35.638C36.6909 31.5351 43.8241 32.4074 47.1784 37.3426C47.4706 37.7732 47.4163 38.0283 47.0619 38.344C46.6659 38.6964 46.3083 39.0935 45.9283 39.465C44.6942 40.6721 43.516 40.7104 42.2021 39.5878C40.4316 38.0761 38.2076 37.8928 36.3908 39.1206C36.1274 39.2976 35.8799 39.5065 35.6548 39.7297C32.9982 42.3735 30.3225 44.9966 27.7042 47.6787C25.1003 50.3465 26.3312 54.6837 29.9249 55.5305C31.5869 55.9227 33.0908 55.5018 34.3233 54.2819C35.816 52.8053 37.3088 51.3271 38.7744 49.825C39.1384 49.4519 39.4481 49.3483 39.9558 49.5444C41.4629 50.1296 43.0435 50.3002 44.6543 50.2205C44.9593 50.2061 45.2658 50.2189 45.724 50.2189Z" fill="white"/>
</g>
</g>
</g>
</g>
<defs>
<clipPath id="clip0_54_1251">
<rect width="80" height="80" fill="white"/>
</clipPath>
<clipPath id="clip1_54_1251">
<rect width="80" height="80" fill="white"/>
</clipPath>
<clipPath id="clip2_54_1251">
<rect width="80" height="80" fill="white"/>
</clipPath>
<clipPath id="clip3_54_1251">
<rect width="41" height="41" fill="white" transform="translate(21 20)"/>
</clipPath>
</defs>
</svg>
