<svg width="22" height="22" viewBox="0 0 22 22" fill="none" xmlns="http://www.w3.org/2000/svg">
<path d="M16.1723 9.23517C16.9858 9.23517 17.6453 8.57566 17.6453 7.76212C17.6453 6.94857 16.9858 6.28906 16.1723 6.28906C15.3587 6.28906 14.6992 6.94857 14.6992 7.76212C14.6992 8.57566 15.3587 9.23517 16.1723 9.23517Z" stroke="#FFC000" stroke-width="1.5" stroke-linecap="round" stroke-linejoin="round"/>
<path d="M9.39648 13.3577V8.05469" stroke="#FFC000" stroke-width="1.5" stroke-linecap="round" stroke-linejoin="round"/>
<path d="M9.39657 16.8947C10.3728 16.8947 11.1642 16.1033 11.1642 15.127C11.1642 14.1508 10.3728 13.3594 9.39657 13.3594C8.42032 13.3594 7.62891 14.1508 7.62891 15.127C7.62891 16.1033 8.42032 16.8947 9.39657 16.8947Z" stroke="#FFC000" stroke-width="1.5" stroke-linecap="round" stroke-linejoin="round"/>
<path d="M7.03915 5.10689C7.03915 4.4818 7.28746 3.88232 7.72947 3.44032C8.17147 2.99831 8.77095 2.75 9.39604 2.75C10.0211 2.75 10.6206 2.99831 11.0626 3.44032C11.5046 3.88232 11.7529 4.4818 11.7529 5.10689V11.7356C12.4735 12.2374 13.0152 12.9561 13.2991 13.787C13.583 14.6179 13.5943 15.5178 13.3313 16.3556C13.0684 17.1934 12.5449 17.9254 11.8371 18.4451C11.1293 18.9648 10.2741 19.245 9.39604 19.245C8.51794 19.245 7.66277 18.9648 6.95497 18.4451C6.24718 17.9254 5.72371 17.1934 5.46076 16.3556C5.19781 15.5178 5.2091 14.6179 5.49299 13.787C5.77687 12.9561 6.31854 12.2374 7.03915 11.7356V5.10689Z" stroke="#FFC000" stroke-width="1.5" stroke-linecap="round" stroke-linejoin="round"/>
</svg>
