<svg width="24" height="24" viewBox="0 0 24 24" fill="none" xmlns="http://www.w3.org/2000/svg">
<g clip-path="url(#clip0_4985_186882)">
<path d="M11.2589 4.29995V5.91944C11.2589 6.22608 11.1722 6.52647 11.0087 6.78591C10.8452 7.04535 10.6117 7.25327 10.3351 7.38565L8.16111 8.42584C7.38247 8.79873 6.4708 8.28113 6.39137 7.42155L6.30737 6.50682C6.26931 6.09616 6.35085 5.68326 6.54214 5.31788C6.82346 4.78108 6.78854 4.13449 6.45409 3.62908C5.98407 2.91774 5.78322 2.03186 5.95118 1.13736C6.07527 0.477788 6.65132 0 7.32247 0H7.32271C7.71329 9.51181e-07 8.10005 0.0769483 8.46089 0.226447C8.82173 0.375946 9.14958 0.595067 9.42572 0.871294L10.1302 1.576C10.8527 2.29841 11.2587 3.27822 11.2589 4.29995Z" fill="url(#paint0_linear_4985_186882)"/>
<path d="M11.0801 3.13672H6.18555C6.26178 3.30801 6.35214 3.47225 6.45519 3.62848C6.78978 4.1339 6.82461 4.78048 6.54319 5.31695C6.35198 5.68244 6.27043 6.09539 6.30837 6.50613L6.39261 7.42095C6.47214 8.28025 7.38366 8.7979 8.16202 8.42519L10.3361 7.38472C10.6127 7.25243 10.8463 7.04458 11.0097 6.78519C11.1732 6.52579 11.2599 6.22544 11.2599 5.91884V4.29907C11.2599 3.90095 11.1983 3.50942 11.0801 3.13672Z" fill="url(#paint1_linear_4985_186882)"/>
<path d="M11.0035 5.2177C11.0035 3.77069 9.72372 2.59766 8.14499 2.59766C7.41501 2.59766 6.74932 2.84881 6.24414 3.26152C6.30661 3.38849 6.37693 3.51146 6.45468 3.6297C6.78908 4.13512 6.824 4.7817 6.54273 5.3185C6.35145 5.68388 6.26992 6.09678 6.30795 6.50745L6.37859 7.27686C6.86489 7.62782 7.47802 7.8378 8.14499 7.8378C9.72376 7.83775 11.0035 6.66472 11.0035 5.2177Z" fill="url(#paint2_linear_4985_186882)"/>
<path d="M9.32709 6.57704C10.553 6.57704 11.5468 5.9984 11.5468 5.28461C11.5468 4.57083 10.553 3.99219 9.32709 3.99219C8.1012 3.99219 7.10742 4.57083 7.10742 5.28461C7.10742 5.9984 8.1012 6.57704 9.32709 6.57704Z" fill="url(#paint3_linear_4985_186882)"/>
<path d="M17.4566 5.31788C17.6484 5.6831 17.7299 6.09614 17.6913 6.50682L17.6073 7.42155C17.5284 8.28113 16.6167 8.79868 15.8376 8.42584L13.6641 7.38565C13.0995 7.116 12.7402 6.54527 12.7402 5.91944V4.29977C12.7402 3.27814 13.1461 2.29836 13.8685 1.57595L14.5736 0.870965C14.8497 0.594829 15.1775 0.375786 15.5383 0.226345C15.8991 0.0769042 16.2857 -8.22128e-06 16.6762 6.59124e-10C17.3474 6.59124e-10 17.9234 0.477788 18.0475 1.13732C18.216 2.03181 18.0146 2.91769 17.5446 3.62904C17.2107 4.13449 17.1759 4.78108 17.4566 5.31788Z" fill="url(#paint4_linear_4985_186882)"/>
<path d="M17.5449 3.62848C17.648 3.47225 17.7384 3.30801 17.8146 3.13672H12.92C12.8008 3.51266 12.7402 3.9047 12.7402 4.29907V5.91884C12.7402 6.54472 13.0998 7.11507 13.664 7.38472L15.8376 8.42519C16.6169 8.7979 17.5285 8.28025 17.6075 7.42095L17.6913 6.50613C17.7299 6.09536 17.6483 5.68221 17.4565 5.31695C17.176 4.78048 17.2108 4.1339 17.5449 3.62848Z" fill="url(#paint5_linear_4985_186882)"/>
<path d="M12.9961 5.2177C12.9961 3.77069 14.2759 2.59766 15.8546 2.59766C16.5846 2.59766 17.2503 2.84881 17.7555 3.26152C17.693 3.3885 17.6227 3.51147 17.5449 3.6297C17.2105 4.13512 17.1756 4.7817 17.4569 5.3185C17.6482 5.68388 17.7297 6.09678 17.6917 6.50745L17.621 7.27686C17.1347 7.62782 16.5216 7.8378 15.8546 7.8378C14.2759 7.83775 12.9961 6.66472 12.9961 5.2177Z" fill="url(#paint6_linear_4985_186882)"/>
<path d="M14.6728 6.57704C15.8987 6.57704 16.8925 5.9984 16.8925 5.28461C16.8925 4.57083 15.8987 3.99219 14.6728 3.99219C13.4469 3.99219 12.4531 4.57083 12.4531 5.28461C12.4531 5.9984 13.4469 6.57704 14.6728 6.57704Z" fill="url(#paint7_linear_4985_186882)"/>
<path d="M13.7788 5.26127C13.7928 6.24357 13.0077 7.05124 12.0252 7.06527C11.0427 7.07929 10.2349 6.2943 10.2209 5.312C10.2069 4.32969 10.992 3.52202 11.9745 3.508C12.957 3.49402 13.7648 4.27896 13.7788 5.26127Z" fill="url(#paint8_linear_4985_186882)"/>
<path d="M21.7508 23.75H2.24867C1.61945 23.75 1.10938 23.2399 1.10938 22.6107V10.733C1.10938 10.1038 1.61945 9.59375 2.24867 9.59375H21.7508C22.38 9.59375 22.8901 10.1038 22.8901 10.733V22.6106C22.8901 23.2399 22.38 23.75 21.7508 23.75Z" fill="url(#paint9_linear_4985_186882)"/>
<path d="M21.7508 9.59375H2.24867C1.61945 9.59375 1.10938 10.1038 1.10938 10.733V11.9288C1.10938 11.9288 7.51973 18.6768 12.5419 23.7499H21.7508C22.38 23.7499 22.8901 23.2399 22.8901 22.6106V10.733C22.8901 10.1038 22.38 9.59375 21.7508 9.59375Z" fill="url(#paint10_linear_4985_186882)"/>
<path d="M12 9.59375H19.2314V23.7499H12V9.59375Z" fill="url(#paint11_linear_4985_186882)"/>
<path d="M1.10938 18.0234V22.6096C1.10938 23.2389 1.61945 23.7489 2.24867 23.7489H21.7508C22.38 23.7489 22.8901 23.2389 22.8901 22.6096V18.0234H1.10938Z" fill="url(#paint12_linear_4985_186882)"/>
<path d="M13.6988 24.0009H10.3017C9.96141 24.0009 9.68555 23.725 9.68555 23.3847V10.2099C9.68555 9.86961 9.96141 9.59375 10.3017 9.59375H13.6988C14.0391 9.59375 14.315 9.86961 14.315 10.2099V23.3847C14.315 23.725 14.0391 24.0009 13.6988 24.0009Z" fill="url(#paint13_linear_4985_186882)"/>
<path d="M9.68555 10.2099V20.8398C10.6525 21.8315 11.6209 22.8189 12.5425 23.7499H14.1943C14.2728 23.6443 14.3151 23.5163 14.3151 23.3847V10.2099C14.3151 9.86961 14.0392 9.59375 13.6989 9.59375H10.3018C9.96141 9.59375 9.68555 9.86961 9.68555 10.2099Z" fill="url(#paint14_linear_4985_186882)"/>
<path d="M22.4165 12.0004H1.58353C0.708988 12.0004 0 11.2914 0 10.4169V8.14212C0 7.26758 0.708988 6.55859 1.58353 6.55859H22.4165C23.291 6.55859 24 7.26758 24 8.14212V10.4169C24 11.2914 23.291 12.0004 22.4165 12.0004Z" fill="url(#paint15_linear_4985_186882)"/>
<path d="M22.4169 6.55859H8.41867L6.66992 8.30735L10.363 12.0004H22.4169C23.2914 12.0004 24.0004 11.2914 24.0004 10.4169V8.14212C24.0004 7.26753 23.2914 6.55859 22.4169 6.55859Z" fill="url(#paint16_linear_4985_186882)"/>
<path d="M12 6.55859H19.2314V12.0004H12V6.55859Z" fill="url(#paint17_linear_4985_186882)"/>
<path d="M21.4198 12.0015H12V7.91016H17.3285L21.4198 12.0015Z" fill="url(#paint18_linear_4985_186882)"/>
<path d="M14.004 12.2829H9.99661C9.91411 12.2829 9.83499 12.2501 9.77665 12.1917C9.71832 12.1334 9.68555 12.0543 9.68555 11.9718V6.5845C9.68555 6.502 9.71832 6.42288 9.77665 6.36455C9.83499 6.30621 9.91411 6.27344 9.99661 6.27344H14.004C14.0865 6.27344 14.1657 6.30621 14.224 6.36455C14.2823 6.42288 14.3151 6.502 14.3151 6.5845V11.9718C14.3151 12.0543 14.2823 12.1334 14.224 12.1917C14.1656 12.2501 14.0865 12.2828 14.004 12.2829Z" fill="url(#paint19_linear_4985_186882)"/>
<path d="M14.3152 6.5845V11.9718C14.3152 12.0543 14.2824 12.1334 14.2241 12.1917C14.1658 12.2501 14.0866 12.2828 14.0041 12.2828H10.6465L9.68555 11.3219V6.5845C9.68555 6.57508 9.68602 6.56614 9.68696 6.5572C9.69374 6.47975 9.72929 6.40765 9.78661 6.35512C9.84393 6.30259 9.91886 6.27345 9.99661 6.27344H14.0041C14.1665 6.27344 14.3001 6.39814 14.3138 6.5572C14.3147 6.56614 14.3152 6.57508 14.3152 6.5845Z" fill="url(#paint20_linear_4985_186882)"/>
<path d="M11.9996 6.27435L11.9624 6.2496C10.6929 5.40635 9.00498 5.57491 7.92734 6.65256L6.67129 7.90861C6.49312 8.08677 6.61934 8.39138 6.87124 8.39138H7.01684C7.49788 8.39138 7.88781 8.78132 7.88781 9.26235C7.88781 9.5143 8.19242 9.64047 8.37058 9.4623L11.1921 6.64075C11.408 6.42484 11.695 6.29464 11.9996 6.27435Z" fill="url(#paint21_linear_4985_186882)"/>
<path d="M12 6.27435L12.0372 6.2496C13.3067 5.40635 14.9946 5.57491 16.0723 6.65256L17.3283 7.90861C17.5065 8.08677 17.3803 8.39138 17.1284 8.39138H16.9828C16.5017 8.39138 16.1118 8.78132 16.1118 9.26235C16.1118 9.5143 15.8072 9.64047 15.629 9.4623L12.8075 6.64075C12.5916 6.42484 12.3047 6.29464 12 6.27435Z" fill="url(#paint22_linear_4985_186882)"/>
</g>
<defs>
<linearGradient id="paint0_linear_4985_186882" x1="6.79047" y1="3.23115" x2="10.9448" y2="7.38546" gradientUnits="userSpaceOnUse">
<stop stop-color="#FEE45A"/>
<stop offset="1" stop-color="#FEA613"/>
</linearGradient>
<linearGradient id="paint1_linear_4985_186882" x1="8.58461" y1="4.59964" x2="9.02381" y2="6.54472" gradientUnits="userSpaceOnUse">
<stop stop-color="#FEA613" stop-opacity="0"/>
<stop offset="1" stop-color="#E94444"/>
</linearGradient>
<linearGradient id="paint2_linear_4985_186882" x1="9.12442" y1="4.40881" x2="12.7166" y2="1.44067" gradientUnits="userSpaceOnUse">
<stop stop-color="#FEA613" stop-opacity="0"/>
<stop offset="1" stop-color="#E94444"/>
</linearGradient>
<linearGradient id="paint3_linear_4985_186882" x1="9.29387" y1="5.45558" x2="9.86728" y2="2.50428" gradientUnits="userSpaceOnUse">
<stop stop-color="#FEA613" stop-opacity="0"/>
<stop offset="1" stop-color="#E94444"/>
</linearGradient>
<linearGradient id="paint4_linear_4985_186882" x1="15.0464" y1="3.34565" x2="18.783" y2="7.08221" gradientUnits="userSpaceOnUse">
<stop stop-color="#FEE45A"/>
<stop offset="1" stop-color="#FEA613"/>
</linearGradient>
<linearGradient id="paint5_linear_4985_186882" x1="15.5601" y1="4.37766" x2="14.9327" y2="6.38552" gradientUnits="userSpaceOnUse">
<stop stop-color="#FEA613" stop-opacity="0"/>
<stop offset="1" stop-color="#E94444"/>
</linearGradient>
<linearGradient id="paint6_linear_4985_186882" x1="14.8752" y1="4.40881" x2="11.2831" y2="1.44067" gradientUnits="userSpaceOnUse">
<stop stop-color="#FEA613" stop-opacity="0"/>
<stop offset="1" stop-color="#E94444"/>
</linearGradient>
<linearGradient id="paint7_linear_4985_186882" x1="14.706" y1="5.45558" x2="14.1327" y2="2.50428" gradientUnits="userSpaceOnUse">
<stop stop-color="#FEA613" stop-opacity="0"/>
<stop offset="1" stop-color="#E94444"/>
</linearGradient>
<linearGradient id="paint8_linear_4985_186882" x1="11.4161" y1="4.46687" x2="13.0814" y2="6.80197" gradientUnits="userSpaceOnUse">
<stop stop-color="#FEE45A"/>
<stop offset="1" stop-color="#FEA613"/>
</linearGradient>
<linearGradient id="paint9_linear_4985_186882" x1="9.49427" y1="11.4578" x2="16.459" y2="25.9519" gradientUnits="userSpaceOnUse">
<stop stop-color="#D9B1EE"/>
<stop offset="1" stop-color="#814AA0"/>
</linearGradient>
<linearGradient id="paint10_linear_4985_186882" x1="11.9997" y1="19.1538" x2="11.9997" y2="10.9931" gradientUnits="userSpaceOnUse">
<stop stop-color="#5B3374" stop-opacity="0"/>
<stop offset="1" stop-color="#5B3374"/>
</linearGradient>
<linearGradient id="paint11_linear_4985_186882" x1="17.3176" y1="16.6718" x2="13.9514" y2="16.6718" gradientUnits="userSpaceOnUse">
<stop stop-color="#5B3374" stop-opacity="0"/>
<stop offset="1" stop-color="#5B3374"/>
</linearGradient>
<linearGradient id="paint12_linear_4985_186882" x1="11.9997" y1="21.3019" x2="11.9997" y2="23.4979" gradientUnits="userSpaceOnUse">
<stop stop-color="#5B3374" stop-opacity="0"/>
<stop offset="1" stop-color="#5B3374"/>
</linearGradient>
<linearGradient id="paint13_linear_4985_186882" x1="9.68555" y1="16.7973" x2="14.315" y2="16.7973" gradientUnits="userSpaceOnUse">
<stop stop-color="#FEE45A"/>
<stop offset="1" stop-color="#FEA613"/>
</linearGradient>
<linearGradient id="paint14_linear_4985_186882" x1="12.0003" y1="16.0323" x2="12.0003" y2="11.3426" gradientUnits="userSpaceOnUse">
<stop stop-color="#FEA613" stop-opacity="0"/>
<stop offset="1" stop-color="#E94444"/>
</linearGradient>
<linearGradient id="paint15_linear_4985_186882" x1="12" y1="6.77685" x2="12" y2="12.3806" gradientUnits="userSpaceOnUse">
<stop stop-color="#D9B1EE"/>
<stop offset="1" stop-color="#814AA0"/>
</linearGradient>
<linearGradient id="paint16_linear_4985_186882" x1="15.649" y1="8.46175" x2="12.2607" y2="3.33233" gradientUnits="userSpaceOnUse">
<stop stop-color="#5B3374" stop-opacity="0"/>
<stop offset="1" stop-color="#5B3374"/>
</linearGradient>
<linearGradient id="paint17_linear_4985_186882" x1="17.3176" y1="9.27949" x2="13.9514" y2="9.27949" gradientUnits="userSpaceOnUse">
<stop stop-color="#5B3374" stop-opacity="0"/>
<stop offset="1" stop-color="#5B3374"/>
</linearGradient>
<linearGradient id="paint18_linear_4985_186882" x1="16.9326" y1="12.691" x2="15.4737" y2="8.17336" gradientUnits="userSpaceOnUse">
<stop stop-color="#5B3374" stop-opacity="0"/>
<stop offset="1" stop-color="#5B3374"/>
</linearGradient>
<linearGradient id="paint19_linear_4985_186882" x1="10.813" y1="8.40741" x2="13.6365" y2="10.478" gradientUnits="userSpaceOnUse">
<stop stop-color="#FEE45A"/>
<stop offset="1" stop-color="#FEA613"/>
</linearGradient>
<linearGradient id="paint20_linear_4985_186882" x1="13.0035" y1="11.044" x2="11.027" y2="6.85579" gradientUnits="userSpaceOnUse">
<stop stop-color="#FEA613" stop-opacity="0"/>
<stop offset="1" stop-color="#E94444"/>
</linearGradient>
<linearGradient id="paint21_linear_4985_186882" x1="8.62061" y1="6.57699" x2="9.79802" y2="7.7544" gradientUnits="userSpaceOnUse">
<stop stop-color="#FEE45A"/>
<stop offset="1" stop-color="#FEA613"/>
</linearGradient>
<linearGradient id="paint22_linear_4985_186882" x1="15.379" y1="6.57699" x2="14.2016" y2="7.7544" gradientUnits="userSpaceOnUse">
<stop stop-color="#FEE45A"/>
<stop offset="1" stop-color="#FEA613"/>
</linearGradient>
<clipPath id="clip0_4985_186882">
<rect width="24" height="24" fill="white"/>
</clipPath>
</defs>
</svg>
