<svg width="20" height="20" viewBox="0 0 20 20" fill="none" xmlns="http://www.w3.org/2000/svg">
<path d="M3.25 10.7937C3.25 10.3794 2.91421 10.0437 2.5 10.0437C2.08579 10.0437 1.75 10.3794 1.75 10.7937H3.25ZM5.51514 4.7619L5.96564 5.36153L5.51514 4.7619ZM3.44535 6.77177L2.69535 6.7706C2.69504 6.96991 2.77408 7.16116 2.91502 7.3021C3.05596 7.44304 3.24721 7.52208 3.44653 7.52177L3.44535 6.77177ZM4.20203 2.50117C4.20268 2.08696 3.86742 1.75065 3.4532 1.75C3.03899 1.74935 2.70268 2.08461 2.70203 2.49883L4.20203 2.50117ZM7.71829 7.51509C8.13251 7.51444 8.46777 7.17813 8.46712 6.76392C8.46647 6.3497 8.13016 6.01444 7.71595 6.01509L7.71829 7.51509ZM1.75 10.7937C1.75 15.3719 5.46142 19.0833 10.0397 19.0833V17.5833C6.28984 17.5833 3.25 14.5435 3.25 10.7937H1.75ZM10.0397 19.0833C14.6179 19.0833 18.3294 15.3719 18.3294 10.7937H16.8294C16.8294 14.5435 13.7895 17.5833 10.0397 17.5833V19.0833ZM18.3294 10.7937C18.3294 6.21539 14.6179 2.50397 10.0397 2.50397V4.00397C13.7895 4.00397 16.8294 7.04381 16.8294 10.7937H18.3294ZM10.0397 2.50397C8.174 2.50397 6.45031 3.1212 5.06463 4.16228L5.96564 5.36153C7.10046 4.50891 8.51002 4.00397 10.0397 4.00397V2.50397ZM5.06463 4.16228C4.45429 4.62084 3.32789 5.67951 2.84573 6.32126L4.04497 7.22227C4.42028 6.72274 5.4347 5.76043 5.96564 5.36153L5.06463 4.16228ZM2.70203 2.49883L2.69535 6.7706L4.19535 6.77294L4.20203 2.50117L2.70203 2.49883ZM3.44653 7.52177L7.71829 7.51509L7.71595 6.01509L3.44418 6.02177L3.44653 7.52177Z" fill="#012635"/>
</svg>
