<?xml version="1.0" encoding="utf-8"?>
<!-- Generator: Adobe Illustrator 23.0.5, SVG Export Plug-In . SVG Version: 6.00 Build 0)  -->
<svg version="1.1" id="Layer_1" xmlns="http://www.w3.org/2000/svg" xmlns:xlink="http://www.w3.org/1999/xlink" x="0px" y="0px"
	 viewBox="0 0 2000 2000" style="enable-background:new 0 0 2000 2000;" xml:space="preserve">
<style type="text/css">
	.st0{display:none;}
	.st1{display:inline;fill:#2CB56B;}
	.st2{fill:#162E4B;}
	.st3{fill:#162F4B;}
</style>
<g class="st0">
	<path class="st1" d="M-1367.7,931.1c-0.4-42.2-4.1-84.3-12.8-125.8c-28.8-137.8-82.8-264.4-165.3-378.8
		c-61.4-85.1-134.3-159-218.4-221.4c-96.6-71.7-203.4-123.1-319.4-155.3c-44.3-12.3-89-23.2-134.9-26.8c-64.9-5-130-4.2-195-3.1
		c-31,0.5-62.2,1.4-93,6.4c-107.4,17.3-209.1,51.4-305.2,102.5c-109.7,58.4-205,134.8-286,228.6c-65.6,76-118.8,160.2-158.2,252.8
		c-30,70.5-53.4,143-64.9,219c-4.8,32.2-3.7,65-7.7,97.4v141c1.5,2.2,1.9,4.4,1.8,6.8c0,2.4-0.4,4.8-0.3,7.2
		c2.4,35.7,1.8,71.7,8.6,107.1c19.4,102,54.2,198.3,104.3,289.3c44.9,81.5,100.6,154.8,165.7,220.6c36.3,36.6,75.5,70.5,117.5,101
		c96.5,70,201.9,121.4,316.7,153.2c37.9,10.5,76.2,20.6,115.9,23.1c29.8,1.9,59.8,2,89.6,5.1h96.1c11.1-3.4,22.6-0.7,33.9-1.6
		c72.8,0.4,143.9-10.2,213.5-31.4c184.6-56.4,340.2-157.8,466-303.6c100.6-116.7,168.7-250.8,208.3-400
		C-1363.6,1141.1-1366.7,1036.1-1367.7,931.1z M-2353.5,1850.1c-467.3-0.5-845-382.3-844.3-853.3c0.7-465.2,382.3-845.1,848.6-844.9
		c469.3,0.2,850,381.4,849.6,850.6C-1500,1472.2-1881.2,1850.6-2353.5,1850.1z"/>
	<path class="st1" d="M-2006.3,922.5c-18.1,67.7-60.3,119.5-116.2,160.6c-27.7,20.4-55.7,40.6-84.4,59.6
		c-20.6,13.7-36.7,31.2-51.3,50.7c-54.3,72.7-166.4,60.8-202.7-22.5c-16.3-37.5-13.5-75.7,9.9-110.5
		c36.1-53.8,84.4-94.9,137.7-130.7c20.1-13.5,40-27.4,59.5-41.7c27.8-20.4,28.3-55.2,15.9-92.5c-17.3-52.1-64.6-85-119-86.8
		c-52.9-1.8-104.6,32-123.3,81.2c-17.5,46.3-50.6,75.1-101.4,82.2c-45.5,6.3-101.1-26.3-119.3-68.3c-18.4-42.7-8.4-81.3,10.2-120.2
		c37.4-78.3,95.5-136.4,173.2-173.9c49.3-23.8,101.9-36,183.4-35.4c124,6.1,236.8,73.6,304.1,209
		C-1992.6,758.7-1984.3,840.3-2006.3,922.5z"/>
	<path class="st1" d="M-2235.6,1411.7c-0.1,65.1-52.7,117-118.3,117.1c-58.3,0-118.6-49.6-117.3-118.2
		c1.4-68.1,55.2-117.4,118.4-116.7C-2288,1294.6-2236.1,1342-2235.6,1411.7z"/>
</g>
<g>
	<path class="st2" d="M1000.6,1336.9c-103.5,0-207,0.1-310.6-0.1c-38.2-0.1-64-30.2-58.5-67.9c1.8-12.1,7.8-22,16.2-30.7
		c36.9-37.8,66.1-80.7,83.9-130.8c8.4-23.7,13-47.9,13.1-73.2c0.1-45.3-2.5-90.8,1.3-136c10.6-125.4,117.4-223.1,243.3-225.2
		c72.5-1.2,136.8,18.5,189.6,69.4c49.4,47.7,74.5,106.6,76.1,175.1c0.9,36.3,1.1,72.7-0.1,109c-1.5,46.2,12.8,87.9,34.2,127.7
		c16.6,31,37.9,58.7,62.7,83.5c18.4,18.4,21.4,39.7,12.6,63c-8.8,23-28.9,35.9-54.3,36C1207,1336.9,1103.8,1336.9,1000.6,1336.9z"/>
	<path class="st2" d="M998.1,1446c-48.3-2.5-86.5-22.8-109.8-67.7c-3.7-7.1-2.9-9.1,5.6-9.1c70.6,0.3,141.1,0.3,211.7,0
		c9.2,0,9.9,2.3,5.9,9.8C1087.3,1423.7,1048.9,1444.4,998.1,1446z"/>
	<path class="st3" d="M1074.1,631.2c0,4.2-0.2,5.6,0,7c1.4,8.8-1.3,10.8-10.5,9c-43.6-8.7-87.4-8.4-131,0.5
		c-2.9,0.6-5.7,2.7-6.8-2.7c-6.3-30.2,10.4-66,38.3-81.5c45.8-25.3,101,2.1,108.5,53.9C1073.5,623,1073.8,628.5,1074.1,631.2z"/>
</g>
<path class="st2" d="M1000,25.5C461.8,25.5,25.5,461.8,25.5,1000s436.3,974.5,974.5,974.5s974.5-436.3,974.5-974.5
	S1538.2,25.5,1000,25.5z M1000,1844.3c-466.3,0-844.3-378-844.3-844.3s378-844.3,844.3-844.3s844.3,378,844.3,844.3
	S1466.3,1844.3,1000,1844.3z"/>
</svg>
