<?xml version="1.0" encoding="utf-8"?>
<!-- Generator: Adobe Illustrator 23.0.5, SVG Export Plug-In . SVG Version: 6.00 Build 0)  -->
<svg version="1.1" id="Layer_1" xmlns="http://www.w3.org/2000/svg" xmlns:xlink="http://www.w3.org/1999/xlink" x="0px" y="0px"
	 viewBox="0 0 2000 2000" style="enable-background:new 0 0 2000 2000;" xml:space="preserve">
<style type="text/css">
	.st0{fill:#29B46B;}
	.st1{fill:#2CB46B;}
</style>
<g>
	<g>
		<path class="st0" d="M1346.2,921c-18.1,67.7-60.3,119.5-116.2,160.6c-27.7,20.4-55.7,40.6-84.4,59.6
			c-20.6,13.7-36.7,31.2-51.3,50.7c-54.3,72.7-166.4,60.8-202.7-22.5c-16.3-37.5-13.5-75.7,9.9-110.5
			c36.1-53.8,84.4-94.9,137.7-130.7c20.1-13.5,40-27.4,59.5-41.7c27.8-20.4,28.3-55.2,15.9-92.5c-17.3-52.1-64.6-85-119-86.8
			c-52.9-1.8-104.6,32-123.3,81.2c-17.5,46.3-50.6,75.1-101.4,82.2c-45.5,6.3-101.1-26.3-119.3-68.3c-18.4-42.7-8.4-81.3,10.2-120.2
			c37.4-78.3,95.5-136.4,173.2-173.9c49.3-23.8,101.9-36,183.4-35.4c124,6.2,236.8,73.6,304.1,209
			C1359.9,757.3,1368.2,838.8,1346.2,921z"/>
		<path class="st1" d="M1116.9,1410.2c-0.1,65.1-52.7,117-118.3,117.1c-58.3,0-118.6-49.6-117.3-118.2
			c1.4-68.1,55.2-117.4,118.4-116.7C1064.5,1293.1,1116.4,1340.5,1116.9,1410.2z"/>
	</g>
	<path class="st0" d="M1000,25.5C461.8,25.5,25.5,461.8,25.5,1000s436.3,974.5,974.5,974.5s974.5-436.3,974.5-974.5
		S1538.2,25.5,1000,25.5z M1000,1844.3c-466.3,0-844.3-378-844.3-844.3s378-844.3,844.3-844.3s844.3,378,844.3,844.3
		S1466.3,1844.3,1000,1844.3z"/>
</g>
</svg>
