<svg width="24" height="23" viewBox="0 0 24 23" fill="none" xmlns="http://www.w3.org/2000/svg">
<rect x="3.4574" y="3.97208" width="17.8744" height="11.4197" fill="#82D5BB"/>
<path fill-rule="evenodd" clip-rule="evenodd" d="M0.974609 8.73858C0.974609 5.67979 0.974609 4.1504 1.56988 2.9821C2.09352 1.95443 2.92904 1.11891 3.95671 0.595275C5.12501 -2.64918e-07 6.6544 0 9.71319 0H16.8133C19.8721 0 19.1792 -2.64918e-07 20.3475 0.595275C21.3752 1.11891 22.2106 1.95443 22.7343 2.9821C23.3296 4.1504 23.3296 5.67979 23.3296 8.73858V10.3771C23.3296 13.4359 23.3296 14.9652 22.7343 16.1336C22.2106 17.1612 21.3752 17.9967 20.3475 18.5203C19.1792 19.1157 19.8721 19.1157 16.8133 19.1157H7.00179C6.63967 19.1157 6.29237 19.2596 6.03631 19.5156L3.3055 22.2464C2.44534 23.1066 0.974609 22.4974 0.974609 21.2809V19.1157V12.2886V8.73858ZM7.6775 5.46162C6.92342 5.46162 6.3121 6.07294 6.3121 6.82702C6.3121 7.58111 6.92342 8.19242 7.6775 8.19242H18.849C19.6031 8.19242 20.2144 7.58111 20.2144 6.82702C20.2144 6.07294 19.6031 5.46162 18.849 5.46162H7.6775ZM7.6775 10.9232C6.92342 10.9232 6.3121 11.5345 6.3121 12.2886C6.3121 13.0427 6.92342 13.654 7.6775 13.654H14.7528C15.5069 13.654 16.1182 13.0427 16.1182 12.2886C16.1182 11.5345 15.5069 10.9232 14.7528 10.9232H7.6775Z" fill="#06AB78"/>
</svg>
