<svg width="20" height="26" viewBox="0 0 20 26" fill="none" xmlns="http://www.w3.org/2000/svg">
<path d="M17.2425 1.24268H4.19163L3.14755 2.80879V3.85286L3.66959 4.89693C4.53965 5.59298 6.38418 7.08949 6.80181 7.50712C7.32385 8.02915 7.84588 9.07323 8.36792 9.59526C8.88996 10.1173 8.36792 11.6834 8.36792 12.2054C8.36792 12.7275 7.84588 14.2936 7.84588 14.8156C7.84588 15.2333 5.75774 16.7298 4.71366 17.4258L3.66959 20.558L4.19163 21.6021H11.5001H16.7205C16.7205 21.0801 16.6161 19.9316 16.1985 19.514C15.7808 19.0963 15.3284 17.5998 15.1544 16.9038L12.5442 14.2936L12.0222 12.2054L13.0662 10.6393L15.1544 6.98508L16.7205 5.41897L17.2425 2.28675V1.24268Z" fill="#82D5BB"/>
<path d="M6.50925 10.124C4.8479 8.60931 2.60121 6.56078 2.39644 1.66684H1.64721C1.24177 1.66684 0.913094 1.33816 0.913094 0.932723C0.913094 0.527283 1.24177 0.198608 1.64721 0.198608H19.2659C19.6714 0.198608 20.0001 0.527283 20.0001 0.932723C20.0001 1.33816 19.6714 1.66684 19.2659 1.66684H18.5167C18.3119 6.56078 16.0653 8.60931 14.4039 10.124C13.2895 11.14 12.6589 11.7619 12.6589 12.7275C12.6589 13.693 13.2895 14.3149 14.4039 15.331C16.0653 16.8457 18.3119 18.8942 18.5167 23.7881H19.2659C19.6714 23.7881 20.0001 24.1168 20.0001 24.5223C20.0001 24.9277 19.6714 25.2564 19.2659 25.2564H1.64721C1.24177 25.2564 0.913094 24.9277 0.913094 24.5223C0.913094 24.1168 1.24177 23.7881 1.64721 23.7881H2.39644C2.60121 18.8942 4.8479 16.8457 6.50925 15.331C7.62368 14.3149 8.25423 13.693 8.25423 12.7275C8.25423 11.7619 7.62368 11.14 6.50925 10.124ZM11.1907 18.2303C11.4174 18.2771 11.6414 18.3452 11.8601 18.4356L16.3566 20.2963C15.6223 18.4292 14.4396 17.3504 13.4147 16.416C12.271 15.3732 11.1907 14.3883 11.1907 12.7275V18.2303ZM7.49844 16.416C6.47357 17.3504 5.29091 18.4292 4.55655 20.2963L9.0531 18.4356C9.27172 18.3451 9.49572 18.2771 9.72246 18.2303V12.7275C9.72246 14.3883 8.64219 15.3732 7.49844 16.416ZM16.3824 5.0927C16.7374 4.16777 16.9825 3.05098 17.0467 1.66684H3.86653C3.93069 3.05098 4.17579 4.16777 4.53081 5.0927H16.3824Z" fill="#06AB78"/>
</svg>
