<svg width="22" height="26" viewBox="0 0 22 26" fill="none" xmlns="http://www.w3.org/2000/svg">
<path d="M20.3782 17.7852C18.7884 16.4412 17.8767 14.4769 17.8767 12.3958V9.46408C17.8767 5.76371 15.1279 2.70048 11.5673 2.18734V1.0515C11.5673 0.470008 11.0961 0 10.5156 0C9.93525 0 9.46408 0.470008 9.46408 1.0515V2.18734C5.90234 2.70048 3.15469 5.76371 3.15469 9.46408V12.3958C3.15469 14.4769 2.24298 16.4412 0.643493 17.7935C0.234523 18.1437 0 18.6526 0 19.191C0 20.2059 0.82545 21.0314 1.84017 21.0314H19.191C20.2059 21.0314 21.0314 20.2059 21.0314 19.191C21.0314 18.6526 20.7968 18.1437 20.3782 17.7852Z" fill="#06AB78"/>
<path d="M10.5154 25.2376C12.4199 25.2376 14.0131 23.8799 14.3789 22.0829H6.65198C7.01801 23.8799 8.61115 25.2376 10.5154 25.2376Z" fill="#82D5BB"/>
</svg>
