<svg width="24" height="24" viewBox="0 0 24 24" fill="none" xmlns="http://www.w3.org/2000/svg">
<path d="M19.5025 16.3323C18.215 15.2439 17.4767 13.6532 17.4767 11.9679V9.59378C17.4767 6.59719 15.2507 4.11655 12.3673 3.70101V2.7812C12.3673 2.3103 11.9857 1.92969 11.5156 1.92969C11.0456 1.92969 10.6641 2.3103 10.6641 2.7812V3.70101C7.77977 4.11655 5.5547 6.59719 5.5547 9.59378V11.9679C5.5547 13.6532 4.81639 15.2439 3.52111 16.339C3.18992 16.6226 3 17.0347 3 17.4707C3 18.2926 3.66846 18.9611 4.49019 18.9611H18.541C19.3629 18.9611 20.0314 18.2926 20.0314 17.4707C20.0314 17.0347 19.8414 16.6226 19.5025 16.3323Z" fill="#74B5FF"/>
<path d="M11.5154 22.3672C13.0576 22.3672 14.3478 21.2678 14.644 19.8125H8.38672C8.68313 21.2678 9.97327 22.3672 11.5154 22.3672Z" fill="#74B5FF"/>
</svg>
