<svg width="34" height="34" viewBox="0 0 34 34" fill="none" xmlns="http://www.w3.org/2000/svg">
<path d="M1 17C1 8.16344 8.16344 1 17 1C25.8366 1 33 8.16344 33 17C33 25.8366 25.8366 33 17 33C8.16344 33 1 25.8366 1 17Z" fill="#FFEEEE"/>
<path d="M1 17C1 8.16344 8.16344 1 17 1C25.8366 1 33 8.16344 33 17C33 25.8366 25.8366 33 17 33C8.16344 33 1 25.8366 1 17Z" stroke="#EA3815"/>
<path d="M21.0007 12.9141L20.9848 20.2928M21.0007 12.9141L13.6214 12.9293M21.0007 12.9141L12.8789 21.0352" stroke="#EA3815" stroke-width="1.5" stroke-linecap="round" stroke-linejoin="round"/>
</svg>
