<svg width="24" height="24" viewBox="0 0 24 24" fill="none" xmlns="http://www.w3.org/2000/svg">
<path d="M11.6228 22.4565C12.642 22.4565 13.4682 21.6302 13.4682 20.6111C13.4682 19.5919 12.642 18.7656 11.6228 18.7656C10.6036 18.7656 9.77734 19.5919 9.77734 20.6111C9.77734 21.6302 10.6036 22.4565 11.6228 22.4565Z" fill="#A69FEA"/>
<path d="M17.892 7.75639C17.7259 4.55441 15.0828 1.99559 11.875 1.93092C11.833 1.9301 11.7913 1.92969 11.7494 1.92969C8.68858 1.92969 6.08103 4.18598 5.65691 7.2254C5.61759 7.50717 5.59766 7.79506 5.59766 8.0811C5.59766 9.10031 6.42387 9.92652 7.44308 9.92652C8.46229 9.92652 9.2885 9.10031 9.2885 8.0811C9.2885 7.96517 9.2965 7.84895 9.31237 7.73555C9.48412 6.50498 10.5518 5.5963 11.8007 5.62103C12.4167 5.63345 13.0048 5.88103 13.4567 6.31823C13.9081 6.75502 14.1743 7.33374 14.2061 7.94761C14.2416 8.63124 14.0027 9.27997 13.5333 9.77434C13.0635 10.2692 12.4299 10.5417 11.749 10.5417C10.7298 10.5417 9.9036 11.3679 9.9036 12.3871V16.0369C9.9036 17.0561 10.7298 17.8823 11.749 17.8823C12.7682 17.8823 13.5944 17.0561 13.5944 16.0369V13.9468C14.5817 13.6349 15.4874 13.0766 16.2099 12.3156C17.3831 11.08 17.9804 9.46082 17.892 7.75639Z" fill="#A69FEA"/>
</svg>
