<svg width="24" height="25" viewBox="0 0 24 25" fill="none" xmlns="http://www.w3.org/2000/svg">
<rect x="4.30469" y="6.02539" width="16.1858" height="10.3409" fill="#FFF2CC"/>
<path fill-rule="evenodd" clip-rule="evenodd" d="M2.05664 10.3418C2.05664 7.57194 2.05664 6.18703 2.59568 5.12909C3.06985 4.1985 3.82643 3.44192 4.75702 2.96775C5.81496 2.42871 7.19987 2.42871 9.9697 2.42871H16.3991C19.1689 2.42871 18.5414 2.42871 19.5994 2.96775C20.53 3.44192 21.2865 4.1985 21.7607 5.12909C22.2998 6.18703 22.2998 7.57194 22.2998 10.3418V11.8255C22.2998 14.5953 22.2998 15.9802 21.7607 17.0382C21.2865 17.9687 20.53 18.7253 19.5994 19.1994C18.5414 19.7385 19.1689 19.7385 16.3991 19.7385H7.51444C7.18653 19.7385 6.87203 19.8688 6.64017 20.1007L4.16734 22.5735C3.38843 23.3524 2.05664 22.8007 2.05664 21.6992V19.7385V13.5564V10.3418ZM8.12631 7.37437C7.44347 7.37437 6.8899 7.92794 6.8899 8.61079C6.8899 9.29363 7.44347 9.8472 8.12631 9.8472H18.2424C18.9253 9.8472 19.4789 9.29363 19.4789 8.61079C19.4789 7.92794 18.9253 7.37437 18.2424 7.37437H8.12631ZM8.12631 12.32C7.44347 12.32 6.8899 12.8736 6.8899 13.5564C6.8899 14.2393 7.44347 14.7929 8.12631 14.7929H14.5332C15.2161 14.7929 15.7696 14.2393 15.7696 13.5564C15.7696 12.8736 15.2161 12.32 14.5332 12.32H8.12631Z" fill="#FFC000"/>
</svg>
