<svg width="17" height="28" viewBox="0 0 17 28" fill="none" xmlns="http://www.w3.org/2000/svg">
<path d="M8.80948 28C10.1652 28 11.2643 26.9009 11.2643 25.5452C11.2643 24.1894 10.1652 23.0904 8.80948 23.0904C7.45373 23.0904 6.35468 24.1894 6.35468 25.5452C6.35468 26.9009 7.45373 28 8.80948 28Z" fill="#82D5BB"/>
<path d="M16.981 7.82056C16.76 3.56126 13.2442 0.157488 8.97721 0.0714608C8.92124 0.0703697 8.86576 0.0698242 8.81011 0.0698242C4.73853 0.0698242 1.26995 3.07117 0.705779 7.11423C0.653465 7.48905 0.626953 7.872 0.626953 8.25249C0.626953 9.60825 1.72599 10.7073 3.08175 10.7073C4.43751 10.7073 5.53655 9.60825 5.53655 8.25249C5.53655 8.09828 5.54719 7.94368 5.5683 7.79285C5.79676 6.15593 7.21695 4.94719 8.87836 4.98008C9.69777 4.99661 10.48 5.32593 11.0811 5.9075C11.6816 6.48853 12.0357 7.25835 12.0781 8.07493C12.1252 8.9843 11.8074 9.84724 11.1831 10.5049C10.5581 11.1631 9.71523 11.5256 8.80957 11.5256C7.45381 11.5256 6.35477 12.6246 6.35477 13.9804V18.8354C6.35477 20.1912 7.45381 21.2902 8.80957 21.2902C10.1653 21.2902 11.2644 20.1912 11.2644 18.8354V16.0551C12.5776 15.6402 13.7824 14.8976 14.7435 13.8853C16.304 12.2417 17.0987 10.0878 16.981 7.82056Z" fill="#06AB78"/>
</svg>
