<svg width="24" height="24" viewBox="0 0 24 24" fill="none" xmlns="http://www.w3.org/2000/svg">
<path d="M17.9271 2.77344H7.40432L6.5625 4.03617V4.878L6.98341 5.71982C7.68493 6.28104 9.17215 7.48765 9.50888 7.82438C9.9298 8.24529 10.3507 9.08712 10.7716 9.50803C11.1925 9.92894 10.7716 11.1917 10.7716 11.6126C10.7716 12.0335 10.3507 13.2962 10.3507 13.7171C10.3507 14.0539 8.66706 15.2605 7.82524 15.8217L6.98341 18.3472L7.40432 19.189H13.2971H17.5062C17.5062 18.7681 17.422 17.8421 17.0853 17.5054C16.7486 17.1686 16.3838 15.962 16.2435 15.4008L14.1389 13.2962L13.718 11.6126L14.5598 10.3499L16.2435 7.40347L17.5062 6.14073L17.9271 3.61526V2.77344Z" fill="#FFEEEE"/>
<path d="M9.27486 9.9324C7.93533 8.71113 6.12386 7.05943 5.95876 3.1135H5.35466C5.02775 3.1135 4.76275 2.8485 4.76275 2.5216C4.76275 2.19469 5.02775 1.92969 5.35466 1.92969H19.5604C19.8873 1.92969 20.1523 2.19469 20.1523 2.5216C20.1523 2.8485 19.8873 3.1135 19.5604 3.1135H18.9563C18.7912 7.05943 16.9798 8.71113 15.6402 9.9324C14.7417 10.7516 14.2333 11.2531 14.2333 12.0316C14.2333 12.8101 14.7417 13.3115 15.6402 14.1308C16.9798 15.352 18.7912 17.0037 18.9563 20.9497H19.5604C19.8873 20.9497 20.1523 21.2147 20.1523 21.5416C20.1523 21.8685 19.8873 22.1335 19.5604 22.1335H5.35466C5.02775 22.1335 4.76275 21.8685 4.76275 21.5416C4.76275 21.2147 5.02775 20.9497 5.35466 20.9497H5.95876C6.12386 17.0037 7.93533 15.352 9.27486 14.1308C10.1734 13.3115 10.6818 12.8101 10.6818 12.0316C10.6818 11.2531 10.1734 10.7516 9.27486 9.9324ZM13.0495 16.4684C13.2323 16.5062 13.4129 16.5611 13.5892 16.634L17.2147 18.1342C16.6226 16.6288 15.669 15.759 14.8427 15.0056C13.9205 14.1648 13.0495 13.3707 13.0495 12.0316V16.4684ZM10.0724 15.0056C9.24609 15.759 8.29253 16.6288 7.70043 18.1342L11.3259 16.6339C11.5022 16.561 11.6828 16.5061 11.8656 16.4684V12.0316C11.8656 13.3707 10.9946 14.1648 10.0724 15.0056ZM17.2355 5.87574C17.5217 5.12997 17.7193 4.22952 17.7711 3.1135H7.14407C7.1958 4.22952 7.39342 5.12997 7.67967 5.87574H17.2355Z" fill="#FF5D3E"/>
</svg>
