<svg width="21" height="22" viewBox="0 0 21 22" fill="none" xmlns="http://www.w3.org/2000/svg">
<rect x="2.30469" y="4.52734" width="16.1858" height="10.3409" fill="#FFF2CC"/>
<path fill-rule="evenodd" clip-rule="evenodd" d="M0.0546875 8.84274C0.0546875 6.07291 0.0546875 4.68801 0.593727 3.63007C1.06789 2.69948 1.82448 1.94289 2.75507 1.46873C3.81301 0.929687 5.19791 0.929688 7.96774 0.929688H14.3971C17.1669 0.929688 16.5395 0.929687 17.5975 1.46873C18.528 1.94289 19.2846 2.69948 19.7587 3.63007C20.2978 4.68801 20.2978 6.07291 20.2978 8.84274V10.3264C20.2978 13.0963 20.2978 14.4812 19.7587 15.5392C19.2846 16.4697 18.528 17.2263 17.5975 17.7004C16.5395 18.2395 17.1669 18.2395 14.3971 18.2395H5.51248C5.18457 18.2395 4.87008 18.3698 4.63821 18.6016L2.16538 21.0745C1.38648 21.8534 0.0546875 21.3017 0.0546875 20.2002V18.2395V12.0574V8.84274ZM6.12436 5.87535C5.44151 5.87535 4.88795 6.42892 4.88795 7.11176C4.88795 7.79461 5.44151 8.34818 6.12436 8.34818H16.2405C16.9234 8.34818 17.4769 7.79461 17.4769 7.11176C17.4769 6.42892 16.9234 5.87535 16.2405 5.87535H6.12436ZM6.12436 10.821C5.44151 10.821 4.88795 11.3745 4.88795 12.0574C4.88795 12.7403 5.44151 13.2938 6.12436 13.2938H12.5312C13.2141 13.2938 13.7677 12.7403 13.7677 12.0574C13.7677 11.3745 13.2141 10.821 12.5312 10.821H6.12436Z" fill="#FFC000"/>
</svg>
