<svg width="112" height="112" viewBox="0 0 112 112" fill="none" xmlns="http://www.w3.org/2000/svg">
<g filter="url(#filter0_d_5799_305214)">
<path d="M32 36C32 22.7452 42.7452 12 56 12C69.2548 12 80 22.7452 80 36C80 49.2548 69.2548 60 56 60C42.7452 60 32 49.2548 32 36Z" fill="#073F56" shape-rendering="crispEdges"/>
<path d="M54.6875 34.6875C55.0356 34.6875 55.3694 34.8258 55.6156 35.0719C55.8617 35.3181 56 35.6519 56 36V42.5625C56 42.9106 56.1383 43.2444 56.3844 43.4906C56.6306 43.7367 56.9644 43.875 57.3125 43.875" stroke="white" stroke-width="2.625" stroke-linecap="round" stroke-linejoin="round"/>
<path d="M55.3438 30.75C56.4311 30.75 57.3125 29.8686 57.3125 28.7812C57.3125 27.6939 56.4311 26.8125 55.3438 26.8125C54.2564 26.8125 53.375 27.6939 53.375 28.7812C53.375 29.8686 54.2564 30.75 55.3438 30.75Z" fill="white"/>
</g>
<defs>
<filter id="filter0_d_5799_305214" x="0" y="0" width="112" height="112" filterUnits="userSpaceOnUse" color-interpolation-filters="sRGB">
<feFlood flood-opacity="0" result="BackgroundImageFix"/>
<feColorMatrix in="SourceAlpha" type="matrix" values="0 0 0 0 0 0 0 0 0 0 0 0 0 0 0 0 0 0 127 0" result="hardAlpha"/>
<feOffset dy="20"/>
<feGaussianBlur stdDeviation="16"/>
<feComposite in2="hardAlpha" operator="out"/>
<feColorMatrix type="matrix" values="0 0 0 0 0.0823529 0 0 0 0 0.101961 0 0 0 0 0.156863 0 0 0 0.03 0"/>
<feBlend mode="normal" in2="BackgroundImageFix" result="effect1_dropShadow_5799_305214"/>
<feBlend mode="normal" in="SourceGraphic" in2="effect1_dropShadow_5799_305214" result="shape"/>
</filter>
</defs>
</svg>
