<svg width="16" height="17" viewBox="0 0 16 17" fill="none" xmlns="http://www.w3.org/2000/svg">
<path d="M8.46871 0.863281H8.68026L9.23137 0.865059C9.88915 0.867726 10.266 0.873059 10.6029 0.882837L10.7692 0.889059L11.298 0.911281C12.1487 0.950392 12.73 1.0855 13.2385 1.28284C13.7718 1.48373 14.2563 1.79839 14.6554 2.2055C15.0625 2.6055 15.3772 3.08817 15.578 3.62239C15.7754 4.13084 15.9105 4.71217 15.9496 5.56284C15.9585 5.76728 15.9674 5.93884 15.9727 6.11128L15.9789 6.28462C15.9905 6.66684 15.9949 7.10773 15.9967 7.95395L15.9976 8.37439V9.76728C15.994 11.1344 15.9825 11.4411 15.9496 12.1584C15.9105 13.0091 15.7754 13.5904 15.578 14.0988C15.3727 14.6302 15.0586 15.1128 14.6559 15.5157C14.2531 15.9186 13.7707 16.2329 13.2394 16.4384C12.73 16.6357 12.1487 16.7708 11.298 16.8099C10.5816 16.8428 10.274 16.8544 8.90693 16.8571L8.25182 16.8579H7.0936C5.72649 16.8544 5.41982 16.8428 4.70249 16.8099C3.85182 16.7708 3.27049 16.6357 2.76204 16.4384C2.22825 16.2376 1.74471 15.9227 1.34515 15.5157C0.938187 15.1162 0.623308 14.6326 0.422485 14.0988C0.225152 13.5904 0.0900408 13.0091 0.0509297 12.1575L0.0287075 11.6295L0.0224852 11.4633C0.0127075 11.1255 0.00737413 10.7504 0.00470747 10.0917L0.00292969 9.54062V8.39217V8.18061L0.00470747 7.6295C0.0016985 6.94033 0.0171114 6.25119 0.0509297 5.56284C0.0900408 4.71217 0.225152 4.13084 0.422485 3.62239C0.623308 3.0886 0.938187 2.60506 1.34515 2.2055C1.74471 1.79854 2.22825 1.48366 2.76204 1.28284C3.27049 1.0855 3.85182 0.950392 4.70249 0.911281C5.39114 0.877523 6.08057 0.86211 6.77004 0.865059L7.32115 0.863281H7.53182H8.46871ZM8.4776 2.30417H7.52293C5.82071 2.30595 5.54426 2.31573 4.76826 2.35039C3.98871 2.38595 3.5656 2.51661 3.28382 2.62595C2.93626 2.75395 2.6216 2.95839 2.36382 3.22417C2.09804 3.48195 1.8936 3.79661 1.7656 4.14417C1.65626 4.42595 1.5256 4.84906 1.49004 5.62861C1.45449 6.40461 1.4456 6.68106 1.44382 8.38328V9.33795C1.4456 11.0402 1.45449 11.3166 1.49004 12.0926C1.5256 12.8722 1.65626 13.2953 1.7656 13.5771C1.8936 13.9246 2.09804 14.2393 2.36382 14.4971C2.6216 14.7628 2.93626 14.9673 3.28382 15.0953C3.5656 15.2046 3.98871 15.3353 4.76826 15.3708C5.47671 15.4028 5.76826 15.4135 7.1096 15.4162L7.52293 15.4171H8.89093C10.2323 15.4135 10.5238 15.4028 11.2323 15.3708C12.0118 15.3353 12.4349 15.2046 12.7167 15.0953C13.0617 14.9622 13.3751 14.7584 13.6365 14.4969C13.898 14.2354 14.1019 13.9221 14.2349 13.5771C14.3443 13.2953 14.4749 12.8722 14.5105 12.0926C14.5425 11.3842 14.5532 11.0926 14.5558 9.75128L14.5567 9.10773V8.86061V7.96995C14.5532 6.6295 14.5425 6.33706 14.5105 5.62861C14.4749 4.84906 14.3443 4.42595 14.2349 4.14417C14.1068 3.79665 13.9024 3.48228 13.6367 3.22417C13.3786 2.95852 13.0642 2.7541 12.7167 2.62595C12.4349 2.51661 12.0118 2.38595 11.2323 2.35039C10.4563 2.31484 10.1798 2.30595 8.4776 2.30417ZM8.00026 4.75395C8.53956 4.75395 9.07357 4.86017 9.57182 5.06655C10.0701 5.27293 10.5228 5.57542 10.9041 5.95676C11.2855 6.3381 11.5879 6.79082 11.7943 7.28906C12.0007 7.78731 12.1069 8.32132 12.1069 8.86061C12.1069 9.39991 12.0007 9.93392 11.7943 10.4322C11.5879 10.9304 11.2855 11.3831 10.9041 11.7645C10.5228 12.1458 10.0701 12.4483 9.57182 12.6547C9.07357 12.8611 8.53956 12.9673 8.00026 12.9673C6.91111 12.9673 5.86656 12.5346 5.09641 11.7645C4.32626 10.9943 3.8936 9.94977 3.8936 8.86061C3.8936 7.77146 4.32626 6.72691 5.09641 5.95676C5.86656 5.18661 6.91111 4.75395 8.00026 4.75395ZM8.00026 6.19395C7.29325 6.19395 6.6152 6.47481 6.11527 6.97474C5.61534 7.47467 5.33449 8.15272 5.33449 8.85972C5.33449 9.56673 5.61534 10.2448 6.11527 10.7447C6.6152 11.2446 7.29325 11.5255 8.00026 11.5255C8.70727 11.5255 9.38532 11.2446 9.88525 10.7447C10.3852 10.2448 10.666 9.56673 10.666 8.85972C10.666 8.15272 10.3852 7.47467 9.88525 6.97474C9.38532 6.47481 8.70727 6.19395 8.00026 6.19395ZM12.2696 3.63128C12.3981 3.62737 12.526 3.6493 12.6458 3.69576C12.7657 3.74222 12.875 3.81228 12.9672 3.90177C13.0595 3.99125 13.1328 4.09836 13.1829 4.21672C13.233 4.33509 13.2588 4.46231 13.2588 4.59084C13.2588 4.71936 13.233 4.84658 13.1829 4.96495C13.1328 5.08332 13.0595 5.19042 12.9672 5.27991C12.875 5.3694 12.7657 5.43945 12.6458 5.48591C12.526 5.53238 12.3981 5.5543 12.2696 5.55039C12.015 5.55039 11.7708 5.44925 11.5908 5.26922C11.4107 5.08918 11.3096 4.845 11.3096 4.59039C11.3096 4.33578 11.4107 4.0916 11.5908 3.91157C11.7708 3.73153 12.015 3.63039 12.2696 3.63039V3.63128Z" fill="white"/>
</svg>
