<svg width="80" height="80" viewBox="0 0 80 80" fill="none" xmlns="http://www.w3.org/2000/svg">
<g clip-path="url(#clip0_54_1227)">
<g clip-path="url(#clip1_54_1227)">
<g clip-path="url(#clip2_54_1227)">
<path fill-rule="evenodd" clip-rule="evenodd" d="M40 0C48.3842 0 55.8005 0.67937 60.3122 1.72063C69.3078 3.60829 76.3917 10.6922 78.2794 19.6878C79.3206 24.1995 80 31.6158 80 40C80 48.3842 79.3206 55.8005 78.2794 60.3122C76.3917 69.3078 69.3078 76.3917 60.3122 78.2794C55.8005 79.3206 48.3842 80 40 80C31.6158 80 24.1995 79.3206 19.6878 78.2794C10.6922 76.3917 3.60829 69.3078 1.72063 60.3122C0.67937 55.8005 0 48.3842 0 40C0 31.6158 0.67937 24.1995 1.72063 19.6878C3.60829 10.6922 10.6922 3.60829 19.6878 1.72063C24.1995 0.67937 31.6158 0 40 0Z" fill="white"/>
<g clip-path="url(#clip3_54_1227)">
<path d="M39.8918 34.2925C35.5412 34.1971 32.159 30.698 32.2672 26.4071C32.3736 22.2319 35.9241 18.9116 40.1905 19.0018C44.4655 19.092 47.8375 22.6116 47.7293 26.8736C47.6246 31.0113 44.0621 34.3861 39.8935 34.2942L39.8918 34.2925Z" fill="#073F56"/>
<path d="M25.757 43.5265C30.0062 43.5521 33.5018 46.9814 33.452 51.165C33.4005 55.5156 30.0011 58.8291 25.6814 58.8223C21.3583 58.8172 17.9761 55.347 18.0001 51.0884C18.0242 46.8877 21.4991 43.501 25.757 43.5265Z" fill="#073F56"/>
<path d="M54.3304 43.5247C58.6191 43.5452 62.0134 46.9796 61.9996 51.262C61.9876 54.9264 59.0586 58.8376 54.2256 58.8154C49.8682 58.795 46.589 55.4133 46.5444 51.1599C46.4997 46.9422 50.0468 43.5043 54.3304 43.5247Z" fill="#073F56"/>
<path d="M35.1684 56.876C38.3652 57.9436 41.6204 57.9504 44.8378 56.8691C45.607 57.7631 46.3452 58.6196 47.08 59.4726C43.4986 61.4734 36.7393 61.5381 32.9004 59.4863C33.6404 58.6349 34.3821 57.7818 35.1684 56.876Z" fill="#073F56"/>
<path d="M29.1085 28.5676C29.524 29.7289 29.8948 30.7625 30.3 31.8914C27.7779 34.1152 26.1297 36.9349 25.4481 40.2161C24.2652 40.4324 23.1767 40.6299 21.9629 40.853C22.6462 35.7703 25.0412 31.745 29.1102 28.5693L29.1085 28.5676Z" fill="#073F56"/>
<path d="M58.0481 40.8564C56.8274 40.6299 55.7664 40.4341 54.5543 40.2093C53.8779 36.9826 52.2571 34.1493 49.6973 31.8965C50.0939 30.7914 50.475 29.734 50.8905 28.5745C54.9509 31.716 57.3253 35.7481 58.0481 40.8564Z" fill="#073F56"/>
</g>
</g>
</g>
</g>
<defs>
<clipPath id="clip0_54_1227">
<rect width="80" height="80" fill="white"/>
</clipPath>
<clipPath id="clip1_54_1227">
<rect width="80" height="80" fill="white"/>
</clipPath>
<clipPath id="clip2_54_1227">
<rect width="80" height="80" fill="white"/>
</clipPath>
<clipPath id="clip3_54_1227">
<rect width="44" height="42" fill="white" transform="translate(18 19)"/>
</clipPath>
</defs>
</svg>
