<svg width="24" height="24" viewBox="0 0 24 24" fill="none" xmlns="http://www.w3.org/2000/svg">
  <g clip-path="url(#clip0_569_86556)">
    <path d="M10.9695 10.6292H3.85017C3.56435 10.6292 3.31293 10.8181 3.23368 11.0928L1.86755 15.8231L11.446 16.8711L12.1976 13.2737C11.7298 12.4384 11.2994 11.5442 10.9695 10.6292Z" fill="#5A69D6"/>
    <path d="M19.9156 17.7978L22.7923 18.1125L21.9334 15.1384C21.818 15.3082 21.7032 15.4737 21.5901 15.6327C21.009 16.451 20.4282 17.1855 19.9156 17.7978Z" fill="#5A69D6"/>
    <path d="M13.6774 15.604L13.3687 17.0816L14.9235 17.2516C14.5331 16.7663 14.1175 16.224 13.7012 15.6379C13.6935 15.6268 13.6854 15.6152 13.6774 15.604Z" fill="#5A69D6"/>
    <path d="M0.0252032 22.2028C-0.0307536 22.3967 0.00762043 22.6053 0.128839 22.7666C0.250057 22.9278 0.440002 23.0226 0.64169 23.0226H10.1608L11.0504 18.7646L1.32543 17.7004L0.0252032 22.2028Z" fill="#5A69D6"/>
    <path d="M23.3698 20.1124L12.9732 18.9747L12.1273 23.0226H23.357C23.3574 23.0226 23.3579 23.0226 23.3583 23.0226C23.7127 23.0226 24 22.7351 24 22.3808C24 22.304 23.9865 22.2303 23.9618 22.1623L23.3698 20.1124Z" fill="#5A69D6"/>
    <path d="M17.379 18.6136C17.4473 18.6866 17.5434 18.7281 17.6438 18.7281C17.7442 18.7281 17.84 18.6866 17.909 18.6136C18.4937 17.9916 19.6483 16.7044 20.8054 15.0754C22.2629 13.0233 24 10.0146 24 7.3332C24 3.82839 21.1487 0.977295 17.6438 0.977295C14.1393 0.977295 11.288 3.82839 11.288 7.3332C11.288 10.0164 13.0272 13.0272 14.4863 15.0806C15.643 16.7095 16.795 17.9929 17.379 18.6136ZM17.6438 3.36887C19.7839 3.36887 21.5248 5.11027 21.5248 7.25029C21.5248 9.38948 19.7838 11.1317 17.6438 11.1317C15.5041 11.1317 13.763 9.38948 13.763 7.25029C13.7631 5.11027 15.504 3.36887 17.6438 3.36887Z" fill="#5A69D6"/>
  </g>
  <defs>
    <clipPath id="clip0_569_86556">
      <rect width="24" height="24" fill="white"/>
    </clipPath>
  </defs>
</svg>
