<svg width="24" height="24" viewBox="0 0 24 24" fill="none" xmlns="http://www.w3.org/2000/svg">
  <g clip-path="url(#clip0_569_86386)">
    <path d="M10.9696 10.6292H3.85029C3.56447 10.6292 3.31305 10.8181 3.2338 11.0928L1.86768 15.8231L11.4461 16.8711L12.1977 13.2737C11.7299 12.4384 11.2995 11.5442 10.9696 10.6292Z" fill="#9692A3"/>
    <path d="M19.9155 17.7978L22.7922 18.1125L21.9332 15.1384C21.8179 15.3082 21.7031 15.4737 21.59 15.6327C21.0089 16.451 20.4281 17.1855 19.9155 17.7978Z" fill="#9692A3"/>
    <path d="M13.6774 15.604L13.3687 17.0816L14.9235 17.2516C14.5331 16.7663 14.1175 16.224 13.7012 15.6379C13.6935 15.6268 13.6854 15.6152 13.6774 15.604Z" fill="#9692A3"/>
    <path d="M0.0252032 22.2028C-0.0307536 22.3967 0.00762043 22.6053 0.128839 22.7666C0.250057 22.9278 0.440002 23.0226 0.64169 23.0226H10.1608L11.0504 18.7646L1.32543 17.7004L0.0252032 22.2028Z" fill="#9692A3"/>
    <path d="M23.3699 20.1124L12.9733 18.9747L12.1274 23.0226H23.3571C23.3576 23.0226 23.358 23.0226 23.3584 23.0226C23.7128 23.0226 24.0001 22.7351 24.0001 22.3808C24.0001 22.304 23.9866 22.2303 23.9619 22.1623L23.3699 20.1124Z" fill="#9692A3"/>
    <path d="M17.3792 18.6136C17.4474 18.6866 17.5436 18.7281 17.6439 18.7281C17.7444 18.7281 17.8402 18.6866 17.9091 18.6136C18.4938 17.9916 19.6484 16.7044 20.8055 15.0754C22.2631 13.0233 24.0001 10.0146 24.0001 7.3332C24.0001 3.82839 21.1488 0.977295 17.6439 0.977295C14.1394 0.977295 11.2881 3.82839 11.2881 7.3332C11.2881 10.0164 13.0274 13.0272 14.4864 15.0806C15.6432 16.7095 16.7951 17.9929 17.3792 18.6136ZM17.6439 3.36887C19.784 3.36887 21.5249 5.11027 21.5249 7.25029C21.5249 9.38948 19.784 11.1317 17.6439 11.1317C15.5042 11.1317 13.7631 9.38948 13.7631 7.25029C13.7632 5.11027 15.5042 3.36887 17.6439 3.36887Z" fill="#9692A3"/>
  </g>
  <defs>
    <clipPath id="clip0_569_86386">
      <rect width="24" height="24" fill="white"/>
    </clipPath>
  </defs>
</svg>
