<svg width="16" height="17" viewBox="0 0 16 17" fill="none" xmlns="http://www.w3.org/2000/svg">
<path d="M14.816 0.860352H1.18C0.528 0.860352 0 1.37635 0 2.01335V15.7034C0.00343032 16.0133 0.129723 16.3092 0.351149 16.5262C0.572575 16.7431 0.871036 16.8633 1.181 16.8604H14.816C15.469 16.8604 16 16.3414 16 15.7074V2.01335C16 1.37635 15.469 0.860352 14.816 0.860352ZM4.746 14.4944H2.373V6.85735H4.748V14.4944H4.746ZM3.56 5.81635C3.37626 5.82157 3.19333 5.78991 3.02203 5.72326C2.85072 5.65661 2.6945 5.55631 2.5626 5.42829C2.4307 5.30026 2.32579 5.14711 2.25406 4.97786C2.18233 4.80862 2.14523 4.62672 2.14496 4.44291C2.1447 4.25909 2.18126 4.07708 2.2525 3.90763C2.32374 3.73818 2.42821 3.58472 2.55974 3.45632C2.69126 3.32791 2.84719 3.22715 3.0183 3.16001C3.18941 3.09286 3.37224 3.06067 3.556 3.06535C3.91441 3.07448 4.2551 3.22314 4.50555 3.47968C4.75601 3.73622 4.89644 4.08038 4.89696 4.4389C4.89748 4.79743 4.75805 5.142 4.50834 5.39927C4.25864 5.65653 3.91838 5.80618 3.56 5.81635ZM13.635 14.4944H11.263V10.7824C11.263 9.89735 11.248 8.75735 10.029 8.75735C8.795 8.75735 8.607 9.72335 8.607 10.7194V14.4944H6.237V6.85735H8.512V7.90035H8.544C8.859 7.30035 9.634 6.66535 10.787 6.66535C13.191 6.66535 13.634 8.24735 13.634 10.3034V14.4934L13.635 14.4944Z" fill="white"/>
</svg>
