<svg id="Layer_1" data-name="Layer 1" xmlns="http://www.w3.org/2000/svg" viewBox="0 0 1404.36 1052.25"><defs><style>.cls-1{fill:#122a4b;}.cls-2{fill:#36995e;}.cls-3{fill:#1e9b50;}.cls-4{fill:#031324;}</style></defs><path class="cls-1" d="M1189.46,778.47a295.81,295.81,0,0,0,52.72,100.34L1393.26,761l-36.7,2.65a10.31,10.31,0,0,1-10.11-14.57l99.69-217.52a11.23,11.23,0,0,1,9.4-6.53l63.79-4.61a11.24,11.24,0,0,1,11,16l-57.51,121a2.4,2.4,0,0,0,2.34,3.43l51.36-3.71,183.87-143.34c-72.7-96.09-200-141.83-322.21-105.07C1231.17,456,1142.23,621.51,1189.46,778.47Zm109-279.33,71.15-48a18.16,18.16,0,1,1,21.69,29.11l-71.16,48a17.69,17.69,0,0,1-8,2.92,17.48,17.48,0,0,1-3.74.4,17.73,17.73,0,0,1-9.93-32.43Zm-12,35.14a17.75,17.75,0,0,1,5.87,24.39l-20.51,33.55a18.46,18.46,0,0,1-32.1-18.22l20.51-33.55a20.19,20.19,0,0,1,26.23-6.17Z" transform="translate(-782.32 -352.66)"/><path class="cls-2" d="M1596.86,652.1a8.5,8.5,0,0,1,6.06,1.88L1734.58,551.5a292.78,292.78,0,0,0-24.24-37.66L1526.47,657.18Z" transform="translate(-782.32 -352.66)"/><path class="cls-2" d="M1462.61,759.23a2.4,2.4,0,0,0-2.49-3L1393.26,761,1242.18,878.81a293.37,293.37,0,0,0,30.29,32.39L1460.3,765Z" transform="translate(-782.32 -352.66)"/><path class="cls-3" d="M1604.49,665.93,1432.41,877.65c-5.36,7.29-16.84,1.75-14.47-7L1460.3,765,1272.47,911.2l3.92,147.37c.65,24.57,30.3,36.52,47.81,19.27l94.59-93.18v0a295.44,295.44,0,0,0,140.38-7.49C1716.1,929.9,1805,764.39,1757.82,607.45a297.44,297.44,0,0,0-23.24-56L1602.92,654A8.68,8.68,0,0,1,1604.49,665.93Z" transform="translate(-782.32 -352.66)"/><path class="cls-4" d="M2054.91,687.77a25,25,0,0,0-25-25H1858.3a25,25,0,1,0,0,50.08h171.57A25,25,0,0,0,2054.91,687.77Z" transform="translate(-782.32 -352.66)"/><path class="cls-4" d="M1818.61,604.39A25,25,0,0,0,1852,616.08l100.68-48.5A25,25,0,1,0,1931,522.47L1830.3,571A25,25,0,0,0,1818.61,604.39Z" transform="translate(-782.32 -352.66)"/><path class="cls-4" d="M1897.58,422.77,1797,474.82a25,25,0,1,0,23,44.48l100.6-52a25,25,0,0,0-23-44.48Z" transform="translate(-782.32 -352.66)"/><path class="cls-4" d="M1964.4,841.37A25,25,0,0,0,1952.71,808L1852,759.46a25,25,0,0,0-21.73,45.11L1931,853.06a25,25,0,0,0,33.42-11.69Z" transform="translate(-782.32 -352.66)"/><path class="cls-4" d="M1931.32,942a25,25,0,0,0-10.73-33.74l-100.6-52a25,25,0,0,0-23,44.47l100.6,52A25,25,0,0,0,1931.32,942Z" transform="translate(-782.32 -352.66)"/><circle class="cls-4" cx="968.18" cy="41.11" r="41.11"/><circle class="cls-4" cx="968.18" cy="629.1" r="41.11"/><path class="cls-4" d="M903.07,687.77a25,25,0,0,0,25,25h171.57a25,25,0,0,0,0-50.08H928.11A25,25,0,0,0,903.07,687.77Z" transform="translate(-782.32 -352.66)"/><path class="cls-4" d="M1005.27,567.58,1106,616.08A25,25,0,0,0,1127.68,571L1027,522.47a25,25,0,0,0-21.73,45.11Z" transform="translate(-782.32 -352.66)"/><path class="cls-4" d="M1060.4,422.77a25,25,0,1,0-23,44.48l100.59,52a25,25,0,0,0,23-44.48Z" transform="translate(-782.32 -352.66)"/><path class="cls-4" d="M1106,759.46,1005.27,808A25,25,0,1,0,1027,853.06l100.68-48.49A25,25,0,1,0,1106,759.46Z" transform="translate(-782.32 -352.66)"/><path class="cls-4" d="M1037.39,908.29a25,25,0,1,0,23,44.47l100.6-52a25,25,0,1,0-23-44.47Z" transform="translate(-782.32 -352.66)"/><circle class="cls-4" cx="425.15" cy="41.11" r="41.11"/><circle class="cls-4" cx="425.15" cy="629.1" r="41.11"/><polygon class="cls-4" points="191.59 1002.61 60.68 1002.61 191.96 838.6 191.96 791.89 7.72 791.89 7.72 838.6 130.91 838.6 0 1002.61 0 1049.31 191.59 1049.31 191.59 1002.61"/><path class="cls-4" d="M1048.93,1392.22a92.93,92.93,0,0,0,47.8,12.69A91.62,91.62,0,0,0,1149,1389.1a96.44,96.44,0,0,0,34.94-41.19l-57-.36a52,52,0,0,1-13.06,7.72q-7.17,2.94-18.57,2.94-16.18,0-27.4-7.91a35.79,35.79,0,0,1-14.52-21.51h136.43a117.1,117.1,0,0,0,1.47-22.8q-.73-27.95-14.89-48.54a94,94,0,0,0-35.86-31.44,100,100,0,0,0-45.23-10.85,89.37,89.37,0,0,0-47.25,13,95.77,95.77,0,0,0-46.15,82.19,92.25,92.25,0,0,0,12.68,47.44A94.26,94.26,0,0,0,1048.93,1392.22Zm21.32-122.64q11-7.71,26.48-7.72a47.76,47.76,0,0,1,43.39,28.69h-86.78A49.49,49.49,0,0,1,1070.25,1269.58Z" transform="translate(-782.32 -352.66)"/><path class="cls-4" d="M1267.54,1149.89a27.3,27.3,0,0,0-20-8.28,27.73,27.73,0,0,0-20.41,8.28,27.26,27.26,0,0,0-8.27,20,28.25,28.25,0,0,0,28.68,28.68,27.33,27.33,0,0,0,20-8.27,27.73,27.73,0,0,0,8.28-20.41A27.26,27.26,0,0,0,1267.54,1149.89Z" transform="translate(-782.32 -352.66)"/><rect class="cls-4" x="441.27" y="865.44" width="47.81" height="183.87"/><path class="cls-4" d="M1400.85,1264.8v-46.7h-33.1v-73.18h-47.81v73.18h-27.21v46.7h27.21v50.38q0,44.5,21.89,66.2t59,21.69v-46.7q-17.65,0-25.38-9.56t-7.72-31.63V1264.8Z" transform="translate(-782.32 -352.66)"/><path class="cls-4" d="M1569.27,1205.6c0-37.88-26.48-61-71.34-61h-75V1402h92.3c41.55,0,73.92-29.79,73.92-74.28,0-30.53-13.61-52.59-43-66.2C1555.29,1253.77,1569.27,1240.53,1569.27,1205.6Zm-98.56-17.29h27.22c19.12,0,23.53,12.14,23.53,24.64,0,11-8.46,26.85-19.86,26.85h-30.89Zm44.13,169.9h-44.13V1288h41.19c19.49,0,29.42,16.18,29.42,32C1541.32,1339.45,1531,1358.21,1514.84,1358.21Z" transform="translate(-782.32 -352.66)"/><rect class="cls-4" x="834.38" y="791.9" width="47.81" height="257.42"/><path class="cls-4" d="M1881.47,1402V1310a94.91,94.91,0,0,0-47.07-82.19,95,95,0,0,0-94.88,0,95.38,95.38,0,0,0-34.57,34.56,94.55,94.55,0,0,0,0,95.25,95.23,95.23,0,0,0,34.57,34.56,92.28,92.28,0,0,0,47.44,12.69,65.43,65.43,0,0,0,29-6.62q13.6-6.61,17.65-15.81V1402Zm-60.68-57.55q-13.24,13.78-33.46,13.79t-33.84-13.79q-13.6-13.8-13.6-34.38t13.6-34.39q13.6-13.79,33.84-13.79t33.46,13.79Q1834,1289.45,1834,1310T1820.79,1344.42Z" transform="translate(-782.32 -352.66)"/><path class="cls-4" d="M2028.56,1298.82a283.68,283.68,0,0,0-36.41-8.27q-18.39-2.94-26.84-6.26t-8.46-9.93q0-7.35,7.91-12.13t19.67-4.78q12.13,0,21.15,5.15t9,12.87h45.6q0-28.32-21-44.31t-54-16q-21.33,0-38.62,7.17t-27.39,19.86a44.52,44.52,0,0,0-10.11,28.5q0,20.6,10.48,31.81a57.4,57.4,0,0,0,24.82,15.81,264.15,264.15,0,0,0,36,8.27q19.48,3.32,28.31,6.62t8.83,11.4q0,7.73-7.91,12.69t-22.25,5q-15.07,0-24.82-5.51t-9.74-14.34h-45.6q0,19.86,10.85,34t28.86,21.33a105.48,105.48,0,0,0,39.35,7.17q35.67,0,57.55-14.89t21.51-44.31q0-19.86-11-31.08A61.39,61.39,0,0,0,2028.56,1298.82Z" transform="translate(-782.32 -352.66)"/><path class="cls-4" d="M2153.59,1144.92h-47.81v73.18h-27.21v46.7h27.21v50.38q0,44.5,21.88,66.2t59,21.69v-46.7q-17.66,0-25.38-9.56t-7.72-31.63V1264.8h33.1v-46.7h-33.1Z" transform="translate(-782.32 -352.66)"/></svg>