<svg width="197" height="52" viewBox="0 0 197 52" fill="none" xmlns="http://www.w3.org/2000/svg">
<path d="M20.1358 29.8894C20.9332 32.534 22.2095 34.9033 23.8423 36.9322L34.464 28.6649L31.8841 28.8512C31.335 28.8904 30.9441 28.328 31.1734 27.8285L38.1813 12.5599C38.3013 12.2977 38.5544 12.1221 38.842 12.1019L43.327 11.778C43.9307 11.7341 44.3573 12.357 44.097 12.904L40.053 21.3955C39.9971 21.5117 40.0886 21.6458 40.2182 21.6363L43.8296 21.3765L56.7568 11.3153C51.6444 4.57026 42.6912 1.35969 34.1028 3.94024C23.0675 7.25522 16.8143 18.8731 20.1346 29.8905L20.1358 29.8894ZM27.7949 10.2819L32.7979 6.90996C32.975 6.79131 33.1711 6.72368 33.3695 6.70351C33.8508 6.60385 34.3666 6.79369 34.6577 7.22556C35.0428 7.79506 34.893 8.56863 34.3214 8.95423L29.3184 12.3262C29.1437 12.4436 28.9512 12.5101 28.7551 12.5314C28.6683 12.5504 28.5804 12.5599 28.4924 12.5599C28.092 12.5599 27.6986 12.3677 27.4574 12.0117C27.0723 11.4422 27.2221 10.6687 27.7937 10.2831L27.7949 10.2819ZM26.9523 12.7485C27.5394 13.1068 27.7247 13.8733 27.3659 14.4594L25.9232 16.8145C25.7105 17.161 25.3563 17.3651 24.9808 17.403C24.8976 17.4196 24.8144 17.4315 24.7288 17.4315C24.5066 17.4315 24.282 17.3722 24.08 17.2488C23.4929 16.8905 23.3075 16.124 23.6664 15.5379L25.1091 13.1828C25.3195 12.8387 25.67 12.6346 26.0432 12.5955C26.345 12.5314 26.6695 12.5765 26.9535 12.7497L26.9523 12.7485Z" fill="#122A4B"/>
<path d="M48.7765 21.0186C48.9441 21.0067 49.0903 21.0601 49.2032 21.1503L58.4594 13.9568C57.9556 13.0254 57.3851 12.1427 56.7553 11.3133L43.8281 21.3745L48.7765 21.0174V21.0186Z" fill="#36995E"/>
<path d="M39.3385 28.538C39.3693 28.4253 39.279 28.3173 39.1638 28.3256L34.4625 28.6649L23.8408 36.9322C24.4956 37.7461 25.2086 38.5066 25.9704 39.2055L39.1756 28.9426L39.3385 28.538Z" fill="#36995E"/>
<path d="M49.3148 21.9899L37.2171 36.8515C36.8404 37.3629 36.0335 36.9737 36.1998 36.3615L39.1779 28.9437L25.9727 39.2066L26.2484 49.5514C26.2947 51.2753 28.3791 52.1153 29.6103 50.9039L36.2604 44.363V44.3606C39.4429 44.961 42.8132 44.8304 46.1299 43.8338C57.164 40.5188 63.4172 28.901 60.0969 17.8847C59.6786 16.4965 59.1284 15.1843 58.4629 13.9575L49.2066 21.151C49.4443 21.3432 49.5275 21.7051 49.3171 21.9899H49.3148Z" fill="#1E9B50"/>
<path d="M80.9804 23.5225C80.9804 22.552 80.1925 21.7653 79.2205 21.7653H67.1584C66.1863 21.7653 65.3984 22.552 65.3984 23.5225C65.3984 24.493 66.1863 25.2796 67.1584 25.2796H79.2205C80.1925 25.2796 80.9804 24.493 80.9804 23.5225Z" fill="#031324"/>
<path d="M64.3669 17.6701C64.6699 18.2989 65.2986 18.6655 65.9546 18.6655C66.2112 18.6655 66.4715 18.6098 66.7175 18.4911L73.7955 15.0871C74.6713 14.666 75.0397 13.6159 74.6178 12.7415C74.196 11.8671 73.1442 11.4993 72.2684 11.9205L65.1904 15.3244C64.3146 15.7456 63.9462 16.7957 64.3681 17.6701H64.3669Z" fill="#031324"/>
<path d="M69.9197 4.9211L62.8465 8.57421C61.9825 9.02032 61.645 10.081 62.0919 10.9424C62.4044 11.5463 63.02 11.8927 63.657 11.8927C63.9291 11.8927 64.206 11.8299 64.4639 11.6958L71.5371 8.04268C72.401 7.59657 72.7385 6.53587 72.2917 5.6745C71.8449 4.81194 70.7825 4.47499 69.9197 4.9211Z" fill="#031324"/>
<path d="M74.6178 34.3041C75.0397 33.4297 74.6713 32.3796 73.7955 31.9584L66.7175 28.5545C65.8417 28.1333 64.7899 28.5011 64.3681 29.3755C63.9462 30.2499 64.3146 31.3 65.1904 31.7211L72.2684 35.1251C72.5144 35.2438 72.7747 35.2995 73.0313 35.2995C73.6861 35.2995 74.3148 34.9329 74.619 34.3041H74.6178Z" fill="#031324"/>
<path d="M72.2927 41.3699C72.7395 40.5073 72.402 39.4478 71.5381 39.0017L64.4649 35.3486C63.6009 34.9025 62.5397 35.2394 62.0928 36.102C61.646 36.9646 61.9835 38.0241 62.8475 38.4702L69.9207 42.1233C70.1798 42.2574 70.4555 42.3202 70.7276 42.3202C71.3646 42.3202 71.9802 41.9738 72.2927 41.3699Z" fill="#031324"/>
<path d="M59.5796 5.77095C61.1758 5.77095 62.4697 4.47908 62.4697 2.88548C62.4697 1.29187 61.1758 0 59.5796 0C57.9834 0 56.6895 1.29187 56.6895 2.88548C56.6895 4.47908 57.9834 5.77095 59.5796 5.77095Z" fill="#031324"/>
<path d="M59.5796 47.0444C61.1758 47.0444 62.4697 45.7525 62.4697 44.1589C62.4697 42.5653 61.1758 41.2734 59.5796 41.2734C57.9834 41.2734 56.6895 42.5653 56.6895 44.1589C56.6895 45.7525 57.9834 47.0444 59.5796 47.0444Z" fill="#031324"/>
<path d="M0 23.5225C0 24.493 0.787894 25.2796 1.75999 25.2796H13.822C14.7941 25.2796 15.582 24.493 15.582 23.5225C15.582 22.552 14.7941 21.7653 13.822 21.7653H1.75999C0.787894 21.7653 0 22.552 0 23.5225Z" fill="#031324"/>
<path d="M7.18436 15.0861L14.2623 18.4901C14.5083 18.6087 14.7686 18.6645 15.0253 18.6645C15.6801 18.6645 16.3087 18.2979 16.6129 17.6691C17.0348 16.7946 16.6664 15.7446 15.7906 15.3234L8.71261 11.9195C7.83678 11.4983 6.78506 11.8661 6.36319 12.7405C5.94132 13.6149 6.30971 14.6649 7.18555 15.0861H7.18436Z" fill="#031324"/>
<path d="M11.0615 4.9211C10.1976 4.47499 9.13636 4.81194 8.68953 5.6745C8.2427 6.53706 8.5802 7.59657 9.44415 8.04268L16.5174 11.6958C16.7764 11.8299 17.0521 11.8927 17.3243 11.8927C17.9612 11.8927 18.5756 11.5463 18.8894 10.9424C19.3362 10.0798 18.9987 9.02032 18.1348 8.57421L11.0615 4.9211Z" fill="#031324"/>
<path d="M14.2625 28.5545L7.18457 31.9584C6.30874 32.3796 5.94034 33.4297 6.36221 34.3041C6.66525 34.9329 7.2939 35.2995 7.94989 35.2995C8.20657 35.2995 8.46683 35.2438 8.71282 35.1251L15.7908 31.7211C16.6666 31.3 17.035 30.2499 16.6132 29.3755C16.1913 28.5011 15.1396 28.1333 14.2637 28.5545H14.2625Z" fill="#031324"/>
<path d="M9.44415 39.0017C8.5802 39.4478 8.2427 40.5085 8.68953 41.3699C9.00207 41.9738 9.61765 42.3202 10.2546 42.3202C10.5268 42.3202 10.8037 42.2574 11.0615 42.1233L18.1348 38.4702C18.9987 38.0241 19.3362 36.9634 18.8894 36.102C18.4425 35.2394 17.3801 34.9025 16.5174 35.3486L9.44415 39.0017Z" fill="#031324"/>
<path d="M21.4009 5.77095C22.9971 5.77095 24.291 4.47908 24.291 2.88548C24.291 1.29187 22.9971 0 21.4009 0C19.8047 0 18.5107 1.29187 18.5107 2.88548C18.5107 4.47908 19.8047 5.77095 21.4009 5.77095Z" fill="#031324"/>
<path d="M21.4009 47.0444C22.9971 47.0444 24.291 45.7525 24.291 44.1589C24.291 42.5653 22.9971 41.2734 21.4009 41.2734C19.8047 41.2734 18.5107 42.5653 18.5107 44.1589C18.5107 45.7525 19.8047 47.0444 21.4009 47.0444Z" fill="#031324"/>
<path d="M101.86 29.5355H91.6931L101.889 16.8189V13.1978H87.5804V16.8189H97.1473L86.9805 29.5355V33.1567H101.86V29.5355Z" fill="#031324"/>
<path d="M107.686 32.401C108.809 33.0563 110.046 33.3852 111.398 33.3852C112.882 33.3852 114.235 32.9763 115.453 32.1598C116.671 31.3433 117.575 30.2778 118.166 28.9659L113.74 28.9371C113.435 29.1848 113.096 29.384 112.726 29.536C112.355 29.688 111.874 29.7641 111.284 29.7641C110.446 29.7641 109.736 29.5596 109.156 29.1507C108.574 28.7418 108.199 28.1861 108.028 27.4823H118.623C118.717 26.9122 118.756 26.3225 118.737 25.7143C118.699 24.2701 118.313 23.0159 117.581 21.9504C116.848 20.8862 115.919 20.0736 114.796 19.5127C113.673 18.9517 112.502 18.6713 111.284 18.6713C109.951 18.6713 108.728 19.0094 107.613 19.683C106.5 20.358 105.623 21.261 104.985 22.392C104.347 23.5231 104.028 24.7445 104.028 26.0564C104.028 27.3683 104.356 28.6134 105.014 29.7339C105.671 30.8558 106.561 31.7444 107.684 32.3996L107.686 32.401ZM109.342 22.8914C109.913 22.4916 110.598 22.2924 111.398 22.2924C112.121 22.2924 112.792 22.4969 113.412 22.9058C114.03 23.3147 114.483 23.852 114.768 24.5165H108.028C108.333 23.8323 108.771 23.2898 109.342 22.8914Z" fill="#031324"/>
<path d="M124.664 13.6107C124.236 13.1834 123.717 12.9698 123.108 12.9698C122.498 12.9698 121.951 13.1834 121.523 13.6107C121.095 14.0379 120.88 14.5569 120.88 15.165C120.88 15.7731 121.094 16.3197 121.523 16.7469C121.952 17.1742 122.48 17.3891 123.108 17.3891C123.735 17.3891 124.235 17.1755 124.664 16.7469C125.092 16.3197 125.308 15.7915 125.308 15.165C125.308 14.5386 125.094 14.0392 124.664 13.6107Z" fill="#031324"/>
<path d="M124.962 18.9003H121.25V33.1569H124.962V18.9003Z" fill="#031324"/>
<path d="M135.017 22.521V18.8999H132.447V13.2264H128.735V18.8999H126.621V22.521H128.735V26.4279C128.735 28.728 129.3 30.4383 130.433 31.5601C131.566 32.682 133.094 33.2429 135.017 33.2429V29.6218C134.103 29.6218 133.446 29.3754 133.047 28.88C132.646 28.3859 132.447 27.5681 132.447 26.4279V22.521H135.017Z" fill="#031324"/>
<path d="M148.097 17.9307C148.097 14.9937 146.041 13.1968 142.556 13.1968H136.73V33.1558H143.899C147.126 33.1558 149.64 30.8465 149.64 27.3957C149.64 25.0288 148.583 23.3185 146.299 22.2635C147.013 21.6645 148.098 20.6383 148.098 17.9294L148.097 17.9307ZM140.443 16.5899H142.556C144.041 16.5899 144.384 17.5309 144.384 18.5008C144.384 19.3566 143.727 20.582 142.841 20.582H140.443V16.5899ZM143.87 29.7626H140.443V24.3172H143.642C145.155 24.3172 145.926 25.5714 145.926 26.7981C145.926 28.3092 145.127 29.764 143.87 29.764V29.7626Z" fill="#031324"/>
<path d="M155.493 13.1978H151.78V33.1567H155.493V13.1978Z" fill="#031324"/>
<path d="M172.342 33.1567V26.0285C172.342 24.6982 172.014 23.4676 171.356 22.3365C170.7 21.2055 169.809 20.3117 168.686 19.6564C167.563 19.0011 166.335 18.6721 165.003 18.6721C163.671 18.6721 162.442 18.9998 161.318 19.6564C160.195 20.3117 159.299 21.2055 158.634 22.3365C157.967 23.4676 157.635 24.6982 157.635 26.0285C157.635 27.3587 157.968 28.5907 158.634 29.7204C159.301 30.8514 160.195 31.7452 161.318 32.4005C162.442 33.0558 163.669 33.3848 165.003 33.3848C165.802 33.3848 166.555 33.2144 167.259 32.871C167.963 32.529 168.421 32.1201 168.63 31.6456V33.1567H172.342ZM167.63 28.6942C166.944 29.4071 166.078 29.7636 165.031 29.7636C163.983 29.7636 163.107 29.4071 162.402 28.6942C161.698 27.9812 161.346 27.0927 161.346 26.0285C161.346 24.9643 161.698 24.0757 162.402 23.3627C163.106 22.6498 163.983 22.2933 165.031 22.2933C166.078 22.2933 166.944 22.6498 167.63 23.3627C168.315 24.0757 168.658 24.9643 168.658 26.0285C168.658 27.0927 168.315 27.9812 167.63 28.6942Z" fill="#031324"/>
<path d="M183.765 25.1583C183.004 24.9211 182.061 24.7075 180.937 24.5174C179.986 24.3654 179.29 24.2042 178.853 24.0325C178.414 23.8621 178.197 23.6053 178.197 23.2632C178.197 22.8831 178.401 22.5699 178.811 22.3222C179.22 22.0758 179.73 21.9513 180.339 21.9513C180.948 21.9513 181.514 22.085 181.981 22.351C182.447 22.6171 182.681 22.95 182.681 23.3497H186.222C186.222 21.8858 185.68 20.7403 184.595 19.9133C183.509 19.0864 182.11 18.6735 180.397 18.6735C179.293 18.6735 178.292 18.8583 177.398 19.2292C176.503 19.6001 175.794 20.1125 175.271 20.7692C174.747 21.4244 174.486 22.1623 174.486 22.9788C174.486 24.043 174.757 24.866 175.299 25.4453C175.842 26.0259 176.485 26.4335 177.226 26.672C177.969 26.9092 178.901 27.1242 180.025 27.3129C181.035 27.4846 181.767 27.655 182.224 27.8267C182.681 27.9983 182.909 28.2932 182.909 28.71C182.909 29.1268 182.704 29.4374 182.295 29.6942C181.885 29.9511 181.309 30.0795 180.567 30.0795C179.786 30.0795 179.144 29.9367 178.639 29.6523C178.135 29.3666 177.882 28.997 177.882 28.5409H174.34C174.34 29.5671 174.621 30.4465 175.183 31.1778C175.744 31.9091 176.491 32.4609 177.425 32.8318C178.357 33.2027 179.377 33.3875 180.481 33.3875C182.328 33.3875 183.818 33.0022 184.95 32.2328C186.083 31.4635 186.64 30.3181 186.621 28.7965C186.621 27.7703 186.335 26.9669 185.764 26.3876C185.193 25.8084 184.526 25.3995 183.765 25.1609V25.1583Z" fill="#031324"/>
<path d="M193.471 13.2264H189.759V18.8999H187.646V22.521H189.759V26.4279C189.759 28.728 190.325 30.4383 191.459 31.5601C192.592 32.682 194.12 33.2429 196.043 33.2429V29.6218C195.129 29.6218 194.472 29.3754 194.072 28.88C193.672 28.3859 193.473 27.5681 193.473 26.4279V22.521H196.043V18.8999H193.473V13.2264H193.471Z" fill="#031324"/>
</svg>
