<svg width="115" height="87" viewBox="0 0 115 87" fill="none" xmlns="http://www.w3.org/2000/svg">
<g clip-path="url(#clip0_33_3089)">
<path d="M33.3403 35.2063C34.269 38.3214 35.7556 41.1123 37.6574 43.502L50.0289 33.7641L47.0239 33.9835C46.3844 34.0296 45.929 33.3672 46.1962 32.7788L54.3585 14.7941C54.4983 14.4853 54.7931 14.2784 55.128 14.2547L60.3518 13.8731C61.0549 13.8214 61.5518 14.5551 61.2487 15.1994L56.5385 25.2015C56.4734 25.3384 56.58 25.4963 56.7309 25.4852L60.9373 25.1791L75.994 13.3281C70.0394 5.38318 59.6113 1.60149 49.6081 4.6411C36.7549 8.54578 29.4716 22.2303 33.3389 35.2077L33.3403 35.2063ZM42.2611 12.1109L48.0883 8.1391C48.2945 7.99935 48.5229 7.91969 48.7541 7.89593C49.3146 7.77854 49.9154 8.00214 50.2545 8.51084C50.7029 9.18165 50.5285 10.0928 49.8628 10.547L44.0355 14.5188C43.8321 14.6571 43.6078 14.7354 43.3794 14.7606C43.2784 14.7829 43.176 14.7941 43.0736 14.7941C42.6071 14.7941 42.1489 14.5677 41.868 14.1484C41.4195 13.4776 41.5939 12.5665 42.2597 12.1123L42.2611 12.1109ZM41.2797 15.0163C41.9635 15.4384 42.1794 16.3412 41.7614 17.0315L40.081 19.8056C39.8333 20.2137 39.4208 20.4541 38.9834 20.4988C38.8865 20.5184 38.7896 20.5323 38.69 20.5323C38.4311 20.5323 38.1695 20.4625 37.9342 20.3171C37.2505 19.8951 37.0345 18.9923 37.4526 18.3019L39.1329 15.5278C39.3779 15.1225 39.7862 14.8821 40.2208 14.836C40.5724 14.7606 40.9503 14.8137 41.2811 15.0177L41.2797 15.0163Z" fill="white"/>
<path d="M66.7001 24.7569C66.8953 24.743 67.0655 24.8058 67.197 24.9121L77.9781 16.4389C77.3912 15.3418 76.7268 14.3021 75.9932 13.3252L60.9365 25.1762L66.7001 24.7555V24.7569Z" fill="#36995E"/>
<path d="M55.7078 33.6145C55.7438 33.4817 55.6386 33.3545 55.5043 33.3643L50.0287 33.764L37.6572 43.5019C38.4199 44.4606 39.2504 45.3564 40.1376 46.1796L55.5182 34.091L55.7078 33.6145Z" fill="#36995E"/>
<path d="M67.326 25.9017L53.2354 43.407C52.7966 44.0094 51.8568 43.551 52.0506 42.8299L55.5192 34.0925L40.1387 46.1811L40.4598 58.3661C40.5138 60.3967 42.9416 61.3862 44.3755 59.9593L52.1212 52.2548V52.252C55.8279 52.9591 59.7533 52.8054 63.6165 51.6315C76.4682 47.7268 83.7516 34.0422 79.8843 21.0662C79.3971 19.4311 78.7562 17.8855 77.9811 16.4404L67.2 24.9136C67.4768 25.14 67.5737 25.5663 67.3287 25.9017H67.326Z" fill="#1E9B50"/>
<path d="M104.209 27.7074C104.209 26.5643 103.292 25.6377 102.159 25.6377H88.1105C86.9782 25.6377 86.0605 26.5643 86.0605 27.7074C86.0605 28.8506 86.9782 29.7772 88.1105 29.7772H102.159C103.292 29.7772 104.209 28.8506 104.209 27.7074Z" fill="white"/>
<path d="M84.8593 20.8133C85.2123 21.554 85.9445 21.9858 86.7085 21.9858C87.0075 21.9858 87.3106 21.9201 87.5972 21.7804L95.8411 17.7709C96.8612 17.2748 97.2903 16.038 96.7989 15.008C96.3076 13.978 95.0826 13.5448 94.0625 14.0409L85.8185 18.0504C84.7984 18.5465 84.3694 19.7833 84.8607 20.8133H84.8593Z" fill="white"/>
<path d="M91.3257 5.79701L83.0873 10.1C82.081 10.6255 81.6879 11.8748 82.2084 12.8894C82.5724 13.6008 83.2894 14.0089 84.0313 14.0089C84.3482 14.0089 84.6708 13.9348 84.9711 13.7769L93.2095 9.4739C94.2158 8.94843 94.6089 7.69904 94.0885 6.68444C93.568 5.66844 92.3306 5.27154 91.3257 5.79701Z" fill="white"/>
<path d="M96.7989 40.4066C97.2903 39.3766 96.8612 38.1398 95.8411 37.6437L87.5972 33.6342C86.5771 33.1381 85.3521 33.5713 84.8607 34.6013C84.3694 35.6312 84.7984 36.868 85.8185 37.3642L94.0625 41.3737C94.349 41.5134 94.6521 41.5791 94.9511 41.5791C95.7138 41.5791 96.446 41.1473 96.8003 40.4066H96.7989Z" fill="white"/>
<path d="M94.0894 48.7288C94.6099 47.7128 94.2168 46.4648 93.2105 45.9393L84.9721 41.6364C83.9658 41.1109 82.7298 41.5078 82.2093 42.5238C81.6889 43.5398 82.082 44.7878 83.0883 45.3133L91.3267 49.6162C91.6284 49.7741 91.9495 49.8482 92.2665 49.8482C93.0084 49.8482 93.7254 49.4401 94.0894 48.7288Z" fill="white"/>
<path d="M79.2822 6.79755C81.1414 6.79755 82.6485 5.27587 82.6485 3.39878C82.6485 1.52168 81.1414 0 79.2822 0C77.4231 0 75.916 1.52168 75.916 3.39878C75.916 5.27587 77.4231 6.79755 79.2822 6.79755Z" fill="white"/>
<path d="M79.2822 55.4133C81.1414 55.4133 82.6485 53.8916 82.6485 52.0145C82.6485 50.1374 81.1414 48.6157 79.2822 48.6157C77.4231 48.6157 75.916 50.1374 75.916 52.0145C75.916 53.8916 77.4231 55.4133 79.2822 55.4133Z" fill="white"/>
<path d="M9.88867 27.7074C9.88867 28.8506 10.8064 29.7772 11.9386 29.7772H25.9876C27.1198 29.7772 28.0375 28.8506 28.0375 27.7074C28.0375 26.5643 27.1198 25.6377 25.9876 25.6377H11.9386C10.8064 25.6377 9.88867 26.5643 9.88867 27.7074Z" fill="white"/>
<path d="M18.2566 17.7694L26.5006 21.7789C26.7871 21.9187 27.0902 21.9844 27.3892 21.9844C28.1518 21.9844 28.8841 21.5525 29.2384 20.8118C29.7298 19.7819 29.3007 18.5451 28.2806 18.0489L20.0366 14.0394C19.0165 13.5433 17.7915 13.9766 17.3002 15.0065C16.8088 16.0365 17.2379 17.2733 18.258 17.7694H18.2566Z" fill="white"/>
<path d="M22.7709 5.79701C21.7646 5.27154 20.5286 5.66844 20.0082 6.68444C19.4877 7.70044 19.8808 8.94843 20.8871 9.4739L29.1255 13.7769C29.4273 13.9348 29.7484 14.0089 30.0653 14.0089C30.8072 14.0089 31.5228 13.6008 31.8883 12.8894C32.4087 11.8734 32.0156 10.6255 31.0093 10.1L22.7709 5.79701Z" fill="white"/>
<path d="M26.501 33.6342L18.257 37.6437C17.2369 38.1398 16.8078 39.3766 17.2992 40.4066C17.6522 41.1473 18.3844 41.5791 19.1484 41.5791C19.4474 41.5791 19.7505 41.5134 20.037 41.3737L28.281 37.3642C29.3011 36.868 29.7302 35.6312 29.2388 34.6013C28.7474 33.5713 27.5225 33.1381 26.5024 33.6342H26.501Z" fill="white"/>
<path d="M20.8871 45.9393C19.8808 46.4648 19.4877 47.7142 20.0082 48.7288C20.3722 49.4401 21.0892 49.8482 21.8311 49.8482C22.1481 49.8482 22.4706 49.7741 22.7709 49.6162L31.0093 45.3133C32.0156 44.7878 32.4087 43.5384 31.8883 42.5238C31.3678 41.5078 30.1304 41.1109 29.1255 41.6364L20.8871 45.9393Z" fill="white"/>
<path d="M34.8154 6.79755C36.6746 6.79755 38.1817 5.27587 38.1817 3.39878C38.1817 1.52168 36.6746 0 34.8154 0C32.9563 0 31.4492 1.52168 31.4492 3.39878C31.4492 5.27587 32.9563 6.79755 34.8154 6.79755Z" fill="white"/>
<path d="M34.8154 55.4133C36.6746 55.4133 38.1817 53.8916 38.1817 52.0145C38.1817 50.1374 36.6746 48.6157 34.8154 48.6157C32.9563 48.6157 31.4492 50.1374 31.4492 52.0145C31.4492 53.8916 32.9563 55.4133 34.8154 55.4133Z" fill="white"/>
<path d="M15.6892 82.8956H4.96907L15.7197 69.3355V65.4741H0.632553V69.3355H10.7202L0 82.8956V86.757H15.6892V82.8956Z" fill="white"/>
<path d="M21.8318 85.9505C23.0166 86.6493 24.3205 87.0001 25.7462 87.0001C27.3116 87.0001 28.7373 86.564 30.0218 85.6934C31.3063 84.8227 32.2599 83.6865 32.8828 82.2876L28.2155 82.2569C27.8943 82.521 27.5372 82.7334 27.1469 82.8955C26.7552 83.0576 26.2486 83.1387 25.6257 83.1387C24.7427 83.1387 23.9938 82.9207 23.382 82.4846C22.7689 82.0486 22.373 81.4561 22.1931 80.7056H33.3645C33.4641 80.0977 33.5043 79.4688 33.4849 78.8203C33.4447 77.2803 33.0378 75.9429 32.2655 74.8067C31.4931 73.6719 30.5131 72.8054 29.3297 72.2073C28.1449 71.6091 26.9102 71.3101 25.6257 71.3101C24.2208 71.3101 22.9308 71.6706 21.7557 72.3889C20.5819 73.1087 19.6573 74.0716 18.9846 75.2776C18.3119 76.4837 17.9756 77.7862 17.9756 79.1851C17.9756 80.584 18.3216 81.9117 19.0151 83.1065C19.7071 84.3028 20.6456 85.2503 21.8304 85.9491L21.8318 85.9505ZM23.5786 75.8101C24.1807 75.3838 24.9032 75.1714 25.7462 75.1714C26.5088 75.1714 27.2161 75.3894 27.8694 75.8255C28.5214 76.2615 28.9989 76.8345 29.2992 77.543H22.1931C22.5142 76.8135 22.9765 76.2349 23.5786 75.8101Z" fill="white"/>
<path d="M39.7336 65.9143C39.2824 65.4588 38.7343 65.231 38.0921 65.231C37.4498 65.231 36.8726 65.4588 36.4214 65.9143C35.9702 66.3699 35.7432 66.9234 35.7432 67.5718C35.7432 68.2203 35.9688 68.803 36.4214 69.2586C36.874 69.7142 37.4304 69.9434 38.0921 69.9434C38.7537 69.9434 39.281 69.7156 39.7336 69.2586C40.1849 68.803 40.4119 68.2398 40.4119 67.5718C40.4119 66.9038 40.1863 66.3713 39.7336 65.9143Z" fill="white"/>
<path d="M40.0491 71.5547H36.1348V86.7569H40.0491V71.5547Z" fill="white"/>
<path d="M50.6498 75.4161V71.5548H47.9397V65.5049H44.0253V71.5548H41.7969V75.4161H44.0253V79.5821C44.0253 82.0348 44.6219 83.8585 45.8164 85.0548C47.0109 86.2511 48.6221 86.8493 50.6498 86.8493V82.9879C49.6865 82.9879 48.993 82.7252 48.5722 82.1969C48.1501 81.67 47.9397 80.798 47.9397 79.5821V75.4161H50.6498Z" fill="white"/>
<path d="M64.4413 70.5205C64.4413 67.3887 62.2738 65.4727 58.5989 65.4727H52.4561V86.7555H60.0148C63.4171 86.7555 66.0677 84.2931 66.0677 80.6134C66.0677 78.0895 64.9535 76.2657 62.5451 75.1407C63.298 74.5021 64.4427 73.4078 64.4427 70.5191L64.4413 70.5205ZM56.3704 69.0908H58.5989C60.1643 69.0908 60.5256 70.0943 60.5256 71.1284C60.5256 72.041 59.8335 73.3477 58.8992 73.3477H56.3704V69.0908ZM59.9844 83.1374H56.3704V77.3306H59.7436C61.3395 77.3306 62.152 78.6681 62.152 79.9762C62.152 81.5875 61.309 83.1387 59.9844 83.1387V83.1374Z" fill="white"/>
<path d="M72.2395 65.4741H68.3252V86.757H72.2395V65.4741Z" fill="white"/>
<path d="M90.0069 86.7569V79.1558C90.0069 77.7373 89.6609 76.4251 88.9675 75.219C88.2754 74.0129 87.3356 73.0598 86.1521 72.3611C84.9673 71.6623 83.6731 71.3115 82.2682 71.3115C80.8633 71.3115 79.5677 71.6609 78.3829 72.3611C77.1981 73.0598 76.2541 74.0129 75.5524 75.219C74.8492 76.4251 74.499 77.7373 74.499 79.1558C74.499 80.5743 74.8506 81.888 75.5524 83.0926C76.2555 84.2987 77.1981 85.2518 78.3829 85.9506C79.5677 86.6493 80.8619 87.0001 82.2682 87.0001C83.1112 87.0001 83.9043 86.8184 84.6475 86.4523C85.3894 86.0875 85.8725 85.6515 86.0926 85.1456V86.7569H90.0069ZM85.0379 81.9984C84.3154 82.7586 83.4018 83.1388 82.2973 83.1388C81.1927 83.1388 80.2695 82.7586 79.5262 81.9984C78.7829 81.2381 78.412 80.2906 78.412 79.1558C78.412 78.021 78.7829 77.0735 79.5262 76.3133C80.2681 75.553 81.1927 75.1729 82.2973 75.1729C83.4018 75.1729 84.3154 75.553 85.0379 76.3133C85.7604 77.0735 86.1217 78.021 86.1217 79.1558C86.1217 80.2906 85.7604 81.2381 85.0379 81.9984Z" fill="white"/>
<path d="M102.051 78.2279C101.249 77.975 100.255 77.7472 99.07 77.5445C98.0665 77.3824 97.3329 77.2105 96.872 77.0275C96.4097 76.8458 96.1799 76.5719 96.1799 76.2071C96.1799 75.8018 96.3958 75.4678 96.8277 75.2037C97.2595 74.941 97.7966 74.8082 98.4388 74.8082C99.0811 74.8082 99.6776 74.9507 100.17 75.2344C100.662 75.5181 100.908 75.8731 100.908 76.2994H104.643C104.643 74.7383 104.071 73.5169 102.926 72.635C101.782 71.7532 100.306 71.313 98.4997 71.313C97.3356 71.313 96.2809 71.51 95.3383 71.9055C94.3943 72.301 93.6469 72.8475 93.0946 73.5476C92.5424 74.2464 92.2669 75.0332 92.2669 75.9039C92.2669 77.0386 92.5534 77.9163 93.1251 78.534C93.6967 79.1531 94.375 79.5877 95.157 79.8421C95.9404 80.095 96.9232 80.3242 98.108 80.5255C99.1724 80.7085 99.9448 80.8902 100.426 81.0733C100.908 81.2564 101.149 81.5708 101.149 82.0152C101.149 82.4596 100.933 82.7908 100.501 83.0648C100.069 83.3387 99.4617 83.4756 98.6796 83.4756C97.8561 83.4756 97.1792 83.3233 96.6463 83.02C96.1148 82.7154 95.8477 82.3213 95.8477 81.8349H92.1133C92.1133 82.9292 92.4095 83.8669 93.0019 84.6468C93.5943 85.4266 94.3819 86.0149 95.366 86.4104C96.3488 86.8059 97.4242 87.003 98.5883 87.003C100.536 87.003 102.107 86.5921 103.301 85.7718C104.496 84.9514 105.083 83.73 105.063 82.1075C105.063 81.0132 104.762 80.1565 104.159 79.5388C103.557 78.9211 102.854 78.4851 102.051 78.2307V78.2279Z" fill="white"/>
<path d="M112.29 65.5049H108.376V71.5548H106.147V75.4161H108.376V79.5821C108.376 82.0348 108.972 83.8585 110.168 85.0548C111.363 86.2511 112.974 86.8493 115.002 86.8493V82.9879C114.038 82.9879 113.345 82.7252 112.924 82.1969C112.502 81.67 112.292 80.798 112.292 79.5821V75.4161H115.002V71.5548H112.292V65.5049H112.29Z" fill="white"/>
</g>
<defs>
<clipPath id="clip0_33_3089">
<rect width="115" height="87" fill="white"/>
</clipPath>
</defs>
</svg>
