<svg width="20" height="20" viewBox="0 0 20 20" fill="none" xmlns="http://www.w3.org/2000/svg">
<path d="M17.1706 9.39907V17.3698L14.6656 16.9061L13.5613 15.5814L8.9082 10.4085L12.8587 7.60156C14.8376 10.2136 14.9 9.57683 14.9 9.57683C14.9 9.57683 15.8775 8.11748 17.1316 9.3715L17.1706 9.39907Z" fill="#CCCCCC"/>
<path d="M7.60831 8.79688L15.8228 19.3692C15.7746 19.374 15.7262 19.3765 15.6778 19.3765H2.24805L7.60831 8.79688Z" fill="#518EF8"/>
<path d="M12.8582 7.59794L0.640625 17.8808V4.33613C0.640625 3.51172 1.30911 2.84375 2.13301 2.84375H11.0425C10.6599 3.50132 12.0785 3.92338 12.0785 4.73896C12.0785 5.55979 12.471 6.93725 12.8582 7.59794Z" fill="#28B446"/>
<path d="M17.1705 17.3685V17.8831C17.1705 18.6581 16.5795 19.2954 15.8232 19.3682L8.94922 12.5847L10.6131 10.8984L14.4535 14.6878L14.6656 14.8973L17.1705 17.3685Z" fill="#F2F2F2"/>
<path d="M12.4351 9.05339L10.6126 10.9003L8.9487 12.5865L2.24789 19.3773H2.13301C1.30911 19.3773 0.640625 18.7088 0.640625 17.8849L11.0503 7.33594C11.2452 7.66967 12.5858 7.33176 12.8582 7.60206L13.3588 8.24557C13.6031 8.50605 12.2251 8.77687 12.4351 9.05339Z" fill="#FFD837"/>
<path d="M4.53829 8.96721C3.22696 8.96721 2.16016 7.9004 2.16016 6.58907C2.16016 5.27775 3.22696 4.21094 4.53829 4.21094C5.17308 4.21094 5.77012 4.45842 6.21957 4.90784L5.66816 5.45913C5.36611 5.15701 4.96482 4.99064 4.53829 4.99064C3.6569 4.99064 2.93989 5.70768 2.93989 6.58904C2.93989 7.4704 3.65693 8.18744 4.53829 8.18744C5.28522 8.18744 5.91418 7.67247 6.08861 6.97887H4.53829V6.19917H6.91643V6.58904C6.91639 7.9004 5.84962 8.96721 4.53829 8.96721Z" fill="white"/>
<path d="M11.0428 2.84563C11.8147 1.51804 13.2531 0.625 14.8998 0.625C17.3621 0.625 19.3582 2.62107 19.3582 5.0834C19.3582 5.70094 19.2324 6.28882 19.0058 6.8237C18.78 7.35451 18.4537 7.83658 18.0446 8.24328C17.7068 8.60246 17.4037 8.98193 17.1313 9.36971C15.3468 11.9121 14.8998 14.8147 14.8998 14.8147C14.8998 14.8147 14.4143 11.6631 12.4354 9.05107C12.2254 8.77455 11.9988 8.5037 11.7545 8.24328H11.755C11.4816 7.97198 11.2448 7.66618 11.0506 7.33362C10.6634 6.67294 10.4414 5.90415 10.4414 5.08336C10.4414 4.26781 10.6603 3.50316 11.0428 2.84563Z" fill="#F14336"/>
<path d="M14.9003 2.71094C16.2107 2.71094 17.2727 3.77357 17.2727 5.08391C17.2727 6.39425 16.2107 7.45626 14.9003 7.45626C13.59 7.45626 12.5273 6.39425 12.5273 5.08391C12.5273 3.77357 13.59 2.71094 14.9003 2.71094Z" fill="#7E2D25"/>
</svg>
