<svg width="22" height="22" viewBox="0 0 22 22" fill="none" xmlns="http://www.w3.org/2000/svg">
<path d="M13.0625 6.875C13.0625 8.01409 12.1391 8.9375 11 8.9375V10.3125C12.8985 10.3125 14.4375 8.77348 14.4375 6.875H13.0625ZM11 8.9375C9.86091 8.9375 8.9375 8.01409 8.9375 6.875H7.5625C7.5625 8.77348 9.10152 10.3125 11 10.3125V8.9375ZM8.9375 6.875C8.9375 5.73591 9.86091 4.8125 11 4.8125V3.4375C9.10152 3.4375 7.5625 4.97652 7.5625 6.875H8.9375ZM11 4.8125C12.1391 4.8125 13.0625 5.73591 13.0625 6.875H14.4375C14.4375 4.97652 12.8985 3.4375 11 3.4375V4.8125ZM8.25 13.0625H13.75V11.6875H8.25V13.0625ZM13.75 17.1875H8.25V18.5625H13.75V17.1875ZM8.25 17.1875C7.11091 17.1875 6.1875 16.2641 6.1875 15.125H4.8125C4.8125 17.0235 6.35152 18.5625 8.25 18.5625V17.1875ZM15.8125 15.125C15.8125 16.2641 14.8891 17.1875 13.75 17.1875V18.5625C15.6485 18.5625 17.1875 17.0235 17.1875 15.125H15.8125ZM13.75 13.0625C14.8891 13.0625 15.8125 13.9859 15.8125 15.125H17.1875C17.1875 13.2265 15.6485 11.6875 13.75 11.6875V13.0625ZM8.25 11.6875C6.35152 11.6875 4.8125 13.2265 4.8125 15.125H6.1875C6.1875 13.9859 7.11091 13.0625 8.25 13.0625V11.6875Z" fill="#012635"/>
<path d="M18.1085 11.9297C21.5564 11.9297 21.9875 17.4297 18.1086 17.4297" stroke="#012635" stroke-width="1.375" stroke-linecap="round"/>
<path d="M3.89151 11.9297C0.443599 11.9297 0.0124509 17.4297 3.89142 17.4297" stroke="#012635" stroke-width="1.375" stroke-linecap="round"/>
<path d="M15.3585 4.125C18.8064 4.125 19.2375 9.625 15.3586 9.625" stroke="#012635" stroke-width="1.375" stroke-linecap="round"/>
<path d="M6.64151 4.125C3.1936 4.125 2.76245 9.625 6.64142 9.625" stroke="#012635" stroke-width="1.375" stroke-linecap="round"/>
</svg>
