<svg width="24" height="24" viewBox="0 0 24 24" fill="none" xmlns="http://www.w3.org/2000/svg">
<path d="M13.077 11.9125C13.077 12.3819 12.6964 12.7625 12.227 12.7625C11.7575 12.7625 11.377 12.3819 11.377 11.9125C11.377 11.4431 11.7575 11.0625 12.227 11.0625C12.6964 11.0625 13.077 11.4431 13.077 11.9125Z" stroke="#012635" stroke-width="1.5" stroke-miterlimit="10"/>
<path d="M13.077 6.35781C13.077 6.82725 12.6964 7.20781 12.227 7.20781C11.7575 7.20781 11.377 6.82725 11.377 6.35781C11.377 5.88837 11.7575 5.50781 12.227 5.50781C12.6964 5.50781 13.077 5.88837 13.077 6.35781Z" stroke="#012635" stroke-width="1.5" stroke-miterlimit="10"/>
<path d="M13.077 17.4672C13.077 17.9366 12.6964 18.3172 12.227 18.3172C11.7575 18.3172 11.377 17.9366 11.377 17.4672C11.377 16.9977 11.7575 16.6172 12.227 16.6172C12.6964 16.6172 13.077 16.9977 13.077 17.4672Z" stroke="#012635" stroke-width="1.5" stroke-miterlimit="10"/>
</svg>
