<svg width="24" height="24" viewBox="0 0 24 24" fill="none" xmlns="http://www.w3.org/2000/svg">
<path d="M3 9.00273C3 8.63751 3.1991 8.30133 3.51938 8.1258L11.5194 3.74118C12.1858 3.37593 13 3.85816 13 4.61811V20.9297C13 21.482 12.5523 21.9297 12 21.9297H4C3.44772 21.9297 3 21.482 3 20.9297V9.00273Z" stroke="#012635" stroke-width="1.5"/>
<path d="M6 13.9297H10" stroke="#012635" stroke-width="1.5" stroke-linecap="round"/>
<path d="M6 16.9297H10" stroke="#012635" stroke-width="1.5" stroke-linecap="round"/>
<path d="M6 10.9297H10" stroke="#012635" stroke-width="1.5" stroke-linecap="round"/>
<path d="M21 20.9297V7.27072C21 6.60175 20.3559 6.12142 19.7147 6.31228L15.7147 7.50295C15.2907 7.62917 15 8.01899 15 8.46139V20.9297C15 21.482 15.4477 21.9297 16 21.9297H20C20.5523 21.9297 21 21.482 21 20.9297Z" stroke="#012635" stroke-width="1.5"/>
</svg>
