<svg width="35" height="35" viewBox="0 0 35 35" fill="none" xmlns="http://www.w3.org/2000/svg">
<circle cx="17.5" cy="17.5001" r="15.8333" fill="#F6C34F" stroke="#F6C34F" stroke-width="3"/>
<path d="M13.6 13.2833C12.9333 13 12.65 12.175 13.05 11.575C13.8583 10.375 15.2083 9.5 16.9917 9.5C18.95 9.5 20.2917 10.3917 20.975 11.5083C21.5583 12.4667 21.9 14.2583 21 15.5917C20 17.0667 19.0417 17.5167 18.525 18.4667C18.4 18.6917 18.325 18.875 18.275 19.25C18.2 19.8583 17.7 20.3333 17.0833 20.3333C16.3583 20.3333 15.7667 19.7083 15.85 18.9833C15.9 18.5583 16 18.1167 16.2333 17.7C16.875 16.5417 18.1083 15.8583 18.825 14.8333C19.5833 13.7583 19.1583 11.75 17.0083 11.75C16.0333 11.75 15.4 12.2583 15.0083 12.8667C14.7167 13.3417 14.1083 13.4917 13.6 13.2833ZM18.6667 23.6667C18.6667 24.5833 17.9167 25.3333 17 25.3333C16.0833 25.3333 15.3333 24.5833 15.3333 23.6667C15.3333 22.75 16.0833 22 17 22C17.9167 22 18.6667 22.75 18.6667 23.6667Z" fill="white"/>
</svg>
