<svg width="45" height="46" viewBox="0 0 45 46" fill="none" xmlns="http://www.w3.org/2000/svg">
<path d="M0 8.17187C0 3.7536 3.58172 0.171875 8 0.171875H37C41.4183 0.171875 45 3.7536 45 8.17188V37.1719C45 41.5902 41.4183 45.1719 37 45.1719H8C3.58172 45.1719 0 41.5902 0 37.1719V8.17187Z" fill="#A69FEA"/>
<path d="M22.0592 34.8685C23.2483 34.8685 24.2122 33.9046 24.2122 32.7155C24.2122 31.5264 23.2483 30.5625 22.0592 30.5625C20.8702 30.5625 19.9062 31.5264 19.9062 32.7155C19.9062 33.9046 20.8702 34.8685 22.0592 34.8685Z" fill="white" fill-opacity="0.4"/>
<path d="M29.3746 17.7197C29.1808 13.9841 26.0973 10.9988 22.3549 10.9233C22.3058 10.9224 22.2571 10.9219 22.2083 10.9219C18.6373 10.9219 15.5952 13.5542 15.1004 17.1002C15.0545 17.4289 15.0312 17.7648 15.0312 18.0985C15.0312 19.2876 15.9952 20.2515 17.1842 20.2515C18.3733 20.2515 19.3372 19.2876 19.3372 18.0985C19.3372 17.9633 19.3466 17.8277 19.3651 17.6954C19.5655 16.2597 20.811 15.1996 22.2682 15.2284C22.9868 15.2429 23.6729 15.5318 24.2001 16.0418C24.7268 16.5514 25.0373 17.2266 25.0745 17.9428C25.1159 18.7404 24.8371 19.4972 24.2896 20.074C23.7414 20.6513 23.0022 20.9692 22.2078 20.9692C21.0188 20.9692 20.0549 21.9331 20.0549 23.1222V27.3803C20.0549 28.5694 21.0188 29.5333 22.2078 29.5333C23.3969 29.5333 24.3608 28.5694 24.3608 27.3803V24.9418C25.5126 24.578 26.5693 23.9266 27.4122 23.0388C28.7809 21.5972 29.4778 19.7082 29.3746 17.7197Z" fill="white"/>
</svg>
