<svg width="20" height="20" viewBox="0 0 20 20" fill="none" xmlns="http://www.w3.org/2000/svg">
<path d="M16.0149 12.5513L15.8975 11.8105L16.0149 12.5513ZM12.5513 16.0149L11.8105 15.8975L12.5513 16.0149ZM4.21756 16.7042L4.6584 16.0975L4.21756 16.7042ZM3.29576 15.7824L3.90253 15.3416L3.29576 15.7824ZM16.7042 15.7824L17.311 16.2233L16.7042 15.7824ZM15.7824 16.7042L16.2233 17.311L15.7824 16.7042ZM15.7824 3.29576L15.3416 3.90253L15.7824 3.29576ZM16.7042 4.21756L16.0975 4.6584L16.7042 4.21756ZM4.21756 3.29576L4.6584 3.90253L4.21756 3.29576ZM3.29576 4.21756L3.90253 4.6584L3.29576 4.21756ZM17.4759 12.5L18.2255 12.5257L17.4759 12.5ZM12.5 17.4759L12.5257 18.2255L12.5 17.4759ZM6.66667 12.5833C6.25245 12.5833 5.91667 12.9191 5.91667 13.3333C5.91667 13.7475 6.25245 14.0833 6.66667 14.0833V12.5833ZM9.16667 14.0833C9.58088 14.0833 9.91667 13.7475 9.91667 13.3333C9.91667 12.9191 9.58088 12.5833 9.16667 12.5833V14.0833ZM6.66667 9.25C6.25245 9.25 5.91667 9.58579 5.91667 10C5.91667 10.4142 6.25245 10.75 6.66667 10.75V9.25ZM13.3333 10.75C13.7475 10.75 14.0833 10.4142 14.0833 10C14.0833 9.58579 13.7475 9.25 13.3333 9.25V10.75ZM6.66667 5.91667C6.25245 5.91667 5.91667 6.25245 5.91667 6.66667C5.91667 7.08088 6.25245 7.41667 6.66667 7.41667V5.91667ZM9.16667 7.41667C9.58088 7.41667 9.91667 7.08088 9.91667 6.66667C9.91667 6.25245 9.58088 5.91667 9.16667 5.91667V7.41667ZM15.8975 11.8105C13.7937 12.1437 12.1437 13.7937 11.8105 15.8975L13.2921 16.1322C13.5236 14.6702 14.6702 13.5236 16.1322 13.2921L15.8975 11.8105ZM10 16.75C8.42091 16.75 7.29683 16.749 6.4285 16.6549C5.57421 16.5623 5.05688 16.387 4.6584 16.0975L3.77672 17.311C4.47352 17.8173 5.28502 18.0398 6.26693 18.1462C7.23481 18.251 8.45432 18.25 10 18.25V16.75ZM1.75 10C1.75 11.5457 1.74897 12.7652 1.85383 13.7331C1.96022 14.715 2.18275 15.5265 2.689 16.2233L3.90253 15.3416C3.61301 14.9431 3.43766 14.4258 3.34511 13.5715C3.25103 12.7032 3.25 11.5791 3.25 10H1.75ZM4.6584 16.0975C4.36834 15.8867 4.11326 15.6317 3.90253 15.3416L2.689 16.2233C2.99226 16.6407 3.35932 17.0077 3.77672 17.311L4.6584 16.0975ZM16.0975 15.3416C15.8867 15.6317 15.6317 15.8867 15.3416 16.0975L16.2233 17.311C16.6407 17.0077 17.0077 16.6407 17.311 16.2233L16.0975 15.3416ZM10 3.25C11.5791 3.25 12.7032 3.25103 13.5715 3.34511C14.4258 3.43766 14.9431 3.61301 15.3416 3.90253L16.2233 2.689C15.5265 2.18275 14.715 1.96022 13.7331 1.85383C12.7652 1.74897 11.5457 1.75 10 1.75V3.25ZM18.25 10C18.25 8.45432 18.251 7.23481 18.1462 6.26693C18.0398 5.28502 17.8173 4.47352 17.311 3.77672L16.0975 4.6584C16.387 5.05688 16.5623 5.57421 16.6549 6.4285C16.749 7.29683 16.75 8.42091 16.75 10H18.25ZM15.3416 3.90253C15.6317 4.11326 15.8867 4.36834 16.0975 4.6584L17.311 3.77672C17.0077 3.35932 16.6407 2.99226 16.2233 2.689L15.3416 3.90253ZM10 1.75C8.45432 1.75 7.23481 1.74897 6.26693 1.85383C5.28502 1.96022 4.47352 2.18275 3.77672 2.689L4.6584 3.90253C5.05688 3.61301 5.57421 3.43766 6.4285 3.34511C7.29683 3.25103 8.42091 3.25 10 3.25V1.75ZM3.25 10C3.25 8.42091 3.25103 7.29683 3.34511 6.4285C3.43766 5.57421 3.61301 5.05688 3.90253 4.6584L2.689 3.77672C2.18275 4.47352 1.96022 5.28502 1.85383 6.26693C1.74897 7.23481 1.75 8.45432 1.75 10H3.25ZM3.77672 2.689C3.35932 2.99226 2.99226 3.35932 2.689 3.77672L3.90253 4.6584C4.11326 4.36834 4.36834 4.11326 4.6584 3.90253L3.77672 2.689ZM16.75 10C16.75 10.9783 16.7499 11.7863 16.7263 12.4743L18.2255 12.5257C18.2501 11.8065 18.25 10.97 18.25 10H16.75ZM16.7263 12.4743C16.6734 14.0185 16.5005 14.7868 16.0975 15.3416L17.311 16.2233C18.0033 15.2704 18.1719 14.0884 18.2255 12.5257L16.7263 12.4743ZM17.4759 11.75C16.7452 11.75 16.2908 11.7482 15.8975 11.8105L16.1322 13.2921C16.3799 13.2528 16.6903 13.25 17.4759 13.25L17.4759 11.75ZM10 18.25C10.97 18.25 11.8065 18.2501 12.5257 18.2255L12.4743 16.7263C11.7863 16.7499 10.9783 16.75 10 16.75V18.25ZM12.5257 18.2255C14.0884 18.1719 15.2704 18.0033 16.2233 17.311L15.3416 16.0975C14.7868 16.5005 14.0185 16.6734 12.4743 16.7263L12.5257 18.2255ZM13.25 17.4759C13.25 16.6903 13.2528 16.3799 13.2921 16.1322L11.8105 15.8975C11.7482 16.2908 11.75 16.7452 11.75 17.4759L13.25 17.4759ZM6.66667 14.0833H9.16667V12.5833H6.66667V14.0833ZM6.66667 10.75H13.3333V9.25H6.66667V10.75ZM6.66667 7.41667H9.16667V5.91667H6.66667V7.41667Z" fill="#012635"/>
</svg>
