<svg width="598" height="401" viewBox="0 0 598 401" fill="none" xmlns="http://www.w3.org/2000/svg">
    <g clip-path="url(#clip0_543_634)">
        <path
            d="M593.357 304.106H530.48C535.069 285.312 537.51 265.694 537.51 245.491C537.51 205.351 527.88 167.444 510.82 133.977H555.418C557.992 133.977 560.061 131.903 560.061 129.325C560.061 126.746 557.992 124.673 555.418 124.673H505.833C463.755 50.2413 383.978 0 292.5 0C231.665 0 176.004 22.2231 133.157 59.0136H57.7041C55.1306 59.0136 53.0612 61.087 53.0612 63.6656C53.0612 66.2441 55.1306 68.3175 57.7041 68.3175H122.916C117.716 73.3151 112.729 78.5519 107.98 84.0013H4.64286C2.06939 84.0013 0 86.0748 0 88.6533C0 91.2318 2.06939 93.3053 4.64286 93.3053H100.233C67.202 135.146 47.4898 188.019 47.4898 245.491C47.4898 277.656 53.6714 308.386 64.8939 336.537H52.6633C50.0898 336.537 48.0204 338.61 48.0204 341.189C48.0204 343.767 50.0898 345.841 52.6633 345.841H68.8204C70.5184 349.616 72.2959 353.337 74.1531 357.006H19.2347C16.6612 357.006 14.5918 359.079 14.5918 361.658C14.5918 364.236 16.6612 366.31 19.2347 366.31H79.1673C84.898 376.438 91.3184 386.114 98.3755 395.285H486.624C499.81 378.165 510.794 359.212 519.124 338.929H564.704C567.278 338.929 569.347 336.856 569.347 334.277C569.347 331.699 567.278 329.625 564.704 329.625H522.733C524.669 324.309 526.42 318.886 528.012 313.41H593.357C595.931 313.41 598 311.337 598 308.758C598 306.18 595.931 304.106 593.357 304.106Z"
            fill="#F9F8F8" />
        <path
            d="M395.465 395.258H365.777C365.777 393.105 367.502 391.377 369.651 391.377H391.565C393.741 391.377 395.465 393.132 395.465 395.258Z"
            fill="#F2F2F2" />
        <path d="M388.435 391.377H372.835L377.902 246.422L381.325 248.681L388.435 391.377Z"
            fill="#F2F2F2" />
        <path
            d="M393.263 395.258H363.575C363.575 393.105 365.3 391.377 367.449 391.377H389.363C391.538 391.377 393.263 393.132 393.263 395.258Z"
            fill="#F2F2F2" />
        <path
            d="M378.433 247.698L453.116 290.894L452.294 286.641C452.135 285.791 451.684 285.046 450.994 284.541L402.204 246.687C401.302 245.996 400.135 245.784 399.047 246.103L389.257 249.027C388.329 249.293 387.347 249.186 386.498 248.708L379.998 244.933L378.433 247.698Z"
            fill="#F2F2F2" />
        <path
            d="M376.841 244.959L302.157 288.156L306.243 289.565C307.065 289.858 307.941 289.831 308.737 289.485L365.831 266.066C366.892 265.641 367.661 264.71 367.927 263.621L370.288 253.679C370.5 252.722 371.11 251.924 371.959 251.446L378.459 247.697L376.841 244.959Z"
            fill="#F2F2F2" />
        <path
            d="M379.998 244.96V158.539L376.735 161.384C376.098 161.942 375.673 162.713 375.541 163.563L367.237 224.81C367.077 225.926 367.475 227.069 368.298 227.84L375.726 234.858C376.416 235.523 376.814 236.453 376.814 237.41V244.933H379.998V244.96Z"
            fill="#F2F2F2" />
        <path d="M385.596 391.377H371.27L376.337 246.422H380.529L385.596 391.377Z" fill="#F2F2F2" />
        <path
            d="M382.002 247.284C382.466 245.312 381.248 243.336 379.28 242.871C377.312 242.405 375.34 243.626 374.876 245.598C374.411 247.569 375.629 249.545 377.597 250.011C379.565 250.476 381.537 249.255 382.002 247.284Z"
            fill="#F2F2F2" />
        <path
            d="M378.167 249.558C380.013 249.558 381.51 248.059 381.51 246.209C381.51 244.359 380.013 242.859 378.167 242.859C376.321 242.859 374.824 244.359 374.824 246.209C374.824 248.059 376.321 249.558 378.167 249.558Z"
            fill="#F2F2F2" />
        <path d="M303.484 288.608L374.825 246.209L374.771 246.156L302.157 288.156L303.484 288.608Z"
            fill="#F2F2F2" />
        <path d="M385.596 390.447H371.296V391.377H385.596V390.447Z" fill="#F2F2F2" />
        <path d="M378.963 159.47L379.945 243.152L379.998 243.125V158.539L378.963 159.47Z"
            fill="#F2F2F2" />
        <path d="M452.851 289.512L380.502 248.814V248.894L453.116 290.894L452.851 289.512Z"
            fill="#F2F2F2" />
        <path
            d="M492.992 395.258H445.476C445.476 391.829 448.261 389.038 451.684 389.038H486.784C490.206 389.038 492.992 391.829 492.992 395.258Z"
            fill="#ECECEC" />
        <path d="M481.743 389.038H456.725L464.843 156.971L470.308 160.586L481.743 389.038Z"
            fill="#ECECEC" />
        <path
            d="M489.463 395.258H441.946C441.946 391.829 444.732 389.038 448.154 389.038H483.254C486.677 389.038 489.463 391.829 489.463 395.258Z"
            fill="#F2F2F2" />
        <path
            d="M465.691 159.018L585.265 228.186L583.806 220.583C583.646 219.732 583.195 218.988 582.506 218.457L502.914 156.731C502.012 156.04 500.844 155.828 499.757 156.147L482.193 161.41C481.265 161.676 480.283 161.57 479.434 161.091L468.238 154.605L465.691 159.018Z"
            fill="#F2F2F2" />
        <path
            d="M463.171 154.605L343.598 223.773L350.894 226.298C351.689 226.591 352.592 226.564 353.361 226.219L448.181 187.328L453.196 166.222L465.692 158.991L463.171 154.605Z"
            fill="#F2F2F2" />
        <path
            d="M468.238 154.605V16.2686L462.402 21.3193C461.765 21.8775 461.341 22.6484 461.208 23.499L447.651 123.423C447.492 124.54 447.889 125.683 448.712 126.454L462.03 139.081C462.72 139.745 463.145 140.676 463.145 141.633V154.578H468.238V154.605Z"
            fill="#F2F2F2" />
        <path d="M477.179 389.038H454.23L462.349 156.971H469.035L477.179 389.038Z" fill="#F2F2F2" />
        <path
            d="M471.158 159.218C472.403 156.206 470.975 152.754 467.97 151.507C464.965 150.26 461.519 151.689 460.275 154.701C459.03 157.712 460.457 161.164 463.462 162.411C466.467 163.659 469.913 162.229 471.158 159.218Z"
            fill="#ECECEC" />
        <path
            d="M470.245 158.655C471.377 155.916 470.079 152.774 467.344 151.639C464.61 150.504 461.475 151.806 460.342 154.546C459.209 157.285 460.508 160.427 463.242 161.562C465.977 162.697 469.112 161.395 470.245 158.655Z"
            fill="#F2F2F2" />
        <path d="M345.72 224.517L459.934 156.599L459.828 156.545L343.598 223.773L345.72 224.517Z"
            fill="#ECECEC" />
        <path d="M477.179 387.549H454.283V389.064H477.179V387.549Z" fill="#ECECEC" />
        <path d="M466.54 17.7306L468.105 151.761L468.238 151.707V16.2686L466.54 17.7306Z"
            fill="#ECECEC" />
        <path d="M584.84 225.979L469.034 160.799L469.008 160.932L585.265 228.186L584.84 225.979Z"
            fill="#ECECEC" />
        <path
            d="M112.383 282.893C97.0752 282.893 84.5527 270.346 84.5527 255.008V190.864C84.5527 175.526 97.0752 162.979 112.383 162.979C127.692 162.979 140.214 175.526 140.214 190.864V255.034C140.214 270.346 127.692 282.893 112.383 282.893Z"
            fill="#F2F2F2" />
        <path
            d="M113.922 395.418H110.897V207.584C110.897 206.734 111.587 206.069 112.41 206.069C113.259 206.069 113.922 206.76 113.922 207.584V395.418Z"
            fill="#E4E4E4" />
        <path
            d="M113.922 233.024L105.485 218.377C105.061 217.659 104.132 217.393 103.416 217.819C102.7 218.244 102.434 219.174 102.859 219.892L111.296 234.539L113.922 233.024Z"
            fill="#E4E4E4" />
        <path
            d="M113.498 250.542L121.934 235.895C122.359 235.177 122.094 234.247 121.377 233.821C120.661 233.396 119.732 233.662 119.308 234.38L110.871 249.027L113.498 250.542Z"
            fill="#E4E4E4" />
        <path
            d="M183.433 252.376C164.012 252.376 148.094 236.453 148.094 216.968V135.492C148.094 116.033 163.986 100.084 183.433 100.084C202.853 100.084 218.771 116.007 218.771 135.492V216.968C218.771 236.453 202.853 252.376 183.433 252.376Z"
            fill="#F2F2F2" />
        <path
            d="M185.369 395.232H181.522V156.705C181.522 155.642 182.398 154.765 183.459 154.765C184.52 154.765 185.396 155.642 185.396 156.705V395.232H185.369Z"
            fill="#E4E4E4" />
        <path
            d="M185.37 189.056L174.651 170.448C174.121 169.518 172.953 169.199 172.025 169.731C171.096 170.262 170.778 171.432 171.308 172.362L182.027 190.97L185.37 189.056Z"
            fill="#E4E4E4" />
        <path
            d="M184.839 211.279L195.557 192.671C196.088 191.741 195.77 190.571 194.841 190.04C193.912 189.508 192.745 189.827 192.214 190.757L181.496 209.365L184.839 211.279Z"
            fill="#E4E4E4" />
        <path
            d="M129.549 384.864C131.168 383.349 131.911 381.595 131.274 380.372C130.478 378.857 127.825 378.617 125.013 379.681C125.145 379.309 125.304 378.936 125.411 378.538C126.923 373.726 126.047 369.154 123.5 368.356C121.007 367.559 117.796 370.643 116.231 375.268C114.931 369.978 111.641 366.256 108.802 366.921C106.123 367.559 104.823 371.865 105.672 376.783C101.772 375.055 97.978 375.188 96.7841 377.288C95.5371 379.441 97.4739 382.95 101.162 385.502C99.4106 386.087 98.2167 387.177 98.031 388.506C97.8188 390.154 99.2514 391.802 101.507 392.813C101.374 393.132 101.347 393.451 101.427 393.77C101.666 394.78 102.913 395.391 104.584 395.444H104.823C104.823 395.444 104.823 395.444 104.849 395.444H125.729V395.418C126.127 395.365 126.445 395.205 126.551 394.913C126.631 394.727 126.578 394.514 126.472 394.301C127.56 394.195 128.409 393.77 128.674 393.025C128.886 392.467 128.727 391.802 128.276 391.164C131.141 390.978 133.317 389.729 133.396 388.107C133.449 386.725 131.858 385.449 129.549 384.864Z"
            fill="#E4E4E4" />
        <path
            d="M173.485 375.986C176.456 373.168 177.836 369.978 176.642 367.718C175.182 364.927 170.327 364.502 165.127 366.469C165.393 365.778 165.631 365.087 165.87 364.369C168.629 355.517 167.064 347.117 162.342 345.628C157.752 344.193 151.862 349.828 148.997 358.335C146.636 348.606 140.56 341.747 135.334 342.97C130.425 344.14 128.011 352.035 129.603 361.126C122.413 357.936 115.462 358.202 113.26 362.03C110.978 365.991 114.534 372.45 121.325 377.155C118.115 378.245 115.887 380.212 115.595 382.685C115.223 385.742 117.823 388.745 121.962 390.58C121.723 391.164 121.67 391.776 121.803 392.334C122.227 394.168 124.562 395.311 127.587 395.418H128.038H128.064H166.427V395.391C167.17 395.285 167.727 394.966 167.913 394.461C168.046 394.115 167.993 393.743 167.78 393.344C169.797 393.158 171.309 392.361 171.813 391.005C172.211 389.968 171.919 388.772 171.097 387.576C176.35 387.23 180.383 384.917 180.515 381.967C180.674 379.415 177.729 377.049 173.485 375.986Z"
            fill="#F2F2F2" />
        <path
            d="M434.757 377.979C432.104 375.481 430.884 372.636 431.945 370.616C433.245 368.117 437.57 367.745 442.212 369.499C441.974 368.888 441.761 368.277 441.549 367.639C439.082 359.744 440.488 352.274 444.706 350.971C448.792 349.695 454.045 354.719 456.592 362.269C458.714 353.603 464.127 347.489 468.77 348.579C473.147 349.616 475.296 356.66 473.89 364.741C480.284 361.897 486.465 362.136 488.455 365.539C490.498 369.074 487.314 374.816 481.265 379.016C484.131 379.973 486.094 381.728 486.386 383.96C486.704 386.672 484.396 389.357 480.708 391.005C480.921 391.537 480.974 392.068 480.841 392.573C480.47 394.221 478.4 395.231 475.694 395.338H475.296H475.27H441.098V395.311C440.435 395.231 439.931 394.939 439.772 394.487C439.665 394.195 439.718 393.849 439.878 393.504C438.074 393.318 436.721 392.626 436.27 391.43C435.925 390.5 436.19 389.436 436.906 388.373C432.237 388.054 428.655 386.007 428.523 383.376C428.363 381.036 430.963 378.936 434.757 377.979Z"
            fill="#EAEAEA" />
        <path
            d="M474.235 388.347C473.174 387.337 472.67 386.193 473.095 385.369C473.625 384.359 475.376 384.2 477.233 384.917C477.127 384.678 477.048 384.412 476.968 384.173C475.96 380.983 476.544 377.979 478.241 377.448C479.886 376.916 482.009 378.963 483.044 382.02C483.893 378.511 486.095 376.039 487.952 376.491C489.729 376.916 490.578 379.76 490.021 383.03C492.621 381.887 495.115 381.967 495.911 383.349C496.733 384.785 495.46 387.097 493.019 388.799C494.186 389.197 494.982 389.888 495.088 390.792C495.221 391.882 494.293 392.972 492.807 393.637C492.886 393.849 492.913 394.062 492.86 394.275C492.701 394.939 491.878 395.338 490.764 395.391H490.605H476.809C476.544 395.364 476.331 395.232 476.278 395.072C476.225 394.939 476.252 394.806 476.331 394.673C475.615 394.594 475.058 394.328 474.872 393.823C474.739 393.451 474.846 393.025 475.137 392.6C473.254 392.467 471.795 391.643 471.741 390.58C471.662 389.596 472.723 388.745 474.235 388.347Z"
            fill="#E4E4E4" />
        <path
            d="M305.978 378.99C303.484 376.624 302.343 373.939 303.325 372.051C304.545 369.712 308.631 369.34 312.982 370.988C312.77 370.43 312.558 369.819 312.372 369.234C310.037 361.791 311.364 354.746 315.343 353.523C319.217 352.301 324.151 357.059 326.539 364.183C328.529 356.022 333.623 350.254 338 351.29C342.113 352.274 344.129 358.92 342.802 366.522C348.851 363.864 354.662 364.077 356.519 367.293C358.429 370.616 355.458 376.039 349.753 380C352.46 380.904 354.317 382.578 354.582 384.652C354.9 387.204 352.698 389.729 349.223 391.297C349.409 391.802 349.462 392.281 349.355 392.786C348.984 394.328 347.047 395.285 344.5 395.391H344.129H344.102H311.894V395.365C311.258 395.285 310.807 395.019 310.647 394.594C310.541 394.301 310.594 393.982 310.753 393.663C309.055 393.504 307.782 392.839 307.358 391.696C307.039 390.819 307.278 389.809 307.941 388.825C303.537 388.533 300.141 386.592 300.035 384.12C299.955 381.887 302.423 379.893 305.978 378.99Z"
            fill="#F2F2F2" />
        <path
            d="M342.192 386.087C340.786 384.758 340.123 383.216 340.68 382.153C341.37 380.824 343.678 380.611 346.145 381.568C346.013 381.249 345.906 380.903 345.8 380.558C344.474 376.331 345.243 372.37 347.472 371.653C349.647 370.962 352.46 373.646 353.813 377.687C354.927 373.062 357.819 369.792 360.313 370.377C362.647 370.935 363.788 374.683 363.045 379.016C366.468 377.501 369.757 377.634 370.819 379.441C371.906 381.329 370.209 384.386 366.972 386.619C368.511 387.124 369.545 388.081 369.704 389.25C369.89 390.686 368.643 392.121 366.68 392.999C366.786 393.291 366.813 393.557 366.76 393.849C366.547 394.726 365.46 395.258 364 395.311H363.788C363.788 395.311 363.788 395.311 363.762 395.311H345.509V395.285C345.164 395.232 344.898 395.099 344.792 394.859C344.739 394.7 344.766 394.514 344.845 394.328C343.89 394.221 343.174 393.849 342.935 393.211C342.749 392.706 342.882 392.148 343.28 391.59C340.786 391.43 338.876 390.34 338.796 388.905C338.77 387.709 340.176 386.592 342.192 386.087Z"
            fill="#E4E4E4" />
        <path
            d="M414.647 105.135C414.408 105.135 414.196 105.161 413.983 105.241C413.983 105.135 413.983 105.028 413.983 104.922C413.983 102.37 411.914 100.297 409.367 100.297C407.245 100.297 405.467 101.705 404.936 103.646C404.671 103.566 404.406 103.54 404.114 103.54C402.469 103.54 401.143 104.869 401.143 106.517C401.143 108.165 402.469 109.494 404.114 109.494C404.167 109.494 404.22 109.494 404.273 109.494H414.594C415.814 109.494 416.769 108.511 416.769 107.314C416.849 106.118 415.867 105.135 414.647 105.135Z"
            fill="#F2F2F2" />
        <path
            d="M252.89 75.3885C252.094 75.3885 251.324 75.6012 250.688 75.9999C250.024 73.1024 247.424 70.9492 244.347 70.9492C244.082 70.9492 243.816 70.9758 243.551 71.0024C242.118 67.7859 238.882 65.5264 235.141 65.5264C230.047 65.5264 225.908 69.6733 225.908 74.7771C225.908 74.8303 225.908 74.8835 225.908 74.9366C225.298 74.6442 224.608 74.4847 223.865 74.4847C221.239 74.4847 219.116 76.6114 219.116 79.243C219.116 81.8747 221.239 84.0013 223.865 84.0013H252.916C255.304 84.0013 257.214 82.0608 257.214 79.6949C257.188 77.3025 255.251 75.3885 252.89 75.3885Z"
            fill="#F2F2F2" />
        <path
            d="M223.123 279.677C223.945 279.677 224.714 279.916 225.351 280.288C226.041 277.364 228.641 275.158 231.798 275.158C232.063 275.158 232.355 275.184 232.62 275.211C234.08 271.941 237.343 269.682 241.163 269.682C246.337 269.682 250.502 273.882 250.502 279.039C250.502 279.092 250.502 279.145 250.502 279.198C251.139 278.906 251.829 278.746 252.571 278.746C255.225 278.746 257.4 280.899 257.4 283.584C257.4 286.243 255.251 288.422 252.571 288.422H223.123C220.708 288.422 218.771 286.455 218.771 284.063C218.771 281.67 220.708 279.677 223.123 279.677Z"
            fill="#F2F2F2" />
        <path
            d="M504.665 369.181L504.586 369.446C504.586 369.473 504.4 370.164 503.949 371.015C503.524 371.812 502.808 372.876 501.667 373.54C500.526 374.205 499.226 374.338 498.351 374.311C497.396 374.284 496.706 374.125 496.679 374.125L496.414 374.045L496.494 373.779C496.494 373.753 496.679 373.062 497.13 372.211C497.555 371.414 498.271 370.35 499.412 369.686C500.553 369.021 501.853 368.888 502.728 368.915C503.683 368.941 504.373 369.101 504.4 369.101L504.665 369.181ZM497.104 373.646C497.82 373.779 499.81 373.992 501.402 373.062C502.994 372.131 503.737 370.27 503.975 369.579C503.259 369.446 501.269 369.234 499.677 370.164C498.112 371.095 497.343 372.955 497.104 373.646Z"
            fill="#E4E4E4" />
        <path
            d="M500.898 375.534C498.378 376.491 495.565 375.215 495.565 375.215C495.565 375.215 496.839 372.397 499.359 371.44C501.88 370.483 504.692 371.759 504.692 371.759C504.692 371.759 503.418 374.577 500.898 375.534Z"
            fill="#F2F2F2" />
        <path
            d="M495.485 338.797V339.142C495.485 339.169 495.485 340.072 495.193 341.216C494.928 342.279 494.37 343.821 493.203 344.964C492.036 346.107 490.497 346.665 489.436 346.904C488.268 347.17 487.393 347.17 487.366 347.17H487.021V346.824C487.021 346.798 487.022 345.894 487.313 344.751C487.579 343.688 488.136 342.146 489.303 341.003C490.47 339.86 492.009 339.302 493.07 339.062C494.238 338.797 495.113 338.797 495.14 338.797H495.485ZM487.711 346.479C488.613 346.426 491.081 346.08 492.726 344.485C494.37 342.864 494.715 340.391 494.795 339.488C493.893 339.541 491.426 339.886 489.781 341.481C488.136 343.103 487.791 345.575 487.711 346.479Z"
            fill="#E4E4E4" />
        <path
            d="M492.832 347.622C490.073 349.536 486.306 348.871 486.306 348.871C486.306 348.871 486.995 345.097 489.755 343.183C492.514 341.269 496.281 341.933 496.281 341.933C496.281 341.933 495.591 345.681 492.832 347.622Z"
            fill="#F2F2F2" />
        <path
            d="M145.334 329.865L145.546 330.051C145.573 330.077 146.13 330.556 146.714 331.353C147.244 332.098 147.934 333.267 148.04 334.623C148.146 335.979 147.669 337.255 147.271 338.079C146.82 338.956 146.342 339.514 146.342 339.541L146.157 339.753L145.944 339.567C145.918 339.541 145.361 339.062 144.777 338.265C144.22 337.521 143.557 336.351 143.451 334.995C143.344 333.639 143.822 332.364 144.22 331.539C144.671 330.662 145.149 330.104 145.149 330.077L145.334 329.865ZM146.051 338.956C146.502 338.345 147.616 336.59 147.457 334.676C147.297 332.762 145.918 331.22 145.387 330.689C144.936 331.3 143.822 333.055 143.981 334.969C144.14 336.883 145.52 338.424 146.051 338.956Z"
            fill="#E4E4E4" />
        <path
            d="M149.526 336.271C149.261 339.062 146.82 341.109 146.82 341.109C146.82 341.109 144.777 338.637 145.042 335.846C145.308 333.055 147.748 331.008 147.748 331.008C147.748 331.008 149.791 333.48 149.526 336.271Z"
            fill="#F2F2F2" />
        <path
            d="M91.6367 362.11L91.8755 362.083C91.902 362.083 92.5122 362.03 93.3347 362.189C94.1041 362.322 95.1918 362.615 96.0673 363.386C96.9428 364.13 97.3939 365.193 97.6326 365.911C97.8714 366.708 97.9245 367.32 97.9245 367.346L97.951 367.586L97.7122 367.612C97.6857 367.612 97.0755 367.665 96.253 367.506C95.4837 367.373 94.3959 367.081 93.5204 366.31C92.6449 365.565 92.1939 364.502 91.9551 363.784C91.7163 362.987 91.6633 362.375 91.6633 362.349L91.6367 362.11ZM97.4204 367.134C97.3143 366.496 96.9694 364.794 95.749 363.731C94.5286 362.668 92.8041 362.561 92.1673 362.561C92.2735 363.199 92.6184 364.901 93.8388 365.964C95.0326 367.001 96.7837 367.134 97.4204 367.134Z"
            fill="#E4E4E4" />
        <path
            d="M97.9249 363.492C99.4106 365.326 99.1453 368.011 99.1453 368.011C99.1453 368.011 96.4657 367.718 94.98 365.884C93.4943 364.05 93.7596 361.365 93.7596 361.365C93.7596 361.365 96.4392 361.658 97.9249 363.492Z"
            fill="#F2F2F2" />
        <path
            d="M424.304 354.853H424.569C424.596 354.853 425.285 354.826 426.214 355.039C427.063 355.225 428.283 355.623 429.212 356.501C430.14 357.378 430.618 358.574 430.83 359.425C431.069 360.329 431.096 361.02 431.096 361.046V361.312H430.83C430.804 361.312 430.114 361.339 429.185 361.126C428.336 360.94 427.116 360.541 426.187 359.664C425.259 358.787 424.781 357.591 424.569 356.74C424.33 355.836 424.304 355.145 424.304 355.118V354.853ZM430.538 360.754C430.459 360.036 430.14 358.096 428.84 356.873C427.54 355.623 425.577 355.411 424.861 355.384C424.94 356.102 425.259 358.042 426.559 359.265C427.885 360.515 429.822 360.727 430.538 360.754Z"
            fill="#E4E4E4" />
        <path
            d="M431.281 356.687C432.847 358.813 432.449 361.791 432.449 361.791C432.449 361.791 429.477 361.339 427.885 359.239C426.32 357.112 426.718 354.135 426.718 354.135C426.718 354.135 429.716 354.56 431.281 356.687Z"
            fill="#F2F2F2" />
        <path d="M299.186 85.8621H285.762V398.156H299.186V85.8621Z" fill="#7F00FF" />
        <path
            d="M427.673 139.639L381.059 171.831L380.74 172.043H182.53V107.208H380.74L406.608 125.072L427.673 139.639Z"
            fill="#7F00FF" />
        <path d="M199.112 251.712H397.323V186.85H199.112L152.18 219.281L199.112 251.712Z"
            fill="#7F00FF" />
        <path
            d="M351.743 186.797C351.743 186.797 329.086 247.352 185.078 242.009L199.113 251.711H397.297V186.85L351.743 186.797Z"
            fill="#7F00FF" />
        <path
            d="M397.322 193.761C397.322 193.761 381.059 249.133 320.437 251.339L397.322 251.712V193.761Z"
            fill="#7F00FF" />
        <path
            d="M389.257 194.957V243.63H201.633L166.4 219.307L201.633 194.957H389.257ZM391.91 192.299H200.81L161.73 219.281L200.81 246.262H391.91V192.299Z"
            fill="white" />
        <path
            d="M360.259 107.208C360.259 107.208 326.538 168.082 182.53 162.739V172.07H380.714L427.673 139.639L380.714 107.208H360.259Z"
            fill="#7F00FF" />
        <path
            d="M427.673 139.639L381.059 171.831L334.365 171.698C377.716 170.103 398.384 141.34 406.635 125.098L427.673 139.639Z"
            fill="#7F00FF" />
        <path
            d="M378.221 115.289L413.453 139.612L378.221 163.935H190.623V115.289H378.221ZM379.043 112.631H187.97V166.62H379.07L418.123 139.639L379.043 112.631Z"
            fill="white" />
        <path d="M299.186 172.043H285.762V177.865H299.186V172.043Z" fill="#7F00FF" />
        <path d="M299.186 251.658H285.762V257.48H299.186V251.658Z" fill="#7F00FF" />
        <path d="M299.186 251.658H293.959V398.156H299.186V251.658Z" fill="#7F00FF" />
        <path
            d="M279.58 223.108C278.97 222.843 278.174 222.683 277.166 222.683H276.529V208.196C276.529 205.883 275.494 204.713 273.478 204.713C272.841 204.713 272.284 204.926 271.833 205.351C271.409 205.75 270.851 206.415 270.188 207.292L260.16 220.743C259.894 221.115 259.655 221.407 259.47 221.673C259.284 221.939 259.098 222.205 258.913 222.471C258.727 222.763 258.594 223.029 258.488 223.295C258.382 223.56 258.355 223.826 258.355 224.092C258.355 225.076 258.674 225.873 259.311 226.458C259.947 227.043 260.902 227.309 262.123 227.309H271.435V230.658C271.435 231.642 271.674 232.412 272.125 232.944C272.602 233.476 273.213 233.742 273.982 233.742C274.751 233.742 275.388 233.476 275.839 232.971C276.29 232.466 276.529 231.695 276.529 230.685V227.335H277.511C278.492 227.335 279.262 227.149 279.766 226.803C280.296 226.431 280.562 225.847 280.562 225.049C280.562 224.065 280.217 223.401 279.58 223.108ZM271.435 212.422V222.71H263.847L271.435 212.422Z"
            fill="white" />
        <path
            d="M298.921 207.425C298.099 206.601 297.144 205.963 296.056 205.537C294.968 205.112 293.774 204.899 292.448 204.899C290.458 204.899 288.707 205.404 287.274 206.361C285.842 207.345 284.727 208.754 283.958 210.615C283.533 211.731 283.215 213.06 283.003 214.602C282.791 216.144 282.711 217.872 282.711 219.786C282.711 221.274 282.817 222.657 282.976 223.933C283.162 225.208 283.454 226.405 283.852 227.441C284.621 229.382 285.815 230.924 287.354 232.04C288.893 233.157 290.67 233.715 292.607 233.715C294.305 233.715 295.87 233.29 297.25 232.466C298.629 231.641 299.77 230.472 300.646 228.957C301.335 227.734 301.813 226.352 302.078 224.836C302.344 223.348 302.45 221.54 302.45 219.467C302.45 215.639 301.972 212.635 300.991 210.535C300.433 209.285 299.744 208.249 298.921 207.425ZM288.707 225.022C288.442 223.534 288.282 221.567 288.282 219.227C288.282 215.772 288.601 213.167 289.237 211.518C289.874 209.897 290.935 209.126 292.554 209.126C293.642 209.126 294.517 209.472 295.154 210.189C295.791 210.907 296.242 211.997 296.507 213.432C296.772 214.894 296.931 216.782 296.931 219.068C296.931 221.487 296.799 223.454 296.533 224.943C296.268 226.405 295.817 227.548 295.18 228.319C294.544 229.09 293.721 229.462 292.607 229.462C291.519 229.462 290.697 229.09 290.086 228.372C289.423 227.627 288.972 226.484 288.707 225.022Z"
            fill="white" />
        <path
            d="M325.638 223.108C325.027 222.843 324.231 222.683 323.223 222.683H322.587V208.196C322.587 205.883 321.552 204.713 319.536 204.713C318.899 204.713 318.342 204.926 317.891 205.351C317.466 205.75 316.909 206.415 316.246 207.292L306.217 220.743C305.952 221.115 305.713 221.407 305.527 221.673C305.342 221.939 305.156 222.205 304.97 222.471C304.785 222.763 304.652 223.029 304.546 223.295C304.44 223.56 304.413 223.826 304.413 224.092C304.413 225.076 304.731 225.873 305.368 226.458C306.005 227.043 306.96 227.309 308.18 227.309H317.493V230.658C317.493 231.642 317.731 232.412 318.182 232.944C318.66 233.476 319.27 233.742 320.04 233.742C320.809 233.742 321.446 233.476 321.897 232.971C322.348 232.466 322.587 231.695 322.587 230.685V227.335H323.568C324.55 227.335 325.319 227.149 325.823 226.803C326.354 226.431 326.619 225.847 326.619 225.049C326.619 224.065 326.301 223.401 325.638 223.108ZM317.493 212.422V222.71H309.905L317.493 212.422Z"
            fill="white" />
        <path
            d="M252.307 133.126H242.437V138.443H251.537C252.201 138.443 252.705 138.602 253.023 138.895C253.341 139.187 253.527 139.586 253.527 140.091C253.527 140.596 253.368 140.995 253.05 141.287C252.731 141.606 252.227 141.765 251.537 141.765H242.437V147.933H252.652C253.341 147.933 253.872 148.092 254.217 148.411C254.562 148.73 254.747 149.155 254.747 149.687C254.747 150.192 254.562 150.618 254.217 150.937C253.872 151.256 253.341 151.415 252.652 151.415H240.739C239.784 151.415 239.094 151.202 238.67 150.777C238.245 150.352 238.033 149.661 238.033 148.73V132.435C238.033 131.797 238.139 131.292 238.325 130.893C238.511 130.494 238.803 130.202 239.201 130.016C239.598 129.83 240.103 129.75 240.739 129.75H252.307C252.996 129.75 253.527 129.91 253.872 130.229C254.217 130.548 254.376 130.946 254.376 131.451C254.376 131.956 254.217 132.382 253.872 132.674C253.527 132.967 252.996 133.126 252.307 133.126Z"
            fill="white" />
        <path
            d="M264.086 142.138H262.547V149.102C262.547 150.006 262.335 150.697 261.937 151.123C261.539 151.548 261.009 151.761 260.372 151.761C259.682 151.761 259.125 151.521 258.754 151.069C258.382 150.618 258.17 149.953 258.17 149.076V132.408C258.17 131.451 258.382 130.787 258.807 130.361C259.231 129.936 259.921 129.724 260.85 129.724H267.986C268.968 129.724 269.817 129.777 270.507 129.856C271.196 129.936 271.833 130.122 272.39 130.361C273.08 130.654 273.664 131.053 274.194 131.584C274.725 132.116 275.123 132.727 275.388 133.445C275.654 134.163 275.786 134.907 275.786 135.678C275.786 137.3 275.335 138.576 274.433 139.559C273.531 140.516 272.152 141.207 270.294 141.606C271.064 142.031 271.807 142.643 272.523 143.44C273.239 144.238 273.876 145.115 274.407 146.019C274.964 146.923 275.388 147.747 275.707 148.491C276.025 149.235 276.184 149.74 276.184 150.006C276.184 150.299 276.105 150.564 275.919 150.857C275.733 151.149 275.494 151.362 275.176 151.521C274.858 151.681 274.486 151.761 274.088 151.761C273.584 151.761 273.186 151.654 272.841 151.415C272.496 151.176 272.231 150.883 271.966 150.538C271.727 150.192 271.409 149.661 270.984 148.969L269.233 146.045C268.596 144.982 268.039 144.158 267.535 143.6C267.031 143.041 266.527 142.643 266.023 142.457C265.519 142.244 264.882 142.138 264.086 142.138ZM266.607 133.046H262.574V139.001H266.501C267.562 139.001 268.437 138.921 269.154 138.735C269.87 138.549 270.427 138.23 270.799 137.805C271.17 137.379 271.356 136.768 271.356 135.997C271.356 135.386 271.196 134.854 270.905 134.402C270.613 133.95 270.188 133.605 269.631 133.365C269.127 133.153 268.119 133.046 266.607 133.046Z"
            fill="white" />
        <path
            d="M285.815 142.138H284.276V149.102C284.276 150.006 284.064 150.697 283.666 151.123C283.268 151.548 282.737 151.761 282.1 151.761C281.411 151.761 280.854 151.521 280.482 151.069C280.111 150.618 279.898 149.953 279.898 149.076V132.408C279.898 131.451 280.111 130.787 280.535 130.361C280.96 129.936 281.649 129.724 282.578 129.724H289.715C290.696 129.724 291.545 129.777 292.235 129.856C292.925 129.936 293.562 130.122 294.119 130.361C294.809 130.654 295.392 131.053 295.923 131.584C296.454 132.116 296.852 132.727 297.117 133.445C297.382 134.163 297.515 134.907 297.515 135.678C297.515 137.3 297.064 138.576 296.162 139.559C295.26 140.516 293.88 141.207 292.023 141.606C292.792 142.031 293.535 142.643 294.251 143.44C294.968 144.238 295.605 145.115 296.135 146.019C296.692 146.923 297.117 147.747 297.435 148.491C297.754 149.235 297.913 149.74 297.913 150.006C297.913 150.299 297.833 150.564 297.647 150.857C297.462 151.149 297.223 151.362 296.905 151.521C296.586 151.681 296.215 151.761 295.817 151.761C295.313 151.761 294.915 151.654 294.57 151.415C294.225 151.176 293.96 150.883 293.694 150.538C293.456 150.192 293.137 149.661 292.713 148.969L290.962 146.045C290.325 144.982 289.768 144.158 289.264 143.6C288.76 143.041 288.256 142.643 287.751 142.457C287.247 142.244 286.611 142.138 285.815 142.138ZM288.335 133.046H284.303V139.001H288.229C289.29 139.001 290.166 138.921 290.882 138.735C291.598 138.549 292.156 138.23 292.527 137.805C292.898 137.379 293.084 136.768 293.084 135.997C293.084 135.386 292.925 134.854 292.633 134.402C292.341 133.95 291.917 133.605 291.36 133.365C290.856 133.153 289.847 133.046 288.335 133.046Z"
            fill="white" />
        <path
            d="M311.178 129.378C313.433 129.378 315.343 129.83 316.962 130.734C318.58 131.637 319.774 132.94 320.623 134.615C321.445 136.289 321.87 138.257 321.87 140.543C321.87 142.217 321.631 143.733 321.18 145.115C320.729 146.497 320.039 147.667 319.137 148.677C318.235 149.687 317.121 150.458 315.794 150.99C314.468 151.521 312.956 151.787 311.258 151.787C309.56 151.787 308.047 151.521 306.721 150.963C305.394 150.405 304.28 149.634 303.378 148.65C302.476 147.667 301.813 146.471 301.362 145.062C300.911 143.653 300.672 142.138 300.672 140.516C300.672 138.841 300.911 137.326 301.388 135.944C301.866 134.562 302.556 133.365 303.458 132.408C304.36 131.425 305.474 130.68 306.774 130.175C308.047 129.644 309.533 129.378 311.178 129.378ZM317.413 140.516C317.413 138.921 317.147 137.565 316.643 136.396C316.139 135.226 315.396 134.349 314.441 133.764C313.486 133.179 312.398 132.86 311.178 132.86C310.302 132.86 309.507 133.02 308.764 133.365C308.021 133.684 307.384 134.163 306.853 134.801C306.323 135.439 305.898 136.236 305.58 137.22C305.262 138.203 305.102 139.293 305.102 140.516C305.102 141.739 305.262 142.855 305.58 143.866C305.898 144.849 306.323 145.673 306.88 146.338C307.437 147.002 308.1 147.481 308.817 147.8C309.56 148.119 310.356 148.278 311.231 148.278C312.345 148.278 313.38 147.986 314.309 147.428C315.237 146.869 316.007 145.992 316.564 144.822C317.147 143.679 317.413 142.244 317.413 140.516Z"
            fill="white" />
        <path
            d="M331.474 142.138H329.935V149.102C329.935 150.006 329.723 150.697 329.325 151.123C328.927 151.548 328.396 151.761 327.76 151.761C327.07 151.761 326.513 151.521 326.141 151.069C325.77 150.618 325.558 149.953 325.558 149.076V132.408C325.558 131.451 325.77 130.787 326.194 130.361C326.619 129.936 327.309 129.724 328.237 129.724H335.374C336.356 129.724 337.205 129.777 337.894 129.856C338.584 129.936 339.221 130.122 339.778 130.361C340.468 130.654 341.052 131.053 341.582 131.584C342.113 132.116 342.511 132.727 342.776 133.445C343.041 134.163 343.174 134.907 343.174 135.678C343.174 137.3 342.723 138.576 341.821 139.559C340.919 140.516 339.539 141.207 337.682 141.606C338.452 142.031 339.194 142.643 339.911 143.44C340.627 144.238 341.264 145.115 341.794 146.019C342.352 146.923 342.776 147.747 343.094 148.491C343.413 149.235 343.572 149.74 343.572 150.006C343.572 150.299 343.492 150.564 343.307 150.857C343.121 151.149 342.882 151.362 342.564 151.521C342.245 151.681 341.874 151.761 341.476 151.761C340.972 151.761 340.574 151.654 340.229 151.415C339.884 151.176 339.619 150.883 339.354 150.538C339.115 150.192 338.796 149.661 338.372 148.969L336.621 146.045C335.984 144.982 335.427 144.158 334.923 143.6C334.419 143.041 333.915 142.643 333.411 142.457C332.907 142.244 332.27 142.138 331.474 142.138ZM333.994 133.046H329.962V139.001H333.888C334.949 139.001 335.825 138.921 336.541 138.735C337.258 138.549 337.815 138.23 338.186 137.805C338.558 137.379 338.743 136.768 338.743 135.997C338.743 135.386 338.584 134.854 338.292 134.402C337.974 133.95 337.576 133.605 337.019 133.365C336.515 133.153 335.507 133.046 333.994 133.046Z"
            fill="white" />
        <path
            d="M401.089 401H173.775C172.236 401 170.989 399.751 170.989 398.209V398.129C170.989 396.587 172.236 395.338 173.775 395.338H401.089C402.628 395.338 403.875 396.587 403.875 398.129V398.209C403.902 399.724 402.655 401 401.089 401Z"
            fill="#7F00FF" />
        <path
            d="M178.099 401H141.275C139.736 401 138.489 399.751 138.489 398.209V398.129C138.489 396.587 139.736 395.338 141.275 395.338H178.099C179.638 395.338 180.885 396.587 180.885 398.129V398.209C180.885 399.724 179.638 401 178.099 401Z"
            fill="#7F00FF" />
        <path
            d="M124.402 401H85.7203C84.1815 401 82.9346 399.751 82.9346 398.209V398.129C82.9346 396.587 84.1815 395.338 85.7203 395.338H124.402C125.941 395.338 127.188 396.587 127.188 398.129V398.209C127.188 399.724 125.941 401 124.402 401Z"
            fill="#7F00FF" />
        <path
            d="M450.172 401H418.415C416.876 401 415.629 399.751 415.629 398.209V398.129C415.629 396.587 416.876 395.338 418.415 395.338H450.172C451.711 395.338 452.957 396.587 452.957 398.129V398.209C452.984 399.724 451.711 401 450.172 401Z"
            fill="#7F00FF" />
        <path
            d="M491.692 401H467.549C466.011 401 464.764 399.751 464.764 398.209V398.129C464.764 396.587 466.011 395.338 467.549 395.338H491.692C493.231 395.338 494.478 396.587 494.478 398.129V398.209C494.478 399.724 493.231 401 491.692 401Z"
            fill="#7F00FF" />
    </g>
    <defs>
        <clipPath id="clip0_543_634">
            <rect width="598" height="401" fill="white" />
        </clipPath>
    </defs>
</svg>
    