<svg width="86" height="85" viewBox="0 0 86 85" fill="none" xmlns="http://www.w3.org/2000/svg">
<path d="M32.307 77.4599H53.4133C71.002 77.4599 78.0374 70.4244 78.0374 52.8358V31.7295C78.0374 14.1409 71.002 7.10547 53.4133 7.10547H32.307C14.7184 7.10547 7.68298 14.1409 7.68298 31.7295V52.8358C7.68298 70.4244 14.7184 77.4599 32.307 77.4599Z" stroke="#1E9B50" stroke-width="2" stroke-linecap="round" stroke-linejoin="round"/>
<path d="M32.307 35.2472C36.1926 35.2472 39.3425 32.0973 39.3425 28.2117C39.3425 24.3261 36.1926 21.1763 32.307 21.1763C28.4215 21.1763 25.2716 24.3261 25.2716 28.2117C25.2716 32.0973 28.4215 35.2472 32.307 35.2472Z" stroke="#1E9B50" stroke-width="2" stroke-linecap="round" stroke-linejoin="round"/>
<path d="M10.04 66.7311L27.3824 55.0875C30.1614 53.2231 34.1716 53.4341 36.6692 55.5799L37.83 56.6001C40.5739 58.957 45.0062 58.957 47.75 56.6001L62.3837 44.0418C65.1275 41.685 69.5599 41.685 72.3037 44.0418L78.0376 48.9666" stroke="#1E9B50" stroke-width="2" stroke-linecap="round" stroke-linejoin="round"/>
</svg>
