<svg width="16" height="17" viewBox="0 0 16 17" fill="none" xmlns="http://www.w3.org/2000/svg">
<path fill-rule="evenodd" clip-rule="evenodd" d="M8.76499 8.14071L10.449 6.45571L2.87399 2.18171C2.85824 2.17287 2.8432 2.16284 2.82899 2.15171C2.77112 2.10587 2.70438 2.0725 2.63299 2.05371L8.76499 8.14071ZM2.00199 2.65471C1.99899 2.60471 2.00199 2.55471 2.00899 2.50471L8.26599 8.71971L2.00699 14.9377C1.99845 14.8815 1.99677 14.8244 2.00199 14.7677V2.67271V2.65271V2.65471ZM11.15 10.5907L9.26599 8.72071L11.143 6.85671L13.602 8.23971C13.923 8.41971 14 8.60771 14 8.72071C14 8.83471 13.922 9.02471 13.6 9.20771L11.15 10.5907ZM2.63599 15.3877C2.7071 15.3697 2.7738 15.3374 2.83199 15.2927C2.8453 15.2824 2.85934 15.273 2.87399 15.2647L10.449 10.9847L8.76499 9.29971L2.63599 15.3877Z" fill="white"/>
</svg>
