<svg width="34" height="34" viewBox="0 0 34 34" fill="none" xmlns="http://www.w3.org/2000/svg">
<path d="M1 17C1 8.16344 8.16344 1 17 1C25.8366 1 33 8.16344 33 17C33 25.8366 25.8366 33 17 33C8.16344 33 1 25.8366 1 17Z" fill="#FFEEEE"/>
<path d="M1 17C1 8.16344 8.16344 1 17 1C25.8366 1 33 8.16344 33 17C33 25.8366 25.8366 33 17 33C8.16344 33 1 25.8366 1 17Z" stroke="#EA3815"/>
<path d="M11.623 17H22.623" stroke="#EA3815" stroke-width="1.5" stroke-linecap="square" stroke-linejoin="round"/>
<path d="M17.123 11.5V22.5" stroke="#EA3815" stroke-width="1.5" stroke-linecap="square" stroke-linejoin="round"/>
</svg>
