<svg width="80" height="80" viewBox="0 0 80 80" fill="none" xmlns="http://www.w3.org/2000/svg">
<path d="M0 12C0 5.37258 5.37258 0 12 0H68C74.6274 0 80 5.37258 80 12V68C80 74.6274 74.6274 80 68 80H12C5.37258 80 0 74.6274 0 68V12Z" fill="#F1F3F8"/>
<path d="M40 8C22.3275 8 8 22.3275 8 40C8 57.6725 22.3275 72 40 72C57.6725 72 72 57.6725 72 40C72 22.3275 57.6725 8 40 8ZM40 19.1912C44.125 19.1912 47.47 23.1625 47.47 28.0613C47.47 32.96 44.125 36.9312 40 36.9312C35.875 36.9312 32.53 32.96 32.53 28.0613C32.53 23.1625 35.875 19.1912 40 19.1912ZM59.17 57.8613C59.17 58.2591 59.012 58.6406 58.7307 58.9219C58.4494 59.2032 58.0678 59.3613 57.67 59.3613H22.3313C21.9334 59.3613 21.5519 59.2032 21.2706 58.9219C20.9893 58.6406 20.8313 58.2591 20.8313 57.8613V57.2062C20.8313 52.4659 22.7142 47.9197 26.0658 44.5676C29.4175 41.2155 33.9634 39.3319 38.7038 39.3312H41.295C43.6424 39.3312 45.9668 39.7936 48.1355 40.6919C50.3042 41.5902 52.2747 42.9069 53.9345 44.5667C55.5944 46.2266 56.911 48.1971 57.8093 50.3658C58.7076 52.5345 59.17 54.8589 59.17 57.2062V57.8613Z" fill="#D3D7DD"/>
</svg>
