<svg width="45" height="46" viewBox="0 0 45 46" fill="none" xmlns="http://www.w3.org/2000/svg">
<path d="M0 8.83594C0 4.41766 3.58172 0.835938 8 0.835938H37C41.4183 0.835938 45 4.41766 45 8.83594V37.8359C45 42.2542 41.4183 45.8359 37 45.8359H8C3.58172 45.8359 0 42.2542 0 37.8359V8.83594Z" fill="#74B5FF"/>
<path d="M31.2529 28.389C29.7508 27.1192 28.8894 25.2633 28.8894 23.2972V20.5274C28.8894 17.0314 26.2924 14.1373 22.9285 13.6525V12.5794C22.9285 12.03 22.4833 11.5859 21.9349 11.5859C21.3866 11.5859 20.9414 12.03 20.9414 12.5794V13.6525C17.5764 14.1373 14.9805 17.0314 14.9805 20.5274V23.2972C14.9805 25.2633 14.1191 27.1192 12.608 28.3968C12.2216 28.7277 12 29.2085 12 29.7171C12 30.676 12.7799 31.4559 13.7386 31.4559H30.1312C31.0901 31.4559 31.8699 30.676 31.8699 29.7171C31.8699 29.2085 31.6484 28.7277 31.2529 28.389Z" fill="white"/>
<path d="M21.9353 35.4336C23.7346 35.4336 25.2397 34.1509 25.5854 32.4531H18.2852C18.631 34.1509 20.1361 35.4336 21.9353 35.4336Z" fill="white" fill-opacity="0.4"/>
</svg>
