<svg width="35" height="35" viewBox="0 0 35 35" fill="none" xmlns="http://www.w3.org/2000/svg">
<circle cx="17.5" cy="17.5001" r="15.8333" fill="#E25D6F" stroke="#E25D6F" stroke-width="3"/>
<path d="M17.5 25.8333C18.4166 25.8333 19.1666 25.0833 19.1666 24.1666H15.8333C15.8333 25.0833 16.575 25.8333 17.5 25.8333ZM22.5 20.8333V16.6666C22.5 14.1083 21.1333 11.9666 18.75 11.3999V10.8333C18.75 10.1416 18.1916 9.58325 17.5 9.58325C16.8083 9.58325 16.25 10.1416 16.25 10.8333V11.3999C13.8583 11.9666 12.5 14.0999 12.5 16.6666V20.8333L11.425 21.9083C10.9 22.4333 11.2666 23.3333 12.0083 23.3333H22.9833C23.725 23.3333 24.1 22.4333 23.575 21.9083L22.5 20.8333Z" fill="white"/>
</svg>
