<svg width="44" height="44" viewBox="0 0 44 44" fill="none" xmlns="http://www.w3.org/2000/svg">
<path fill-rule="evenodd" clip-rule="evenodd" d="M20.0909 0.890146C20.5507 0.3275 21.2545 0 22 0C22.7455 0 23.4493 0.327467 23.9091 0.890146L26.0092 3.45563C26.4879 4.04 27.1387 4.47602 27.8766 4.70579C28.6164 4.93556 29.4092 4.94823 30.1565 4.74379L33.4316 3.84822C34.1487 3.65282 34.9187 3.78309 35.5223 4.20282C36.1258 4.62075 36.4948 5.28111 36.5213 5.99395L36.6424 9.25052C36.6688 9.99412 36.93 10.7105 37.3859 11.313C37.8419 11.9137 38.4758 12.3714 39.2061 12.6265L42.4074 13.7428C43.1074 13.987 43.6505 14.5262 43.8813 15.2046C44.1121 15.8831 44.0024 16.623 43.5861 17.2146L41.6828 19.9158C41.2495 20.5309 41.0187 21.2564 41.0187 22C41.0187 22.7436 41.2495 23.4691 41.6828 24.086L43.5861 26.7872C44.0024 27.3788 44.1102 28.1206 43.8813 28.7972C43.6505 29.4756 43.1074 30.0148 42.4074 30.259L39.2061 31.3753C38.4758 31.6304 37.8419 32.0864 37.3859 32.6888C36.93 33.2895 36.6689 34.0077 36.6424 34.7513L36.5213 38.0079C36.4948 38.7207 36.1277 39.381 35.5223 39.799C34.9206 40.2187 34.1487 40.349 33.4316 40.1536L30.1565 39.258C29.4091 39.0536 28.6164 39.0681 27.8766 39.296C27.1388 39.5258 26.4879 39.9618 26.0092 40.5462L23.9091 43.1117C23.4493 43.6725 22.7455 44 22 44C21.2545 44 20.5507 43.6725 20.0909 43.1099L17.9908 40.5444C17.5121 39.96 16.8613 39.524 16.1234 39.2942C15.3836 39.0644 14.5908 39.0518 13.8435 39.2562L10.5684 40.1518C9.85131 40.3472 9.08127 40.2169 8.47772 39.7972C7.87416 39.3792 7.50522 38.7189 7.47872 38.006L7.35764 34.7513C7.33115 34.0077 7.07005 33.2913 6.61405 32.6888C6.15807 32.0881 5.52424 31.6304 4.79392 31.3753L1.5926 30.259C0.892557 30.0148 0.349542 29.4756 0.118697 28.7972C-0.112129 28.1188 -0.00239289 27.3788 0.413855 26.7872L2.31724 24.086C2.75051 23.4691 2.98135 22.7436 2.98135 22C2.98135 21.2564 2.75052 20.5309 2.31724 19.914L0.413855 17.2128C-0.00239289 16.6212 -0.110221 15.8794 0.118697 15.2028C0.349523 14.5244 0.892557 13.9852 1.5926 13.741L4.79392 12.6247C5.52424 12.3696 6.15807 11.9136 6.61405 11.3112C7.07003 10.7105 7.33114 9.99227 7.35764 9.24871L7.47872 5.99215C7.50521 5.2793 7.87227 4.61897 8.47772 4.20102C9.07939 3.78128 9.85131 3.65102 10.5684 3.84641L13.8435 4.74198C14.5909 4.94642 15.3836 4.93195 16.1234 4.70399C16.8612 4.47422 17.5121 4.03819 17.9908 3.45383L20.0909 0.890146ZM11.9285 22.9208L18.1249 28.8478C18.5525 29.2567 19.2469 29.2567 19.6745 28.8478L32.0692 16.9956C32.4968 16.5867 32.4968 15.9227 32.0692 15.5138C31.6416 15.105 30.9473 15.105 30.5197 15.5138L18.9009 26.6241L13.4785 21.439C13.0509 21.0302 12.3565 21.0302 11.9289 21.439C11.5013 21.8479 11.5009 22.5119 11.9285 22.9208Z" fill="#1E9B50"/>
</svg>
