<svg width="24" height="24" viewBox="0 0 24 24" fill="none" xmlns="http://www.w3.org/2000/svg">
<path d="M6.07515 6.41115C6.07515 8.05453 7.40737 9.38675 9.05075 9.38675V10.8867C6.57895 10.8867 4.57515 8.88295 4.57515 6.41115H6.07515ZM9.05075 9.38675C10.6941 9.38675 12.0264 8.05453 12.0264 6.41115H13.5264C13.5264 8.88295 11.5226 10.8867 9.05075 10.8867V9.38675ZM12.0264 6.41115C12.0264 4.76777 10.6941 3.43555 9.05075 3.43555V1.93555C11.5226 1.93555 13.5264 3.93934 13.5264 6.41115H12.0264ZM9.05075 3.43555C7.40737 3.43555 6.07515 4.76777 6.07515 6.41115H4.57515C4.57515 3.93934 6.57895 1.93555 9.05075 1.93555V3.43555ZM12.7764 14.6123H5.32515V13.1123H12.7764V14.6123ZM5.32515 20.5635H12.7764V22.0635H5.32515V20.5635ZM12.7764 20.5635C14.4197 20.5635 15.752 19.2313 15.752 17.5879H17.252C17.252 20.0598 15.2482 22.0635 12.7764 22.0635V20.5635ZM2.34955 17.5879C2.34955 19.2313 3.68177 20.5635 5.32515 20.5635V22.0635C2.85335 22.0635 0.849551 20.0598 0.849551 17.5879H2.34955ZM5.32515 14.6123C3.68177 14.6123 2.34955 15.9446 2.34955 17.5879H0.849551C0.849551 15.1161 2.85335 13.1123 5.32515 13.1123V14.6123ZM12.7764 13.1123C15.2482 13.1123 17.252 15.1161 17.252 17.5879H15.752C15.752 15.9446 14.4197 14.6123 12.7764 14.6123V13.1123Z" fill="#012635"/>
<path d="M18.6749 12.9316C23.346 12.9316 23.9301 20.3828 18.675 20.3828" stroke="#012635" stroke-width="1.5" stroke-linecap="round"/>
<path d="M14.9493 2.99609C19.6204 2.99609 20.2045 10.4473 14.9495 10.4473" stroke="#012635" stroke-width="1.5" stroke-linecap="round"/>
</svg>
