<svg width="22" height="22" viewBox="0 0 22 22" fill="none" xmlns="http://www.w3.org/2000/svg">
<path d="M11.7506 1.08398C11.7506 0.669771 11.4148 0.333984 11.0006 0.333984C10.5864 0.333984 10.2506 0.669771 10.2506 1.08398L11.7506 1.08398ZM10.2506 11.0766C10.2506 11.4908 10.5864 11.8266 11.0006 11.8266C11.4148 11.8266 11.7506 11.4908 11.7506 11.0766H10.2506ZM14.656 9.10638C14.9476 8.81218 14.9454 8.33731 14.6512 8.04573C14.3571 7.75414 13.8822 7.75626 13.5906 8.05046L14.656 9.10638ZM13.032 9.67946L12.4993 9.1515L13.032 9.67946ZM8.96919 9.67946L9.50188 9.1515L8.96919 9.67946ZM8.41062 8.05046C8.11904 7.75626 7.64417 7.75414 7.34997 8.04573C7.05577 8.33731 7.05366 8.81218 7.34524 9.10638L8.41062 8.05046ZM11.1963 11.0641L11.2911 11.8081L11.2911 11.8081L11.1963 11.0641ZM10.8049 11.0641L10.7101 11.8081H10.7101L10.8049 11.0641ZM10.2506 1.08398L10.2506 11.0766H11.7506L11.7506 1.08398L10.2506 1.08398ZM13.5906 8.05046L12.4993 9.1515L13.5647 10.2074L14.656 9.10638L13.5906 8.05046ZM9.50188 9.1515L8.41062 8.05046L7.34524 9.10638L8.4365 10.2074L9.50188 9.1515ZM12.4993 9.1515C12.0518 9.60305 11.76 9.8959 11.5171 10.091C11.286 10.2765 11.1731 10.311 11.1015 10.3202L11.2911 11.8081C11.7498 11.7497 12.1197 11.5309 12.4563 11.2605C12.7812 10.9996 13.142 10.6339 13.5647 10.2074L12.4993 9.1515ZM8.4365 10.2074C8.85921 10.6339 9.22006 10.9996 9.5449 11.2605C9.88157 11.5309 10.2514 11.7497 10.7101 11.8081L10.8998 10.3202C10.8281 10.311 10.7152 10.2765 10.4841 10.091C10.2413 9.8959 9.94942 9.60305 9.50188 9.1515L8.4365 10.2074ZM11.1015 10.3202C11.0345 10.3287 10.9667 10.3287 10.8998 10.3202L10.7101 11.8081C10.903 11.8327 11.0982 11.8327 11.2911 11.8081L11.1015 10.3202Z" fill="#012635"/>
<path d="M14.664 5.39062H16.7566C17.5471 5.39062 18.2635 5.85632 18.5844 6.57884L21.1684 12.3969M21.1684 12.3969H16.8762C16.1489 12.3969 15.4789 12.7918 15.1265 13.4281L14.5122 14.5376C14.1599 15.174 13.4899 15.5688 12.7625 15.5688H8.97321C8.23717 15.5688 7.56062 15.1646 7.21191 14.5164L6.6379 13.4494C6.28919 12.8012 5.61264 12.3969 4.8766 12.3969H0.832031M21.1684 12.3969V18.9141C21.1684 20.0187 20.2729 20.9141 19.1684 20.9141H2.83203C1.72746 20.9141 0.832031 20.0187 0.832031 18.9141V12.3969M0.832031 12.3969L3.47643 6.56473C3.80058 5.84982 4.51297 5.39062 5.29794 5.39062H6.95501" stroke="#012635" stroke-width="1.5" stroke-linecap="round" stroke-linejoin="round"/>
</svg>
