<svg width="24" height="24" viewBox="0 0 24 24" fill="none" xmlns="http://www.w3.org/2000/svg">
<path d="M12.2467 9.35231V14.4726M5.28429 14.5944V18.9639M8.91549 15.8919L9.91148 16.7128C12.3336 18.7091 13.5447 19.7072 14.5602 19.4113C14.7617 19.3525 14.9528 19.2624 15.1263 19.1442C16.0005 18.5489 16.0005 16.9795 16.0005 13.8407V9.62183C16.0005 6.48302 16.0005 4.91362 15.1263 4.31825C14.9528 4.20008 14.7617 4.10997 14.5602 4.05122C13.5447 3.75525 12.3337 4.75339 9.91148 6.74968L8.91549 7.57056C8.72157 7.73038 8.62462 7.81029 8.52657 7.88335C7.73025 8.47675 6.77526 8.81958 5.78335 8.86812C5.66122 8.8741 5.53558 8.8741 5.28429 8.8741C5.02075 8.8741 3.19216 8.8741 3.08131 8.8865C2.15285 8.99039 1.42001 9.72323 1.31612 10.6517C1.30371 10.7625 1.30371 10.8943 1.30371 11.1579V12.3046C1.30371 12.5682 1.30371 12.6999 1.31612 12.8108C1.42001 13.7392 2.15285 14.4721 3.08131 14.576C3.19216 14.5884 5.02075 14.5884 5.28429 14.5884C5.53558 14.5884 5.66122 14.5884 5.78335 14.5944C6.77526 14.6429 7.73025 14.9857 8.52657 15.5791C8.62462 15.6522 8.72157 15.7321 8.91549 15.8919Z" stroke="#012635" stroke-width="1.5" stroke-linecap="round"/>
<path d="M19.0127 7.57086L21.4217 5.13672" stroke="#012635" stroke-width="1.5" stroke-linecap="round"/>
<path d="M19.8076 11.6035H23.003" stroke="#012635" stroke-width="1.5" stroke-linecap="round"/>
<path d="M19.0127 15.8901L21.4217 18.3242" stroke="#012635" stroke-width="1.5" stroke-linecap="round"/>
</svg>
