<svg width="24" height="24" viewBox="0 0 24 24" fill="none" xmlns="http://www.w3.org/2000/svg">
<path d="M8.23524 16.1553H6.28467C3.65403 16.1553 1.52148 14.0226 1.52148 11.3919C1.52148 8.86743 3.48588 6.80176 5.96929 6.63921C7.03743 4.38072 9.3363 2.81836 12.0005 2.81836C15.3601 2.81836 18.14 5.30286 18.602 8.53477C18.6244 8.53438 18.6464 8.53418 18.6689 8.53418C20.7735 8.53418 22.4795 10.2402 22.4795 12.3447C22.4795 14.4492 20.7735 16.1553 18.6689 16.1553L15.9403 16.1553" stroke="#012635" stroke-width="1.5" stroke-linecap="round" stroke-linejoin="round"/>
<path d="M12.7502 11.6621C12.7502 11.2479 12.4144 10.9121 12.0002 10.9121C11.586 10.9121 11.2502 11.2479 11.2502 11.6621L12.7502 11.6621ZM11.2502 21.1814C11.2502 21.5956 11.586 21.9314 12.0002 21.9314C12.4144 21.9314 12.7502 21.5956 12.7502 21.1814H11.2502ZM15.5076 19.3295C15.7992 19.0353 15.7971 18.5605 15.5029 18.2689C15.2087 17.9773 14.7338 17.9794 14.4423 18.2736L15.5076 19.3295ZM13.9354 19.8505L13.4027 19.3225L13.9354 19.8505ZM10.065 19.8505L10.5977 19.3225H10.5977L10.065 19.8505ZM9.55808 18.2736C9.2665 17.9794 8.79163 17.9773 8.49743 18.2689C8.20323 18.5605 8.20112 19.0353 8.4927 19.3295L9.55808 18.2736ZM12.1866 21.1696L12.2814 21.9136H12.2814L12.1866 21.1696ZM11.8138 21.1696L11.7189 21.9136H11.7189L11.8138 21.1696ZM11.2502 11.6621L11.2502 21.1814H12.7502L12.7502 11.6621L11.2502 11.6621ZM14.4423 18.2736L13.4027 19.3225L14.4681 20.3784L15.5076 19.3295L14.4423 18.2736ZM10.5977 19.3225L9.55808 18.2736L8.4927 19.3295L9.53227 20.3784L10.5977 19.3225ZM13.4027 19.3225C12.9758 19.7533 12.6994 20.0305 12.4699 20.2148C12.2523 20.3895 12.1509 20.4181 12.0918 20.4256L12.2814 21.9136C12.7276 21.8567 13.086 21.6439 13.4092 21.3843C13.7206 21.1342 14.066 20.7841 14.4681 20.3784L13.4027 19.3225ZM9.53227 20.3784C9.93438 20.7841 10.2798 21.1342 10.5912 21.3843C10.9144 21.6439 11.2728 21.8567 11.7189 21.9136L11.9086 20.4256C11.8495 20.4181 11.748 20.3895 11.5304 20.2148C11.301 20.0305 11.0246 19.7533 10.5977 19.3225L9.53227 20.3784ZM12.0918 20.4256C12.0309 20.4333 11.9694 20.4333 11.9086 20.4256L11.7189 21.9136C11.9057 21.9374 12.0947 21.9374 12.2814 21.9136L12.0918 20.4256Z" fill="#012635"/>
</svg>
