<svg width="24" height="24" viewBox="0 0 24 24" fill="none" xmlns="http://www.w3.org/2000/svg">
<path d="M2.85938 5.69708C2.85938 4.63239 2.85938 4.10004 3.03331 3.68012C3.26523 3.12022 3.71007 2.67539 4.26996 2.44347C4.68989 2.26953 5.22223 2.26953 6.28693 2.26953C7.35162 2.26953 19.3091 2.26953 19.7291 2.44347C20.289 2.67539 20.7338 3.12022 20.9657 3.68012C21.1396 4.10004 21.1396 4.63239 21.1396 5.69708C21.1396 6.76177 21.1396 7.29412 20.9657 7.71404C20.7338 8.27394 20.289 8.71878 19.7291 8.9507C19.3091 9.12463 7.35162 9.12463 6.28693 9.12463C5.22223 9.12463 4.68989 9.12463 4.26996 8.9507C3.71007 8.71878 3.26523 8.27394 3.03331 7.71404C2.85938 7.29412 2.85938 6.76177 2.85938 5.69708Z" stroke="#012635" stroke-width="1.5"/>
<path d="M2.85938 15.2965C2.85938 14.2318 2.85938 13.6995 3.03331 13.2795C3.26523 12.7196 3.71007 12.2748 4.26996 12.0429C4.68989 11.8689 5.22223 11.8689 6.28693 11.8689C7.35162 11.8689 8.428 11.8689 8.84793 12.0429C9.40783 12.2748 9.85266 12.7196 10.0846 13.2795C10.2585 13.6995 10.2585 14.2318 10.2585 15.2965C10.2585 16.3612 10.2585 19.8994 10.0846 20.3193C9.85266 20.8792 9.40783 21.3241 8.84793 21.556C8.428 21.7299 7.35162 21.7299 6.28693 21.7299C5.22223 21.7299 4.68989 21.7299 4.26996 21.556C3.71007 21.3241 3.26523 20.8792 3.03331 20.3193C2.85938 19.8994 2.85938 16.3612 2.85938 15.2965Z" stroke="#012635" stroke-width="1.5"/>
<path d="M13.4758 15.2965C13.4758 14.2318 13.4758 13.6995 13.6498 13.2795C13.8817 12.7196 14.3265 12.2748 14.8864 12.0429C15.3064 11.8689 16.6474 11.8689 17.7121 11.8689C18.7768 11.8689 19.3091 11.8689 19.7291 12.0429C20.289 12.2748 20.7338 12.7196 20.9657 13.2795C21.1396 13.6995 21.1396 14.2318 21.1396 15.2965C21.1396 16.3612 21.1396 19.8994 20.9657 20.3193C20.7338 20.8792 20.289 21.3241 19.7291 21.556C19.3091 21.7299 18.7768 21.7299 17.7121 21.7299C16.6474 21.7299 15.3064 21.7299 14.8864 21.556C14.3265 21.3241 13.8817 20.8792 13.6498 20.3193C13.4758 19.8994 13.4758 16.3612 13.4758 15.2965Z" stroke="#012635" stroke-width="1.5"/>
</svg>
