<svg width="24" height="24" viewBox="0 0 24 24" fill="none" xmlns="http://www.w3.org/2000/svg">
<path d="M4.18299 17.0847L4.52348 16.4164L4.18299 17.0847ZM2.11764 15.0194L2.7859 14.6789L2.11764 15.0194ZM21.8819 15.0194L21.2136 14.6789L21.8819 15.0194ZM19.8165 17.0847L19.4761 16.4164L19.8165 17.0847ZM19.8165 2.99167L19.4761 3.65992L19.8165 2.99167ZM21.8819 5.05701L21.2136 5.3975L21.8819 5.05701ZM4.18299 2.99167L4.52348 3.65992L4.18299 2.99167ZM2.11764 5.05701L2.7859 5.3975L2.11764 5.05701ZM8.03706 20.653C7.63521 20.7535 7.39089 21.1607 7.49135 21.5625C7.59181 21.9644 7.99901 22.2087 8.40086 22.1082L8.03706 20.653ZM9.70732 21.0085L9.88922 21.7361L9.70732 21.0085ZM14.2922 21.0085L14.1103 21.7361L14.2922 21.0085ZM15.5987 22.1082C16.0005 22.2087 16.4077 21.9644 16.5082 21.5625C16.6086 21.1607 16.3643 20.7535 15.9625 20.653L15.5987 22.1082ZM11.9998 20.7263V21.4763V20.7263ZM12.7498 17.5998C12.7498 17.1856 12.414 16.8498 11.9998 16.8498C11.5856 16.8498 11.2498 17.1856 11.2498 17.5998H12.7498ZM9.16416 3.22656H14.8354V1.72656H9.16416V3.22656ZM14.8354 16.8498H9.16416V18.3498H14.8354V16.8498ZM9.16416 16.8498C7.82838 16.8498 6.87165 16.8492 6.1212 16.7879C5.37951 16.7273 4.9056 16.6111 4.52348 16.4164L3.84249 17.753C4.47132 18.0734 5.1646 18.2147 5.99905 18.2829C6.82475 18.3504 7.85313 18.3498 9.16416 18.3498V16.8498ZM0.852539 10.0382C0.852539 11.3492 0.851956 12.3776 0.919418 13.2033C0.987595 14.0377 1.12899 14.731 1.44939 15.3598L2.7859 14.6789C2.5912 14.2967 2.47503 13.8228 2.41444 13.0811C2.35312 12.3307 2.35254 11.374 2.35254 10.0382H0.852539ZM4.52348 16.4164C3.77535 16.0353 3.16709 15.427 2.7859 14.6789L1.44939 15.3598C1.97439 16.3902 2.81212 17.228 3.84249 17.753L4.52348 16.4164ZM21.647 10.0382C21.647 11.374 21.6464 12.3307 21.5851 13.0811C21.5245 13.8228 21.4083 14.2967 21.2136 14.6789L22.5501 15.3598C22.8706 14.731 23.0119 14.0377 23.0801 13.2033C23.1476 12.3776 23.147 11.3492 23.147 10.0382H21.647ZM14.8354 18.3498C16.1464 18.3498 17.1748 18.3504 18.0005 18.2829C18.8349 18.2147 19.5282 18.0734 20.157 17.753L19.4761 16.4164C19.0939 16.6111 18.62 16.7273 17.8783 16.7879C17.1279 16.8492 16.1712 16.8498 14.8354 16.8498V18.3498ZM21.2136 14.6789C20.8324 15.427 20.2242 16.0353 19.4761 16.4164L20.157 17.753C21.1874 17.228 22.0251 16.3902 22.5501 15.3598L21.2136 14.6789ZM14.8354 3.22656C16.1712 3.22656 17.1279 3.22715 17.8783 3.28846C18.62 3.34906 19.0939 3.46522 19.4761 3.65992L20.157 2.32341C19.5282 2.00301 18.8349 1.86162 18.0005 1.79344C17.1748 1.72598 16.1464 1.72656 14.8354 1.72656V3.22656ZM23.147 10.0382C23.147 8.72715 23.1476 7.69877 23.0801 6.87307C23.0119 6.03862 22.8706 5.34534 22.5501 4.71652L21.2136 5.3975C21.4083 5.77963 21.5245 6.25353 21.5851 6.99522C21.6464 7.74567 21.647 8.7024 21.647 10.0382H23.147ZM19.4761 3.65992C20.2242 4.04112 20.8324 4.64937 21.2136 5.3975L22.5501 4.71652C22.0251 3.68614 21.1874 2.84842 20.157 2.32341L19.4761 3.65992ZM9.16416 1.72656C7.85313 1.72656 6.82475 1.72598 5.99905 1.79344C5.1646 1.86162 4.47132 2.00301 3.84249 2.32341L4.52348 3.65992C4.9056 3.46522 5.37951 3.34906 6.1212 3.28846C6.87165 3.22715 7.82838 3.22656 9.16416 3.22656V1.72656ZM2.35254 10.0382C2.35254 8.7024 2.35312 7.74567 2.41444 6.99522C2.47503 6.25353 2.5912 5.77963 2.7859 5.3975L1.44939 4.71652C1.12899 5.34534 0.987595 6.03862 0.919418 6.87307C0.851956 7.69877 0.852539 8.72715 0.852539 10.0382H2.35254ZM3.84249 2.32341C2.81212 2.84842 1.97439 3.68614 1.44939 4.71652L2.7859 5.3975C3.16709 4.64937 3.77535 4.04112 4.52348 3.65992L3.84249 2.32341ZM8.40086 22.1082L9.88922 21.7361L9.52541 20.2809L8.03706 20.653L8.40086 22.1082ZM14.1103 21.7361L15.5987 22.1082L15.9625 20.653L14.4741 20.2809L14.1103 21.7361ZM12.7498 20.7263V17.5998H11.2498V20.7263H12.7498ZM9.88922 21.7361C10.5821 21.5629 11.2909 21.4763 11.9998 21.4763V19.9763C11.1687 19.9763 10.3377 20.0778 9.52541 20.2809L9.88922 21.7361ZM11.9998 21.4763C12.7086 21.4763 13.4175 21.5629 14.1103 21.7361L14.4741 20.2809C13.6618 20.0778 12.8308 19.9763 11.9998 19.9763V21.4763Z" fill="#012635"/>
</svg>
