<svg width="80" height="81" viewBox="0 0 80 81" fill="none" xmlns="http://www.w3.org/2000/svg">
<g clip-path="url(#clip0_53_82)">
<g clip-path="url(#clip1_53_82)">
<g clip-path="url(#clip2_53_82)">
<path fill-rule="evenodd" clip-rule="evenodd" d="M40 0.219971C48.3842 0.219971 55.8005 0.899341 60.3122 1.9406C69.3078 3.82826 76.3917 10.9122 78.2794 19.9078C79.3206 24.4195 80 31.8358 80 40.22C80 48.6042 79.3206 56.0205 78.2794 60.5322C76.3917 69.5278 69.3078 76.6117 60.3122 78.4994C55.8005 79.5406 48.3842 80.22 40 80.22C31.6158 80.22 24.1995 79.5406 19.6878 78.4994C10.6922 76.6117 3.60829 69.5278 1.72063 60.5322C0.67937 56.0205 0 48.6042 0 40.22C0 31.8358 0.67937 24.4195 1.72063 19.9078C3.60829 10.9122 10.6922 3.82826 19.6878 1.9406C24.1995 0.899341 31.6158 0.219971 40 0.219971Z" fill="#3086EE"/>
<path d="M25.7638 42.4301C26.3088 44.2378 27.1812 45.8574 28.2973 47.2442L35.5576 41.5932L33.7941 41.7205C33.4189 41.7473 33.1516 41.3629 33.3084 41.0215L38.0985 30.5848C38.1806 30.4056 38.3536 30.2856 38.5502 30.2718L41.6158 30.0504C42.0284 30.0204 42.32 30.4461 42.1421 30.82L39.3779 36.6243C39.3397 36.7037 39.4023 36.7954 39.4908 36.7889L41.9594 36.6113L50.7956 29.7341C47.3011 25.1236 41.1812 22.9291 35.3107 24.693C27.7677 26.9589 23.4934 34.9001 25.7629 42.431L25.7638 42.4301ZM30.999 29.0277L34.4188 26.7229C34.5398 26.6418 34.6739 26.5956 34.8095 26.5818C35.1385 26.5137 35.491 26.6434 35.6901 26.9386C35.9532 27.3279 35.8509 27.8567 35.4602 28.1202L32.0404 30.4251C31.921 30.5054 31.7894 30.5508 31.6554 30.5654C31.5961 30.5783 31.536 30.5848 31.4758 30.5848C31.2021 30.5848 30.9332 30.4534 30.7683 30.2102C30.5051 29.8209 30.6075 29.2921 30.9982 29.0285L30.999 29.0277ZM30.4231 30.7138C30.8244 30.9587 30.9511 31.4826 30.7058 31.8832L29.7197 33.493C29.5743 33.7298 29.3322 33.8693 29.0755 33.8953C29.0186 33.9066 28.9618 33.9148 28.9033 33.9148C28.7514 33.9148 28.5979 33.8742 28.4598 33.7899C28.0585 33.5449 27.9318 33.021 28.1771 32.6204L29.1632 31.0106C29.307 30.7754 29.5466 30.6359 29.8017 30.6092C30.008 30.5654 30.2298 30.5962 30.4239 30.7146L30.4231 30.7138Z" fill="white"/>
<path d="M45.3414 36.3666C45.4559 36.3585 45.5558 36.3949 45.633 36.4566L51.96 31.5396C51.6156 30.9029 51.2257 30.2995 50.7952 29.7327L41.959 36.6099L45.3414 36.3658V36.3666Z" fill="white"/>
<path d="M38.8881 41.5063C38.9092 41.4293 38.8475 41.3555 38.7687 41.3611L35.5553 41.5931L28.2949 47.2441C28.7425 47.8004 29.2299 48.3202 29.7506 48.7979L38.7768 41.7829L38.8881 41.5063Z" fill="white"/>
<path d="M45.7071 37.0307L37.4379 47.1891C37.1804 47.5387 36.6289 47.2727 36.7426 46.8542L38.7782 41.7839L29.752 48.799L29.9404 55.87C29.9721 57.0483 31.3969 57.6225 32.2384 56.7945L36.784 52.3235V52.3219C38.9594 52.7323 41.263 52.643 43.5302 51.9618C51.0724 49.6959 55.3467 41.7547 53.0771 34.2247C52.7912 33.2758 52.4151 32.3788 51.9602 31.5403L45.6332 36.4573C45.7957 36.5887 45.8525 36.836 45.7088 37.0307H45.7071Z" fill="white"/>
<path d="M67.354 38.0785C67.354 37.4151 66.8154 36.8774 66.151 36.8774H57.9061C57.2417 36.8774 56.7031 37.4151 56.7031 38.0785C56.7031 38.7419 57.2417 39.2796 57.9061 39.2796H66.151C66.8154 39.2796 67.354 38.7419 67.354 38.0785Z" fill="white"/>
<path d="M55.9975 34.0779C56.2047 34.5077 56.6344 34.7583 57.0827 34.7583C57.2582 34.7583 57.4361 34.7202 57.6042 34.6391L62.4423 32.3123C63.041 32.0244 63.2928 31.3067 63.0044 30.709C62.716 30.1113 61.9972 29.8599 61.3985 30.1478L56.5604 32.4745C55.9618 32.7624 55.71 33.4802 55.9983 34.0779H55.9975Z" fill="white"/>
<path d="M59.7941 25.3639L54.9593 27.861C54.3688 28.1659 54.1381 28.8909 54.4435 29.4797C54.6571 29.8925 55.0779 30.1293 55.5133 30.1293C55.6993 30.1293 55.8886 30.0863 56.0648 29.9947L60.8996 27.4976C61.4902 27.1927 61.7209 26.4677 61.4154 25.8789C61.11 25.2893 60.3838 25.059 59.7941 25.3639Z" fill="white"/>
<path d="M63.0044 45.448C63.2928 44.8503 63.041 44.1325 62.4423 43.8446L57.6042 41.5179C57.0056 41.23 56.2867 41.4814 55.9983 42.0791C55.71 42.6768 55.9618 43.3945 56.5604 43.6824L61.3985 46.0092C61.5666 46.0903 61.7445 46.1284 61.92 46.1284C62.3676 46.1284 62.7973 45.8778 63.0052 45.448H63.0044Z" fill="white"/>
<path d="M61.4154 50.2773C61.7209 49.6877 61.4902 48.9635 60.8996 48.6586L56.0648 46.1615C55.4743 45.8566 54.7489 46.0869 54.4435 46.6765C54.1381 47.2661 54.3688 47.9903 54.9593 48.2952L59.7941 50.7923C59.9712 50.8839 60.1596 50.9269 60.3456 50.9269C60.781 50.9269 61.2018 50.6901 61.4154 50.2773Z" fill="white"/>
<path d="M52.7255 25.9444C53.8166 25.9444 54.701 25.0614 54.701 23.9721C54.701 22.8828 53.8166 21.9998 52.7255 21.9998C51.6345 21.9998 50.75 22.8828 50.75 23.9721C50.75 25.0614 51.6345 25.9444 52.7255 25.9444Z" fill="white"/>
<path d="M52.7255 54.1563C53.8166 54.1563 54.701 53.2733 54.701 52.184C54.701 51.0947 53.8166 50.2117 52.7255 50.2117C51.6345 50.2117 50.75 51.0947 50.75 52.184C50.75 53.2733 51.6345 54.1563 52.7255 54.1563Z" fill="white"/>
<path d="M12 38.0785C12 38.7419 12.5386 39.2796 13.203 39.2796H21.4479C22.1123 39.2796 22.6509 38.7419 22.6509 38.0785C22.6509 37.4151 22.1123 36.8774 21.4479 36.8774H13.203C12.5386 36.8774 12 37.4151 12 38.0785Z" fill="white"/>
<path d="M16.9092 32.3116L21.7473 34.6383C21.9154 34.7194 22.0933 34.7575 22.2688 34.7575C22.7164 34.7575 23.1461 34.5069 23.354 34.0771C23.6424 33.4794 23.3906 32.7617 22.7919 32.4738L17.9539 30.1471C17.3552 29.8592 16.6363 30.1106 16.3479 30.7083C16.0596 31.306 16.3114 32.0237 16.9101 32.3116H16.9092Z" fill="white"/>
<path d="M19.5609 25.3639C18.9704 25.059 18.245 25.2893 17.9396 25.8789C17.6342 26.4685 17.8648 27.1927 18.4554 27.4976L23.2902 29.9947C23.4673 30.0863 23.6557 30.1293 23.8417 30.1293C24.2771 30.1293 24.6971 29.8925 24.9115 29.4797C25.217 28.8901 24.9863 28.1659 24.3957 27.861L19.5609 25.3639Z" fill="white"/>
<path d="M21.7481 41.5179L16.91 43.8446C16.3114 44.1325 16.0596 44.8503 16.3479 45.448C16.5551 45.8778 16.9848 46.1284 17.4332 46.1284C17.6086 46.1284 17.7865 46.0903 17.9547 46.0092L22.7927 43.6824C23.3914 43.3945 23.6432 42.6768 23.3548 42.0791C23.0665 41.4814 22.3476 41.23 21.7489 41.5179H21.7481Z" fill="white"/>
<path d="M18.4554 48.6586C17.8648 48.9635 17.6342 49.6885 17.9396 50.2773C18.1532 50.6901 18.574 50.9269 19.0094 50.9269C19.1954 50.9269 19.3847 50.8839 19.5609 50.7923L24.3957 48.2952C24.9863 47.9903 25.217 47.2653 24.9115 46.6765C24.6061 46.0869 23.8799 45.8566 23.2902 46.1615L18.4554 48.6586Z" fill="white"/>
<path d="M26.6259 25.9444C27.7169 25.9444 28.6014 25.0614 28.6014 23.9721C28.6014 22.8828 27.7169 21.9998 26.6259 21.9998C25.5349 21.9998 24.6504 22.8828 24.6504 23.9721C24.6504 25.0614 25.5349 25.9444 26.6259 25.9444Z" fill="white"/>
<path d="M26.6259 54.1563C27.7169 54.1563 28.6014 53.2733 28.6014 52.184C28.6014 51.0947 27.7169 50.2117 26.6259 50.2117C25.5349 50.2117 24.6504 51.0947 24.6504 52.184C24.6504 53.2733 25.5349 54.1563 26.6259 54.1563Z" fill="white"/>
</g>
</g>
</g>
<defs>
<clipPath id="clip0_53_82">
<rect width="80" height="80" fill="white" transform="translate(0 0.219971)"/>
</clipPath>
<clipPath id="clip1_53_82">
<rect width="80" height="80" fill="white" transform="translate(0 0.219971)"/>
</clipPath>
<clipPath id="clip2_53_82">
<rect width="80" height="80" fill="white" transform="translate(0 0.219971)"/>
</clipPath>
</defs>
</svg>
