<svg width="18" height="18" viewBox="0 0 18 18" fill="none" xmlns="http://www.w3.org/2000/svg">
<path d="M13.2326 7.55108C13.8982 7.55108 14.4378 7.01148 14.4378 6.34585C14.4378 5.68022 13.8982 5.14062 13.2326 5.14062C12.5669 5.14062 12.0273 5.68022 12.0273 6.34585C12.0273 7.01148 12.5669 7.55108 13.2326 7.55108Z" stroke="#FFC000" stroke-linecap="round" stroke-linejoin="round"/>
<path d="M7.6875 10.9248V6.58594" stroke="#FFC000" stroke-linecap="round" stroke-linejoin="round"/>
<path d="M7.68846 13.8222C8.48721 13.8222 9.13473 13.1747 9.13473 12.376C9.13473 11.5772 8.48721 10.9297 7.68846 10.9297C6.88971 10.9297 6.24219 11.5772 6.24219 12.376C6.24219 13.1747 6.88971 13.8222 7.68846 13.8222Z" stroke="#FFC000" stroke-linecap="round" stroke-linejoin="round"/>
<path d="M5.75877 4.17836C5.75877 3.66693 5.96194 3.17644 6.32358 2.8148C6.68522 2.45317 7.1757 2.25 7.68714 2.25C8.19857 2.25 8.68906 2.45317 9.05069 2.8148C9.41233 3.17644 9.6155 3.66693 9.6155 4.17836V9.60189C10.2051 10.0124 10.6483 10.6004 10.8805 11.2803C11.1128 11.9601 11.1221 12.6964 10.9069 13.3818C10.6918 14.0673 10.2635 14.6662 9.68437 15.0914C9.10527 15.5166 8.40558 15.7459 7.68714 15.7459C6.9687 15.7459 6.269 15.5166 5.6899 15.0914C5.1108 14.6662 4.6825 14.0673 4.46736 13.3818C4.25222 12.6964 4.26146 11.9601 4.49373 11.2803C4.726 10.6004 5.16918 10.0124 5.75877 9.60189V4.17836Z" stroke="#FFC000" stroke-linecap="round" stroke-linejoin="round"/>
</svg>
