<svg width="20" height="20" viewBox="0 0 20 20" fill="none" xmlns="http://www.w3.org/2000/svg">
<path d="M14.7024 8.38922C15.442 8.38922 16.0416 7.78967 16.0416 7.05008C16.0416 6.31049 15.442 5.71094 14.7024 5.71094C13.9628 5.71094 13.3633 6.31049 13.3633 7.05008C13.3633 7.78967 13.9628 8.38922 14.7024 8.38922Z" stroke="#012635" stroke-width="1.5" stroke-linecap="round" stroke-linejoin="round"/>
<path d="M8.54297 12.1412V7.32031" stroke="#012635" stroke-width="1.5" stroke-linecap="round" stroke-linejoin="round"/>
<path d="M8.54056 15.3546C9.42807 15.3546 10.1475 14.6351 10.1475 13.7476C10.1475 12.8601 9.42807 12.1406 8.54056 12.1406C7.65306 12.1406 6.93359 12.8601 6.93359 13.7476C6.93359 14.6351 7.65306 15.3546 8.54056 15.3546Z" stroke="#012635" stroke-width="1.5" stroke-linecap="round" stroke-linejoin="round"/>
<path d="M6.39994 4.64263C6.39994 4.07437 6.62568 3.52938 7.0275 3.12756C7.42932 2.72574 7.9743 2.5 8.54256 2.5C9.11082 2.5 9.65581 2.72574 10.0576 3.12756C10.4594 3.52938 10.6852 4.07437 10.6852 4.64263V10.6688C11.3403 11.1249 11.8327 11.7782 12.0908 12.5336C12.3489 13.289 12.3591 14.1071 12.1201 14.8687C11.881 15.6303 11.4052 16.2958 10.7617 16.7683C10.1183 17.2407 9.34083 17.4955 8.54256 17.4955C7.7443 17.4955 6.96686 17.2407 6.32341 16.7683C5.67996 16.2958 5.20408 15.6303 4.96504 14.8687C4.72599 14.1071 4.73626 13.289 4.99433 12.5336C5.25241 11.7782 5.74484 11.1249 6.39994 10.6688V4.64263Z" stroke="#012635" stroke-width="1.5" stroke-linecap="round" stroke-linejoin="round"/>
</svg>
