<svg width="38" height="24" viewBox="0 0 38 24" fill="none" xmlns="http://www.w3.org/2000/svg">
<path d="M9.66229 13.4936C10.0223 14.6875 10.5985 15.7572 11.3356 16.6731L16.1308 12.9408L14.9661 13.0249C14.7182 13.0426 14.5417 12.7887 14.6453 12.5632L17.809 5.67021C17.8631 5.55183 17.9774 5.47256 18.1072 5.46345L20.132 5.31723C20.4045 5.29741 20.5971 5.57861 20.4796 5.82554L18.6539 9.65904C18.6287 9.71153 18.67 9.77206 18.7285 9.76777L20.3589 9.65047L26.1949 5.10833C23.8869 2.06328 19.8449 0.613866 15.9677 1.77886C10.9858 3.27541 8.16279 8.52029 9.66176 13.4941L9.66229 13.4936ZM13.12 4.6418L15.3786 3.11954C15.4586 3.06598 15.5471 3.03545 15.6367 3.02634C15.854 2.98135 16.0868 3.06705 16.2183 3.26202C16.3921 3.51912 16.3245 3.86835 16.0664 4.04243L13.8078 5.56469C13.7289 5.61771 13.642 5.64771 13.5535 5.65735C13.5143 5.66592 13.4746 5.67021 13.4349 5.67021C13.2541 5.67021 13.0765 5.58343 12.9676 5.42275C12.7938 5.16564 12.8614 4.81641 13.1195 4.64233L13.12 4.6418ZM12.7396 5.75537C13.0047 5.91713 13.0883 6.26315 12.9263 6.52775L12.275 7.59097C12.179 7.74738 12.0191 7.8395 11.8496 7.85664C11.812 7.86414 11.7745 7.8695 11.7358 7.8695C11.6355 7.8695 11.5341 7.84272 11.4429 7.78701C11.1779 7.62525 11.0942 7.27924 11.2562 7.01464L11.9075 5.95141C12.0025 5.79608 12.1607 5.70395 12.3292 5.68628C12.4655 5.65735 12.6119 5.6777 12.7402 5.75591L12.7396 5.75537Z" fill="#122A4B"/>
<path d="M22.5933 9.48887C22.669 9.48351 22.735 9.50762 22.7859 9.54832L26.9647 6.3008C26.7372 5.88033 26.4797 5.48183 26.1954 5.10742L20.3594 9.64956L22.5933 9.48833V9.48887Z" fill="#36995E"/>
<path d="M18.3324 12.8832C18.3463 12.8323 18.3055 12.7836 18.2535 12.7873L16.1311 12.9405L11.3359 16.6728C11.6315 17.0402 11.9534 17.3835 12.2973 17.699L18.2589 13.0658L18.3324 12.8832Z" fill="#36995E"/>
<path d="M22.8366 9.92699L17.3751 16.6363C17.2051 16.8671 16.8408 16.6915 16.9159 16.4151L18.2604 13.0663L12.2988 17.6995L12.4233 22.3697C12.4442 23.1479 13.3852 23.5272 13.941 22.9803L16.9433 20.0274V20.0263C18.38 20.2973 19.9015 20.2384 21.3988 19.7885C26.3802 18.2919 29.2032 13.047 27.7043 8.07371C27.5154 7.44703 27.267 6.85462 26.9666 6.30078L22.7878 9.5483C22.8951 9.63507 22.9327 9.79844 22.8377 9.92699H22.8366Z" fill="#1E9B50"/>
<path d="M37.1322 10.619C37.1322 10.1808 36.7765 9.82568 36.3376 9.82568H30.8922C30.4534 9.82568 30.0977 10.1808 30.0977 10.619C30.0977 11.0571 30.4534 11.4122 30.8922 11.4122H36.3376C36.7765 11.4122 37.1322 11.0571 37.1322 10.619Z" fill="#031324"/>
<path d="M29.632 7.97665C29.7689 8.26054 30.0527 8.42605 30.3488 8.42605C30.4647 8.42605 30.5822 8.40087 30.6932 8.34731L33.8886 6.81059C34.284 6.62044 34.4503 6.14641 34.2598 5.75165C34.0694 5.35689 33.5946 5.19085 33.1992 5.38099L30.0038 6.91771C29.6084 7.10786 29.4421 7.58189 29.6326 7.97665H29.632Z" fill="#031324"/>
<path d="M32.1386 2.22176L28.9454 3.87096C28.5554 4.07236 28.403 4.55121 28.6047 4.94008C28.7458 5.21271 29.0237 5.36912 29.3113 5.36912C29.4341 5.36912 29.5591 5.34073 29.6756 5.2802L32.8688 3.631C33.2588 3.4296 33.4112 2.95075 33.2094 2.56188C33.0077 2.17248 32.5281 2.02036 32.1386 2.22176Z" fill="#031324"/>
<path d="M34.2598 15.4869C34.4503 15.0921 34.284 14.6181 33.8886 14.428L30.6932 12.8912C30.2978 12.7011 29.823 12.8671 29.6326 13.2619C29.4421 13.6567 29.6084 14.1307 30.0038 14.3208L33.1992 15.8576C33.3103 15.9111 33.4277 15.9363 33.5436 15.9363C33.8392 15.9363 34.123 15.7708 34.2604 15.4869H34.2598Z" fill="#031324"/>
<path d="M33.2094 18.6764C33.4112 18.287 33.2588 17.8087 32.8688 17.6073L29.6756 15.9581C29.2855 15.7567 28.8064 15.9088 28.6047 16.2982C28.403 16.6876 28.5554 17.1659 28.9454 17.3673L32.1386 19.0165C32.2556 19.0771 32.38 19.1054 32.5029 19.1054C32.7904 19.1054 33.0683 18.949 33.2094 18.6764Z" fill="#031324"/>
<path d="M27.4708 2.6053C28.1914 2.6053 28.7755 2.02208 28.7755 1.30265C28.7755 0.583216 28.1914 0 27.4708 0C26.7502 0 26.166 0.583216 26.166 1.30265C26.166 2.02208 26.7502 2.6053 27.4708 2.6053Z" fill="#031324"/>
<path d="M27.4708 21.2381C28.1914 21.2381 28.7755 20.6549 28.7755 19.9355C28.7755 19.216 28.1914 18.6328 27.4708 18.6328C26.7502 18.6328 26.166 19.216 26.166 19.9355C26.166 20.6549 26.7502 21.2381 27.4708 21.2381Z" fill="#031324"/>
<path d="M0.573242 10.619C0.573242 11.0571 0.928938 11.4122 1.36779 11.4122H6.81321C7.25206 11.4122 7.60775 11.0571 7.60775 10.619C7.60775 10.1808 7.25206 9.82568 6.81321 9.82568H1.36779C0.928938 9.82568 0.573242 10.1808 0.573242 10.619Z" fill="#031324"/>
<path d="M3.81678 6.8101L7.01214 8.34682C7.12319 8.40038 7.24069 8.42556 7.35657 8.42556C7.65218 8.42556 7.93598 8.26005 8.07332 7.97616C8.26378 7.58141 8.09747 7.10737 7.70207 6.91723L4.50671 5.38051C4.11131 5.19036 3.63652 5.3564 3.44606 5.75116C3.25561 6.14592 3.42192 6.61995 3.81732 6.8101H3.81678Z" fill="#031324"/>
<path d="M5.56618 2.22176C5.17615 2.02036 4.69706 2.17248 4.49534 2.56188C4.29362 2.95129 4.44598 3.4296 4.83601 3.631L8.02923 5.2802C8.14618 5.34073 8.27065 5.36912 8.39351 5.36912C8.68107 5.36912 8.95843 5.21271 9.10007 4.94008C9.30179 4.55068 9.14943 4.07236 8.75939 3.87096L5.56618 2.22176Z" fill="#031324"/>
<path d="M7.01268 12.8912L3.81732 14.428C3.42192 14.6181 3.25561 15.0921 3.44606 15.4869C3.58287 15.7708 3.86667 15.9363 4.16282 15.9363C4.2787 15.9363 4.39619 15.9111 4.50725 15.8576L7.70261 14.3208C8.098 14.1307 8.26432 13.6567 8.07386 13.2619C7.8834 12.8671 7.40861 12.7011 7.01321 12.8912H7.01268Z" fill="#031324"/>
<path d="M4.83601 17.6073C4.44598 17.8087 4.29362 18.2875 4.49534 18.6764C4.63644 18.949 4.91434 19.1054 5.2019 19.1054C5.32476 19.1054 5.44976 19.0771 5.56618 19.0165L8.75939 17.3673C9.14943 17.1659 9.30179 16.6871 9.10007 16.2982C8.89835 15.9088 8.41872 15.7567 8.02923 15.9581L4.83601 17.6073Z" fill="#031324"/>
<path d="M10.2354 2.6053C10.956 2.6053 11.5402 2.02208 11.5402 1.30265C11.5402 0.583216 10.956 0 10.2354 0C9.51482 0 8.93066 0.583216 8.93066 1.30265C8.93066 2.02208 9.51482 2.6053 10.2354 2.6053Z" fill="#031324"/>
<path d="M10.2354 21.2381C10.956 21.2381 11.5402 20.6549 11.5402 19.9355C11.5402 19.216 10.956 18.6328 10.2354 18.6328C9.51482 18.6328 8.93066 19.216 8.93066 19.9355C8.93066 20.6549 9.51482 21.2381 10.2354 21.2381Z" fill="#031324"/>
</svg>
