<svg width="40" height="40" viewBox="0 0 40 40" fill="none" xmlns="http://www.w3.org/2000/svg">
<g clip-path="url(#clip0_54_1162)">
<g clip-path="url(#clip1_54_1162)">
<g clip-path="url(#clip2_54_1162)">
<path d="M30.1561 0.860317C27.9003 0.339685 24.1921 0 20 0C15.8079 0 12.0997 0.339685 9.84392 0.860317C5.34611 1.80414 1.80414 5.34611 0.860317 9.84392C0.339685 12.0997 0 15.8079 0 20C0 24.1921 0.339685 27.9003 0.860317 30.1561C1.80414 34.6539 5.34611 38.1958 9.84392 39.1397C12.0997 39.6603 15.8079 40 20 40C24.1921 40 27.9003 39.6603 30.1561 39.1397C34.6539 38.1958 38.1958 34.6539 39.1397 30.1561C39.6603 27.9003 40 24.1921 40 20C40 15.8079 39.6603 12.0997 39.1397 9.84392C38.1958 5.34611 34.6539 1.80414 30.1561 0.860317Z" fill="white"/>
<path fill-rule="evenodd" clip-rule="evenodd" d="M7.08203 30.3045L22.1742 32.9164V7.37646L7.08203 9.98842V30.3045ZM23.0452 28.0828C23.3355 28.1459 23.44 28.1953 23.6465 28.2228C23.8715 28.2549 24.0999 28.2722 24.3271 28.2722C24.6783 28.271 25.0306 28.2343 25.3737 28.1597C25.7249 28.0897 26.0611 27.9588 26.3664 27.7729C26.667 27.5882 26.9195 27.3368 27.1066 27.0385C27.312 26.6908 27.413 26.2891 27.3981 25.884V17.8243H23.0452V28.0828ZM24.5073 16.3567C24.8159 16.3578 25.1212 16.2958 25.4059 16.1742C25.9613 15.9378 26.4019 15.4971 26.6384 14.9417C26.8782 14.3667 26.8782 13.7194 26.6372 13.1433C26.3997 12.5879 25.9589 12.1449 25.4035 11.9097C25.1189 11.788 24.8137 11.7272 24.5039 11.7283C24.1974 11.7272 23.8933 11.788 23.6109 11.9097C23.4009 11.9992 23.3344 12.1163 23.0452 12.2574V15.8264C23.3355 15.9688 23.4009 16.0847 23.6109 16.1742C23.8944 16.2969 24.1997 16.3578 24.5073 16.3567ZM28.2691 19.2761V26.2409H29.4294C29.8287 26.2398 30.2258 26.2019 30.6171 26.1284C31.0119 26.0584 31.3906 25.9264 31.7429 25.7359C32.0746 25.5558 32.3604 25.3022 32.5807 24.9958C32.8114 24.6561 32.9273 24.2521 32.9112 23.8413V19.2761H28.2691ZM28.9462 17.1312C29.1574 17.3423 29.4075 17.5099 29.6819 17.627C30.2568 17.868 30.9052 17.868 31.4813 17.627C32.0367 17.3906 32.4785 16.9488 32.7138 16.3933C32.9548 15.8183 32.9548 15.1711 32.7138 14.5962C32.4774 14.0407 32.0367 13.5978 31.4813 13.3625C30.9064 13.1215 30.2579 13.1215 29.6819 13.3625C29.1264 13.5988 28.6845 14.0407 28.4493 14.5962C28.2083 15.1699 28.2083 15.8172 28.4493 16.3933C28.5664 16.6688 28.7362 16.9189 28.9462 17.1312Z" fill="#5558AF"/>
<path fill-rule="evenodd" clip-rule="evenodd" d="M17.9167 15.4167L11.25 15.8462V17.4711L13.7502 17.3642V24.8967L15.4165 25.0001V17.2947L17.9167 17.1774V15.4167Z" fill="white"/>
</g>
</g>
</g>
<defs>
<clipPath id="clip0_54_1162">
<rect width="40" height="40" fill="white"/>
</clipPath>
<clipPath id="clip1_54_1162">
<rect width="40" height="40" fill="white"/>
</clipPath>
<clipPath id="clip2_54_1162">
<rect width="40" height="40" fill="white"/>
</clipPath>
</defs>
</svg>
