<svg width="40" height="40" viewBox="0 0 40 40" fill="none" xmlns="http://www.w3.org/2000/svg">
<g clip-path="url(#clip0_54_1187)">
<g clip-path="url(#clip1_54_1187)">
<g clip-path="url(#clip2_54_1187)">
<path d="M0 20C0 3.53 3.53 0 20 0C36.47 0 40 3.53 40 20C40 36.47 36.47 40 20 40C3.53 40 0 36.47 0 20Z" fill="white"/>
<path d="M21.1446 10C18.9203 10 17.6306 11.0093 17.0138 11.6822C16.939 11.0841 16.5465 10.3177 15.0138 10.3177H11.668V13.7944H13.0325C13.2567 13.7944 13.3316 13.8692 13.3316 14.0934V30H17.2941V24.0561V23.6075C17.911 24.1683 19.0886 24.9532 20.939 24.9532C24.8081 24.9532 27.5185 21.8878 27.5185 17.4767C27.5371 13.0093 24.9577 10 21.1446 10ZM20.3409 21.4953C18.2101 21.4953 17.2381 19.4579 17.2381 17.5514C17.2381 14.5608 18.8642 13.4953 20.397 13.4953C22.2661 13.4953 23.5371 15.1028 23.5371 17.514C23.5185 20.2803 21.911 21.4953 20.3409 21.4953Z" fill="#203232"/>
</g>
</g>
</g>
<defs>
<clipPath id="clip0_54_1187">
<rect width="40" height="40" fill="white"/>
</clipPath>
<clipPath id="clip1_54_1187">
<rect width="40" height="40" fill="white"/>
</clipPath>
<clipPath id="clip2_54_1187">
<rect width="40" height="40" fill="white"/>
</clipPath>
</defs>
</svg>
