<svg width="40" height="40" viewBox="0 0 40 40" fill="none" xmlns="http://www.w3.org/2000/svg">
<g clip-path="url(#clip0_54_1168)">
<g clip-path="url(#clip1_54_1168)">
<g clip-path="url(#clip2_54_1168)">
<path d="M30.1561 0.860317C27.9003 0.339685 24.1921 0 20 0C15.8079 0 12.0997 0.339685 9.84392 0.860317C5.34611 1.80414 1.80414 5.34611 0.860317 9.84392C0.339685 12.0997 0 15.8079 0 20C0 24.1921 0.339685 27.9003 0.860317 30.1561C1.80414 34.6539 5.34611 38.1958 9.84392 39.1397C12.0997 39.6603 15.8079 40 20 40C24.1921 40 27.9003 39.6603 30.1561 39.1397C34.6539 38.1958 38.1958 34.6539 39.1397 30.1561C39.6603 27.9003 40 24.1921 40 20C40 15.8079 39.6603 12.0997 39.1397 9.84392C38.1958 5.34611 34.6539 1.80414 30.1561 0.860317Z" fill="white"/>
<path d="M17.4842 11.6652C18.4518 10.6571 19.7987 10.0318 21.2885 10.0318C23.2688 10.0318 24.9966 11.1361 25.9167 12.7754C26.7162 12.4182 27.6013 12.2194 28.5325 12.2194C32.1042 12.2194 35 15.1404 35 18.7433C35 22.3468 32.1042 25.2677 28.5325 25.2677C28.1047 25.2679 27.6779 25.2254 27.2586 25.1407C26.4483 26.5861 24.9043 27.5626 23.1321 27.5626C22.3902 27.5626 21.6885 27.3912 21.0637 27.0865C20.2423 29.0186 18.3287 30.3732 16.0982 30.3732C13.7757 30.3732 11.7962 28.9036 11.0363 26.8425C10.7043 26.913 10.3602 26.9497 10.0073 26.9497C7.24189 26.9497 5 24.6848 5 21.8903C5 20.0177 6.00727 18.3827 7.50384 17.5079C7.19573 16.7989 7.02436 16.0164 7.02436 15.1937C7.02436 11.9801 9.63333 9.375 12.8513 9.375C14.7406 9.375 16.4197 10.2733 17.4842 11.6652Z" fill="#00A1E0"/>
<path d="M9.34664 20.2642C9.3278 20.3133 9.35347 20.3236 9.35947 20.3322C9.4158 20.3732 9.47314 20.4027 9.5308 20.4356C9.8368 20.5979 10.1257 20.6453 10.4278 20.6453C11.0432 20.6453 11.4252 20.318 11.4252 19.7911V19.7808C11.4252 19.2937 10.9941 19.1168 10.5894 18.9889L10.5368 18.9718C10.2317 18.8727 9.96847 18.7873 9.96847 18.5864V18.5758C9.96847 18.4039 10.1223 18.2774 10.3607 18.2774C10.6257 18.2774 10.9402 18.3655 11.1428 18.4774C11.1428 18.4774 11.2022 18.5159 11.224 18.4582C11.236 18.4274 11.3386 18.1513 11.3492 18.1214C11.3607 18.0889 11.3402 18.065 11.3193 18.0522C11.0881 17.9116 10.7685 17.8154 10.4377 17.8154L10.3761 17.8158C9.81289 17.8158 9.41972 18.156 9.41972 18.6437V18.6539C9.41972 19.168 9.85355 19.3347 10.26 19.4509L10.3253 19.471C10.6215 19.562 10.8766 19.6402 10.8766 19.8488V19.859C10.8766 20.0497 10.7108 20.1915 10.4433 20.1915C10.3395 20.1915 10.0082 20.1893 9.65055 19.9633C9.60739 19.9381 9.58214 19.9197 9.5488 19.8996C9.5313 19.8885 9.4873 19.8693 9.46805 19.9274L9.34664 20.2642ZM18.3556 20.2642C18.3367 20.3133 18.3624 20.3236 18.3684 20.3322C18.4248 20.3732 18.4821 20.4027 18.5397 20.4356C18.8457 20.5979 19.1346 20.6453 19.4367 20.6453C20.0521 20.6453 20.4342 20.318 20.4342 19.7911V19.7808C20.4342 19.2937 20.003 19.1168 19.5983 18.9889L19.5457 18.9718C19.2406 18.8727 18.9773 18.7873 18.9773 18.5864V18.5758C18.9773 18.4039 19.1311 18.2774 19.3696 18.2774C19.6346 18.2774 19.9491 18.3655 20.1517 18.4774C20.1517 18.4774 20.2111 18.5159 20.2329 18.4582C20.2448 18.4274 20.3474 18.1513 20.3581 18.1214C20.3696 18.0889 20.3491 18.065 20.3282 18.0522C20.097 17.9116 19.7773 17.8154 19.4466 17.8154L19.3851 17.8158C18.8218 17.8158 18.4286 18.156 18.4286 18.6437V18.6539C18.4286 19.168 18.8624 19.3347 19.2688 19.4509L19.3341 19.471C19.6303 19.562 19.8859 19.6402 19.8859 19.8488V19.859C19.8859 20.0497 19.7196 20.1915 19.4521 20.1915C19.3483 20.1915 19.0171 20.1893 18.6595 19.9633C18.6162 19.9381 18.5906 19.9205 18.5581 19.8996C18.5471 19.8923 18.4949 19.8723 18.477 19.9274L18.3556 20.2642ZM24.5057 19.232C24.5057 19.5299 24.4502 19.7645 24.3408 19.9303C24.2326 20.0944 24.069 20.1743 23.8408 20.1743C23.6122 20.1743 23.4494 20.0948 23.343 19.9303C23.2352 19.7649 23.1806 19.5299 23.1806 19.232C23.1806 18.9346 23.2352 18.7004 23.343 18.5363C23.4494 18.3739 23.6122 18.2948 23.8408 18.2948C24.069 18.2948 24.2326 18.3739 24.3412 18.5363C24.4502 18.7004 24.5057 18.9346 24.5057 19.232ZM25.0195 18.6799C24.969 18.5093 24.8904 18.3589 24.7856 18.2338C24.681 18.1081 24.5485 18.0073 24.3912 17.9338C24.2344 17.8607 24.0489 17.8235 23.8408 17.8235C23.6322 17.8235 23.4468 17.8607 23.29 17.9338C23.1326 18.0073 23.0002 18.1082 22.8951 18.2338C22.7908 18.3594 22.7121 18.5098 22.6613 18.6799C22.6113 18.8496 22.5861 19.035 22.5861 19.232C22.5861 19.4291 22.6113 19.6149 22.6613 19.7842C22.7121 19.9543 22.7904 20.1048 22.8956 20.2303C23.0002 20.356 23.1331 20.4564 23.29 20.5278C23.4472 20.5991 23.6322 20.6354 23.8408 20.6354C24.049 20.6354 24.234 20.5991 24.3912 20.5278C24.5481 20.4564 24.681 20.3559 24.7857 20.2303C24.8904 20.1051 24.969 19.9547 25.0195 19.7842C25.0699 19.6145 25.0951 19.4286 25.0951 19.232C25.0951 19.0355 25.0699 18.8496 25.0195 18.6799ZM29.2376 20.0948C29.2206 20.0448 29.1723 20.0636 29.1723 20.0636C29.0975 20.0923 29.018 20.1188 28.9334 20.132C28.8475 20.1452 28.7531 20.1521 28.6517 20.1521C28.4031 20.1521 28.2056 20.0782 28.0641 19.932C27.9223 19.7858 27.8428 19.5495 27.8436 19.2298C27.8445 18.9388 27.9146 18.72 28.0406 18.5533C28.1659 18.3876 28.3565 18.3025 28.6107 18.3025C28.8227 18.3025 28.9843 18.3268 29.1535 18.3803C29.1535 18.3803 29.1941 18.3978 29.2133 18.3448C29.2581 18.22 29.2915 18.1307 29.3393 17.9935C29.3531 17.9546 29.3197 17.9379 29.3077 17.9333C29.2411 17.9072 29.0838 17.8649 28.965 17.8469C28.8539 17.8298 28.724 17.8208 28.5796 17.8208C28.3636 17.8208 28.1714 17.8576 28.0069 17.9312C27.8428 18.0042 27.7035 18.105 27.5932 18.2308C27.483 18.3563 27.3992 18.5068 27.3432 18.6768C27.2876 18.8465 27.2595 19.0328 27.2595 19.2298C27.2595 19.6559 27.3744 20.0003 27.6014 20.2525C27.8286 20.5055 28.1701 20.6341 28.6155 20.6341C28.8787 20.6341 29.1488 20.5808 29.3428 20.5042C29.3428 20.5042 29.38 20.4863 29.3637 20.4431L29.2376 20.0948ZM30.1364 18.9467C30.1608 18.7813 30.2066 18.6437 30.2771 18.5364C30.3835 18.3737 30.5458 18.2843 30.7741 18.2843C31.0023 18.2843 31.1531 18.3741 31.2612 18.5364C31.3331 18.6437 31.3642 18.7873 31.3766 18.9467H30.1364ZM31.8659 18.583C31.8223 18.4185 31.7142 18.2523 31.6433 18.1762C31.5313 18.0557 31.4219 17.9715 31.3134 17.9244C31.1715 17.8638 31.0014 17.8236 30.8151 17.8236C30.598 17.8236 30.401 17.8599 30.2411 17.9352C30.0809 18.0103 29.9463 18.1129 29.8407 18.2408C29.7351 18.3681 29.6556 18.5198 29.6052 18.692C29.5544 18.8633 29.5287 19.0501 29.5287 19.2471C29.5287 19.4475 29.5552 19.6343 29.6078 19.8023C29.6608 19.9715 29.7454 20.1206 29.86 20.2441C29.9741 20.3685 30.1211 20.4659 30.2971 20.5338C30.4719 20.6013 30.6843 20.6364 30.9283 20.6359C31.4305 20.6343 31.695 20.5223 31.804 20.462C31.8232 20.4513 31.8416 20.4326 31.8185 20.3787L31.7048 20.0603C31.6877 20.0129 31.6395 20.0304 31.6395 20.0304C31.5151 20.0766 31.3381 20.1594 30.9257 20.1586C30.6561 20.1582 30.4561 20.0787 30.3308 19.9543C30.2022 19.827 30.1394 19.6398 30.1283 19.3757L31.8671 19.3774C31.8671 19.3774 31.9129 19.3766 31.9176 19.3321C31.9193 19.3133 31.9775 18.9749 31.8659 18.583ZM16.2105 18.9467C16.2352 18.7813 16.2806 18.6437 16.3511 18.5364C16.4575 18.3737 16.6199 18.2843 16.8481 18.2843C17.0762 18.2843 17.2271 18.3741 17.3356 18.5364C17.407 18.6437 17.4382 18.7873 17.4506 18.9467H16.2105ZM17.9395 18.583C17.8959 18.4185 17.7882 18.2523 17.7173 18.1762C17.6053 18.0557 17.4959 17.9715 17.3874 17.9244C17.2455 17.8638 17.0755 17.8236 16.8891 17.8236C16.6725 17.8236 16.475 17.8599 16.3151 17.9352C16.1549 18.0103 16.0203 18.1129 15.9147 18.2408C15.8092 18.3681 15.7297 18.5198 15.6793 18.692C15.6289 18.8633 15.6028 19.0501 15.6028 19.2471C15.6028 19.4475 15.6293 19.6343 15.6819 19.8023C15.7349 19.9715 15.8195 20.1206 15.934 20.2441C16.0481 20.3685 16.1951 20.4659 16.3711 20.5338C16.546 20.6013 16.7584 20.6364 17.0024 20.6359C17.5045 20.6343 17.7691 20.5223 17.8781 20.462C17.8973 20.4513 17.9156 20.4326 17.8926 20.3787L17.7793 20.0603C17.7618 20.0129 17.7136 20.0304 17.7136 20.0304C17.5891 20.0766 17.4126 20.1594 16.9994 20.1586C16.7302 20.1582 16.5302 20.0787 16.405 19.9543C16.2763 19.827 16.2136 19.6398 16.2024 19.3757L17.9412 19.3774C17.9412 19.3774 17.987 19.3766 17.9917 19.3321C17.9933 19.3133 18.0515 18.9749 17.9395 18.583ZM12.4519 20.0853C12.3839 20.031 12.3745 20.0173 12.3515 19.9823C12.3172 19.9288 12.2997 19.8528 12.2997 19.7563C12.2997 19.6033 12.3501 19.4934 12.4549 19.4194C12.4536 19.4199 12.6045 19.2892 12.9591 19.2938C13.2082 19.2973 13.4309 19.334 13.4309 19.334V20.1246C13.4309 20.1246 13.2104 20.172 12.9617 20.187C12.6078 20.2083 12.4506 20.0848 12.4519 20.0853ZM13.1437 18.8635C13.0732 18.8583 12.9817 18.8553 12.8723 18.8553C12.7232 18.8553 12.5792 18.8742 12.4441 18.9105C12.3082 18.9468 12.1861 19.0037 12.0809 19.0788C11.9759 19.1538 11.8896 19.2519 11.8288 19.3656C11.7672 19.4801 11.7361 19.6152 11.7361 19.7664C11.7361 19.9203 11.7626 20.0541 11.8156 20.1635C11.8686 20.2733 11.9451 20.3648 12.0425 20.4353C12.139 20.5058 12.2582 20.5575 12.3967 20.5887C12.5331 20.6199 12.6877 20.6357 12.857 20.6357C13.0351 20.6357 13.213 20.6212 13.3851 20.5917C13.5556 20.5626 13.7651 20.5203 13.8232 20.5071C13.864 20.4973 13.9046 20.4868 13.945 20.4758C13.9881 20.4652 13.9847 20.419 13.9847 20.419L13.9839 18.8288C13.9839 18.4801 13.8907 18.2216 13.7074 18.0613C13.5249 17.9015 13.2561 17.8207 12.9086 17.8207C12.7783 17.8207 12.5685 17.8387 12.4429 17.8638C12.4429 17.8638 12.063 17.9374 11.9066 18.0596C11.9066 18.0596 11.8723 18.081 11.8911 18.1288L12.0142 18.4597C12.0296 18.5023 12.0711 18.4878 12.0711 18.4878C12.0711 18.4878 12.0843 18.4827 12.0997 18.4738C12.4344 18.2917 12.8574 18.2973 12.8574 18.2973C13.0455 18.2973 13.1899 18.3348 13.2873 18.4096C13.3822 18.4823 13.4305 18.5921 13.4305 18.8237V18.8972C13.2809 18.8758 13.1437 18.8635 13.1437 18.8635ZM27.1686 17.9675C27.1818 17.9282 27.1541 17.9093 27.1426 17.9051C27.1131 17.8936 26.9652 17.8623 26.8511 17.8551C26.6327 17.8418 26.5114 17.8786 26.4028 17.9273C26.2951 17.976 26.1755 18.0547 26.1088 18.144V17.9325C26.1088 17.903 26.0878 17.8794 26.0588 17.8794H25.6131C25.584 17.8794 25.5631 17.9029 25.5631 17.9325V20.526C25.5631 20.5551 25.587 20.579 25.6161 20.579H26.0729C26.0869 20.5789 26.1003 20.5733 26.1101 20.5634C26.12 20.5535 26.1255 20.54 26.1255 20.526V19.2303C26.1255 19.0564 26.1447 18.8829 26.1831 18.7739C26.2207 18.6663 26.2721 18.5799 26.3353 18.5179C26.399 18.4564 26.4711 18.4133 26.5502 18.3889C26.631 18.3641 26.7203 18.356 26.7836 18.356C26.8746 18.356 26.9746 18.3794 26.9746 18.3794C27.0079 18.3833 27.0267 18.3628 27.0378 18.3325C27.0677 18.253 27.1524 18.0149 27.1686 17.9675Z" fill="white"/>
<path d="M22.8797 16.765C22.8241 16.7479 22.7737 16.7364 22.7079 16.724C22.6412 16.7121 22.5617 16.7061 22.4715 16.7061C22.157 16.7061 21.9091 16.7949 21.7352 16.9701C21.5621 17.1445 21.4446 17.4099 21.3856 17.7591L21.3642 17.8766H20.9694C20.9694 17.8766 20.9215 17.8748 20.9113 17.927L20.8468 18.289C20.842 18.3231 20.857 18.3449 20.9031 18.3449H21.2874L20.8976 20.521C20.8672 20.6962 20.8322 20.8402 20.7933 20.9496C20.7553 21.0573 20.7181 21.1381 20.6719 21.1971C20.6275 21.2535 20.5856 21.2953 20.5129 21.3197C20.4531 21.3398 20.3839 21.3491 20.3083 21.3491C20.2664 21.3491 20.2104 21.3423 20.1689 21.3338C20.1279 21.3256 20.1061 21.3167 20.0749 21.3034C20.0749 21.3034 20.03 21.2864 20.0121 21.3312C19.9979 21.3684 19.8954 21.65 19.883 21.6846C19.8711 21.7192 19.8882 21.7461 19.9099 21.7543C19.9612 21.7722 19.9993 21.7842 20.0689 21.8009C20.1655 21.8236 20.2471 21.8248 20.3236 21.8248C20.4834 21.8248 20.6296 21.8021 20.7505 21.7586C20.8719 21.7146 20.9779 21.6381 21.0719 21.5346C21.1732 21.4226 21.2369 21.3056 21.2975 21.1453C21.3578 20.9872 21.4095 20.7906 21.4505 20.5616L21.8424 18.3449H22.4151C22.4151 18.3449 22.4634 18.3466 22.4732 18.2941L22.5381 17.9326C22.5424 17.898 22.5279 17.8766 22.4813 17.8766H21.9253C21.9283 17.8642 21.9535 17.6684 22.0172 17.4843C22.0445 17.4061 22.0959 17.3424 22.139 17.2988C22.1818 17.2561 22.2309 17.2257 22.2848 17.2082C22.3399 17.1902 22.4027 17.1817 22.4715 17.1817C22.5237 17.1817 22.5754 17.1876 22.6142 17.1958C22.6681 17.2073 22.689 17.2133 22.7031 17.2176C22.76 17.2347 22.7677 17.2181 22.7788 17.1907L22.9117 16.8257C22.9254 16.7864 22.8916 16.7697 22.8797 16.765ZM15.1115 20.5257C15.1115 20.5548 15.0905 20.5783 15.0615 20.5783H14.6004C14.5714 20.5783 14.5508 20.5548 14.5508 20.5257V16.8146C14.5508 16.7856 14.5714 16.7621 14.6004 16.7621H15.0615C15.0905 16.7621 15.1115 16.7856 15.1115 16.8146V20.5257Z" fill="white"/>
</g>
</g>
</g>
<defs>
<clipPath id="clip0_54_1168">
<rect width="40" height="40" fill="white"/>
</clipPath>
<clipPath id="clip1_54_1168">
<rect width="40" height="40" fill="white"/>
</clipPath>
<clipPath id="clip2_54_1168">
<rect width="40" height="40" fill="white"/>
</clipPath>
</defs>
</svg>
