<svg width="40" height="40" viewBox="0 0 40 40" fill="none" xmlns="http://www.w3.org/2000/svg">
<g clip-path="url(#clip0_54_1175)">
<g clip-path="url(#clip1_54_1175)">
<g clip-path="url(#clip2_54_1175)">
<path d="M30.1561 0.860317C27.9003 0.339685 24.1921 0 20 0C15.8079 0 12.0997 0.339685 9.84392 0.860317C5.34611 1.80414 1.80414 5.34611 0.860317 9.84392C0.339685 12.0997 0 15.8079 0 20C0 24.1921 0.339685 27.9003 0.860317 30.1561C1.80414 34.6539 5.34611 38.1958 9.84392 39.1397C12.0997 39.6603 15.8079 40 20 40C24.1921 40 27.9003 39.6603 30.1561 39.1397C34.6539 38.1958 38.1958 34.6539 39.1397 30.1561C39.6603 27.9003 40 24.1921 40 20C40 15.8079 39.6603 12.0997 39.1397 9.84392C38.1958 5.34611 34.6539 1.80414 30.1561 0.860317Z" fill="#FFF3E6"/>
<path d="M11.6041 21.7136L11.5997 21.6995L14.4152 19.1218V17.8799H9.89808V19.1218H12.5963L12.6007 19.1337L9.8125 21.7136V22.9556H14.4607V21.7136H11.6041Z" fill="#201515"/>
<path d="M17.2316 17.7615C16.7105 17.7615 16.2859 17.8401 15.9576 17.9972C15.6519 18.1342 15.3944 18.3599 15.2184 18.645C15.0501 18.932 14.9444 19.2513 14.9084 19.5821L16.2789 19.7747C16.3285 19.4826 16.4277 19.2756 16.5764 19.1537C16.7455 19.0261 16.9539 18.9616 17.1654 18.9715C17.4436 18.9715 17.6454 19.0459 17.7709 19.1946C17.895 19.3433 17.9583 19.5493 17.9583 19.8208V19.9561H16.6404C15.9695 19.9561 15.4876 20.1049 15.1947 20.4024C14.9016 20.6998 14.7554 21.0926 14.7559 21.5804C14.7559 22.0801 14.9021 22.452 15.1947 22.6959C15.4871 22.9399 15.855 23.0611 16.2984 23.0596C16.8481 23.0596 17.271 22.8705 17.567 22.4921C17.7419 22.2596 17.8667 21.9936 17.9337 21.7106H17.9835L18.1724 22.9525H19.4144V19.8074C19.4144 19.1574 19.2431 18.654 18.9005 18.297C18.5579 17.94 18.0016 17.7615 17.2316 17.7615ZM17.6659 21.6384C17.4689 21.8027 17.2109 21.8846 16.8895 21.8846C16.6248 21.8846 16.4409 21.8382 16.3377 21.7455C16.2875 21.7016 16.2474 21.6472 16.2206 21.5861C16.1938 21.5251 16.1806 21.4589 16.1823 21.3922C16.1793 21.3293 16.1893 21.2665 16.2114 21.2076C16.2334 21.1486 16.2674 21.0948 16.3109 21.0494C16.358 21.0051 16.4136 20.971 16.4744 20.9489C16.5351 20.9267 16.5997 20.9172 16.6642 20.9207H17.9604V21.0062C17.9631 21.1271 17.9379 21.247 17.8869 21.3566C17.8358 21.4662 17.7602 21.5626 17.6659 21.6384Z" fill="#201515"/>
<path d="M26.9244 17.8799H25.457V22.9563H26.9244V17.8799Z" fill="#201515"/>
<path d="M35.5861 17.8799C35.1716 17.8799 34.8449 18.0261 34.606 18.3186C34.4344 18.5289 34.304 18.8395 34.2147 19.2505H34.1716L33.9798 17.8799H32.7266V22.9556H34.194V20.3526C34.194 20.0245 34.2708 19.7728 34.4245 19.5978C34.5781 19.4228 34.8617 19.3353 35.2753 19.3353H35.8323V17.8799H35.5861Z" fill="#201515"/>
<path d="M31.2724 18.0456C30.9299 17.8419 30.4978 17.7402 29.9762 17.7407C29.1552 17.7407 28.5126 17.9745 28.0485 18.4421C27.5844 18.9096 27.3524 19.5541 27.3524 20.3756C27.3406 20.8723 27.449 21.3646 27.6685 21.8102C27.8694 22.2075 28.1823 22.5371 28.5684 22.7585C28.9571 22.9831 29.4194 23.0956 29.9554 23.0961C30.4189 23.0961 30.8062 23.0247 31.117 22.882C31.4093 22.7537 31.6638 22.5526 31.8563 22.2981C32.0395 22.0482 32.1756 21.767 32.2579 21.4681L30.9936 21.1141C30.9404 21.3085 30.8379 21.4857 30.6961 21.6288C30.5533 21.7716 30.3141 21.843 29.9784 21.843C29.5794 21.843 29.2819 21.7287 29.0859 21.5001C28.9439 21.3351 28.8548 21.0993 28.8153 20.7936H32.2772C32.2914 20.6508 32.2988 20.5311 32.2988 20.4344V20.1183C32.3071 19.6937 32.2194 19.2727 32.0422 18.8868C31.8764 18.5352 31.608 18.242 31.2724 18.0456ZM29.9339 18.9507C30.5288 18.9507 30.8662 19.2435 30.9459 19.8291H28.8413C28.8748 19.6336 28.9557 19.4496 29.0771 19.2928C29.2699 19.0643 29.5555 18.9502 29.9339 18.9507Z" fill="#201515"/>
<path d="M26.2056 15.834C26.0952 15.8302 25.9852 15.8486 25.8821 15.8883C25.7789 15.9279 25.6849 15.9878 25.6054 16.0645C25.5271 16.1419 25.4657 16.2348 25.425 16.3372C25.3844 16.4396 25.3656 16.5494 25.3697 16.6595C25.3657 16.7702 25.3847 16.8806 25.4253 16.9838C25.4659 17.087 25.5274 17.1807 25.6058 17.2591C25.6842 17.3374 25.7779 17.3988 25.8811 17.4393C25.9844 17.4798 26.0949 17.4986 26.2056 17.4946C26.3157 17.4988 26.4255 17.48 26.5279 17.4394C26.6303 17.3988 26.7232 17.3373 26.8005 17.2589C26.8773 17.1796 26.9372 17.0856 26.9767 16.9826C27.0162 16.8796 27.0344 16.7697 27.0304 16.6595C27.0354 16.5499 27.0176 16.4404 26.9779 16.3381C26.9384 16.2358 26.8779 16.1429 26.8004 16.0652C26.7228 15.9876 26.6299 15.9271 26.5276 15.8873C26.4254 15.8476 26.3159 15.8297 26.2064 15.8347L26.2056 15.834Z" fill="#201515"/>
<path d="M23.1755 17.7407C22.6759 17.7407 22.2742 17.8976 21.9708 18.2115C21.7462 18.4441 21.5814 18.7911 21.4762 19.2526H21.4294L21.2375 17.8821H19.9844V24.4147H21.4517V21.724H21.5052C21.55 21.9034 21.6128 22.0778 21.6926 22.2446C21.8168 22.5162 22.0204 22.7439 22.2765 22.8976C22.542 23.0425 22.8411 23.1146 23.1435 23.1066C23.7579 23.1066 24.2257 22.8673 24.547 22.3888C24.8682 21.9104 25.0289 21.2428 25.0289 20.3861C25.0289 19.5586 24.8735 18.9108 24.5625 18.4428C24.2517 17.9747 23.7894 17.7407 23.1755 17.7407ZM23.3243 21.4191C23.1533 21.667 22.8855 21.7909 22.5211 21.7909C22.3709 21.7979 22.2211 21.7689 22.0843 21.7064C21.9475 21.644 21.8275 21.5498 21.7343 21.4317C21.5444 21.1932 21.4497 20.8667 21.4502 20.4522V20.3556C21.4502 19.9346 21.5449 19.6124 21.7343 19.3888C21.9237 19.1651 22.186 19.0546 22.5211 19.0571C22.892 19.0571 23.1615 19.1748 23.3295 19.4103C23.4976 19.6458 23.5816 19.9743 23.5816 20.3957C23.5826 20.8316 23.4974 21.1726 23.3258 21.4191H23.3243Z" fill="#201515"/>
<path d="M9.24447 21.7134H4.16797V22.9568H9.24447V21.7134Z" fill="#FF4F00"/>
</g>
</g>
</g>
<defs>
<clipPath id="clip0_54_1175">
<rect width="40" height="40" fill="white"/>
</clipPath>
<clipPath id="clip1_54_1175">
<rect width="40" height="40" fill="white"/>
</clipPath>
<clipPath id="clip2_54_1175">
<rect width="40" height="40" fill="white"/>
</clipPath>
</defs>
</svg>
