<svg width="40" height="40" viewBox="0 0 40 40" fill="none" xmlns="http://www.w3.org/2000/svg">
<g clip-path="url(#clip0_54_1155)">
<g clip-path="url(#clip1_54_1155)">
<g clip-path="url(#clip2_54_1155)">
<path d="M0 20C0 3.53 3.53 0 20 0C36.47 0 40 3.53 40 20C40 36.47 36.47 40 20 40C3.53 40 0 36.47 0 20Z" fill="#F4F4F5"/>
<path d="M9.98522 27.6547C9.39572 27.6559 8.81647 27.5008 8.30659 27.2049C7.79672 26.909 7.37453 26.4831 7.08314 25.9707C6.79622 25.4619 6.65313 24.8845 6.66919 24.3006C6.68524 23.7167 6.85985 23.1481 7.17431 22.6559L13.1506 13.271C13.4565 12.7666 13.8908 12.3524 14.4091 12.0709C14.9274 11.7892 15.5112 11.6502 16.1008 11.668C16.69 11.6822 17.2648 11.8525 17.7665 12.1618C18.2681 12.471 18.6786 12.908 18.956 13.428C19.5131 14.4814 19.4435 15.7489 18.7762 16.7378L12.8037 26.1226C12.5008 26.5946 12.0837 26.9824 11.591 27.2503C11.0983 27.5181 10.546 27.6572 9.98522 27.6547Z" fill="#F62B54"/>
<path d="M20.235 27.6548C19.0296 27.6548 17.9205 27.0103 17.338 25.9745C17.0517 25.4671 16.909 24.8914 16.9251 24.3089C16.9411 23.7265 17.1154 23.1595 17.4291 22.6686L23.3941 13.3053C23.6955 12.7938 24.1282 12.3723 24.6474 12.0844C25.1666 11.7965 25.7533 11.6528 26.3468 11.6681C27.5623 11.6947 28.6639 12.3746 29.221 13.4382C29.7743 14.5018 29.6933 15.7769 29.0057 16.7632L23.0421 26.1265C22.7401 26.5964 22.3247 26.9828 21.8341 27.2499C21.3436 27.5169 20.7936 27.6562 20.235 27.6548Z" fill="#FFCC00"/>
<path d="M30.2565 27.7334C31.9558 27.7334 33.3333 26.3848 33.3333 24.7212C33.3333 23.0576 31.9558 21.709 30.2565 21.709C28.5573 21.709 27.1797 23.0576 27.1797 24.7212C27.1797 26.3848 28.5573 27.7334 30.2565 27.7334Z" fill="#00CA72"/>
</g>
</g>
</g>
<defs>
<clipPath id="clip0_54_1155">
<rect width="40" height="40" fill="white"/>
</clipPath>
<clipPath id="clip1_54_1155">
<rect width="40" height="40" fill="white"/>
</clipPath>
<clipPath id="clip2_54_1155">
<rect width="40" height="40" fill="white"/>
</clipPath>
</defs>
</svg>
