<svg width="16" height="17" viewBox="0 0 16 17" fill="none" xmlns="http://www.w3.org/2000/svg">
<mask id="mask0_31_1587" style="mask-type:luminance" maskUnits="userSpaceOnUse" x="0" y="0" width="16" height="17">
<path d="M0 0.860352H16V16.8604H0V0.860352Z" fill="white"/>
</mask>
<g mask="url(#mask0_31_1587)">
<path d="M5.033 15.3603C11.07 15.3603 14.373 10.3583 14.373 6.02133C14.373 5.88133 14.369 5.73733 14.363 5.59633C15.0054 5.13152 15.5598 4.55584 16 3.89633C15.4017 4.16266 14.7665 4.33664 14.116 4.41233C14.8007 4.0018 15.3134 3.35696 15.559 2.59733C14.9149 2.97925 14.2105 3.24877 13.476 3.39433C12.9809 2.8684 12.3264 2.52018 11.6135 2.40352C10.9007 2.28685 10.1693 2.40823 9.53239 2.74888C8.89546 3.08954 8.38848 3.63051 8.0898 4.28817C7.79113 4.94584 7.71739 5.68357 7.88 6.38733C6.57521 6.32197 5.29873 5.98312 4.13331 5.39275C2.96789 4.80238 1.93956 3.97366 1.115 2.96033C0.696023 3.68281 0.567871 4.53773 0.756592 5.35131C0.945312 6.16488 1.43674 6.87608 2.131 7.34033C1.60983 7.32354 1.10013 7.18301 0.644 6.93033V6.97133C0.643439 7.72961 0.905547 8.46468 1.38575 9.05154C1.86595 9.63839 2.53461 10.0408 3.278 10.1903C2.795 10.3223 2.288 10.3413 1.797 10.2463C2.00673 10.8984 2.41479 11.4688 2.96424 11.8779C3.51369 12.287 4.17713 12.5144 4.862 12.5283C4.18079 13.0634 3.40066 13.4589 2.56634 13.6919C1.73202 13.9249 0.859908 13.991 0 13.8863C1.50181 14.8497 3.24876 15.3613 5.033 15.3603Z" fill="white"/>
</g>
</svg>
