<svg width="45" height="46" viewBox="0 0 45 46" fill="none" xmlns="http://www.w3.org/2000/svg">
<path d="M0 8.5C0 4.08172 3.58172 0.5 8 0.5H37C41.4183 0.5 45 4.08172 45 8.5V37.5C45 41.9183 41.4183 45.5 37 45.5H8C3.58172 45.5 0 41.9183 0 37.5V8.5Z" fill="#FF5D3E"/>
<path d="M29.415 12.2266H17.1384L16.1562 13.6998V14.6819L16.6473 15.664C17.4658 16.3188 19.2008 17.7265 19.5937 18.1193C20.0848 18.6104 20.5758 19.5925 21.0669 20.0836C21.558 20.5746 21.0669 22.0478 21.0669 22.5389C21.0669 23.03 20.5758 24.5032 20.5758 24.9942C20.5758 25.3871 18.6116 26.7948 17.6294 27.4495L16.6473 30.3959L17.1384 31.3781H24.0133H28.9239C28.9239 30.887 28.8257 29.8067 28.4328 29.4138C28.04 29.021 27.6144 27.6132 27.4507 26.9585L24.9954 24.5032L24.5043 22.5389L25.4865 21.0657L27.4507 17.6283L28.9239 16.1551L29.415 13.2087V12.2266Z" fill="#FF906A"/>
<path d="M19.3135 20.5787C17.7507 19.1539 15.6373 17.2269 15.4447 12.6233H14.7399C14.3586 12.6233 14.0494 12.3141 14.0494 11.9327C14.0494 11.5514 14.3586 11.2422 14.7399 11.2422H31.3133C31.6947 11.2422 32.0039 11.5514 32.0039 11.9327C32.0039 12.3141 31.6947 12.6233 31.3133 12.6233H30.6086C30.4159 17.2269 28.3026 19.1539 26.7398 20.5787C25.6915 21.5345 25.0983 22.1195 25.0983 23.0277C25.0983 23.936 25.6915 24.521 26.7398 25.4768C28.3026 26.9016 30.4159 28.8286 30.6086 33.4321H31.3133C31.6947 33.4321 32.0039 33.7413 32.0039 34.1227C32.0039 34.5041 31.6947 34.8133 31.3133 34.8133H14.7399C14.3586 34.8133 14.0494 34.5041 14.0494 34.1227C14.0494 33.7413 14.3586 33.4321 14.7399 33.4321H15.4447C15.6373 28.8286 17.7507 26.9016 19.3135 25.4768C20.3618 24.521 20.955 23.936 20.955 23.0277C20.955 22.1195 20.3618 21.5345 19.3135 20.5787ZM23.7172 28.2041C23.9305 28.2481 24.1412 28.3121 24.3469 28.3972L28.5766 30.1475C27.8859 28.3912 26.7733 27.3764 25.8093 26.4974C24.7334 25.5165 23.7172 24.59 23.7172 23.0277V28.2041ZM20.244 26.4974C19.2799 27.3764 18.1675 28.3912 17.4767 30.1474L21.7064 28.3971C21.9121 28.3121 22.1228 28.248 22.3361 28.204V23.0277C22.3361 24.59 21.3199 25.5165 20.244 26.4974ZM28.6009 15.8459C28.9348 14.9759 29.1654 13.9253 29.2257 12.6233H16.8276C16.8879 13.9253 17.1185 14.9759 17.4525 15.8459H28.6009Z" fill="white"/>
</svg>
