<svg width="35" height="35" viewBox="0 0 35 35" fill="none" xmlns="http://www.w3.org/2000/svg">
<circle cx="17.5" cy="17.5001" r="15.8333" fill="#5F9DEB" stroke="#5F9DEB" stroke-width="3"/>
<path d="M14.1667 9.16675C13.25 9.16675 12.5 9.91675 12.5 10.8334L12.5083 13.4834C12.5083 13.9251 12.6833 14.3417 12.9917 14.6584L15.8333 17.5001L12.9917 20.3584C12.6833 20.6667 12.5083 21.0917 12.5083 21.5334L12.5 24.1667C12.5 25.0834 13.25 25.8334 14.1667 25.8334H20.8333C21.75 25.8334 22.5 25.0834 22.5 24.1667V21.5334C22.5 21.0917 22.325 20.6667 22.0167 20.3584L19.1667 17.5001L22.0083 14.6667C22.325 14.3501 22.5 13.9251 22.5 13.4834V10.8334C22.5 9.91675 21.75 9.16675 20.8333 9.16675H14.1667ZM20.8333 21.5917V23.3334C20.8333 23.7917 20.4583 24.1667 20 24.1667H15C14.5417 24.1667 14.1667 23.7917 14.1667 23.3334V21.5917C14.1667 21.3667 14.2583 21.1584 14.4083 21.0001L17.5 17.9167L20.5917 21.0084C20.7417 21.1584 20.8333 21.3751 20.8333 21.5917Z" fill="white"/>
</svg>
