<svg width="35" height="35" viewBox="0 0 35 35" fill="none" xmlns="http://www.w3.org/2000/svg">
<circle cx="17.5" cy="17.5" r="15.7051" fill="#5A69D6" stroke="#5A69D6" stroke-width="3"/>
<path d="M24.1127 10.8875H10.8874C9.97812 10.8875 9.24246 11.6314 9.24246 12.5406L9.23419 22.4596C9.23419 23.3689 9.97812 24.1128 10.8874 24.1128H24.1127C25.022 24.1128 25.7659 23.3689 25.7659 22.4596V12.5406C25.7659 11.6314 25.022 10.8875 24.1127 10.8875ZM23.7821 14.4004L17.9381 18.0539C17.6736 18.2193 17.3265 18.2193 17.062 18.0539L11.218 14.4004C11.0114 14.2682 10.8874 14.045 10.8874 13.8053C10.8874 13.2515 11.4908 12.9209 11.9619 13.2102L17.5 16.6735L23.0382 13.2102C23.5093 12.9209 24.1127 13.2515 24.1127 13.8053C24.1127 14.045 23.9887 14.2682 23.7821 14.4004Z" fill="white"/>
</svg>
