<svg width="45" height="45" viewBox="0 0 45 45" fill="none" xmlns="http://www.w3.org/2000/svg">
<path d="M0 8.00001C0 3.58173 3.58172 0 8 0H37C41.4183 0 45 3.58172 45 8V36.6667C45 41.0849 41.4183 44.6667 37 44.6667H8C3.58172 44.6667 0 41.0849 0 36.6667V8.00001Z" fill="#FFE185"/>
<rect x="13.5195" y="14.7812" width="18.8834" height="12.0644" fill="white" fill-opacity="0.4"/>
<path fill-rule="evenodd" clip-rule="evenodd" d="M10.8945 19.8178C10.8945 16.5864 10.8945 14.9706 11.5234 13.7364C12.0766 12.6507 12.9593 11.768 14.045 11.2148C15.2792 10.5859 16.895 10.5859 20.1264 10.5859H27.6274C30.8588 10.5859 30.1268 10.5859 31.3611 11.2148C32.4467 11.768 33.3294 12.6507 33.8826 13.7364C34.5115 14.9706 34.5115 16.5864 34.5115 19.8178V21.5488C34.5115 24.7803 34.5115 26.396 33.8826 27.6303C33.3294 28.7159 32.4467 29.5986 31.3611 30.1518C30.1268 30.7807 30.8588 30.7807 27.6274 30.7807H17.262C16.8794 30.7807 16.5125 30.9328 16.242 31.2032L13.357 34.0882C12.4483 34.997 10.8945 34.3533 10.8945 33.0682V30.7807V23.5683V19.8178ZM17.9758 16.3559C17.1792 16.3559 16.5333 17.0017 16.5333 17.7984C16.5333 18.595 17.1792 19.2408 17.9758 19.2408H29.778C30.5746 19.2408 31.2204 18.595 31.2204 17.7984C31.2204 17.0017 30.5746 16.3559 29.778 16.3559H17.9758ZM17.9758 22.1258C17.1792 22.1258 16.5333 22.7716 16.5333 23.5683C16.5333 24.365 17.1792 25.0108 17.9758 25.0108H25.4505C26.2472 25.0108 26.893 24.365 26.893 23.5683C26.893 22.7716 26.2472 22.1258 25.4505 22.1258H17.9758Z" fill="white"/>
</svg>
