<svg width="14" height="16" viewBox="0 0 14 16" fill="none" xmlns="http://www.w3.org/2000/svg">
<path d="M9.0625 3.875C9.0625 5.01409 8.13909 5.9375 7 5.9375V7.3125C8.89848 7.3125 10.4375 5.77348 10.4375 3.875H9.0625ZM7 5.9375C5.86091 5.9375 4.9375 5.01409 4.9375 3.875H3.5625C3.5625 5.77348 5.10152 7.3125 7 7.3125V5.9375ZM4.9375 3.875C4.9375 2.73591 5.86091 1.8125 7 1.8125V0.4375C5.10152 0.4375 3.5625 1.97652 3.5625 3.875H4.9375ZM7 1.8125C8.13909 1.8125 9.0625 2.73591 9.0625 3.875H10.4375C10.4375 1.97652 8.89848 0.4375 7 0.4375V1.8125ZM4.25 10.0625H9.75V8.6875H4.25V10.0625ZM9.75 14.1875H4.25V15.5625H9.75V14.1875ZM4.25 14.1875C3.11091 14.1875 2.1875 13.2641 2.1875 12.125H0.8125C0.8125 14.0235 2.35152 15.5625 4.25 15.5625V14.1875ZM11.8125 12.125C11.8125 13.2641 10.8891 14.1875 9.75 14.1875V15.5625C11.6485 15.5625 13.1875 14.0235 13.1875 12.125H11.8125ZM9.75 10.0625C10.8891 10.0625 11.8125 10.9859 11.8125 12.125H13.1875C13.1875 10.2265 11.6485 8.6875 9.75 8.6875V10.0625ZM4.25 8.6875C2.35152 8.6875 0.8125 10.2265 0.8125 12.125H2.1875C2.1875 10.9859 3.11091 10.0625 4.25 10.0625V8.6875Z" fill="#012635"/>
</svg>
