<svg width="50" height="16" viewBox="0 0 50 16" fill="none" xmlns="http://www.w3.org/2000/svg">
<path d="M17.6631 15.1425L20.1918 0.303362H24.2364L21.7058 15.1425H17.6631ZM36.3188 0.623249C35.5177 0.322616 34.2619 0 32.6939 0C28.6971 0 25.882 2.01263 25.8579 4.89715C25.8354 7.0294 27.8678 8.21897 29.402 8.92871C30.9765 9.65626 31.5057 10.12 31.4981 10.7694C31.488 11.7642 30.2408 12.2184 29.0782 12.2184C27.4594 12.2184 26.5994 11.9935 25.271 11.4397L24.7496 11.2038L24.1821 14.5257C25.1268 14.9401 26.8737 15.2988 28.6876 15.3174C32.9394 15.3174 35.6995 13.3278 35.7309 10.2474C35.746 8.55925 34.6685 7.27477 32.3349 6.21558C30.9212 5.52911 30.0553 5.07104 30.0645 4.37593C30.0645 3.75912 30.7974 3.09957 32.381 3.09957C33.7035 3.07902 34.6618 3.36745 35.4083 3.66809L35.7707 3.83932L36.3188 0.623249ZM46.7273 0.303134H43.6019C42.6338 0.303134 41.9091 0.567382 41.484 1.53371L35.477 15.1327H39.7243C39.7243 15.1327 40.4186 13.3043 40.5757 12.9027C41.0398 12.9027 45.1659 12.9091 45.7557 12.9091C45.8767 13.4286 46.2478 15.1327 46.2478 15.1327H50.001L46.7273 0.302679V0.303134ZM41.7685 9.88534C42.1031 9.03036 43.3801 5.73712 43.3801 5.73712C43.3563 5.77661 43.7122 4.87797 43.9163 4.32082L44.1896 5.60022C44.1896 5.60022 44.9641 9.14239 45.126 9.88511H41.7685V9.88534ZM14.2294 0.303134L10.2696 10.4228L9.84775 8.36633C9.1105 5.99568 6.81375 3.42726 4.24609 2.14142L7.86695 15.1188L12.1464 15.114L18.5141 0.302982L14.2294 0.302907" fill="#0E4595"/>
<path d="M6.57382 0.302734H0.0516976L0 0.611478C5.07415 1.83978 8.43152 4.80814 9.82553 8.37518L8.40734 1.55598C8.16257 0.616329 7.45245 0.335859 6.57398 0.303113" fill="#F2AE14"/>
</svg>
