<svg width="16" height="17" viewBox="0 0 16 17" fill="none" xmlns="http://www.w3.org/2000/svg">
<path fill-rule="evenodd" clip-rule="evenodd" d="M14.2508 3.63337C14.9397 3.81776 15.4811 4.35908 15.6654 5.04792C15.9986 6.2952 16 8.89909 16 8.89909C16 8.89909 16 11.503 15.6654 12.7503C15.4811 13.4392 14.9397 13.9804 14.2508 14.1648C13.0036 14.4993 8 14.4993 8 14.4993C8 14.4993 2.99637 14.4993 1.74909 14.1648C1.06025 13.9804 0.518933 13.4392 0.334537 12.7503C0 11.503 0 8.89909 0 8.89909C0 8.89909 0 6.2952 0.334537 5.04792C0.518933 4.35908 1.06025 3.81776 1.74909 3.63337C2.99637 3.29883 8 3.29883 8 3.29883C8 3.29883 13.0036 3.29883 14.2508 3.63337ZM10.5553 8.89932L6.39848 11.299V6.49956L10.5553 8.89932Z" fill="white"/>
</svg>
