<svg width="212" height="56" viewBox="0 0 212 56" fill="none" xmlns="http://www.w3.org/2000/svg">
<path fill-rule="evenodd" clip-rule="evenodd" d="M5.96213 0H45.3727C48.6646 0 51.3332 2.58649 51.3332 5.77723V32.4233C51.3332 35.614 48.6646 38.2005 45.3727 38.2005H5.96213C2.67029 38.2005 0.00170898 35.614 0.00170898 32.4233V5.77723C0.00202584 2.58649 2.6706 0 5.96213 0Z" fill="url(#paint0_linear_4187_71312)"/>
<path d="M17.6034 21.0338C17.6034 15.146 17.6034 0.0235823 17.6034 0.0235823H5.96234C2.53487 0.000672404 0 2.62514 0 5.89124V32.5376C0 35.4335 2.19901 37.8316 5.06754 38.2497H9.29634V38.3145V56.0007L22.1405 38.3145C22.1405 38.3145 27.3304 31.1683 30.4815 26.8289C30.5772 26.698 30.6884 26.5798 30.762 26.4433C31.709 24.6781 31.1431 23.5789 29.3624 23.5789C29.2321 23.5789 29.0997 23.5789 28.9653 23.5789C26.2644 23.5789 22.7346 23.5789 20.3642 23.5789C18.2425 23.5786 17.6034 22.8339 17.6034 21.0338Z" fill="url(#paint1_linear_4187_71312)"/>
<path d="M211.642 27.2539L211.915 31.9046C211.212 32.2437 210.314 32.4133 209.223 32.4133C207.041 32.4133 205.276 31.7593 203.93 30.4513C202.596 29.1311 201.93 27.3084 201.93 24.9831V18.8427H198.528V13.8468H201.93V9.05078H207.186V13.8468H211.679V18.8427H207.186V24.7106C207.186 25.5462 207.459 26.2245 208.005 26.7452C208.55 27.2539 209.217 27.5082 210.005 27.5082C210.612 27.5082 211.157 27.4235 211.642 27.2539Z" fill="#09B580"/>
<path d="M190.381 32.4868C187.058 32.4868 184.324 31.7238 182.178 30.1978L183.742 26.5463C185.464 27.8301 187.525 28.472 189.926 28.472C190.738 28.472 191.387 28.3327 191.872 28.0541C192.369 27.7756 192.618 27.4183 192.618 26.9823C192.618 26.6069 192.43 26.298 192.054 26.0558C191.69 25.8015 191.217 25.6016 190.635 25.4563C190.053 25.311 189.411 25.1656 188.707 25.0203C188.004 24.8628 187.301 24.663 186.598 24.4208C185.894 24.1665 185.252 23.8576 184.67 23.4943C184.088 23.1188 183.609 22.5981 183.233 21.9319C182.869 21.2537 182.681 20.4604 182.669 19.5521C182.645 17.8323 183.324 16.3911 184.706 15.2284C186.088 14.0657 187.853 13.4844 189.999 13.4844C192.897 13.4844 195.219 14.1808 196.965 15.5736L195.474 19.3704C194.746 18.8254 193.855 18.3712 192.8 18.0079C191.757 17.6446 190.751 17.4629 189.781 17.4629C189.114 17.4629 188.574 17.6022 188.162 17.8807C187.749 18.1593 187.543 18.5045 187.543 18.9162C187.543 19.2311 187.689 19.5097 187.98 19.7519C188.271 19.982 188.647 20.1698 189.108 20.3151C189.58 20.4604 190.114 20.6239 190.708 20.8056C191.314 20.9751 191.927 21.1447 192.545 21.3143C193.164 21.4838 193.77 21.72 194.364 22.0228C194.97 22.3255 195.51 22.6707 195.983 23.0583C196.456 23.4337 196.838 23.9303 197.129 24.548C197.432 25.1656 197.589 25.8681 197.602 26.6553C197.602 28.3509 196.923 29.7497 195.564 30.8518C194.219 31.9418 192.491 32.4868 190.381 32.4868Z" fill="#09B580"/>
<path d="M174.228 13.8477H179.485V32.1235H174.228V29.5257C172.894 31.4998 170.954 32.4868 168.408 32.4868C166.856 32.4868 165.425 32.0629 164.115 31.2152C162.818 30.3553 161.793 29.1987 161.042 27.7453C160.29 26.2799 159.914 24.6872 159.914 22.9674C159.914 21.2477 160.29 19.6611 161.042 18.2077C161.793 16.7423 162.818 15.5917 164.115 14.7561C165.425 13.9083 166.856 13.4844 168.408 13.4844C170.954 13.4844 172.894 14.4775 174.228 16.4637V13.8477ZM169.645 27.4728C170.93 27.4728 172.015 27.0429 172.901 26.183C173.786 25.311 174.228 24.2391 174.228 22.9674C174.228 21.7079 173.786 20.6421 172.901 19.7701C172.015 18.8981 170.93 18.4621 169.645 18.4621C168.384 18.4621 167.305 18.9041 166.407 19.7883C165.51 20.6603 165.061 21.72 165.061 22.9674C165.061 24.227 165.504 25.2928 166.389 26.1648C167.286 27.0368 168.372 27.4728 169.645 27.4728Z" fill="#09B580"/>
<path d="M157.15 6.07031V32.1215H151.894V6.07031H157.15Z" fill="#09B580"/>
<path d="M130.084 32.1215V6.07031H139.87C142.113 6.07031 144.029 6.7546 145.617 8.12316C147.206 9.47961 148 11.1025 148 12.9919C148 14.1666 147.654 15.2688 146.963 16.2982C146.284 17.3156 145.423 17.9998 144.38 18.3511C145.775 18.6296 146.921 19.3563 147.818 20.5311C148.727 21.7059 149.182 23.0865 149.182 24.6731C149.182 26.7562 148.382 28.5184 146.781 29.9596C145.181 31.4009 143.253 32.1215 140.997 32.1215H130.084ZM135.595 16.5707H139.615C140.391 16.5707 141.046 16.3164 141.579 15.8077C142.125 15.2869 142.398 14.6632 142.398 13.9365C142.398 13.2099 142.131 12.5982 141.597 12.1017C141.064 11.6051 140.403 11.3568 139.615 11.3568H135.595V16.5707ZM135.595 26.835H140.506C141.355 26.835 142.076 26.5443 142.671 25.9629C143.265 25.3695 143.562 24.6549 143.562 23.8193C143.562 22.9836 143.265 22.269 142.671 21.6756C142.089 21.07 141.391 20.7672 140.579 20.7672H135.595V26.835Z" fill="#09B580"/>
<path d="M126.775 27.2539L127.048 31.9046C126.344 32.2437 125.447 32.4133 124.356 32.4133C122.173 32.4133 120.409 31.7593 119.063 30.4513C117.729 29.1311 117.062 27.3084 117.062 24.9831V18.8427H113.661V13.8468H117.062V9.05078H122.319V13.8468H126.811V18.8427H122.319V24.7106C122.319 25.5462 122.592 26.2245 123.137 26.7452C123.683 27.2539 124.35 27.5082 125.138 27.5082C125.744 27.5082 126.29 27.4235 126.775 27.2539Z" fill="#09374A"/>
<path d="M106.568 5.94467C107.198 5.31489 107.95 5 108.823 5C109.696 5 110.448 5.31489 111.079 5.94467C111.709 6.56234 112.024 7.30113 112.024 8.16102C112.024 9.03303 111.709 9.78392 111.079 10.4137C110.448 11.0435 109.696 11.3584 108.823 11.3584C107.95 11.3584 107.198 11.0435 106.568 10.4137C105.937 9.78392 105.622 9.03303 105.622 8.16102C105.622 7.30113 105.937 6.56234 106.568 5.94467ZM106.204 13.8472H111.461V32.123H106.204V13.8472Z" fill="#09374A"/>
<path d="M103.274 22.1863C103.274 22.9251 103.226 23.6093 103.129 24.2391H89.9786C90.2212 25.4745 90.7486 26.4191 91.561 27.0731C92.3735 27.715 93.4102 28.036 94.6713 28.036C95.4958 28.036 96.284 27.8604 97.0358 27.5091C97.7997 27.1579 98.3393 26.7098 98.6546 26.1648L102.747 28.6718C102.08 29.8829 101.025 30.8216 99.5822 31.4877C98.1392 32.1538 96.4659 32.4868 94.5622 32.4868C91.8703 32.4868 89.5906 31.5664 87.7233 29.7255C85.868 27.8725 84.9404 25.5956 84.9404 22.8948C84.9404 20.2424 85.8559 18.014 87.6869 16.2094C89.53 14.3927 91.7854 13.4844 94.453 13.4844C96.9267 13.4844 99.0123 14.3261 100.71 16.0096C102.42 17.693 103.274 19.7519 103.274 22.1863ZM90.0514 20.8964H98.018C97.9088 19.9881 97.4844 19.2311 96.7448 18.6256C96.0051 18.02 95.1502 17.7172 94.1802 17.7172C93.0889 17.7172 92.1916 17.9958 91.4883 18.5529C90.785 19.11 90.306 19.8912 90.0514 20.8964Z" fill="#09374A"/>
<path d="M64.0787 6.07031H83.4131V9.7945L70.863 26.835H83.5222V32.1215H63.333V28.3973L75.9195 11.3568H64.0787V6.07031Z" fill="#09374A"/>
<defs>
<linearGradient id="paint0_linear_4187_71312" x1="0.691638" y1="1.70504" x2="49.2496" y2="37.3217" gradientUnits="userSpaceOnUse">
<stop stop-color="#32F0B5"/>
<stop offset="1" stop-color="#06AB78"/>
</linearGradient>
<linearGradient id="paint1_linear_4187_71312" x1="-1.81025" y1="5.7299" x2="29.976" y2="54.5029" gradientUnits="userSpaceOnUse">
<stop stop-color="#17566F"/>
<stop offset="1" stop-color="#012635"/>
</linearGradient>
</defs>
</svg>
