<svg width="169" height="168" viewBox="0 0 169 168" fill="none" xmlns="http://www.w3.org/2000/svg">
<g clip-path="url(#clip0_54_627)">
<g clip-path="url(#clip1_54_627)">
<g clip-path="url(#clip2_54_627)">
<g filter="url(#filter0_d_54_627)">
<g filter="url(#filter1_iiii_54_627)">
<path d="M115.182 14.5809C108.433 13.0191 97.3402 12 84.7997 12C72.2593 12 61.1665 13.0191 54.4182 14.5809C40.9633 17.4124 30.3677 28.0383 27.5443 41.5316C25.9869 48.2992 24.9707 59.4237 24.9707 72C24.9707 84.5763 25.9869 95.7008 27.5443 102.468C30.3677 115.962 40.9633 126.588 54.4182 129.419C61.1665 130.981 72.2593 132 84.7997 132C97.3402 132 108.433 130.981 115.182 129.419C128.636 126.588 139.232 115.962 142.055 102.468C143.613 95.7008 144.629 84.5763 144.629 72C144.629 59.4237 143.613 48.2992 142.055 41.5316C139.232 28.0383 128.636 17.4124 115.182 14.5809Z" fill="white"/>
<path d="M115.182 14.5809C108.433 13.0191 97.3402 12 84.7997 12C72.2593 12 61.1665 13.0191 54.4182 14.5809C40.9633 17.4124 30.3677 28.0383 27.5443 41.5316C25.9869 48.2992 24.9707 59.4237 24.9707 72C24.9707 84.5763 25.9869 95.7008 27.5443 102.468C30.3677 115.962 40.9633 126.588 54.4182 129.419C61.1665 130.981 72.2593 132 84.7997 132C97.3402 132 108.433 130.981 115.182 129.419C128.636 126.588 139.232 115.962 142.055 102.468C143.613 95.7008 144.629 84.5763 144.629 72C144.629 59.4237 143.613 48.2992 142.055 41.5316C139.232 28.0383 128.636 17.4124 115.182 14.5809Z" fill="url(#paint0_radial_54_627)"/>
</g>
<path d="M64.5554 76.0276C65.3298 78.596 66.5693 80.8971 68.1551 82.8674L78.4706 74.8385L75.965 75.0194C75.4318 75.0574 75.0521 74.5113 75.2748 74.0262L82.0806 59.1978C82.1972 58.9431 82.443 58.7726 82.7223 58.753L87.078 58.4384C87.6642 58.3958 88.0786 59.0007 87.8258 59.5319L83.8984 67.7786C83.8441 67.8916 83.933 68.0218 84.0588 68.0125L87.5661 67.7602L100.121 57.9891C95.1556 51.4385 86.4605 48.3205 78.1197 50.8266C67.4026 54.046 61.3296 65.3289 64.5542 76.0288L64.5554 76.0276ZM71.9937 56.9854L76.8525 53.7107C77.0244 53.5955 77.2149 53.5298 77.4076 53.5102C77.875 53.4135 78.3759 53.5978 78.6587 54.0172C79.0326 54.5703 78.8872 55.3216 78.3321 55.6961L73.4732 58.9708C73.3036 59.0849 73.1166 59.1494 72.9262 59.1701C72.8419 59.1886 72.7565 59.1978 72.6711 59.1978C72.2822 59.1978 71.9002 59.0111 71.6659 58.6654C71.292 58.1124 71.4374 57.3611 71.9925 56.9866L71.9937 56.9854ZM71.1754 59.381C71.7455 59.729 71.9256 60.4733 71.577 61.0425L70.1759 63.3298C69.9693 63.6662 69.6254 63.8644 69.2607 63.9013C69.1799 63.9174 69.0991 63.9289 69.016 63.9289C68.8002 63.9289 68.5821 63.8713 68.3859 63.7515C67.8158 63.4035 67.6357 62.6592 67.9843 62.0899L69.3854 59.8027C69.5896 59.4686 69.9301 59.2704 70.2925 59.2323C70.5856 59.1701 70.9007 59.2139 71.1765 59.3821L71.1754 59.381Z" fill="white"/>
<path d="M92.3721 67.4122C92.5349 67.4007 92.6768 67.4525 92.7865 67.5401L101.776 60.554C101.287 59.6495 100.733 58.7922 100.121 57.9868L87.5664 67.7579L92.3721 67.4111V67.4122Z" fill="white"/>
<path d="M83.2032 74.7152C83.2332 74.6057 83.1455 74.5009 83.0335 74.509L78.4678 74.8385L68.1523 82.8674C68.7883 83.6579 69.4807 84.3965 70.2205 85.0751L83.0451 75.1081L83.2032 74.7152Z" fill="white"/>
<path d="M92.8918 68.3559L81.1429 82.789C80.777 83.2857 79.9934 82.9077 80.155 82.3132L83.0472 75.1093L70.2227 85.0763L70.4904 95.1228C70.5354 96.797 72.5597 97.6128 73.7554 96.4364L80.2138 90.084V90.0817C83.3046 90.6647 86.5776 90.538 89.7988 89.5701C100.515 86.3507 106.588 75.0678 103.363 64.3691C102.957 63.0209 102.422 61.7465 101.776 60.5551L92.7868 67.5412C93.0176 67.7279 93.0984 68.0793 92.8941 68.3559H92.8918Z" fill="white"/>
<path d="M123.646 69.8446C123.646 68.9021 122.881 68.1381 121.937 68.1381H110.223C109.279 68.1381 108.514 68.9021 108.514 69.8446C108.514 70.7872 109.279 71.5511 110.223 71.5511H121.937C122.881 71.5511 123.646 70.7872 123.646 69.8446Z" fill="white"/>
<path d="M107.512 64.1606C107.807 64.7712 108.417 65.1273 109.054 65.1273C109.303 65.1273 109.556 65.0731 109.795 64.9579L116.669 61.6521C117.52 61.243 117.877 60.2233 117.468 59.3741C117.058 58.5249 116.037 58.1677 115.186 58.5767L108.312 61.8825C107.461 62.2916 107.104 63.3113 107.513 64.1606H107.512Z" fill="white"/>
<path d="M112.905 51.7795L106.036 55.3273C105.197 55.7606 104.869 56.7907 105.303 57.6272C105.607 58.2137 106.204 58.5502 106.823 58.5502C107.087 58.5502 107.356 58.4891 107.607 58.3589L114.476 54.8111C115.315 54.3779 115.643 53.3478 115.209 52.5112C114.775 51.6735 113.743 51.3463 112.905 51.7795Z" fill="white"/>
<path d="M117.468 80.3152C117.877 79.466 117.52 78.4462 116.669 78.0372L109.795 74.7314C108.945 74.3223 107.923 74.6795 107.513 75.5287C107.104 76.3779 107.461 77.3977 108.312 77.8067L115.186 81.1125C115.425 81.2278 115.678 81.2819 115.927 81.2819C116.563 81.2819 117.173 80.9259 117.469 80.3152H117.468Z" fill="white"/>
<path d="M115.209 87.1769C115.643 86.3392 115.315 85.3102 114.476 84.877L107.607 81.3292C106.768 80.8959 105.737 81.2232 105.303 82.0608C104.869 82.8985 105.197 83.9275 106.036 84.3607L112.905 87.9085C113.157 88.0387 113.424 88.0998 113.689 88.0998C114.307 88.0998 114.905 87.7634 115.209 87.1769Z" fill="white"/>
<path d="M102.863 52.6046C104.414 52.6046 105.67 51.3499 105.67 49.8023C105.67 48.2546 104.414 47 102.863 47C101.313 47 100.057 48.2546 100.057 49.8023C100.057 51.3499 101.313 52.6046 102.863 52.6046Z" fill="white"/>
<path d="M102.863 92.6881C104.414 92.6881 105.67 91.4335 105.67 89.8858C105.67 88.3382 104.414 87.0835 102.863 87.0835C101.313 87.0835 100.057 88.3382 100.057 89.8858C100.057 91.4335 101.313 92.6881 102.863 92.6881Z" fill="white"/>
<path d="M45 69.8446C45 70.7872 45.7652 71.5511 46.7092 71.5511H58.4235C59.3676 71.5511 60.1328 70.7872 60.1328 69.8446C60.1328 68.9021 59.3676 68.1381 58.4235 68.1381H46.7092C45.7652 68.1381 45 68.9021 45 69.8446Z" fill="white"/>
<path d="M51.975 61.6509L58.8489 64.9567C59.0878 65.0719 59.3406 65.1261 59.5898 65.1261C60.2258 65.1261 60.8363 64.7701 61.1317 64.1594C61.5415 63.3101 61.1837 62.2904 60.3331 61.8814L53.4592 58.5755C52.6086 58.1665 51.5872 58.5237 51.1775 59.3729C50.7678 60.2221 51.1256 61.2419 51.9761 61.6509H51.975Z" fill="white"/>
<path d="M55.7414 51.7795C54.9023 51.3463 53.8717 51.6735 53.4377 52.5112C53.0038 53.3489 53.3316 54.3779 54.1706 54.8111L61.0399 58.3589C61.2915 58.4891 61.5593 58.5502 61.8236 58.5502C62.4422 58.5502 63.0388 58.2137 63.3435 57.6272C63.7775 56.7895 63.4497 55.7606 62.6107 55.3273L55.7414 51.7795Z" fill="white"/>
<path d="M58.8501 74.7314L51.9761 78.0372C51.1256 78.4462 50.7678 79.466 51.1775 80.3152C51.4718 80.9259 52.0823 81.2819 52.7194 81.2819C52.9687 81.2819 53.2214 81.2278 53.4603 81.1125L60.3342 77.8067C61.1848 77.3977 61.5426 76.3779 61.1329 75.5287C60.7232 74.6795 59.7018 74.3223 58.8512 74.7314H58.8501Z" fill="white"/>
<path d="M54.1706 84.877C53.3316 85.3102 53.0038 86.3403 53.4377 87.1769C53.7413 87.7634 54.3391 88.0998 54.9577 88.0998C55.222 88.0998 55.4909 88.0387 55.7414 87.9085L62.6107 84.3607C63.4497 83.9275 63.7775 82.8974 63.3435 82.0608C62.9096 81.2232 61.8778 80.8959 61.0399 81.3292L54.1706 84.877Z" fill="white"/>
<path d="M65.7814 52.6046C67.3316 52.6046 68.5882 51.3499 68.5882 49.8023C68.5882 48.2546 67.3316 47 65.7814 47C64.2313 47 62.9746 48.2546 62.9746 49.8023C62.9746 51.3499 64.2313 52.6046 65.7814 52.6046Z" fill="white"/>
<path d="M65.7814 92.6881C67.3316 92.6881 68.5882 91.4335 68.5882 89.8858C68.5882 88.3382 67.3316 87.0835 65.7814 87.0835C64.2313 87.0835 62.9746 88.3382 62.9746 89.8858C62.9746 91.4335 64.2313 92.6881 65.7814 92.6881Z" fill="white"/>
</g>
</g>
</g>
</g>
<defs>
<filter id="filter0_d_54_627" x="0.970703" y="0" width="167.658" height="168" filterUnits="userSpaceOnUse" color-interpolation-filters="sRGB">
<feFlood flood-opacity="0" result="BackgroundImageFix"/>
<feColorMatrix in="SourceAlpha" type="matrix" values="0 0 0 0 0 0 0 0 0 0 0 0 0 0 0 0 0 0 127 0" result="hardAlpha"/>
<feOffset dy="12"/>
<feGaussianBlur stdDeviation="12"/>
<feComposite in2="hardAlpha" operator="out"/>
<feColorMatrix type="matrix" values="0 0 0 0 0 0 0 0 0 0.741176 0 0 0 0 0.509804 0 0 0 0.25 0"/>
<feBlend mode="normal" in2="BackgroundImageFix" result="effect1_dropShadow_54_627"/>
<feBlend mode="normal" in="SourceGraphic" in2="effect1_dropShadow_54_627" result="shape"/>
</filter>
<filter id="filter1_iiii_54_627" x="12.9707" y="0" width="131.658" height="144" filterUnits="userSpaceOnUse" color-interpolation-filters="sRGB">
<feFlood flood-opacity="0" result="BackgroundImageFix"/>
<feBlend mode="normal" in="SourceGraphic" in2="BackgroundImageFix" result="shape"/>
<feColorMatrix in="SourceAlpha" type="matrix" values="0 0 0 0 0 0 0 0 0 0 0 0 0 0 0 0 0 0 127 0" result="hardAlpha"/>
<feOffset dx="-12" dy="-12"/>
<feGaussianBlur stdDeviation="12"/>
<feComposite in2="hardAlpha" operator="arithmetic" k2="-1" k3="1"/>
<feColorMatrix type="matrix" values="0 0 0 0 0 0 0 0 0 0.447059 0 0 0 0 0.305882 0 0 0 0.5 0"/>
<feBlend mode="normal" in2="shape" result="effect1_innerShadow_54_627"/>
<feColorMatrix in="SourceAlpha" type="matrix" values="0 0 0 0 0 0 0 0 0 0 0 0 0 0 0 0 0 0 127 0" result="hardAlpha"/>
<feOffset dx="-12" dy="12"/>
<feGaussianBlur stdDeviation="12"/>
<feComposite in2="hardAlpha" operator="arithmetic" k2="-1" k3="1"/>
<feColorMatrix type="matrix" values="0 0 0 0 0.356863 0 0 0 0 0.945098 0 0 0 0 0.698039 0 0 0 1 0"/>
<feBlend mode="normal" in2="effect1_innerShadow_54_627" result="effect2_innerShadow_54_627"/>
<feColorMatrix in="SourceAlpha" type="matrix" values="0 0 0 0 0 0 0 0 0 0 0 0 0 0 0 0 0 0 127 0" result="hardAlpha"/>
<feOffset dy="-4"/>
<feGaussianBlur stdDeviation="2"/>
<feComposite in2="hardAlpha" operator="arithmetic" k2="-1" k3="1"/>
<feColorMatrix type="matrix" values="0 0 0 0 0 0 0 0 0 0.447059 0 0 0 0 0.305882 0 0 0 0.6 0"/>
<feBlend mode="normal" in2="effect2_innerShadow_54_627" result="effect3_innerShadow_54_627"/>
<feColorMatrix in="SourceAlpha" type="matrix" values="0 0 0 0 0 0 0 0 0 0 0 0 0 0 0 0 0 0 127 0" result="hardAlpha"/>
<feOffset dy="4"/>
<feGaussianBlur stdDeviation="2"/>
<feComposite in2="hardAlpha" operator="arithmetic" k2="-1" k3="1"/>
<feColorMatrix type="matrix" values="0 0 0 0 0.760784 0 0 0 0 1 0 0 0 0 0.92549 0 0 0 0.8 0"/>
<feBlend mode="normal" in2="effect3_innerShadow_54_627" result="effect4_innerShadow_54_627"/>
</filter>
<radialGradient id="paint0_radial_54_627" cx="0" cy="0" r="1" gradientUnits="userSpaceOnUse" gradientTransform="translate(84.7998 132) rotate(-90) scale(120 137.826)">
<stop stop-color="#01B47C"/>
<stop offset="1" stop-color="#00DC97"/>
</radialGradient>
<clipPath id="clip0_54_627">
<rect width="168" height="168" fill="white" transform="translate(0.970703)"/>
</clipPath>
<clipPath id="clip1_54_627">
<rect width="168" height="168" fill="white" transform="translate(0.970703)"/>
</clipPath>
<clipPath id="clip2_54_627">
<rect width="168" height="168" fill="white" transform="translate(0.970703)"/>
</clipPath>
</defs>
</svg>
