<svg xmlns="http://www.w3.org/2000/svg" xmlns:xlink="http://www.w3.org/1999/xlink" width="180" height="72" viewBox="0 0 180 72">
    <defs>
        <path id="prefix__a" d="M166.688 58.298c3.42 0 6.192-2.772 6.192-6.192 0-3.384-2.772-6.168-6.192-6.168-3.396 0-6.168 2.784-6.168 6.168 0 3.42 2.772 6.192 6.168 6.192zm.024-1.92c-2.364 0-4.26-1.944-4.26-4.272 0-2.352 1.896-4.26 4.26-4.26 2.316 0 4.26 1.908 4.26 4.26 0 2.328-1.944 4.272-4.26 4.272zm-.96-1.44v-1.944h1.236l.948 1.944h1.176l-1.056-2.136c.672-.36.996-.984.996-1.668-.036-1.116-.756-1.872-1.932-1.872h-2.412v5.676h1.044zm1.404-2.916h-1.404v-1.764h1.404c.528 0 .828.324.828.876 0 .516-.348.888-.828.888z"/>
        <path id="prefix__b" d="M0.012 0.032L19.501 0.032 19.501 21.196 0.012 21.196z"/>
    </defs>
    <g fill="none" fill-rule="evenodd">
        <path fill="#FFF" fill-rule="nonzero" d="M167.306 6.57c.693-2.749-.974-5.538-3.722-6.23-2.749-.692-5.537.975-6.23 3.723-.692 2.748.975 5.537 3.723 6.23 2.748.691 5.537-.976 6.23-3.724zm4.915 7.447c-1.854-.47-3.738.651-4.209 2.505-.47 1.855.651 3.739 2.505 4.21 1.854.47 3.739-.652 4.209-2.506l.003-.012c.463-1.85-.659-3.727-2.508-4.197zm-17.025 1.599c-.468 1.855.657 3.737 2.512 4.204 1.855.467 3.737-.658 4.204-2.512.467-1.855-.657-3.738-2.512-4.205-1.855-.467-3.737.658-4.204 2.513zm-7.793-8.663c-2.465-.62-4.967.875-5.588 3.34-.621 2.466.874 4.968 3.34 5.589 2.465.62 4.967-.875 5.588-3.34.621-2.466-.874-4.968-3.34-5.589zm30.32 23.3l-20.207 15.951c-1.408 1.021-2.412 2.504-2.838 4.19l-1.674 6.645c-.253 1.004-1.271 1.613-2.275 1.36l-6.812-1.716c-1.004-.252-1.613-1.271-1.36-2.275l1.681-6.675c.422-1.681.243-3.456-.506-5.02l-10.12-23.476c-.609-1.112-.779-2.411-.478-3.642.612-2.43 2.832-3.796 5.816-4.465.218 1.81.972 3.513 2.164 4.892-1.472.18-2.443.511-2.894.86.687 1.693 6.817 5.814 17.263 8.445 10.446 2.63 17.773 1.9 19.204.74-.264-.692-1.401-1.717-3.294-2.894 1.989-.221 3.823-1.179 5.142-2.683 2.456 2.045 3.861 4.362 3.23 6.868-.308 1.18-1.034 2.208-2.042 2.894zM148.538 62.008c0 1.396-1.131 2.527-2.527 2.527-1.395 0-2.527-1.131-2.527-2.527 0-1.395 1.132-2.527 2.527-2.527 1.396 0 2.527 1.132 2.527 2.527M143.29 66.965c0 .913-.74 1.652-1.653 1.652-.912 0-1.652-.74-1.652-1.652 0-.912.74-1.652 1.652-1.652.913 0 1.653.74 1.653 1.652"/>
        <g fill-rule="nonzero">
            <use fill="#000" xlink:href="#prefix__a"/>
            <use fill="#FFF" xlink:href="#prefix__a"/>
        </g>
        <g transform="translate(0 34.795)">
            <mask id="prefix__c" fill="#fff">
                <use xlink:href="#prefix__b"/>
            </mask>
            <path fill="#FFF" fill-rule="nonzero" d="M12.094 5.565c-.625-.544-1.553-.816-2.782-.816H5.986v6.198h3.326c1.23 0 2.157-.267 2.782-.801.624-.534.937-1.295.937-2.283 0-.987-.313-1.753-.937-2.298zM9.252 15.573H5.986v5.623H0V.032h9.675c1.915 0 3.578.318 4.989.953 1.41.635 2.499 1.542 3.265 2.72.766 1.18 1.15 2.566 1.15 4.158 0 1.532-.359 2.868-1.074 4.006-.716 1.14-1.739 2.031-3.07 2.676l4.566 6.651h-6.41l-3.84-5.623z" mask="url(#prefix__c)"/>
        </g>
        <path fill="#FFF" fill-rule="nonzero" d="M39.365 51.366L39.365 55.991 22.373 55.991 22.373 34.827 38.972 34.827 38.972 39.453 28.299 39.453 28.299 43.021 37.702 43.021 37.702 47.495 28.299 47.495 28.299 51.366 39.365 51.366M42.691 55.991L48.677 55.991 48.677 34.827 42.691 34.827zM57.805 55.827c-2.586-.612-4.71-1.434-6.37-2.468l3.573-8.087c1.567.91 3.322 1.638 5.265 2.186 1.943.549 3.808.823 5.595.823 1.535 0 2.633-.148 3.29-.446.66-.298.988-.745.988-1.34 0-.69-.431-1.207-1.293-1.552-.862-.344-2.28-.72-4.255-1.128-2.538-.533-4.654-1.105-6.346-1.716-1.693-.612-3.166-1.614-4.42-3.01-1.254-1.393-1.88-3.282-1.88-5.664 0-2.069.58-3.95 1.74-5.642 1.158-1.693 2.89-3.024 5.194-3.996 2.304-.971 5.101-1.457 8.392-1.457 2.257 0 4.474.243 6.653.728 2.178.486 4.097 1.199 5.759 2.14l-3.338 8.039c-3.229-1.63-6.285-2.445-9.168-2.445-2.852 0-4.278.69-4.278 2.068 0 .659.423 1.152 1.27 1.481.846.33 2.24.682 4.184 1.058 2.507.47 4.622 1.011 6.346 1.622 1.724.611 3.221 1.607 4.49 2.986 1.27 1.38 1.904 3.26 1.904 5.641 0 2.069-.58 3.942-1.74 5.618-1.16 1.678-2.89 3.01-5.194 3.997-2.304.987-5.101 1.48-8.392 1.48-2.727 0-5.383-.305-7.969-.916M83.122 55.991h10.625V30.275H83.122V55.99zm.681-29.313c-1.175-1.018-1.762-2.31-1.762-3.878 0-1.567.587-2.86 1.762-3.879 1.176-1.018 2.72-1.528 4.631-1.528 1.943 0 3.495.486 4.655 1.457 1.159.972 1.74 2.226 1.74 3.761 0 1.63-.581 2.97-1.74 4.02-1.16 1.05-2.712 1.575-4.655 1.575-1.912 0-3.455-.509-4.63-1.528zM108.979 31.685h5.594v7.758h-5.265V55.99H98.683V39.443h-3.526v-7.758h3.526v-.14c0-3.354 1.002-6.01 3.009-7.97 2.005-1.958 4.826-2.938 8.462-2.938 1.191 0 2.35.11 3.48.329 1.127.22 2.068.534 2.82.94l-2.539 7.381c-.878-.407-1.677-.61-2.397-.61-.784 0-1.403.242-1.858.728-.454.486-.681 1.23-.681 2.233v.047"/>
        <path fill="#FFF" fill-rule="nonzero" d="M135.541 55.098c-1.598.909-3.777 1.363-6.535 1.363-3.604 0-6.378-.87-8.321-2.609-1.944-1.74-2.915-4.349-2.915-7.828v-6.581h-3.526v-7.758h3.526v-7.193h10.625v7.193h5.266v7.758h-5.266v6.487c0 .784.204 1.395.611 1.834.407.44.94.658 1.599.658.909 0 1.708-.235 2.398-.705l2.538 7.381"/>
    </g>
</svg>
