<svg width="41" height="41" viewBox="0 0 41 41" fill="none" xmlns="http://www.w3.org/2000/svg">
<g clip-path="url(#clip0_6090_326628)">
<g clip-path="url(#clip1_6090_326628)">
<path d="M15.12 19.4579C15.4308 19.2714 15.7865 19.1729 16.149 19.1729H25.0411C25.4035 19.1729 25.7592 19.2714 26.07 19.4579L30.0443 21.8425C32.454 23.2883 33.9284 25.8923 33.9284 28.7024V33.8396C33.9284 34.944 33.0329 35.8396 31.9284 35.8396H9.26172C8.15715 35.8396 7.26172 34.944 7.26172 33.8396V28.7024C7.26172 25.8923 8.73611 23.2883 11.1457 21.8425L15.12 19.4579Z" fill="white"/>
<path opacity="0.5" d="M26.2591 14.1729H14.9258C14.3735 14.1729 13.9258 14.6206 13.9258 15.1729V16.5062C13.9258 17.0585 14.3735 17.5062 14.9258 17.5062H26.2591C26.8114 17.5062 27.2591 17.0585 27.2591 16.5062V15.1729C27.2591 14.6206 26.8114 14.1729 26.2591 14.1729Z" fill="white"/>
<path d="M12.3027 7.54695C11.6727 6.91698 12.1189 5.83984 13.0098 5.83984H28.1814C29.0723 5.83984 29.5185 6.91698 28.8885 7.54695L24.2218 12.2136C24.0343 12.4011 23.7799 12.5065 23.5147 12.5065H17.6765C17.4113 12.5065 17.1569 12.4011 16.9694 12.2136L12.3027 7.54695Z" fill="white"/>
</g>
</g>
<defs>
<clipPath id="clip0_6090_326628">
<rect width="40" height="40" fill="white" transform="translate(0.59375 0.839844)"/>
</clipPath>
<clipPath id="clip1_6090_326628">
<rect width="40" height="40" fill="white" transform="translate(0.59375 0.839844)"/>
</clipPath>
</defs>
</svg>
