<svg width="40" height="41" viewBox="0 0 40 41" fill="none" xmlns="http://www.w3.org/2000/svg">
<g clip-path="url(#clip0_6090_326662)">
<g clip-path="url(#clip1_6090_326662)">
<g opacity="0.5">
<path d="M0 20.8396C0 19.9191 0.746192 19.1729 1.66667 19.1729H3.33333V22.5062H1.66667C0.746192 22.5062 0 21.76 0 20.8396Z" fill="white"/>
<path d="M13.332 19.1729H26.6654V22.5062H13.332V19.1729Z" fill="white"/>
<path d="M38.3346 19.1729C39.2551 19.1729 40.0013 19.9191 40.0013 20.8396C40.0013 21.76 39.2551 22.5062 38.3346 22.5062H36.668V19.1729H38.3346Z" fill="white"/>
</g>
<path d="M5 14.1735C5 13.253 5.74619 12.5068 6.66667 12.5068C7.58714 12.5068 8.33333 13.253 8.33333 14.1735V27.5068C8.33333 28.4273 7.58714 29.1735 6.66667 29.1735C5.74619 29.1735 5 28.4273 5 27.5068V14.1735Z" fill="white"/>
<path d="M11.6667 12.5068C10.7462 12.5068 10 13.253 10 14.1735V27.5068C10 28.4273 10.7462 29.1735 11.6667 29.1735C12.5871 29.1735 13.3333 28.4273 13.3333 27.5068V14.1735C13.3333 13.253 12.5871 12.5068 11.6667 12.5068Z" fill="white"/>
<path d="M28.3346 12.5068C27.4142 12.5068 26.668 13.253 26.668 14.1735V27.5068C26.668 28.4273 27.4142 29.1735 28.3346 29.1735C29.2551 29.1735 30.0013 28.4273 30.0013 27.5068V14.1735C30.0013 13.253 29.2551 12.5068 28.3346 12.5068Z" fill="white"/>
<path d="M33.3346 12.5068C32.4142 12.5068 31.668 13.253 31.668 14.1735V27.5068C31.668 28.4273 32.4142 29.1735 33.3346 29.1735C34.2551 29.1735 35.0013 28.4273 35.0013 27.5068V14.1735C35.0013 13.253 34.2551 12.5068 33.3346 12.5068Z" fill="white"/>
</g>
</g>
<defs>
<clipPath id="clip0_6090_326662">
<rect width="40" height="40" fill="white" transform="translate(0 0.839844)"/>
</clipPath>
<clipPath id="clip1_6090_326662">
<rect width="40" height="40" fill="white" transform="translate(0 0.839844)"/>
</clipPath>
</defs>
</svg>
