<svg width="41" height="41" viewBox="0 0 41 41" fill="none" xmlns="http://www.w3.org/2000/svg">
<g clip-path="url(#clip0_6090_326610)">
<g opacity="0.5">
<path d="M18.7383 21.5298C18.7383 20.0207 19.3378 18.5733 20.405 17.5061C21.4721 16.439 22.0716 14.9916 22.0716 13.4825V10.8395C22.0716 9.91904 22.8178 9.17285 23.7383 9.17285H27.0716C27.9921 9.17285 28.7383 9.91904 28.7383 10.8395V13.4825C28.7383 14.9916 29.3378 16.439 30.405 17.5061C31.4721 18.5733 32.0716 20.0207 32.0716 21.5298V34.1728C32.0716 35.0933 31.3254 35.8395 30.405 35.8395H20.405C19.4845 35.8395 18.7383 35.0933 18.7383 34.1728V21.5298Z" fill="white"/>
<path d="M22.0703 5.83951C22.0703 4.91904 22.8165 4.17285 23.737 4.17285H27.0703C27.9908 4.17285 28.737 4.91904 28.737 5.83951C28.737 6.75999 27.9908 7.50618 27.0703 7.50618H23.737C22.8165 7.50618 22.0703 6.75999 22.0703 5.83951Z" fill="white"/>
</g>
<path d="M12.0742 5.83951C12.0742 4.91904 12.8204 4.17285 13.7409 4.17285H17.0742C17.9947 4.17285 18.7409 4.91904 18.7409 5.83951C18.7409 6.75999 17.9947 7.50618 17.0742 7.50618H13.7409C12.8204 7.50618 12.0742 6.75999 12.0742 5.83951Z" fill="white"/>
<path d="M10.4049 17.5061C9.3378 18.5733 8.73828 20.0207 8.73828 21.5298V22.5061H15.405V32.5061H8.73828V34.1728C8.73828 35.0933 9.48447 35.8395 10.4049 35.8395H20.405C21.3254 35.8395 22.0716 35.0933 22.0716 34.1728V21.5298C22.0716 20.0207 21.4721 18.5733 20.405 17.5061C19.3378 16.439 18.7383 14.9916 18.7383 13.4825V10.8395C18.7383 9.91904 17.9921 9.17285 17.0716 9.17285H13.7383C12.8178 9.17285 12.0716 9.91904 12.0716 10.8395V13.4825C12.0716 14.9916 11.4721 16.439 10.4049 17.5061Z" fill="white"/>
</g>
<defs>
<clipPath id="clip0_6090_326610">
<rect width="40" height="40" fill="white" transform="translate(0.40625 0.839844)"/>
</clipPath>
</defs>
</svg>
