<svg width="41" height="41" viewBox="0 0 41 41" fill="none" xmlns="http://www.w3.org/2000/svg">
<g clip-path="url(#clip0_6090_326677)">
<path fill-rule="evenodd" clip-rule="evenodd" d="M33.4377 7.99504C32.961 7.51837 32.2441 7.37578 31.6213 7.63375C30.9985 7.89172 30.5925 8.49944 30.5925 9.17355V10.8401H28.7966C26.2651 10.8401 23.8708 11.9909 22.2894 13.9677L12.9593 25.6303C12.0105 26.8163 10.5739 27.5068 9.05495 27.5068H5.59244C4.67197 27.5068 3.92578 28.253 3.92578 29.1735C3.92578 30.0939 4.67197 30.8401 5.59244 30.8401H9.05495C11.5865 30.8401 13.9808 29.6894 15.5622 27.7126L24.8923 16.05C25.8412 14.8639 27.2777 14.1735 28.7966 14.1735H30.5925V15.8402C30.5925 16.5143 30.9985 17.122 31.6213 17.38C32.2441 17.6379 32.961 17.4953 33.4377 17.0187L36.771 13.6854C37.4219 13.0345 37.4219 11.9792 36.771 11.3283L33.4377 7.99504Z" fill="white"/>
<g opacity="0.5">
<path fill-rule="evenodd" clip-rule="evenodd" d="M28.7966 27.5065C27.2777 27.5065 25.8412 26.816 24.8923 25.6299L15.5622 13.9673C13.9808 11.9905 11.5865 10.8398 9.05495 10.8398H5.59244C4.67197 10.8398 3.92578 11.586 3.92578 12.5065C3.92578 13.4269 4.67197 14.1731 5.59244 14.1731H9.05495C10.5739 14.1731 12.0105 14.8636 12.9593 16.0497L22.2894 27.7123C23.8708 29.6891 26.2651 30.8398 28.7966 30.8398H32.2591C33.1796 30.8398 33.9258 30.0936 33.9258 29.1731C33.9258 28.2527 33.1796 27.5065 32.2591 27.5065H28.7966Z" fill="white"/>
<path d="M35.5912 29.1731L32.2578 25.8398V32.5065L35.5912 29.1731Z" fill="white"/>
<path fill-rule="evenodd" clip-rule="evenodd" d="M31.6225 24.2998C32.2453 24.0418 32.9622 24.1844 33.4389 24.6611L36.7722 27.9944C37.4231 28.6453 37.4231 29.7006 36.7722 30.3514L33.4389 33.6848C32.9622 34.1614 32.2453 34.304 31.6225 34.0461C30.9997 33.7881 30.5938 33.1804 30.5938 32.5063V25.8396C30.5938 25.1655 30.9997 24.5578 31.6225 24.2998Z" fill="white"/>
</g>
</g>
<defs>
<clipPath id="clip0_6090_326677">
<rect width="40" height="40" fill="white" transform="translate(0.59375 0.839844)"/>
</clipPath>
</defs>
</svg>
