<svg width="40" height="41" viewBox="0 0 40 41" fill="none" xmlns="http://www.w3.org/2000/svg">
<g clip-path="url(#clip0_6090_326620)">
<g clip-path="url(#clip1_6090_326620)">
<path opacity="0.5" d="M20 10.3897C21.5 8.94828 23.96 7.50684 26.75 7.50684C31.25 7.50684 35 11.1104 35 16.1554C35 25.6702 24.9963 31.3398 20.7111 33.7684C20.452 33.9152 20.2138 34.0502 20 34.1735V10.3897Z" fill="white"/>
<path d="M20 10.3897C18.5 8.94828 16.04 7.50684 13.25 7.50684C8.75 7.50684 5 11.1104 5 16.1554C5 25.6702 15.0037 31.3398 19.2889 33.7684C19.548 33.9152 19.7862 34.0502 20 34.1735V10.3897Z" fill="white"/>
</g>
</g>
<defs>
<clipPath id="clip0_6090_326620">
<rect width="40" height="40" fill="white" transform="translate(0 0.839844)"/>
</clipPath>
<clipPath id="clip1_6090_326620">
<rect width="40" height="40" fill="white" transform="translate(0 0.839844)"/>
</clipPath>
</defs>
</svg>
