<svg width="41" height="41" viewBox="0 0 41 41" fill="none" xmlns="http://www.w3.org/2000/svg">
<g clip-path="url(#clip0_6090_326600)">
<g clip-path="url(#clip1_6090_326600)">
<path d="M7.61719 15.8401H34.0073C33.2139 11.1106 29.1006 7.50684 24.1456 7.50684H17.4789C12.5239 7.50684 8.41065 11.1106 7.61719 15.8401Z" fill="white"/>
<path d="M34.0073 25.8398H29.9172C29.3795 25.8398 28.8644 26.0563 28.4882 26.4405L25.8122 29.1732L23.0646 26.4256C22.6896 26.0505 22.1808 25.8398 21.6504 25.8398H7.61719C8.41065 30.5693 12.5239 34.1732 17.4789 34.1732H24.1456C29.1006 34.1732 33.2139 30.5693 34.0073 25.8398Z" fill="white"/>
<path opacity="0.5" d="M34.1458 19.1729H7.47917C6.55869 19.1729 5.8125 19.919 5.8125 20.8395C5.8125 21.76 6.55869 22.5062 7.47917 22.5062H34.1458C35.0663 22.5062 35.8125 21.76 35.8125 20.8395C35.8125 19.919 35.0663 19.1729 34.1458 19.1729Z" fill="white"/>
</g>
</g>
<defs>
<clipPath id="clip0_6090_326600">
<rect width="40" height="40" fill="white" transform="translate(0.8125 0.839844)"/>
</clipPath>
<clipPath id="clip1_6090_326600">
<rect width="40" height="40" fill="white" transform="translate(0.8125 0.839844)"/>
</clipPath>
</defs>
</svg>
