<svg width="41" height="41" viewBox="0 0 41 41" fill="none" xmlns="http://www.w3.org/2000/svg">
<g clip-path="url(#clip0_6090_326655)">
<g clip-path="url(#clip1_6090_326655)">
<path d="M20.4062 29.6231L27.3228 33.8064C28.5895 34.5731 30.1395 33.4397 29.8062 32.0064L27.9728 24.1397L34.0895 18.8397C35.2062 17.8731 34.6062 16.0397 33.1395 15.9231L25.0895 15.2397L21.9395 7.80645C21.3728 6.45645 19.4395 6.45645 18.8728 7.80645L15.7228 15.2231L7.6728 15.9064C6.20613 16.0231 5.60613 17.8564 6.7228 18.8231L12.8395 24.1231L11.0062 31.9897C10.6728 33.4231 12.2228 34.5564 13.4895 33.7897L20.4062 29.6231Z" fill="white"/>
</g>
</g>
<defs>
<clipPath id="clip0_6090_326655">
<rect width="40" height="40" fill="white" transform="translate(0.40625 0.839844)"/>
</clipPath>
<clipPath id="clip1_6090_326655">
<rect width="40" height="40" fill="white" transform="translate(0.40625 0.839844)"/>
</clipPath>
</defs>
</svg>
