<svg width="41" height="41" viewBox="0 0 41 41" fill="none" xmlns="http://www.w3.org/2000/svg">
<g clip-path="url(#clip0_6090_326647)">
<path opacity="0.5" d="M20.8125 17.5068C23.5739 17.5068 25.8125 15.2683 25.8125 12.5068C25.8125 9.74541 23.5739 7.50684 20.8125 7.50684C18.0511 7.50684 15.8125 9.74541 15.8125 12.5068C15.8125 15.2683 18.0511 17.5068 20.8125 17.5068Z" fill="white"/>
<path d="M7.48047 29.2877C8.31021 22.4606 11.538 20.8398 20.8138 20.8398C22.5228 20.8398 24.0265 20.8948 25.3477 21.0273L25.455 33.6511C23.9642 33.9926 22.4105 34.1731 20.8138 34.1731C15.7142 34.1731 11.0525 32.3312 7.48047 29.2877Z" fill="white"/>
<path opacity="0.5" d="M33.9968 33.2022C33.3574 33.8643 32.3023 33.8828 31.6402 33.2433C30.978 32.6039 30.9596 31.5488 31.599 30.8867L33.5172 28.9003L28.1137 28.9947C27.1934 29.0107 26.4343 28.2777 26.4182 27.3573C26.4021 26.437 27.1352 25.6779 28.0555 25.6618L33.2917 25.5704L31.4756 23.8167C30.8135 23.1773 30.7951 22.1222 31.4345 21.46C32.0739 20.7979 33.129 20.7795 33.7911 21.4189L38.5867 26.05C39.2489 26.6894 39.2673 27.7445 38.6279 28.4066L33.9968 33.2022Z" fill="white"/>
</g>
<defs>
<clipPath id="clip0_6090_326647">
<rect width="40" height="40" fill="white" transform="translate(0.8125 0.839844)"/>
</clipPath>
</defs>
</svg>
