<svg width="41" height="41" viewBox="0 0 41 41" fill="none" xmlns="http://www.w3.org/2000/svg">
<g clip-path="url(#clip0_6090_326637)">
<g clip-path="url(#clip1_6090_326637)">
<path opacity="0.5" fill-rule="evenodd" clip-rule="evenodd" d="M17.1166 7.78273C18.9221 6.37841 21.4504 6.37841 23.256 7.78273L36.2095 17.8577C36.9361 18.4228 37.067 19.4699 36.5018 20.1965C35.9367 20.9231 34.8896 21.0539 34.163 20.4888L21.2095 10.4139C20.6076 9.9458 19.7649 9.9458 19.163 10.4139L6.20951 20.4888C5.48293 21.0539 4.4358 20.9231 3.87068 20.1965C3.30557 19.4699 3.43646 18.4228 4.16304 17.8577L17.1166 7.78273Z" fill="white"/>
<path fill-rule="evenodd" clip-rule="evenodd" d="M30.5566 35.8401C31.2695 35.8401 31.8528 35.2401 31.8528 34.5066L31.8269 34.492V22.1435C31.8269 21.7301 31.6454 21.3301 31.3343 21.09L20.9642 12.7957C20.4976 12.4103 19.8495 12.4103 19.3828 12.797L9.01272 21.1047C8.70162 21.3447 8.50718 21.7448 8.52014 22.1582V34.5066C8.52014 35.2401 9.09049 35.8401 9.8164 35.8401H16.8528V27.5068H23.5195V35.8401H30.5566Z" fill="white"/>
</g>
</g>
<defs>
<clipPath id="clip0_6090_326637">
<rect width="40" height="40" fill="white" transform="translate(0.1875 0.839844)"/>
</clipPath>
<clipPath id="clip1_6090_326637">
<rect width="40" height="40" fill="white" transform="translate(0.1875 0.839844)"/>
</clipPath>
</defs>
</svg>
