<svg width="41" height="41" viewBox="0 0 41 41" fill="none" xmlns="http://www.w3.org/2000/svg">
<g clip-path="url(#clip0_6090_326687)">
<g clip-path="url(#clip1_6090_326687)">
<path opacity="0.5" d="M11.8555 24.1729V35.7401C11.8555 36.5174 12.7035 36.9975 13.37 36.5976L20.1888 32.5063L27.0077 36.5976C27.6742 36.9975 28.5222 36.5174 28.5222 35.7401V24.1729" fill="white"/>
<path d="M20.1862 4.17285C17.092 4.17285 14.1245 5.40201 11.9366 7.58994C9.74869 9.77786 8.51953 12.7453 8.51953 15.8395C8.51953 18.9337 9.74869 21.9011 11.9366 24.0891C14.1245 26.277 17.092 27.5061 20.1862 27.5061C23.2804 27.5061 26.2478 26.277 28.4358 24.0891C30.6237 21.9011 31.8528 18.9337 31.8528 15.8395C31.8528 12.7453 30.6237 9.77786 28.4358 7.58994C26.2478 5.40201 23.2804 4.17285 20.1862 4.17285Z" fill="white"/>
</g>
</g>
<defs>
<clipPath id="clip0_6090_326687">
<rect width="40" height="40" fill="white" transform="translate(0.1875 0.839844)"/>
</clipPath>
<clipPath id="clip1_6090_326687">
<rect width="40" height="40" fill="white" transform="translate(0.1875 0.839844)"/>
</clipPath>
</defs>
</svg>
