<svg width="14" height="16" viewBox="0 0 14 16" fill="none" xmlns="http://www.w3.org/2000/svg">
<path d="M12.8124 5.47901L5.49042 14.9477C5.15439 15.3777 4.65918 15.6196 4.1286 15.6285L1.21042 15.6644C1.05125 15.6644 0.918602 15.5569 0.88323 15.4046L0.220007 12.529C0.105048 12.0005 0.220007 11.4541 0.55604 11.033L5.74687 4.31446C5.8353 4.20696 5.99447 4.18994 6.10059 4.26967L8.28481 6.00754C8.42629 6.12399 8.62084 6.1867 8.82423 6.15983C9.25753 6.10608 9.54935 5.71192 9.50514 5.29089C9.47861 5.0759 9.37249 4.89673 9.231 4.76236C9.18679 4.72653 7.10869 3.06032 7.10869 3.06032C6.97604 2.95282 6.94951 2.75575 7.05563 2.62227L7.87803 1.55536C8.63852 0.578926 9.96497 0.489345 11.035 1.34037L12.2641 2.3168C12.7682 2.71096 13.1042 3.23053 13.2192 3.77697C13.3518 4.37806 13.2103 4.9684 12.8124 5.47901Z" fill="#777777"/>
</svg>
