<svg width="22" height="22" viewBox="0 0 22 22" fill="none" xmlns="http://www.w3.org/2000/svg">
<path fill-rule="evenodd" clip-rule="evenodd" d="M4.18474 2.75C3.39265 2.75 2.75 3.40346 2.75 4.20787V5.06591C2.75 5.66177 2.97659 6.23478 3.38191 6.66579L7.82384 11.389L7.8258 11.386C8.68332 12.2639 9.1658 13.4506 9.1658 14.688V18.8789C9.1658 19.159 9.4588 19.3377 9.702 19.2056L12.2316 17.8272C12.6135 17.6187 12.8518 17.2135 12.8518 16.7735V14.6771C12.8518 13.4467 13.3274 12.2649 14.1771 11.389L18.6191 6.66579C19.0234 6.23478 19.25 5.66177 19.25 5.06591V4.20787C19.25 3.40346 18.6083 2.75 17.8162 2.75H4.18474Z" stroke="#012635" stroke-width="1.5" stroke-linecap="round" stroke-linejoin="round"/>
</svg>
