<svg width="18" height="18" viewBox="0 0 18 18" fill="none" xmlns="http://www.w3.org/2000/svg">
<path d="M9 17.25C13.5563 17.25 17.25 13.5563 17.25 9C17.25 4.44365 13.5563 0.75 9 0.75C4.44365 0.75 0.75 4.44365 0.75 9C0.75 13.5563 4.44365 17.25 9 17.25Z" stroke="#777777" stroke-width="1.5" stroke-linecap="round" stroke-linejoin="round"/>
<path d="M8.3125 8.3125C8.49484 8.3125 8.6697 8.38493 8.79864 8.51386C8.92757 8.6428 9 8.81766 9 9V12.4375C9 12.6198 9.07243 12.7947 9.20136 12.9236C9.33029 13.0526 9.50516 13.125 9.6875 13.125" stroke="#777777" stroke-width="1.5" stroke-linecap="round" stroke-linejoin="round"/>
<path d="M8.65625 6.25C9.22579 6.25 9.6875 5.78829 9.6875 5.21875C9.6875 4.64921 9.22579 4.1875 8.65625 4.1875C8.08671 4.1875 7.625 4.64921 7.625 5.21875C7.625 5.78829 8.08671 6.25 8.65625 6.25Z" fill="#777777"/>
</svg>
