<svg width="19" height="19" viewBox="0 0 19 19" fill="none" xmlns="http://www.w3.org/2000/svg">
<g clip-path="url(#clip0_4589_183168)">
<path d="M6.98602 15.9454H3.84375C3.69457 15.9454 3.55149 15.8861 3.446 15.7807C3.34051 15.6752 3.28125 15.5321 3.28125 15.3829V12.2406C3.28132 12.0917 3.34049 11.9488 3.44578 11.8434L12.1167 3.17243C12.2222 3.06703 12.3652 3.00781 12.5143 3.00781C12.6635 3.00781 12.8065 3.06703 12.912 3.17243L16.0542 6.31259C16.1596 6.41807 16.2188 6.56109 16.2188 6.71021C16.2188 6.85933 16.1596 7.00235 16.0542 7.10783L7.38328 15.7809C7.27787 15.8862 7.135 15.9453 6.98602 15.9454Z" stroke="#777777" stroke-width="1.25" stroke-linecap="round" stroke-linejoin="round"/>
<path d="M10.0312 5.25781L13.9688 9.19531" stroke="#777777" stroke-width="1.25" stroke-linecap="round" stroke-linejoin="round"/>
</g>
<defs>
<clipPath id="clip0_4589_183168">
<rect width="18" height="18" fill="white" transform="translate(0.46875 0.757812)"/>
</clipPath>
</defs>
</svg>
