<svg width="25" height="24" viewBox="0 0 25 24" fill="none" xmlns="http://www.w3.org/2000/svg">
<path fill-rule="evenodd" clip-rule="evenodd" d="M21.5891 3.44335C21.1585 3.01285 20.5148 2.87975 19.9532 3.11535C18.3189 3.80095 14.894 5.29365 12.7475 6.62265C11.9465 7.11845 11.0755 7.74495 10.2343 8.39215L3.97703 8.69005C3.54343 8.71075 3.34033 9.23625 3.64733 9.54325L6.73713 12.6331C7.12763 13.0236 7.09403 13.6611 6.93903 14.1912C6.74053 14.8699 6.90893 15.6333 7.44423 16.1686L8.85843 17.5828C9.39373 18.1181 10.1571 18.2865 10.8358 18.088C11.3659 17.933 12.0034 17.8994 12.3939 18.2899L15.4837 21.3797C15.7907 21.6867 16.3162 21.4836 16.3369 21.05L16.6359 14.773C17.159 14.0946 17.6675 13.4003 18.1029 12.7453C18.2077 12.5873 18.3085 12.432 18.4043 12.2795C19.7866 10.0748 21.2505 6.68635 21.92 5.06875C22.1512 4.50955 22.0169 3.87115 21.5891 3.44335ZM15.3136 9.89595C16.0947 10.677 17.361 10.677 18.142 9.89595C18.9231 9.11485 18.9231 7.84855 18.142 7.06755C17.361 6.28645 16.0947 6.28645 15.3136 7.06755C14.5326 7.84855 14.5326 9.11485 15.3136 9.89595Z" fill="#012635"/>
<path opacity="0.5" d="M6.27236 16.4092L8.80105 18.9379C8.80105 18.9379 8.25026 20.1631 7.38686 20.3521C6.23156 20.6049 4.70826 20.5019 4.70826 20.5019C4.70826 20.5019 4.60526 18.9787 4.85816 17.8234C5.04716 16.9599 6.27236 16.4092 6.27236 16.4092Z" fill="#012635"/>
</svg>
