<svg width="24" height="24" viewBox="0 0 24 24" fill="none" xmlns="http://www.w3.org/2000/svg">
<path d="M14.25 7.5C14.25 8.74264 13.2426 9.75 12 9.75V11.25C14.0711 11.25 15.75 9.57107 15.75 7.5H14.25ZM12 9.75C10.7574 9.75 9.75 8.74264 9.75 7.5H8.25C8.25 9.57107 9.92893 11.25 12 11.25V9.75ZM9.75 7.5C9.75 6.25736 10.7574 5.25 12 5.25V3.75C9.92893 3.75 8.25 5.42893 8.25 7.5H9.75ZM12 5.25C13.2426 5.25 14.25 6.25736 14.25 7.5H15.75C15.75 5.42893 14.0711 3.75 12 3.75V5.25ZM9 14.25H15V12.75H9V14.25ZM15 18.75H9V20.25H15V18.75ZM9 18.75C7.75736 18.75 6.75 17.7426 6.75 16.5H5.25C5.25 18.5711 6.92893 20.25 9 20.25V18.75ZM17.25 16.5C17.25 17.7426 16.2426 18.75 15 18.75V20.25C17.0711 20.25 18.75 18.5711 18.75 16.5H17.25ZM15 14.25C16.2426 14.25 17.25 15.2574 17.25 16.5H18.75C18.75 14.4289 17.0711 12.75 15 12.75V14.25ZM9 12.75C6.92893 12.75 5.25 14.4289 5.25 16.5H6.75C6.75 15.2574 7.75736 14.25 9 14.25V12.75Z" fill="#012635"/>
</svg>
