<svg width="24" height="24" viewBox="0 0 24 24" fill="none" xmlns="http://www.w3.org/2000/svg">
<path d="M12 12C13.1046 12 14 11.1046 14 10C14 8.89543 13.1046 8 12 8C10.8954 8 10 8.89543 10 10C10 11.1046 10.8954 12 12 12Z" fill="#00BD82"/>
<path d="M12.0002 13C10.2002 13 8.7002 13.6 8.2002 15H15.8002C15.3002 13.6 13.8002 13 12.0002 13Z" fill="#00BD82"/>
<path d="M20 18C19.8 18 19.7 18 19.5 18.1L18.3 16.9C19.3 15.6 20 13.9 20 12C20 10.2 19.4 8.5 18.3 7.1L19.5 5.9C19.7 6 19.8 6 20 6C21.1 6 22 5.1 22 4C22 2.9 21.1 2 20 2C18.9 2 18 2.9 18 4C18 4.2 18 4.4 18.1 4.5L16.9 5.7C15.5 4.7 13.8 4 12 4C10.1 4 8.4 4.6 7.1 5.7L5.9 4.5C6 4.3 6 4.2 6 4C6 2.9 5.1 2 4 2C2.9 2 2 2.9 2 4C2 5.1 2.9 6 4 6C4.2 6 4.3 6 4.5 5.9L5.7 7.1C4.6 8.5 4 10.2 4 12C4 13.8 4.6 15.5 5.7 16.9L4.5 18.1C4.3 18 4.2 18 4 18C2.9 18 2 18.9 2 20C2 21.1 2.9 22 4 22C5.1 22 6 21.1 6 20C6 19.8 6 19.6 5.9 19.5L7.1 18.3C8.4 19.4 10.1 20 12 20C13.9 20 15.6 19.4 16.9 18.3L18.1 19.5C18.1 19.7 18 19.8 18 20C18 21.1 18.9 22 20 22C21.1 22 22 21.1 22 20C22 18.9 21.1 18 20 18ZM12 18C8.7 18 6 15.3 6 12C6 8.7 8.7 6 12 6C15.3 6 18 8.7 18 12C18 15.3 15.3 18 12 18Z" fill="#00BD82"/>
</svg>
