<svg width="24" height="24" viewBox="0 0 24 24" fill="none" xmlns="http://www.w3.org/2000/svg">
<path d="M4.40613 7.47231L4.0555 11.3291C4.00357 11.9002 3.97738 12.1882 4.02492 12.4616C4.0674 12.7059 4.15223 12.9409 4.27598 13.1558C4.41501 13.3971 4.62051 13.6026 5.02918 14.0113L10.5079 19.4898C11.3411 20.3229 11.7579 20.7397 12.2398 20.8962C12.665 21.0344 13.1238 21.0347 13.549 20.8965C14.0324 20.7395 14.4525 20.3199 15.2909 19.4815L19.4827 15.2899C20.3212 14.4515 20.7397 14.0325 20.8968 13.5491C21.035 13.1239 21.0341 12.6657 20.896 12.2405C20.7389 11.7571 20.321 11.3381 19.4825 10.4997L14.0173 5.03477C13.6049 4.6224 13.3987 4.41619 13.1562 4.27653C12.9413 4.15278 12.7063 4.0676 12.462 4.02512C12.1863 3.97719 11.8957 4.00354 11.3149 4.05634L7.47243 4.40564C6.47231 4.49656 5.97194 4.54222 5.58061 4.75982C5.23559 4.95167 4.95116 5.23609 4.75929 5.5811C4.54276 5.97046 4.4976 6.46726 4.40759 7.45738L4.40613 7.47231Z" stroke="#00BD82" stroke-width="1.5" stroke-linecap="round" stroke-linejoin="round"/>
<path d="M9.66171 9.66132C10.0751 9.24793 10.0751 8.5777 9.66171 8.16432C9.2483 7.75093 8.57756 7.75093 8.16415 8.16432C7.75075 8.5777 7.75035 9.24777 8.16375 9.66116C8.57716 10.0745 9.2483 10.0747 9.66171 9.66132Z" stroke="#00BD82" stroke-width="1.5" stroke-linecap="round" stroke-linejoin="round"/>
</svg>
