<svg width="24" height="24" viewBox="0 0 24 24" fill="none" xmlns="http://www.w3.org/2000/svg">
<path d="M3.36979 21.1365C3.24842 21.2386 3.10042 21.3039 2.94319 21.3248C2.78596 21.3457 2.62603 21.3213 2.48219 21.2545C2.33834 21.1877 2.21656 21.0812 2.13115 20.9475C2.04573 20.8139 2.00024 20.6586 2 20.5V3.83333C2 3.61232 2.0878 3.40036 2.24408 3.24408C2.40036 3.0878 2.61232 3 2.83333 3H21.1667C21.3877 3 21.5996 3.0878 21.7559 3.24408C21.9122 3.40036 22 3.61232 22 3.83333V17.1667C22 17.3877 21.9122 17.5996 21.7559 17.7559C21.5996 17.9122 21.3877 18 21.1667 18H7L3.36979 21.1365Z" stroke="#00BD82" stroke-width="1.5" stroke-linecap="round" stroke-linejoin="round"/>
<path d="M8.66699 8.83325H15.3337" stroke="#00BD82" stroke-width="1.5" stroke-linecap="round" stroke-linejoin="round"/>
<path d="M8.66699 12.1665H15.3337" stroke="#00BD82" stroke-width="1.5" stroke-linecap="round" stroke-linejoin="round"/>
</svg>
