<svg width="24" height="24" viewBox="0 0 24 24" fill="none" xmlns="http://www.w3.org/2000/svg">
<path d="M2.85938 5.69757C2.85938 4.63288 2.85938 4.10053 3.03331 3.68061C3.26523 3.12071 3.71007 2.67587 4.26996 2.44396C4.68989 2.27002 5.22223 2.27002 6.28693 2.27002C7.35162 2.27002 19.3091 2.27002 19.7291 2.44396C20.289 2.67587 20.7338 3.12071 20.9657 3.68061C21.1396 4.10053 21.1396 4.63288 21.1396 5.69757C21.1396 6.76226 21.1396 7.29461 20.9657 7.71453C20.7338 8.27443 20.289 8.71927 19.7291 8.95118C19.3091 9.12512 7.35162 9.12512 6.28693 9.12512C5.22223 9.12512 4.68989 9.12512 4.26996 8.95118C3.71007 8.71927 3.26523 8.27443 3.03331 7.71453C2.85938 7.29461 2.85938 6.76226 2.85938 5.69757Z" stroke="#00BD82" stroke-width="1.5"/>
<path d="M2.85938 15.297C2.85938 14.2323 2.85938 13.6999 3.03331 13.28C3.26523 12.7201 3.71007 12.2753 4.26996 12.0434C4.68989 11.8694 5.22223 11.8694 6.28693 11.8694C7.35162 11.8694 8.428 11.8694 8.84793 12.0434C9.40783 12.2753 9.85266 12.7201 10.0846 13.28C10.2585 13.6999 10.2585 14.2323 10.2585 15.297C10.2585 16.3617 10.2585 19.8999 10.0846 20.3198C9.85266 20.8797 9.40783 21.3246 8.84793 21.5565C8.428 21.7304 7.35162 21.7304 6.28693 21.7304C5.22223 21.7304 4.68989 21.7304 4.26996 21.5565C3.71007 21.3246 3.26523 20.8797 3.03331 20.3198C2.85938 19.8999 2.85938 16.3617 2.85938 15.297Z" stroke="#00BD82" stroke-width="1.5"/>
<path d="M13.4758 15.297C13.4758 14.2323 13.4758 13.6999 13.6498 13.28C13.8817 12.7201 14.3265 12.2753 14.8864 12.0434C15.3064 11.8694 16.6474 11.8694 17.7121 11.8694C18.7768 11.8694 19.3091 11.8694 19.7291 12.0434C20.289 12.2753 20.7338 12.7201 20.9657 13.28C21.1396 13.6999 21.1396 14.2323 21.1396 15.297C21.1396 16.3617 21.1396 19.8999 20.9657 20.3198C20.7338 20.8797 20.289 21.3246 19.7291 21.5565C19.3091 21.7304 18.7768 21.7304 17.7121 21.7304C16.6474 21.7304 15.3064 21.7304 14.8864 21.5565C14.3265 21.3246 13.8817 20.8797 13.6498 20.3198C13.4758 19.8999 13.4758 16.3617 13.4758 15.297Z" stroke="#00BD82" stroke-width="1.5"/>
</svg>
