<svg width="186" height="48" viewBox="0 0 186 48" fill="none" xmlns="http://www.w3.org/2000/svg">
<path fill-rule="evenodd" clip-rule="evenodd" d="M5.8521 0H39.6326C42.4542 0 44.7416 2.21699 44.7416 4.95191V27.7914C44.7416 30.5263 42.4542 32.7433 39.6326 32.7433H5.8521C3.03052 32.7433 0.743164 30.5263 0.743164 27.7914V4.95191C0.743436 2.21699 3.03079 0 5.8521 0Z" fill="white"/>
<path d="M15.8299 18.0284C15.8299 12.9818 15.8299 0.0196554 15.8299 0.0196554H5.85179C2.91396 1.83098e-05 0.741211 2.24956 0.741211 5.04907V27.8888C0.741211 30.371 2.62608 32.4266 5.08482 32.7849H8.7095V32.8405V48L19.7188 32.8405C19.7188 32.8405 24.1672 26.7151 26.8682 22.9957C26.9503 22.8835 27.0456 22.7821 27.1086 22.6651C27.9204 21.1521 27.4353 20.2099 25.909 20.2099C25.7973 20.2099 25.6838 20.2099 25.5687 20.2099C23.2536 20.2099 20.2281 20.2099 18.1963 20.2099C16.3777 20.2097 15.8299 19.5713 15.8299 18.0284Z" fill="#E0E0E0"/>
<path d="M181.864 24.0753L182.097 28.0616C181.495 28.3523 180.725 28.4977 179.79 28.4977C177.919 28.4977 176.407 27.9371 175.253 26.8159C174.11 25.6844 173.538 24.122 173.538 22.1289V16.8657H170.623V12.5835H173.538V8.47266H178.044V12.5835H181.895V16.8657H178.044V21.8953C178.044 22.6116 178.278 23.1929 178.746 23.6393C179.213 24.0753 179.785 24.2933 180.46 24.2933C180.98 24.2933 181.448 24.2207 181.864 24.0753Z" fill="white"/>
<path d="M163.639 28.5598C160.791 28.5598 158.447 27.9058 156.607 26.5978L157.948 23.4679C159.424 24.5683 161.191 25.1185 163.249 25.1185C163.945 25.1185 164.501 24.9991 164.917 24.7603C165.343 24.5216 165.556 24.2153 165.556 23.8416C165.556 23.5198 165.395 23.2551 165.073 23.0475C164.761 22.8295 164.356 22.6582 163.857 22.5336C163.358 22.409 162.807 22.2845 162.204 22.1599C161.601 22.0249 160.999 21.8537 160.396 21.646C159.793 21.428 159.242 21.1633 158.743 20.8519C158.244 20.5301 157.834 20.0837 157.512 19.5127C157.2 18.9314 157.039 18.2514 157.028 17.4729C157.008 15.9988 157.59 14.7634 158.774 13.7668C159.959 12.7703 161.472 12.272 163.311 12.272C165.795 12.272 167.786 12.8689 169.282 14.0627L168.004 17.3171C167.38 16.85 166.616 16.4607 165.712 16.1493C164.818 15.8379 163.956 15.6821 163.124 15.6821C162.552 15.6821 162.09 15.8015 161.737 16.0403C161.383 16.279 161.207 16.5749 161.207 16.9279C161.207 17.1978 161.331 17.4365 161.581 17.6442C161.83 17.8414 162.152 18.0023 162.547 18.1269C162.953 18.2514 163.41 18.3916 163.919 18.5473C164.439 18.6926 164.964 18.838 165.494 18.9833C166.024 19.1286 166.544 19.3311 167.053 19.5906C167.572 19.8501 168.035 20.146 168.44 20.4782C168.846 20.8 169.173 21.2256 169.423 21.755C169.682 22.2845 169.817 22.8866 169.828 23.5613C169.828 25.0147 169.246 26.2137 168.082 27.1584C166.928 28.0927 165.447 28.5598 163.639 28.5598Z" fill="white"/>
<path d="M149.794 12.5834H154.299V28.2484H149.794V26.0216C148.651 27.7137 146.988 28.5598 144.805 28.5598C143.475 28.5598 142.248 28.1965 141.126 27.4698C140.014 26.7327 139.135 25.7414 138.491 24.4956C137.847 23.2395 137.524 21.8744 137.524 20.4003C137.524 18.9262 137.847 17.5663 138.491 16.3206C139.135 15.0645 140.014 14.0783 141.126 13.362C142.248 12.6353 143.475 12.272 144.805 12.272C146.988 12.272 148.651 13.1232 149.794 14.8257V12.5834ZM145.865 24.2621C146.967 24.2621 147.897 23.8935 148.656 23.1565C149.414 22.409 149.794 21.4903 149.794 20.4003C149.794 19.3207 149.414 18.4072 148.656 17.6597C147.897 16.9123 146.967 16.5386 145.865 16.5386C144.784 16.5386 143.859 16.9175 143.09 17.6753C142.321 18.4227 141.936 19.3311 141.936 20.4003C141.936 21.4799 142.316 22.3935 143.075 23.1409C143.844 23.8883 144.774 24.2621 145.865 24.2621Z" fill="white"/>
<path d="M135.156 5.91895V28.2485H130.65V5.91895H135.156Z" fill="white"/>
<path d="M111.956 28.2485V5.91895H120.344C122.266 5.91895 123.909 6.50547 125.27 7.67853C126.632 8.8412 127.312 10.2323 127.312 11.8517C127.312 12.8587 127.016 13.8033 126.424 14.6857C125.842 15.5577 125.104 16.1443 124.21 16.4453C125.405 16.6841 126.387 17.3069 127.156 18.3139C127.936 19.3208 128.326 20.5043 128.326 21.8642C128.326 23.6497 127.64 25.1602 126.268 26.3955C124.896 27.6309 123.243 28.2485 121.31 28.2485H111.956ZM116.68 14.9193H120.125C120.79 14.9193 121.352 14.7013 121.809 14.2653C122.277 13.8189 122.511 13.2843 122.511 12.6614C122.511 12.0386 122.282 11.5143 121.825 11.0887C121.367 10.6631 120.801 10.4503 120.125 10.4503H116.68V14.9193ZM116.68 23.7172H120.889C121.617 23.7172 122.235 23.4681 122.744 22.9698C123.254 22.4611 123.508 21.8486 123.508 21.1323C123.508 20.416 123.254 19.8036 122.744 19.2949C122.246 18.7758 121.648 18.5163 120.952 18.5163H116.68V23.7172Z" fill="white"/>
<path d="M109.12 24.0753L109.354 28.0616C108.751 28.3523 107.982 28.4977 107.047 28.4977C105.176 28.4977 103.664 27.9371 102.51 26.8159C101.367 25.6844 100.795 24.122 100.795 22.1289V16.8657H97.8799V12.5835H100.795V8.47266H105.301V12.5835H109.152V16.8657H105.301V21.8953C105.301 22.6116 105.535 23.1929 106.002 23.6393C106.47 24.0753 107.042 24.2933 107.717 24.2933C108.237 24.2933 108.705 24.2207 109.12 24.0753Z" fill="white"/>
<path d="M91.7999 5.80972C92.3404 5.26991 92.9848 5 93.7331 5C94.4814 5 95.1258 5.26991 95.6663 5.80972C96.2068 6.33915 96.477 6.97239 96.477 7.70945C96.477 8.45688 96.2068 9.1005 95.6663 9.64032C95.1258 10.1801 94.4814 10.45 93.7331 10.45C92.9848 10.45 92.3404 10.1801 91.7999 9.64032C91.2595 9.1005 90.9893 8.45688 90.9893 7.70945C90.9893 6.97239 91.2595 6.33915 91.7999 5.80972ZM91.4881 12.5833H95.9937V28.2483H91.4881V12.5833Z" fill="white"/>
<path d="M88.9776 19.7307C88.9776 20.364 88.936 20.9505 88.8528 21.4903H77.5812C77.789 22.5492 78.2411 23.3589 78.9375 23.9195C79.6339 24.4697 80.5225 24.7448 81.6034 24.7448C82.3102 24.7448 82.9858 24.5942 83.6301 24.2932C84.2849 23.9921 84.7474 23.6081 85.0177 23.1409L88.5255 25.2898C87.9538 26.3279 87.0496 27.1324 85.8128 27.7034C84.5759 28.2743 83.1417 28.5598 81.5099 28.5598C79.2025 28.5598 77.2486 27.7708 75.648 26.1929C74.0578 24.6046 73.2627 22.653 73.2627 20.338C73.2627 18.0646 74.0474 16.1545 75.6168 14.6077C77.1966 13.0505 79.1298 12.272 81.4163 12.272C83.5366 12.272 85.3243 12.9935 86.7794 14.4364C88.2448 15.8794 88.9776 17.6442 88.9776 19.7307ZM77.6435 18.6252H84.472C84.3785 17.8466 84.0147 17.1978 83.3807 16.6787C82.7467 16.1597 82.014 15.9001 81.1825 15.9001C80.2471 15.9001 79.478 16.1389 78.8751 16.6164C78.2723 17.094 77.8618 17.7635 77.6435 18.6252Z" fill="white"/>
<path d="M55.3804 5.91895H71.9527V9.11111L61.1955 23.7172H72.0463V28.2485H54.7412V25.0564L65.5296 10.4503H55.3804V5.91895Z" fill="white"/>
</svg>
