<svg width="121" height="26" viewBox="0 0 121 26" fill="none" xmlns="http://www.w3.org/2000/svg">
<g clip-path="url(#clip0_4196_73211)">
<path d="M21.8779 2.24561L15.154 4.76402L0.916992 10.0947L11.151 13.5597L15.154 23.5935L21.8779 2.24561Z" fill="#9FADBC"/>
<path d="M33.5307 18.637C33.4526 18.715 33.3225 18.8125 33.1406 18.9295C32.9584 19.0466 32.7213 19.1635 32.4288 19.2806C32.1363 19.3974 31.7785 19.4981 31.3563 19.5829C30.9336 19.6672 30.4496 19.7095 29.9035 19.7095C28.8504 19.7095 27.9403 19.5405 27.1734 19.2026C26.4061 18.8648 25.7725 18.3931 25.272 17.7888C24.7715 17.1842 24.4043 16.4694 24.1704 15.6436C23.9363 14.8182 23.8193 13.9115 23.8193 12.9233C23.8193 11.9355 23.9461 11.022 24.1997 10.1835C24.4531 9.34495 24.8333 8.62046 25.3403 8.00915C25.8473 7.39828 26.4811 6.92044 27.2417 6.57582C28.0022 6.23159 28.8958 6.05908 29.923 6.05908C30.4301 6.05908 30.8883 6.10473 31.2979 6.19556C31.7073 6.2866 32.0648 6.39395 32.3704 6.51734C32.6757 6.64105 32.9293 6.77079 33.1309 6.90735C33.3323 7.04383 33.4851 7.15787 33.5893 7.24857C33.7062 7.35284 33.8069 7.47622 33.8915 7.61907C33.976 7.7623 34.0182 7.9183 34.0182 8.08715C34.0182 8.34735 33.9208 8.60723 33.7257 8.86718C33.5307 9.12737 33.3161 9.36787 33.0821 9.58871C32.9261 9.43271 32.7507 9.27369 32.5557 9.111C32.3606 8.94852 32.1429 8.80567 31.9024 8.68196C31.6617 8.55857 31.3886 8.45463 31.0833 8.36995C30.7777 8.28553 30.4365 8.24315 30.0597 8.24315C29.3966 8.24315 28.8408 8.37663 28.3923 8.64292C27.9438 8.90955 27.583 9.25718 27.3101 9.68623C27.0371 10.1153 26.8421 10.6061 26.7249 11.1585C26.608 11.7112 26.5494 12.2734 26.5494 12.8454C26.5494 13.4566 26.608 14.0415 26.7249 14.6003C26.8419 15.1594 27.0433 15.6535 27.3296 16.0824C27.6153 16.5114 27.9891 16.856 28.4507 17.1158C28.912 17.3762 29.4873 17.5059 30.1766 17.5059C30.5403 17.5059 30.8753 17.4605 31.1809 17.3695C31.4861 17.2786 31.7561 17.168 31.9901 17.0378C32.2241 16.9082 32.4289 16.7717 32.6043 16.6285C32.7798 16.4855 32.9261 16.3622 33.0432 16.2579C33.1211 16.3491 33.212 16.4597 33.3161 16.5895C33.4209 16.7206 33.5185 16.8575 33.6086 16.9991C33.6995 17.1423 33.7774 17.2851 33.8427 17.4278C33.9075 17.5712 33.9401 17.701 33.9401 17.8178C33.9401 17.9871 33.9075 18.1299 33.8427 18.2469C33.7774 18.364 33.6734 18.4941 33.5307 18.637ZM43.5801 17.1414C43.5801 18.1747 43.7304 18.9267 44.0313 19.3976C43.796 19.489 43.5768 19.5544 43.3741 19.5936C43.1712 19.633 42.9589 19.6525 42.7365 19.6525C42.2657 19.6525 41.9093 19.561 41.6673 19.3779C41.4253 19.1949 41.2717 18.9333 41.2064 18.5931C40.9185 18.8942 40.5393 19.1491 40.0685 19.3584C39.5977 19.5674 39.0221 19.6723 38.3421 19.6723C37.9889 19.6723 37.6358 19.6232 37.2827 19.5258C36.9296 19.4275 36.6089 19.2682 36.3214 19.0467C36.0336 18.825 35.7982 18.5283 35.6152 18.1568C35.4318 17.7851 35.3405 17.3322 35.3405 16.7978C35.3405 16.1329 35.5005 15.5916 35.8211 15.1746C36.1416 14.7572 36.5437 14.4281 37.0277 14.1869C37.5115 13.9459 38.0347 13.78 38.5973 13.6885C39.1593 13.5971 39.6761 13.5386 40.147 13.5122C40.304 13.4993 40.4576 13.4926 40.608 13.4926H41.0297V13.1355C41.0297 12.6328 40.8955 12.2756 40.6277 12.0642C40.3593 11.8526 39.9245 11.7466 39.323 11.7466C38.7605 11.7466 38.2603 11.8382 37.8222 12.0212C37.3838 12.2045 36.9557 12.4136 36.5373 12.649C36.3539 12.4267 36.2067 12.1816 36.0958 11.9133C35.9846 11.6455 35.9291 11.4459 35.9291 11.315C35.9291 11.132 36.0302 10.9554 36.2331 10.7853C36.4358 10.6155 36.7137 10.4616 37.067 10.3243C37.4201 10.1869 37.8254 10.076 38.2833 9.99078C38.7409 9.90583 39.2249 9.86326 39.735 9.86326C40.4413 9.86326 41.0397 9.93531 41.5301 10.0791C42.0205 10.2231 42.4193 10.4454 42.7269 10.746C43.0339 11.0471 43.2531 11.4229 43.384 11.8741C43.5145 12.3254 43.5801 12.852 43.5801 13.4533V17.1414ZM41.0689 14.8658H40.7944C40.7025 14.8658 40.611 14.8726 40.5197 14.8855C40.1926 14.9118 39.8688 14.951 39.5486 15.003C39.228 15.0555 38.9435 15.1471 38.6952 15.2778C38.4467 15.4087 38.244 15.5788 38.087 15.7878C37.9301 15.9972 37.8517 16.2654 37.8517 16.5923C37.8517 16.9584 37.9561 17.269 38.1654 17.524C38.3745 17.7791 38.7277 17.9066 39.2249 17.9066C39.4731 17.9066 39.7086 17.8741 39.9312 17.8083C40.1534 17.7432 40.3496 17.6583 40.5197 17.5536C40.6896 17.449 40.8238 17.3346 40.9219 17.2101C41.02 17.0859 41.0689 16.9717 41.0689 16.8669V14.8658ZM48.4648 11.001C48.6733 10.7527 48.9993 10.5008 49.4425 10.2457C49.8859 9.99065 50.4464 9.86313 51.1245 9.86313C51.607 9.86313 52.0665 9.94494 52.5035 10.1083C52.94 10.272 53.328 10.5369 53.667 10.9029C54.0061 11.2692 54.2765 11.7532 54.4787 12.3546C54.6808 12.9564 54.7819 13.6955 54.7819 14.5715C54.7819 15.5916 54.6645 16.4321 54.4297 17.0925C54.195 17.7531 53.892 18.2763 53.5206 18.6619C53.1491 19.0479 52.7349 19.3192 52.2787 19.476C51.8224 19.633 51.3659 19.7115 50.9097 19.7115C50.5317 19.7115 50.2022 19.669 49.9222 19.584C49.6417 19.4989 49.4038 19.4043 49.2083 19.2995C49.0126 19.1951 48.8629 19.0906 48.7585 18.9856C48.6544 18.8811 48.5891 18.809 48.563 18.7698V23.5923H45.8949V10.1377C45.9606 10.1249 46.0397 10.1117 46.1321 10.0986C46.2113 10.0857 46.3035 10.0759 46.4089 10.0691C46.5144 10.0627 46.6395 10.0594 46.7845 10.0594C47.2192 10.0594 47.5881 10.1314 47.8913 10.2751C48.1944 10.4192 48.3857 10.661 48.4648 11.001ZM51.9961 14.6303C51.9961 14.2379 51.9635 13.872 51.8985 13.5317C51.8336 13.1918 51.7264 12.8975 51.5768 12.649C51.4272 12.4006 51.2254 12.2075 50.9718 12.0701C50.7181 11.9328 50.4094 11.8643 50.0454 11.8643C49.4993 11.8643 49.119 11.9691 48.9043 12.1781C48.6897 12.3874 48.5825 12.6165 48.5825 12.8648V17.0238C48.6864 17.1286 48.8715 17.2526 49.1382 17.3965C49.4049 17.5406 49.7136 17.6122 50.0648 17.6122C50.7281 17.6122 51.2158 17.3509 51.528 16.8277C51.8401 16.3046 51.9961 15.572 51.9961 14.6303ZM56.8411 18.0048C56.7494 17.7432 56.6907 17.4685 56.6646 17.1806C56.6382 16.8931 56.6254 16.6055 56.6254 16.3174V7.21465C56.7168 7.2018 56.8149 7.18865 56.9197 7.17542C57.0109 7.16257 57.1089 7.15283 57.2137 7.14601C57.3184 7.13959 57.4229 7.13625 57.5277 7.13625C57.7368 7.13625 57.9462 7.1559 58.1555 7.19507C58.3645 7.23436 58.5542 7.31283 58.7246 7.43044C58.8944 7.54814 59.0317 7.70852 59.1365 7.9111C59.2409 8.11399 59.2934 8.37892 59.2934 8.70559V10.0984H62.04V12.08H59.2934V16.2635C59.2934 17.1758 59.6661 17.6319 60.4117 17.6319C60.5947 17.6319 60.7678 17.6026 60.9315 17.5435C61.095 17.4848 61.2421 17.4195 61.3729 17.3475C61.5037 17.2755 61.6182 17.2005 61.7163 17.1219C61.8144 17.0434 61.883 16.9846 61.9222 16.9454C62.1184 17.2333 62.2686 17.4826 62.3734 17.6928C62.4779 17.9034 62.5304 18.101 62.5304 18.2856C62.5304 18.4573 62.4619 18.6258 62.3245 18.7907C62.1869 18.9557 61.9939 19.1077 61.7456 19.2463C61.4971 19.3848 61.1965 19.497 60.8432 19.5827C60.4901 19.6686 60.1041 19.7117 59.6857 19.7117C58.8745 19.7117 58.2437 19.5546 57.7925 19.2408C57.3413 18.9267 57.024 18.5147 56.8411 18.0048ZM68.7974 17.7496C69.1254 17.7496 69.4141 17.7138 69.6637 17.6418C69.9129 17.5701 70.136 17.4818 70.3329 17.377C70.5296 17.2725 70.7005 17.1581 70.8449 17.0338C70.9891 16.9096 71.1203 16.7952 71.2387 16.6902C71.396 16.8864 71.56 17.1384 71.7307 17.4454C71.9013 17.7531 71.9867 18.0048 71.9867 18.2008C71.9867 18.4887 71.823 18.7502 71.4963 18.9856C71.2216 19.1951 70.8323 19.3749 70.3291 19.525C69.8253 19.6754 69.2334 19.7507 68.5536 19.7507C67.9385 19.7507 67.3337 19.6723 66.7389 19.5152C66.1437 19.3584 65.6139 19.0837 65.1499 18.6912C64.6854 18.2991 64.3093 17.7726 64.0216 17.1122C63.7339 16.4517 63.5901 15.6181 63.5901 14.6107C63.5901 13.7867 63.7177 13.0775 63.9725 12.4822C64.2277 11.8872 64.5677 11.3935 64.9929 11.0011C65.4177 10.6087 65.8984 10.3212 66.4347 10.1378C66.9709 9.95489 67.5203 9.86319 68.0827 9.86319C68.8152 9.86319 69.4363 9.97787 69.9464 10.2065C70.4566 10.4355 70.8715 10.7429 71.1921 11.1286C71.5125 11.5144 71.7446 11.9558 71.8886 12.4528C72.0323 12.95 72.1043 13.4729 72.1043 14.0222V14.2968C72.1043 14.4018 72.1011 14.5126 72.0945 14.6303C72.0878 14.7482 72.0814 14.8628 72.075 14.9736C72.0681 15.085 72.0584 15.1732 72.0457 15.2386H66.2582C66.3107 15.9579 66.5337 16.5562 66.9273 17.0338C67.3208 17.5112 67.9443 17.7496 68.7974 17.7496ZM69.6913 13.7671C69.6913 13.1394 69.5696 12.6293 69.3262 12.2369C69.0829 11.8446 68.6453 11.6483 68.0142 11.6483C67.4747 11.6483 67.044 11.8348 66.7217 12.2075C66.3993 12.5803 66.2385 13.1001 66.2385 13.767L69.6913 13.7671ZM76.7475 11.0506C76.8257 10.9339 76.9304 10.8042 77.0613 10.6613C77.1918 10.5185 77.3521 10.3888 77.5419 10.2721C77.7315 10.1553 77.9408 10.0578 78.1697 9.97996C78.3984 9.90209 78.6437 9.86319 78.9056 9.86319C79.0624 9.86319 79.2293 9.87636 79.4057 9.90211C79.5822 9.92817 79.7456 9.97689 79.896 10.048C80.0464 10.1195 80.1675 10.2166 80.259 10.3399C80.3504 10.4631 80.3965 10.6155 80.3965 10.7969C80.3965 11.0823 80.3243 11.41 80.1806 11.78C80.0365 12.1503 79.8929 12.466 79.7491 12.7275C79.5265 12.5444 79.3041 12.4038 79.0819 12.3057C78.8595 12.2077 78.5979 12.1585 78.2973 12.1585C77.8918 12.1585 77.5518 12.2766 77.2773 12.5126C77.0024 12.7486 76.8651 13.0306 76.8651 13.3586V19.7095H74.1971V10.1377C74.2624 10.1249 74.3408 10.1117 74.4325 10.0986C74.5109 10.0857 74.6024 10.0759 74.7072 10.0691C74.8117 10.0627 74.9358 10.0594 75.0798 10.0594C75.4982 10.0594 75.8613 10.1405 76.1686 10.3025C76.4758 10.4642 76.6689 10.7138 76.7475 11.0506ZM84.3331 11.0506C84.4115 10.9339 84.5161 10.8042 84.647 10.6613C84.7776 10.5185 84.9379 10.3888 85.1277 10.2721C85.3171 10.1553 85.5264 10.0578 85.7553 9.97996C85.9841 9.90209 86.2293 9.86319 86.491 9.86319C86.648 9.86319 86.8147 9.87636 86.9913 9.90211C87.1678 9.92817 87.3312 9.97689 87.4817 10.048C87.632 10.1195 87.7529 10.2166 87.8448 10.3399C87.9361 10.4631 87.9821 10.6155 87.9821 10.7969C87.9821 11.0823 87.9099 11.41 87.7664 11.78C87.6221 12.1503 87.4784 12.466 87.3347 12.7275C87.1123 12.5444 86.8897 12.4038 86.6677 12.3057C86.4453 12.2077 86.1837 12.1585 85.8829 12.1585C85.4774 12.1585 85.1374 12.2766 84.8629 12.5126C84.5881 12.7486 84.4509 13.0306 84.4509 13.3586V19.7095H81.7829V10.1377C81.8481 10.1249 81.9265 10.1117 82.0182 10.0986C82.0966 10.0857 82.1881 10.0759 82.2928 10.0691C82.3974 10.0627 82.5214 10.0594 82.6654 10.0594C83.0841 10.0594 83.447 10.1405 83.7542 10.3025C84.0614 10.4642 84.2545 10.7138 84.3331 11.0506ZM97.0654 17.1414C97.0654 18.1747 97.2157 18.9267 97.5166 19.3976C97.2813 19.489 97.0621 19.5544 96.8595 19.5936C96.6566 19.633 96.4442 19.6525 96.2219 19.6525C95.7509 19.6525 95.3945 19.561 95.1528 19.3779C94.9105 19.1949 94.7569 18.9333 94.6917 18.5931C94.4038 18.8942 94.0246 19.1491 93.5537 19.3584C93.083 19.5674 92.5072 19.6723 91.8275 19.6723C91.4742 19.6723 91.1213 19.6232 90.768 19.5258C90.4149 19.4275 90.0942 19.2682 89.8067 19.0467C89.5189 18.825 89.2835 18.5283 89.1005 18.1568C88.9171 17.7851 88.8259 17.3322 88.8259 16.7978C88.8259 16.1329 88.9857 15.5916 89.3065 15.1746C89.6269 14.7572 90.0291 14.4281 90.5131 14.1869C90.9968 13.9459 91.5198 13.78 92.0825 13.6885C92.6446 13.5971 93.1614 13.5386 93.6323 13.5122C93.7893 13.4993 93.9429 13.4926 94.0934 13.4926H94.5152V13.1355C94.5152 12.6328 94.3808 12.2756 94.1129 12.0642C93.8446 11.8526 93.4097 11.7466 92.8083 11.7466C92.2459 11.7466 91.7456 11.8382 91.3075 12.0212C90.8693 12.2045 90.4409 12.4136 90.0225 12.649C89.8393 12.4267 89.692 12.1816 89.5811 11.9133C89.4699 11.6455 89.4144 11.4459 89.4144 11.315C89.4144 11.132 89.5155 10.9554 89.7185 10.7853C89.9211 10.6155 90.1992 10.4616 90.5521 10.3243C90.9054 10.1869 91.3107 10.076 91.7685 9.99078C92.2262 9.90583 92.7102 9.86326 93.2203 9.86326C93.9265 9.86326 94.5249 9.93531 95.0154 10.0791C95.5057 10.2231 95.9046 10.4454 96.212 10.746C96.5192 11.0471 96.7382 11.4229 96.8693 11.8741C96.9998 12.3254 97.0654 12.852 97.0654 13.4533V17.1414ZM94.5542 14.8658H94.2797C94.188 14.8658 94.0963 14.8726 94.0049 14.8855C93.6781 14.9118 93.3541 14.951 93.0339 15.003C92.7133 15.0555 92.4288 15.1471 92.1805 15.2778C91.932 15.4087 91.7293 15.5788 91.5723 15.7878C91.4153 15.9972 91.3369 16.2654 91.3369 16.5923C91.3369 16.9584 91.4414 17.269 91.6509 17.524C91.8598 17.7791 92.2131 17.9066 92.7102 17.9066C92.9585 17.9066 93.1941 17.8741 93.4165 17.8083C93.6387 17.7432 93.8349 17.6583 94.0049 17.5536C94.1747 17.449 94.3091 17.3346 94.4072 17.2101C94.5053 17.0859 94.5544 16.9717 94.5544 16.8669L94.5542 14.8658Z" fill="#9FADBC"/>
</g>
<defs>
<clipPath id="clip0_4196_73211">
<rect width="120" height="24.8" fill="white" transform="translate(0.333008 0.600098)"/>
</clipPath>
</defs>
</svg>
