<svg width="89" height="26" viewBox="0 0 89 26" fill="none" xmlns="http://www.w3.org/2000/svg">
<path d="M18.3836 4.69988C18.7822 4.23362 19.0385 3.746 19.0385 3.22991C19.0385 2.36501 18.3231 1.81689 17.4475 1.81689C16.6324 1.81689 15.9562 2.34365 15.8281 3.22991L14.6357 2.94162C14.8635 1.48944 16.0487 0.574707 17.4404 0.574707C19.003 0.574707 20.2451 1.63892 20.2451 3.21924C20.2451 4.08413 19.8465 4.87072 19.2699 5.53631C18.1167 6.87815 18.0883 6.92797 16.8425 8.39796H20.2736V9.62944H14.7425V9.10268L18.3836 4.69988Z" fill="#9FADBC"/>
<path d="M14.7638 15.6656L14.7745 11.1702H24.5269C24.6266 11.7967 24.6763 12.4445 24.6763 13.0887C24.6763 19.8904 19.1381 25.4251 12.3399 25.4251C5.53821 25.4358 0 19.9011 0 13.0993C0 6.29762 5.53821 0.762976 12.3364 0.762976V5.11594C7.93358 5.11594 4.35298 8.69655 4.35298 13.0993C4.35298 17.5022 7.93358 21.0828 12.3364 21.0828C15.8351 21.0828 18.8285 18.8155 19.9034 15.6656M33.8022 12.5619C33.8022 9.31231 34.0016 7.98826 34.539 7.19455C35.2152 6.20152 36.5179 5.6534 38.2192 5.6534C39.7213 5.6534 40.9741 6.09119 41.6397 6.87778C42.1451 7.43301 42.3552 8.20893 42.3552 9.43332V10.1701H39.6003C39.5611 8.77842 39.5219 8.52927 39.3227 8.23029C39.1056 7.89216 38.6856 7.68216 38.1802 7.68216C37.632 7.68216 37.187 7.92064 36.9984 8.28012C36.7208 8.83536 36.639 9.86043 36.639 12.5441C36.639 14.7615 36.7386 16.0535 36.9166 16.6017C37.0768 17.0572 37.5323 17.3171 38.141 17.3171C39.2158 17.3171 39.5114 16.7689 39.6038 14.7224H42.348C42.3267 16.4522 42.227 17.1569 41.8603 17.8332C41.355 18.8084 40.0203 19.3529 38.1018 19.3529C35.8666 19.3529 34.5141 18.5272 34.0656 16.9363C33.8912 16.292 33.8022 14.7295 33.8022 12.5619ZM43.9354 5.8634H48.1994C50.2459 5.8634 50.6162 5.94168 51.3315 6.51829C51.9686 7.04506 52.2854 7.90996 52.2854 9.19128C52.2854 10.2662 52.0683 11.0919 51.6483 11.6472C51.2888 12.1348 50.8546 12.3448 49.9186 12.5512C51.6982 12.7683 52.3139 13.6048 52.3352 15.8435C52.3352 16.203 52.3744 16.9363 52.4136 17.851C52.4528 18.4881 52.4741 18.6056 52.6307 19.1643H49.6979C49.5768 18.2995 49.5768 18.278 49.5768 16.648C49.5768 15.0463 49.4558 14.2525 49.139 13.8931C48.9219 13.6546 48.6835 13.5941 47.9752 13.5941H46.644V19.1715H43.9283L43.9354 5.8634ZM47.7616 11.6294C49.0038 11.6294 49.4523 11.1026 49.4523 9.71095C49.4523 8.97418 49.253 8.37978 48.9254 8.09148C48.687 7.89216 48.5091 7.85301 47.8328 7.85301H46.6298V11.6294H47.7616ZM54.0152 12.4943C54.0152 9.39061 54.1541 8.31927 54.6915 7.38319C55.3286 6.24067 56.6491 5.6534 58.5283 5.6534C60.607 5.6534 62.0165 6.42932 62.5646 7.88861C62.8422 8.60402 62.9632 10.0064 62.9632 12.5619C62.9632 15.3559 62.8243 16.6764 62.4365 17.4345C61.7994 18.698 60.4397 19.3744 58.5498 19.3744C56.6598 19.3744 55.3571 18.7977 54.7022 17.6446C54.1648 16.7192 54.0152 15.6157 54.0152 12.4943ZM58.4893 17.3241C59.315 17.3241 59.8026 16.9256 59.9699 16.1425C60.0696 15.6371 60.1478 13.9073 60.1478 12.0458C60.1478 10.0491 60.0482 8.87452 59.8488 8.39757C59.6709 7.9598 59.1512 7.68216 58.4963 7.68216C57.7418 7.68216 57.215 8.02029 57.0656 8.5969C56.9267 9.15215 56.8485 10.5367 56.8485 12.6545C56.8485 14.4127 56.909 15.5659 57.0086 16.1247C57.1581 16.9256 57.6421 17.3241 58.4893 17.3241ZM63.8566 5.8634H66.6293L67.5333 10.7147C67.8501 12.4729 67.932 14.0746 68.0814 17.1355C68.6366 13.0602 68.8182 11.9248 69.0744 10.7147L70.128 5.8634H73.2387L74.2318 10.7147C74.6874 12.9321 74.787 14.4341 74.9294 17.1355C75.1074 14.879 75.289 13.2275 75.7232 10.7147L76.588 5.8634H79.0226L76.3389 19.175H73.3277L72.0714 12.989C71.8542 11.9141 71.5837 9.40128 71.5232 8.0381C71.1246 11.0314 71.1067 11.4585 70.7864 12.989L69.4944 19.1715H66.4122L63.8566 5.8634ZM80.2114 5.8634H83.9307C86.0877 5.8634 86.7461 5.9844 87.4189 6.46135C88.2624 7.07709 88.6824 8.15199 88.8603 10.2591C88.9208 11.0848 88.96 12.1384 88.96 13.0744C88.96 15.4698 88.7928 16.6444 88.4048 17.4275C87.8494 18.5521 86.5646 19.1857 84.9166 19.1857H80.2256L80.2114 5.8634ZM84.18 17.075C85.1338 17.075 85.6606 16.8579 85.8493 16.3596C86.0485 15.8329 86.1091 15.0676 86.1091 12.8894C86.1091 10.5118 86.0307 9.46891 85.8101 8.814C85.6107 8.25877 85.0733 7.94911 84.2475 7.94911H83.0054V17.075H84.18ZM29.7661 0.620605H28.8798V25.1865H29.7661V0.620605Z" fill="#9FADBC"/>
</svg>
