<svg width="121" height="26" viewBox="0 0 121 26" fill="none" xmlns="http://www.w3.org/2000/svg">
<path d="M31.5377 18.0632L28.4702 14.1146C30.4396 13.6535 31.8166 12.3679 31.8166 10.2369V10.2005C31.8166 9.13166 31.4257 8.18071 30.7656 7.51985C29.9219 6.67619 28.6008 6.17139 26.9524 6.17139H22.0862C21.6081 6.17139 21.1963 6.57923 21.1963 7.0799V18.6886C21.1963 19.1894 21.6081 19.5973 22.0862 19.5973C22.5851 19.5973 22.9942 19.1883 22.9942 18.6886V14.4522H26.4801L30.0897 19.1414C30.288 19.4058 30.5556 19.5973 30.9081 19.5973C31.3633 19.5973 31.8166 19.1853 31.8166 18.7064C31.8166 18.4635 31.7131 18.261 31.5377 18.0632ZM30.0001 10.2562L30.0003 10.2932H30.0001C30.0001 11.8739 28.6664 12.8025 26.8219 12.8025H22.9942V7.85807H26.8404C28.8232 7.85807 30.0001 8.74702 30.0001 10.2562Z" fill="#9FADBC"/>
<path d="M34.4385 18.5958C34.4385 19.096 34.8505 19.504 35.3286 19.504H43.5009C43.9642 19.504 44.3346 19.133 44.3346 18.6695C44.3346 18.2067 43.9644 17.8357 43.5009 17.8357H36.2366V13.6158H42.5722C43.0359 13.6158 43.4068 13.2455 43.4068 12.782C43.4068 12.3416 43.0359 11.9476 42.5722 11.9476H36.2366V7.84027H43.4082C43.8708 7.84027 44.2426 7.46931 44.2426 7.00583C44.2426 6.54236 43.8708 6.17139 43.4082 6.17139H35.3286C34.8506 6.17139 34.4385 6.57923 34.4385 7.08006V18.5958Z" fill="#9FADBC"/>
<path d="M51.8936 19.6528L51.9911 19.6525C52.4776 19.6442 52.7807 19.3701 52.973 18.9418L58.0095 7.30833C58.0543 7.19644 58.077 7.08455 58.077 6.95023C58.077 6.49265 57.6901 6.07861 57.1869 6.07861C56.7882 6.07861 56.4703 6.37964 56.3146 6.68973C56.3128 6.69324 56.3112 6.69673 56.3096 6.70039L51.9499 17.1436L47.6072 6.73741C47.4525 6.36073 47.1368 6.07861 46.6936 6.07861C46.1919 6.07861 45.7842 6.51362 45.7842 6.96804C45.7842 7.12682 45.8083 7.23967 45.8757 7.37477L50.8867 18.9383C51.0615 19.3738 51.3922 19.6528 51.8936 19.6528Z" fill="#9FADBC"/>
<path d="M60.4561 6.98711V18.6885C60.4561 19.1893 60.8681 19.5972 61.3461 19.5972C61.8449 19.5972 62.254 19.1882 62.254 18.6885V6.98711C62.254 6.4874 61.8449 6.07861 61.3461 6.07861C60.8681 6.07861 60.4561 6.48629 60.4561 6.98711Z" fill="#9FADBC"/>
<path d="M74.5351 6.17171L74.5135 6.17139H66.4334C65.9561 6.17139 65.5439 6.57923 65.5439 7.08006V18.5958C65.5439 19.096 65.9559 19.504 66.4334 19.504H74.6062C75.0691 19.504 75.4399 19.133 75.4399 18.6695C75.4399 18.2067 75.0691 17.8357 74.6062 17.8357H67.3419V13.6158H73.6771C74.1414 13.6158 74.5115 13.2455 74.5115 12.782C74.5115 12.3416 74.1414 11.9476 73.6771 11.9476H67.3419V7.84027H74.5135C74.9761 7.84027 75.3479 7.46931 75.3479 7.00583C75.3479 6.54967 74.9876 6.183 74.5351 6.17171Z" fill="#9FADBC"/>
<path d="M90.4634 19.6716H90.6159C91.0492 19.6623 91.3607 19.3655 91.5132 18.929C91.5125 18.9305 95.6737 7.37813 95.6737 7.37813C95.6741 7.37655 95.6746 7.37511 95.6753 7.37353C95.7167 7.24637 95.776 7.09618 95.776 6.96903C95.776 6.51365 95.3455 6.07959 94.8674 6.07959C94.4396 6.07959 94.1402 6.36282 94.0044 6.76812C94.005 6.76637 90.5628 16.6676 90.5628 16.6676L87.3165 6.76844C87.1821 6.3641 86.8842 6.07959 86.4357 6.07959V6.08103L86.3423 6.07959C85.8706 6.07959 85.5953 6.3641 85.4607 6.76844L82.2146 16.6673L78.7908 6.80277C78.6581 6.40495 78.3178 6.07959 77.8727 6.07959C77.3741 6.07959 76.9463 6.51159 76.9463 6.98762C76.9463 7.11684 76.9853 7.24589 77.0284 7.37433L81.19 18.9293C81.3431 19.3868 81.6548 19.6629 82.0873 19.6716H82.2397C82.6724 19.6623 82.9847 19.3653 83.1364 18.9287L86.3426 9.40018L89.5668 18.929C89.7192 19.3655 90.0316 19.6623 90.4634 19.6716Z" fill="#9FADBC"/>
<path d="M105.157 15.9581V15.9951C105.157 17.195 104.06 18.0403 102.425 18.0403C100.819 18.0403 99.6266 17.5534 98.4354 16.5441L98.4321 16.5411C98.3143 16.426 98.1064 16.3308 97.8751 16.3308C97.3948 16.3308 97.0029 16.7179 97.0029 17.2209C97.0029 17.519 97.1434 17.7708 97.3484 17.9115C98.8264 19.0843 100.437 19.6899 102.37 19.6899C105.056 19.6899 106.974 18.1652 106.974 15.8468V15.809C106.974 13.7491 105.612 12.6252 102.609 11.9704C102.609 11.9704 102.609 11.9703 102.608 11.9703C99.8802 11.3854 99.2103 10.7755 99.2103 9.6057V9.56867C99.2103 8.47643 100.235 7.63547 101.812 7.63547C102.985 7.63547 104.013 7.96131 105.077 8.73677C105.077 8.73709 105.077 8.73725 105.078 8.73757C105.236 8.85138 105.396 8.89842 105.601 8.89842C106.082 8.89842 106.472 8.50933 106.472 8.02694C106.472 7.68762 106.272 7.43696 106.09 7.30043C106.089 7.29979 106.089 7.29901 106.088 7.29837C104.871 6.42403 103.599 5.98584 101.849 5.98584C99.2753 5.98584 97.4116 7.57016 97.4116 9.69901L97.5772 9.86461L97.4116 9.70011V9.73461L97.5772 9.90101L97.4116 9.73555C97.4116 11.9479 98.8105 12.9768 101.907 13.6496C101.908 13.6496 101.908 13.6498 101.908 13.6498C104.507 14.1983 105.157 14.8088 105.157 15.9581Z" fill="#9FADBC"/>
<path d="M109.021 17.7702L109.005 17.77C108.656 17.77 108.407 18.0201 108.407 18.3574V18.5654C108.407 18.9022 108.657 19.1635 109.005 19.1635C109.342 19.1635 109.593 18.9028 109.593 18.5654C109.593 18.6203 109.548 18.6647 109.493 18.6647C109.493 18.6647 109.593 18.6535 109.593 18.5607V18.3574C109.593 18.0247 109.35 17.7777 109.021 17.7702ZM108.515 18.6633C108.51 18.6644 108.507 18.6647 108.507 18.6647C108.51 18.6647 108.513 18.6647 108.516 18.6644L108.515 18.6633Z" fill="#9FADBC"/>
<path d="M111.14 13.9938V18.6581C111.14 18.9425 111.361 19.1627 111.644 19.1627C111.93 19.1627 112.139 18.9432 112.139 18.6581V13.9938C112.139 13.7085 111.919 13.4891 111.634 13.4891C111.362 13.4891 111.14 13.7218 111.14 13.9938ZM111.068 12.0925C111.068 12.3975 111.317 12.6177 111.634 12.6177C111.964 12.6177 112.211 12.3969 112.211 12.0925V11.958C112.211 11.6407 111.964 11.4321 111.634 11.4321C111.317 11.4321 111.067 11.64 111.067 11.958L111.068 12.0925Z" fill="#9FADBC"/>
<path fill-rule="evenodd" clip-rule="evenodd" d="M119.266 16.334L119.266 16.3114C119.266 14.7401 118.04 13.4272 116.372 13.4272C114.694 13.4272 113.468 14.7617 113.468 16.3319L113.488 16.3525L113.468 16.3325V16.3525C113.468 17.9233 114.684 19.2359 116.351 19.2359C118.029 19.2359 119.265 17.9031 119.266 16.334ZM118.247 16.3525V16.3319C118.247 15.2349 117.429 14.3319 116.351 14.3319C115.245 14.3319 114.487 15.2346 114.487 16.3114V16.3319C114.487 17.4287 115.295 18.3201 116.372 18.3201C117.478 18.3201 118.247 17.4292 118.247 16.3525Z" fill="#9FADBC"/>
<path d="M1.99121 12.8801C1.99121 17.3391 5.60647 20.9543 10.0654 20.9543C14.5251 20.9543 18.1401 17.3391 18.1401 12.8801C18.1401 8.42042 14.5251 4.80518 10.0654 4.80518C5.60647 4.80518 1.99121 8.42042 1.99121 12.8801ZM7.61118 14.3405C7.69606 14.0719 7.60164 13.7791 7.37595 13.6105C6.77833 13.1642 5.60011 12.2843 4.80843 11.693C4.69415 11.6077 4.64742 11.4587 4.69239 11.3233C4.73739 11.1879 4.8639 11.0967 5.00663 11.0967H8.07513C8.36075 11.0967 8.61409 10.9136 8.7039 10.6426C8.9458 9.91193 9.4266 8.45985 9.74543 7.4973C9.79025 7.36204 9.91662 7.2705 10.0592 7.27034C10.2018 7.27018 10.3286 7.36126 10.3737 7.49634C10.6959 8.45969 11.1824 9.91415 11.4267 10.6445C11.5171 10.9145 11.77 11.0967 12.0548 11.0967C12.7807 11.0967 14.1791 11.0967 15.1311 11.0967C15.2734 11.0967 15.3999 11.1876 15.445 11.3227C15.4902 11.4578 15.4441 11.6066 15.3303 11.6922C14.541 12.2868 13.3621 13.1746 12.7658 13.6238C12.5414 13.7928 12.4481 14.0851 12.5328 14.3527C12.7634 15.081 13.2259 16.5415 13.5384 17.528C13.5819 17.6658 13.5311 17.8162 13.4127 17.8991C13.2943 17.9821 13.1358 17.9788 13.021 17.8908C12.2281 17.282 11.0696 16.3927 10.4629 15.9272C10.2243 15.7441 9.89246 15.7446 9.65452 15.9286C9.05372 16.393 7.91094 17.2767 7.12467 17.8847C7.01023 17.9732 6.85145 17.9772 6.73271 17.8943C6.61399 17.8114 6.56281 17.661 6.60636 17.5231C6.91884 16.5337 7.38071 15.0706 7.61118 14.3405Z" fill="#9FADBC"/>
</svg>
