<svg width="186" height="48" viewBox="0 0 186 48" fill="none" xmlns="http://www.w3.org/2000/svg">
<path fill-rule="evenodd" clip-rule="evenodd" d="M5.8521 0H39.6326C42.4542 0 44.7416 2.21699 44.7416 4.95191V27.7914C44.7416 30.5263 42.4542 32.7433 39.6326 32.7433H5.8521C3.03052 32.7433 0.743164 30.5263 0.743164 27.7914V4.95191C0.743436 2.21699 3.03079 0 5.8521 0Z" fill="white"/>
<path d="M15.8299 18.0284C15.8299 12.9818 15.8299 0.0196554 15.8299 0.0196554H5.85179C2.91396 1.83098e-05 0.741211 2.24956 0.741211 5.04907V27.8888C0.741211 30.371 2.62608 32.4266 5.08482 32.7849H8.7095V32.8405V48L19.7188 32.8405C19.7188 32.8405 24.1672 26.7151 26.8682 22.9957C26.9503 22.8835 27.0456 22.7821 27.1086 22.6651C27.9204 21.1521 27.4353 20.2099 25.909 20.2099C25.7973 20.2099 25.6838 20.2099 25.5687 20.2099C23.2536 20.2099 20.2281 20.2099 18.1963 20.2099C16.3777 20.2097 15.8299 19.5713 15.8299 18.0284Z" fill="#E0E0E0"/>
<path d="M181.864 24.0753L182.097 28.0616C181.495 28.3523 180.725 28.4977 179.79 28.4977C177.919 28.4977 176.407 27.9371 175.253 26.8159C174.11 25.6844 173.538 24.122 173.538 22.1289V16.8657H170.623V12.5835H173.538V8.47266H178.044V12.5835H181.895V16.8657H178.044V21.8953C178.044 22.6116 178.278 23.1929 178.746 23.6393C179.213 24.0753 179.785 24.2933 180.46 24.2933C180.98 24.2933 181.448 24.2207 181.864 24.0753Z" fill="white"/>
<path d="M163.639 28.5593C160.791 28.5593 158.447 27.9053 156.607 26.5973L157.948 23.4674C159.424 24.5678 161.191 25.118 163.249 25.118C163.945 25.118 164.501 24.9986 164.917 24.7599C165.343 24.5211 165.556 24.2149 165.556 23.8411C165.556 23.5193 165.395 23.2546 165.073 23.047C164.761 22.829 164.356 22.6577 163.857 22.5331C163.358 22.4086 162.807 22.284 162.204 22.1594C161.601 22.0245 160.999 21.8532 160.396 21.6455C159.793 21.4275 159.242 21.1628 158.743 20.8514C158.244 20.5296 157.834 20.0832 157.512 19.5122C157.2 18.9309 157.039 18.251 157.028 17.4724C157.008 15.9983 157.59 14.7629 158.774 13.7664C159.959 12.7698 161.472 12.2715 163.311 12.2715C165.795 12.2715 167.786 12.8684 169.282 14.0622L168.004 17.3167C167.38 16.8495 166.616 16.4602 165.712 16.1488C164.818 15.8374 163.956 15.6817 163.124 15.6817C162.552 15.6817 162.09 15.801 161.737 16.0398C161.383 16.2786 161.207 16.5744 161.207 16.9274C161.207 17.1973 161.331 17.436 161.581 17.6437C161.83 17.8409 162.152 18.0018 162.547 18.1264C162.953 18.251 163.41 18.3911 163.919 18.5468C164.439 18.6921 164.964 18.8375 165.494 18.9828C166.024 19.1282 166.544 19.3306 167.053 19.5901C167.572 19.8496 168.035 20.1455 168.44 20.4777C168.846 20.7995 169.173 21.2251 169.423 21.7545C169.682 22.284 169.817 22.8861 169.828 23.5608C169.828 25.0142 169.246 26.2132 168.082 27.1579C166.928 28.0922 165.447 28.5593 163.639 28.5593Z" fill="white"/>
<path d="M149.794 12.5829H154.299V28.2479H149.794V26.0211C148.651 27.7133 146.988 28.5593 144.805 28.5593C143.475 28.5593 142.248 28.196 141.126 27.4693C140.014 26.7323 139.135 25.7409 138.491 24.4951C137.847 23.239 137.524 21.8739 137.524 20.3998C137.524 18.9257 137.847 17.5658 138.491 16.3201C139.135 15.064 140.014 14.0778 141.126 13.3615C142.248 12.6348 143.475 12.2715 144.805 12.2715C146.988 12.2715 148.651 13.1227 149.794 14.8252V12.5829ZM145.865 24.2616C146.967 24.2616 147.897 23.893 148.656 23.156C149.414 22.4086 149.794 21.4898 149.794 20.3998C149.794 19.3202 149.414 18.4067 148.656 17.6592C147.897 16.9118 146.967 16.5381 145.865 16.5381C144.784 16.5381 143.859 16.917 143.09 17.6748C142.321 18.4222 141.936 19.3306 141.936 20.3998C141.936 21.4795 142.316 22.393 143.075 23.1404C143.844 23.8879 144.774 24.2616 145.865 24.2616Z" fill="white"/>
<path d="M135.156 5.91895V28.2485H130.65V5.91895H135.156Z" fill="white"/>
<path d="M111.956 28.2485V5.91895H120.344C122.266 5.91895 123.909 6.50547 125.27 7.67853C126.632 8.8412 127.312 10.2323 127.312 11.8517C127.312 12.8587 127.016 13.8033 126.424 14.6857C125.842 15.5577 125.104 16.1443 124.21 16.4453C125.405 16.6841 126.387 17.3069 127.156 18.3139C127.936 19.3208 128.326 20.5043 128.326 21.8642C128.326 23.6497 127.64 25.1602 126.268 26.3955C124.896 27.6309 123.243 28.2485 121.31 28.2485H111.956ZM116.68 14.9193H120.125C120.79 14.9193 121.352 14.7013 121.809 14.2653C122.277 13.8189 122.511 13.2843 122.511 12.6614C122.511 12.0386 122.282 11.5143 121.825 11.0887C121.367 10.6631 120.801 10.4503 120.125 10.4503H116.68V14.9193ZM116.68 23.7172H120.889C121.617 23.7172 122.235 23.4681 122.744 22.9698C123.254 22.4611 123.508 21.8486 123.508 21.1323C123.508 20.416 123.254 19.8036 122.744 19.2949C122.246 18.7758 121.648 18.5163 120.952 18.5163H116.68V23.7172Z" fill="white"/>
<path d="M109.12 24.0753L109.354 28.0616C108.751 28.3523 107.982 28.4977 107.047 28.4977C105.176 28.4977 103.664 27.9371 102.51 26.8159C101.367 25.6844 100.795 24.122 100.795 22.1289V16.8657H97.8799V12.5835H100.795V8.47266H105.301V12.5835H109.152V16.8657H105.301V21.8953C105.301 22.6116 105.535 23.1929 106.002 23.6393C106.47 24.0753 107.042 24.2933 107.717 24.2933C108.237 24.2933 108.705 24.2207 109.12 24.0753Z" fill="white"/>
<path d="M91.7999 5.80972C92.3404 5.26991 92.9848 5 93.7331 5C94.4814 5 95.1258 5.26991 95.6663 5.80972C96.2068 6.33915 96.477 6.97239 96.477 7.70945C96.477 8.45688 96.2068 9.1005 95.6663 9.64032C95.1258 10.1801 94.4814 10.45 93.7331 10.45C92.9848 10.45 92.3404 10.1801 91.7999 9.64032C91.2595 9.1005 90.9893 8.45688 90.9893 7.70945C90.9893 6.97239 91.2595 6.33915 91.7999 5.80972ZM91.4881 12.5833H95.9937V28.2483H91.4881V12.5833Z" fill="white"/>
<path d="M88.9776 19.7302C88.9776 20.3635 88.936 20.95 88.8528 21.4898H77.5812C77.789 22.5487 78.2411 23.3584 78.9375 23.919C79.6339 24.4692 80.5225 24.7443 81.6034 24.7443C82.3102 24.7443 82.9858 24.5938 83.6301 24.2927C84.2849 23.9917 84.7474 23.6076 85.0177 23.1404L88.5255 25.2893C87.9538 26.3274 87.0496 27.1319 85.8128 27.7029C84.5759 28.2738 83.1417 28.5593 81.5099 28.5593C79.2025 28.5593 77.2486 27.7704 75.648 26.1924C74.0578 24.6041 73.2627 22.6525 73.2627 20.3375C73.2627 18.0641 74.0474 16.154 75.6168 14.6072C77.1966 13.0501 79.1298 12.2715 81.4163 12.2715C83.5366 12.2715 85.3243 12.993 86.7794 14.4359C88.2448 15.8789 88.9776 17.6437 88.9776 19.7302ZM77.6435 18.6247H84.472C84.3785 17.8461 84.0147 17.1973 83.3807 16.6782C82.7467 16.1592 82.014 15.8997 81.1825 15.8997C80.2471 15.8997 79.478 16.1384 78.8751 16.6159C78.2723 17.0935 77.8618 17.763 77.6435 18.6247Z" fill="white"/>
<path d="M55.3804 5.91895H71.9527V9.11111L61.1955 23.7172H72.0463V28.2485H54.7412V25.0564L65.5296 10.4503H55.3804V5.91895Z" fill="white"/>
</svg>
