<svg width="32" height="34" viewBox="0 0 32 34" fill="none" xmlns="http://www.w3.org/2000/svg">
<path d="M27.7428 14.9947C24.6259 14.3404 22.2047 11.8538 21.5608 8.68662C21.5351 8.5296 21.4062 8.4248 21.2259 8.4248C21.0713 8.4248 20.9425 8.52942 20.8909 8.68662C20.247 11.8539 17.8 14.3404 14.7089 14.9947C14.5544 15.0208 14.4512 15.1517 14.4512 15.3351C14.4512 15.4921 14.5542 15.623 14.7089 15.6754C17.8258 16.3297 20.247 18.8163 20.8909 21.9573C20.9166 22.1143 21.0455 22.2191 21.2259 22.2191C21.3804 22.2191 21.5092 22.1145 21.5608 21.9573C22.2047 18.7901 24.6517 16.3297 27.7428 15.6754C27.8973 15.6493 28.0005 15.5184 28.0005 15.3351C28.0005 15.1517 27.8975 15.0208 27.7428 14.9947Z" fill="white"/>
<path d="M17.3624 22.3764C14.8638 21.853 12.9062 19.8635 12.391 17.2985C12.3653 17.1676 12.2622 17.0891 12.1334 17.0891C12.0045 17.0891 11.9016 17.1676 11.8757 17.2985C11.3606 19.8636 9.40281 21.853 6.90433 22.3764C6.7755 22.4025 6.69824 22.5073 6.69824 22.6382C6.69824 22.7691 6.7755 22.8738 6.90433 22.9C9.4029 23.4235 11.3605 25.4129 11.8757 27.9518C11.9014 28.0827 12.0045 28.1612 12.1334 28.1612C12.2622 28.1612 12.3652 28.0827 12.391 27.9518C12.9062 25.4128 14.8639 23.4236 17.3624 22.9C17.4912 22.8739 17.5685 22.7691 17.5685 22.6382C17.5685 22.5073 17.4912 22.4027 17.3624 22.3764Z" fill="white"/>
<path d="M8.47561 16.3823C8.52717 16.5394 8.656 16.6442 8.81052 16.6442C8.96504 16.6442 9.11957 16.5395 9.14544 16.3823C9.68646 14.0528 11.5409 12.1943 13.8077 11.6447C13.9622 11.5923 14.0654 11.4614 14.0654 11.3044C14.0654 11.1474 13.9624 10.9904 13.8077 10.9641C11.4895 10.3882 9.68627 8.55602 9.14544 6.2003C9.11974 6.04328 8.96504 5.93848 8.81052 5.93848C8.656 5.93848 8.50147 6.0431 8.47561 6.2003C7.90892 8.55593 6.13154 10.3883 3.81332 10.9641C3.6588 11.0165 3.55566 11.1474 3.55566 11.3044C3.55566 11.4614 3.65862 11.6184 3.81332 11.6447C6.08011 12.1943 7.90887 14.0528 8.47561 16.3823Z" fill="white"/>
</svg>
