<svg width="97" height="16" viewBox="0 0 97 16" fill="none" xmlns="http://www.w3.org/2000/svg">
<mask id="mask0_4196_73125" style="mask-type:alpha" maskUnits="userSpaceOnUse" x="0" y="0" width="17" height="16">
<g clip-path="url(#clip0_4196_73125)">
<path d="M8.3405 0.336564C8.38174 0.243393 8.44914 0.164203 8.53453 0.108616C8.61992 0.0530288 8.71961 0.0234375 8.8215 0.0234375C8.92339 0.0234375 9.02308 0.0530288 9.10847 0.108616C9.19386 0.164203 9.26127 0.243393 9.3025 0.336564L11.3495 4.68256C11.3864 4.76279 11.4425 4.83273 11.5128 4.88626C11.583 4.93978 11.6653 4.97525 11.7525 4.98956L16.3305 5.69156C16.7705 5.75856 16.9455 6.32556 16.6275 6.65056L13.3155 10.0306C13.2528 10.0958 13.2061 10.1748 13.1794 10.2613C13.1527 10.3478 13.1465 10.4393 13.1615 10.5286L13.9425 15.3046C14.0175 15.7636 13.5575 16.1146 13.1645 15.8966L9.0715 13.6406C8.99502 13.5981 8.90898 13.5758 8.8215 13.5758C8.73402 13.5758 8.64798 13.5981 8.5715 13.6406L4.4795 15.8966C4.0855 16.1136 3.6255 15.7636 3.7005 15.3046L4.4825 10.5286C4.49734 10.4392 4.49105 10.3476 4.46414 10.2612C4.43722 10.1747 4.39043 10.0957 4.3275 10.0306L1.0165 6.65056C0.697502 6.32556 0.873502 5.75856 1.3125 5.69056L5.8905 4.99056C5.97797 4.97639 6.0606 4.94087 6.13106 4.88715C6.20153 4.83342 6.25767 4.76316 6.2945 4.68256L8.3405 0.336564Z" fill="#FFD549"/>
</g>
</mask>
<g mask="url(#mask0_4196_73125)">
<rect x="0.828125" width="16" height="16" fill="#FFC000"/>
</g>
<mask id="mask1_4196_73125" style="mask-type:alpha" maskUnits="userSpaceOnUse" x="20" y="0" width="17" height="16">
<g clip-path="url(#clip1_4196_73125)">
<path d="M28.3405 0.336564C28.3817 0.243393 28.4491 0.164203 28.5345 0.108616C28.6199 0.0530288 28.7196 0.0234375 28.8215 0.0234375C28.9234 0.0234375 29.0231 0.0530288 29.1085 0.108616C29.1939 0.164203 29.2613 0.243393 29.3025 0.336564L31.3495 4.68256C31.3864 4.76279 31.4425 4.83273 31.5128 4.88626C31.583 4.93978 31.6653 4.97525 31.7525 4.98956L36.3305 5.69156C36.7705 5.75856 36.9455 6.32556 36.6275 6.65056L33.3155 10.0306C33.2528 10.0958 33.2061 10.1748 33.1794 10.2613C33.1527 10.3478 33.1465 10.4393 33.1615 10.5286L33.9425 15.3046C34.0175 15.7636 33.5575 16.1146 33.1645 15.8966L29.0715 13.6406C28.995 13.5981 28.909 13.5758 28.8215 13.5758C28.734 13.5758 28.648 13.5981 28.5715 13.6406L24.4795 15.8966C24.0855 16.1136 23.6255 15.7636 23.7005 15.3046L24.4825 10.5286C24.4973 10.4392 24.4911 10.3476 24.4641 10.2612C24.4372 10.1747 24.3904 10.0957 24.3275 10.0306L21.0165 6.65056C20.6975 6.32556 20.8735 5.75856 21.3125 5.69056L25.8905 4.99056C25.978 4.97639 26.0606 4.94087 26.1311 4.88715C26.2015 4.83342 26.2577 4.76316 26.2945 4.68256L28.3405 0.336564Z" fill="#FFD549"/>
</g>
</mask>
<g mask="url(#mask1_4196_73125)">
<rect x="20.8281" width="16" height="16" fill="#FFC000"/>
</g>
<mask id="mask2_4196_73125" style="mask-type:alpha" maskUnits="userSpaceOnUse" x="40" y="0" width="17" height="16">
<g clip-path="url(#clip2_4196_73125)">
<path d="M48.3405 0.336564C48.3817 0.243393 48.4491 0.164203 48.5345 0.108616C48.6199 0.0530288 48.7196 0.0234375 48.8215 0.0234375C48.9234 0.0234375 49.0231 0.0530288 49.1085 0.108616C49.1939 0.164203 49.2613 0.243393 49.3025 0.336564L51.3495 4.68256C51.3864 4.76279 51.4425 4.83273 51.5128 4.88626C51.583 4.93978 51.6653 4.97525 51.7525 4.98956L56.3305 5.69156C56.7705 5.75856 56.9455 6.32556 56.6275 6.65056L53.3155 10.0306C53.2528 10.0958 53.2061 10.1748 53.1794 10.2613C53.1527 10.3478 53.1465 10.4393 53.1615 10.5286L53.9425 15.3046C54.0175 15.7636 53.5575 16.1146 53.1645 15.8966L49.0715 13.6406C48.995 13.5981 48.909 13.5758 48.8215 13.5758C48.734 13.5758 48.648 13.5981 48.5715 13.6406L44.4795 15.8966C44.0855 16.1136 43.6255 15.7636 43.7005 15.3046L44.4825 10.5286C44.4973 10.4392 44.4911 10.3476 44.4641 10.2612C44.4372 10.1747 44.3904 10.0957 44.3275 10.0306L41.0165 6.65056C40.6975 6.32556 40.8735 5.75856 41.3125 5.69056L45.8905 4.99056C45.978 4.97639 46.0606 4.94087 46.1311 4.88715C46.2015 4.83342 46.2577 4.76316 46.2945 4.68256L48.3405 0.336564Z" fill="#FFD549"/>
</g>
</mask>
<g mask="url(#mask2_4196_73125)">
<rect x="40.8281" width="16" height="16" fill="#FFC000"/>
</g>
<mask id="mask3_4196_73125" style="mask-type:alpha" maskUnits="userSpaceOnUse" x="60" y="0" width="17" height="16">
<g clip-path="url(#clip3_4196_73125)">
<path d="M68.3405 0.336564C68.3817 0.243393 68.4491 0.164203 68.5345 0.108616C68.6199 0.0530288 68.7196 0.0234375 68.8215 0.0234375C68.9234 0.0234375 69.0231 0.0530288 69.1085 0.108616C69.1939 0.164203 69.2613 0.243393 69.3025 0.336564L71.3495 4.68256C71.3864 4.76279 71.4425 4.83273 71.5128 4.88626C71.583 4.93978 71.6653 4.97525 71.7525 4.98956L76.3305 5.69156C76.7705 5.75856 76.9455 6.32556 76.6275 6.65056L73.3155 10.0306C73.2528 10.0958 73.2061 10.1748 73.1794 10.2613C73.1527 10.3478 73.1465 10.4393 73.1615 10.5286L73.9425 15.3046C74.0175 15.7636 73.5575 16.1146 73.1645 15.8966L69.0715 13.6406C68.995 13.5981 68.909 13.5758 68.8215 13.5758C68.734 13.5758 68.648 13.5981 68.5715 13.6406L64.4795 15.8966C64.0855 16.1136 63.6255 15.7636 63.7005 15.3046L64.4825 10.5286C64.4973 10.4392 64.4911 10.3476 64.4641 10.2612C64.4372 10.1747 64.3904 10.0957 64.3275 10.0306L61.0165 6.65056C60.6975 6.32556 60.8735 5.75856 61.3125 5.69056L65.8905 4.99056C65.978 4.97639 66.0606 4.94087 66.1311 4.88715C66.2015 4.83342 66.2577 4.76316 66.2945 4.68256L68.3405 0.336564Z" fill="#FFD549"/>
</g>
</mask>
<g mask="url(#mask3_4196_73125)">
<rect x="60.8281" width="16" height="16" fill="#FFC000"/>
</g>
<mask id="mask4_4196_73125" style="mask-type:alpha" maskUnits="userSpaceOnUse" x="80" y="0" width="17" height="16">
<g clip-path="url(#clip4_4196_73125)">
<path d="M88.3405 0.336564C88.3817 0.243393 88.4491 0.164203 88.5345 0.108616C88.6199 0.0530288 88.7196 0.0234375 88.8215 0.0234375C88.9234 0.0234375 89.0231 0.0530288 89.1085 0.108616C89.1939 0.164203 89.2613 0.243393 89.3025 0.336564L91.3495 4.68256C91.3864 4.76279 91.4425 4.83273 91.5128 4.88626C91.583 4.93978 91.6653 4.97525 91.7525 4.98956L96.3305 5.69156C96.7705 5.75856 96.9455 6.32556 96.6275 6.65056L93.3155 10.0306C93.2528 10.0958 93.2061 10.1748 93.1794 10.2613C93.1527 10.3478 93.1465 10.4393 93.1615 10.5286L93.9425 15.3046C94.0175 15.7636 93.5575 16.1146 93.1645 15.8966L89.0715 13.6406C88.995 13.5981 88.909 13.5758 88.8215 13.5758C88.734 13.5758 88.648 13.5981 88.5715 13.6406L84.4795 15.8966C84.0855 16.1136 83.6255 15.7636 83.7005 15.3046L84.4825 10.5286C84.4973 10.4392 84.4911 10.3476 84.4641 10.2612C84.4372 10.1747 84.3904 10.0957 84.3275 10.0306L81.0165 6.65056C80.6975 6.32556 80.8735 5.75856 81.3125 5.69056L85.8905 4.99056C85.978 4.97639 86.0606 4.94087 86.1311 4.88715C86.2015 4.83342 86.2577 4.76316 86.2945 4.68256L88.3405 0.336564Z" fill="#FFD549"/>
</g>
</mask>
<g mask="url(#mask4_4196_73125)">
<rect x="80.8281" width="16" height="16" fill="url(#paint0_linear_4196_73125)"/>
</g>
<defs>
<linearGradient id="paint0_linear_4196_73125" x1="80.8281" y1="8" x2="96.8281" y2="8" gradientUnits="userSpaceOnUse">
<stop offset="0.3" stop-color="#FFCC00"/>
<stop offset="0.3" stop-color="#C8C8D0"/>
</linearGradient>
<clipPath id="clip0_4196_73125">
<rect width="16" height="16" fill="white" transform="translate(0.828125)"/>
</clipPath>
<clipPath id="clip1_4196_73125">
<rect width="16" height="16" fill="white" transform="translate(20.8281)"/>
</clipPath>
<clipPath id="clip2_4196_73125">
<rect width="16" height="16" fill="white" transform="translate(40.8281)"/>
</clipPath>
<clipPath id="clip3_4196_73125">
<rect width="16" height="16" fill="white" transform="translate(60.8281)"/>
</clipPath>
<clipPath id="clip4_4196_73125">
<rect width="16" height="16" fill="white" transform="translate(80.8281)"/>
</clipPath>
</defs>
</svg>
