<svg width="40" height="40" viewBox="0 0 40 40" fill="none" xmlns="http://www.w3.org/2000/svg">
<path fill-rule="evenodd" clip-rule="evenodd" d="M5.99383 0H34.0026C36.3421 0 38.2386 1.84749 38.2386 4.12659V23.1595C38.2386 25.4386 36.3421 27.2861 34.0026 27.2861H5.99383C3.65435 27.2861 1.75781 25.4386 1.75781 23.1595V4.12659C1.75804 1.84749 3.65457 0 5.99383 0Z" fill="url(#paint0_linear_4717_141910)"/>
<path d="M14.2684 15.023C14.2684 10.8175 14.2684 0.0157284 14.2684 0.0157284H5.99519C3.55932 -0.000635782 1.75781 1.87398 1.75781 4.20691V23.24C1.75781 25.3085 3.32063 27.0215 5.35926 27.3201H8.36463V27.3664V39.9994L17.4929 27.3664C17.4929 27.3664 21.1812 22.2619 23.4207 19.1624C23.4888 19.0689 23.5678 18.9844 23.62 18.8869C24.2931 17.6261 23.8909 16.841 22.6254 16.841C22.5328 16.841 22.4387 16.841 22.3432 16.841C20.4237 16.841 17.9151 16.841 16.2305 16.841C14.7226 16.8407 14.2684 16.3088 14.2684 15.023Z" fill="url(#paint1_linear_4717_141910)"/>
<defs>
<linearGradient id="paint0_linear_4717_141910" x1="2.24814" y1="1.21789" x2="36.8795" y2="26.4917" gradientUnits="userSpaceOnUse">
<stop stop-color="#32F0B5"/>
<stop offset="1" stop-color="#06AB78"/>
</linearGradient>
<linearGradient id="paint1_linear_4717_141910" x1="0.471287" y1="4.09167" x2="23.2218" y2="38.8245" gradientUnits="userSpaceOnUse">
<stop stop-color="#17566F"/>
<stop offset="1" stop-color="#012635"/>
</linearGradient>
</defs>
</svg>
